<?xml version="1.0" encoding="UTF-8"?>
<svg width="25px" height="22px" viewBox="0 0 25 22" version="1.1" xmlns="http://www.w3.org/2000/svg" xmlns:xlink="http://www.w3.org/1999/xlink">
    <!-- Generator: Sketch 55.2 (78181) - https://sketchapp.com -->
    <title>icn_cycling</title>
    <desc>Created with Sketch.</desc>
    <g id="Page-1" stroke="none" stroke-width="1" fill="none" fill-rule="evenodd">
        <g id="Sports-Overview" transform="translate(-32.000000, -505.000000)" fill="#4D6ED3" fill-rule="nonzero">
            <g id="icn_cycling" transform="translate(32.000000, 505.000000)">
                <path d="M6.97467799,19.7017493 C6.39692485,20.1672921 5.68279601,20.4553847 4.89920111,20.4553847 C3.01083523,20.4553847 1.47422425,18.8454039 1.47422425,16.8668727 C1.47422425,14.8879294 3.01083523,13.2778971 4.89920111,13.2778971 C6.32441074,13.2778971 7.54672833,14.1960538 8.06209475,15.4962565 L9.13461538,14.3308027 C8.2900103,12.7862389 6.71987077,11.7333333 4.89920111,11.7333333 C2.19302349,11.7333333 0,14.031584 0,16.8668727 C0,19.7017493 2.19302349,22 4.89920111,22 C6.17240149,22 7.32117256,21.4786209 8.19262016,20.643961 C7.85817031,20.5263648 7.5409272,20.3397974 7.26984731,20.066282 C7.15800351,19.9530641 7.06149828,19.8293898 6.97467799,19.7017493 Z" id="XMLID_512_"></path>
                <path d="M14.7461151,11.9646404 L12.0575244,10.3671201 C13.2565353,9.5994243 12.8119439,9.88374642 14.0110057,9.11599851 L13.9732517,9.50675249 C13.9085449,10.1717692 14.3876296,10.7803384 14.990778,10.9053776 C15.0051969,10.9084006 19.7105491,11.7265499 19.8821493,11.7265499 C20.4933988,11.7265499 21.0330632,11.2747618 21.1363902,10.6372652 C21.2517924,9.92752838 20.7828468,9.2568826 20.0890581,9.13945313 L16.6250054,8.55074215 L16.7897274,6.859664 C16.955774,5.77903145 17.0278686,5.44019036 16.6334631,4.79550102 L16.1376158,3.98454449 C15.4970191,2.93794719 14.1462785,2.61792192 13.120753,3.27475554 L7.69379322,6.7506782 C6.36088522,7.60442639 5.71086266,9.40454246 6.79905688,10.7287382 C7.22418529,11.2461993 11.3575706,13.8446064 11.3575706,13.8446064 L8.00999012,17.3968347 C7.42411385,18.0180173 7.44153881,19.007646 8.04927272,19.6064685 C8.34570094,19.8989216 8.72767454,20.0444444 9.10959718,20.0444444 C9.51001475,20.0444444 9.90987186,19.8847445 10.2092552,19.5661787 L15.0782594,14.4006894 C15.7651699,13.6735961 15.6040654,12.4743875 14.7461151,11.9646404 Z" id="XMLID_513_"></path>
                <path d="M20.5061056,4.51650419 C21.6314486,3.79976992 21.9723756,2.29164973 21.26788,1.14792171 C20.5635289,0.0032140021 19.0803016,-0.34344595 17.9551031,0.372847463 C16.8302417,1.08914088 16.4893148,2.59672224 17.1933287,3.74045027 C17.8976316,4.88520696 19.3808588,5.23235675 20.5061056,4.51650419 Z" id="XMLID_514_"></path>
                <path d="M19.9518977,11.7333333 C17.1344736,11.7333333 14.9038462,14.0970011 14.9038462,16.8668727 C14.9038462,19.7017493 17.1636007,22 19.9518977,22 C22.7396882,22 25,19.7017493 25,16.8668727 C25,14.031584 22.7396882,11.7333333 19.9518977,11.7333333 Z M19.9518977,20.4553847 C18.0061584,20.4553847 16.4228612,18.8454039 16.4228612,16.8668727 C16.4228612,14.8879294 18.006209,13.2778971 19.9518977,13.2778971 C21.8976878,13.2778971 23.480985,14.8879294 23.480985,16.8668727 C23.480985,18.8454039 21.8976878,20.4553847 19.9518977,20.4553847 Z" id="XMLID_515_"></path>
            </g>
        </g>
    </g>
</svg>