<?xml version="1.0" encoding="UTF-8"?>
<svg width="30px" height="35px" viewBox="0 0 30 35" version="1.1" xmlns="http://www.w3.org/2000/svg" xmlns:xlink="http://www.w3.org/1999/xlink">
    <!-- Generator: Sketch 55.2 (78181) - https://sketchapp.com -->
    <title>icn_login</title>
    <desc>Created with Sketch.</desc>
    <g id="Page-1" stroke="none" stroke-width="1" fill="none" fill-rule="evenodd">
        <g id="Menu" transform="translate(-58.000000, -243.000000)" fill-rule="nonzero">
            <g id="icn_login" transform="translate(58.000000, 243.000000)">
                <path d="M18.9395523,2.98164371 C15.7998276,-0.24272917 10.640297,-0.268631016 7.46799471,2.90367123 C4.32132723,6.05033871 4.32132723,11.1519242 7.46799471,14.2985916 C8.22902678,15.0598908 9.10488127,15.636673 10.0397492,16.0294723 C10.3559113,16.1621857 10.5641937,16.4684677 10.5641937,16.8115998 L10.5641937,33.8480378 C10.5641937,34.2947769 11.0103988,34.6039963 11.428566,34.4469833 L13.523674,33.6619186 C14.0294266,33.3772659 14.3904495,32.8939438 14.5285034,32.3299789 C14.8617554,30.9689331 15.766449,29.132843 15.766449,28.0489731 C15.766449,26.7205047 14.4072723,26.7205047 14.4072723,25.3920365 C14.4072723,24.0638351 15.766449,24.0638351 15.766449,22.7356339 C15.766449,21.4074325 14.4072723,21.4074325 14.4072723,20.0789642 C14.4072723,18.7507629 15.766449,18.7507629 15.766449,17.4225617 L15.766449,16.80439 C15.766449,16.4644622 15.9736633,16.1624527 16.2871551,16.0310745 C17.2599411,15.6227874 18.1689071,15.015564 18.9515686,14.2086029 C21.9711304,11.0945129 21.9657898,6.08932495 18.9395523,2.98164371 Z" id="Path" fill="#D3D3D3"></path>
                <path d="M16.3891602,6.75876619 C16.3891602,8.53931429 14.9456024,9.98260498 13.1653214,9.98260498 C11.3847733,9.98260498 9.94148258,8.53931429 9.94148258,6.75876619 C9.94148258,4.97848511 11.3847733,3.53519441 13.1653214,3.53519441 C14.9456024,3.53519441 16.3891602,4.97848511 16.3891602,6.75876619 Z" id="Path" fill="#FFF5F5"></path>
                <path d="M15.4446793,9.03865813 C14.1859054,10.297432 12.1444702,10.297432 10.8856964,9.03865813 C10.7382965,8.89099121 10.6079865,8.73184204 10.4944992,8.56548308 C11.6822433,9.10488127 13.1308747,8.88565063 14.107399,7.90885922 C15.219307,6.79721834 15.349884,5.0772858 14.4988632,3.82251741 C14.8417282,3.97846224 15.1626969,4.19689177 15.4446793,4.47887419 C16.703453,5.73844906 16.703453,7.77935026 15.4446793,9.03865813 Z" id="Path" fill="#EFE2DD"></path>
                <path d="M25.703659,0.656623857 C25.3802872,1.30229948 24.6545029,2.33703613 23.1236267,3.07510376 C22.9249573,3.17096712 22.9249573,3.45455168 23.1236267,3.55041504 C24.6545029,4.28848267 25.3802872,5.32321932 25.703659,5.96889494 C25.8000565,6.16168978 26.0774994,6.16168978 26.1738968,5.96889494 C26.4972687,5.32321932 27.223053,4.28848267 28.7539291,3.55041504 C28.9525986,3.45455168 28.9525986,3.17096712 28.7539291,3.07510376 C27.223053,2.33703613 26.4972687,1.30229948 26.1741638,0.656623857 C26.0774994,0.463829023 25.8000565,0.463829023 25.703659,0.656623857 Z" id="Path" fill="#AED3FF"></path>
                <path d="M28.7541961,3.55041504 C27.223053,4.28874968 26.4978027,5.32348633 26.1738968,5.96889494 C26.0777664,6.1614227 25.8003235,6.1614227 25.703392,5.96889494 C25.6048584,5.77236174 25.4692078,5.53924561 25.2838898,5.28930664 C25.6393051,4.5926285 26.4219666,3.49861148 28.0473709,2.71514893 C28.057518,2.71034244 28.067131,2.7050018 28.075943,2.69805908 C28.2823563,2.82997135 28.5077286,2.95627596 28.7541961,3.07510376 C28.9531326,3.17070004 28.9531326,3.45481869 28.7541961,3.55041504 Z" id="Path" fill="#83BFFF"></path>
                <path d="M3.27510832,16.3277435 C2.95173648,16.9734192 2.22595215,18.0081558 0.695076006,18.7462235 C0.496406572,18.8420868 0.496406572,19.1259384 0.695076006,19.2215347 C2.22595215,19.9596024 2.95173648,20.994606 3.27510832,21.6402817 C3.3715057,21.8328094 3.64921566,21.8328094 3.74561312,21.6402817 C4.06898502,20.994606 4.79476929,19.9596024 6.32537842,19.2215347 C6.52404785,19.1259384 6.52404785,18.8420868 6.32537842,18.7462235 C4.79476929,18.0081558 4.06898502,16.9734192 3.74561312,16.3277435 C3.64894865,16.1349487 3.3715057,16.1349487 3.27510832,16.3277435 L3.27510832,16.3277435 Z" id="Path" fill="#AED3FF"></path>
                <path d="M6.32564543,19.2218018 C4.79450228,19.9601364 4.06925203,20.994606 3.74534604,21.6402817 C3.64921566,21.8328094 3.37177278,21.8328094 3.27484131,21.6402817 C3.17657471,21.4434814 3.04065706,21.2106323 2.85560611,20.9606934 C3.21075439,20.2640152 3.99341585,19.1697311 5.61882016,18.3865356 C5.6292343,18.3817292 5.63858032,18.3761215 5.64739226,18.3694458 C5.85380551,18.501091 6.07917789,18.6273957 6.32564543,18.7462235 C6.52458188,18.8420868 6.52458188,19.1262054 6.32564543,19.2218018 Z" id="Path" fill="#83BFFF"></path>
                <path d="M22.671814,6.95583342 C22.255783,7.78682707 21.3217163,9.11849976 19.3515778,10.0683212 C19.0957642,10.1916886 19.0957642,10.556717 19.3515778,10.6800842 C21.3217163,11.6301727 22.255783,12.9618454 22.671814,13.792839 C22.7959823,14.0409088 23.1532669,14.0409088 23.2774353,13.792839 C23.6934662,12.9618454 24.627533,11.6301727 26.5976715,10.6800842 C26.8534851,10.556717 26.8534851,10.1916886 26.5976715,10.0683212 C24.627533,9.11849976 23.6934662,7.78682707 23.2774353,6.95583342 C23.1532669,6.70776367 22.7959823,6.70776367 22.671814,6.95583342 Z" id="Path" fill="#AED3FF"></path>
                <path d="M26.5974045,10.6800842 C24.627533,11.6301727 23.6931991,12.9621125 23.2774353,13.792572 C23.1529998,14.0406418 22.7959823,14.0406418 22.671547,13.792572 C22.5746155,13.5992432 22.45018,13.3794784 22.2904968,13.143158 C22.3001099,13.1295395 22.3081208,13.1159211 22.3155975,13.1007004 C22.7610016,12.2109604 23.7610245,10.7855606 25.870018,9.76844791 C25.8988571,9.75482942 25.9239578,9.73854068 25.9466553,9.71984863 C26.1501312,9.84027864 26.3664246,9.95697021 26.5974045,10.0683212 C26.8534851,10.1919556 26.8534851,10.556717 26.5974045,10.6800842 L26.5974045,10.6800842 Z" id="Path" fill="#83BFFF"></path>
                <path d="M15.8070374,9.40074919 C16.5125275,8.69499203 16.9013214,7.75691984 16.9013214,6.75876619 C16.9013214,5.76087955 16.5125275,4.82280729 15.8070374,4.11705014 C15.1012802,3.41156006 14.163208,3.02276611 13.1650544,3.02276611 C12.1671676,3.02276611 11.2290955,3.41156006 10.5233383,4.11705014 C9.06669613,5.5736923 9.06669613,7.94410709 10.5233383,9.40074919 C11.2290955,10.1062393 12.1671676,10.4950333 13.1650544,10.4950333 C14.163208,10.4947663 15.1012802,10.1062393 15.8070374,9.40074919 Z M11.2480545,4.84149935 C11.7602157,4.32933806 12.4408722,4.04735563 13.1653214,4.04735563 C13.8895035,4.04735563 14.5704269,4.32933806 15.0825882,4.84149935 C15.5947494,5.35366057 15.8769989,6.03458406 15.8769989,6.75876619 C15.8769989,7.48321533 15.5947494,8.16413883 15.0825882,8.67630005 C14.5704269,9.18846127 13.8895035,9.47044369 13.1653214,9.47044369 C12.4408722,9.47044369 11.7602157,9.18846127 11.2480545,8.67630005 C10.1906204,7.61913298 10.1906204,5.89866635 11.2480545,4.84149935 Z" id="Shape" fill="#000000"></path>
                <path d="M6.53900146,18.2468796 C5.16941072,17.6076126 4.49329378,16.721077 4.16725162,16.0898209 C4.03347014,15.8308029 3.77044678,15.6711197 3.47885132,15.6711197 C3.47537996,15.6711197 3.47190854,15.6711197 3.46870426,15.6713867 C3.17310335,15.6751252 2.9095459,15.8420181 2.78083805,16.1074447 C2.47081755,16.7464447 1.81739811,17.6498031 0.464096035,18.3232498 C0.195198076,18.4570312 0.03044125,18.7269974 0.0341173903,19.0276718 C0.037918125,19.3283463 0.209350586,19.5940399 0.481719971,19.7211457 C1.85131071,20.3604126 2.52742766,21.2469482 2.85346988,21.8782043 C2.9872513,22.1372223 3.25027466,22.2969055 3.54187012,22.2969055 C3.54534147,22.2969055 3.54854582,22.2969055 3.55201725,22.2966385 C3.84761809,22.2929001 4.11117554,22.1260071 4.23988346,21.8605804 C4.54990389,21.2215805 5.2033234,20.318222 6.55635832,19.6447754 C6.82552336,19.510994 6.99028012,19.2410278 6.98660404,18.9403534 C6.98280338,18.639679 6.81137085,18.3739853 6.53900146,18.2468796 L6.53900146,18.2468796 Z M3.53572844,21.0122299 C3.12931062,20.373497 2.45399479,19.6194076 1.3458252,19.0113831 C2.43824007,18.3753205 3.09459685,17.6046753 3.48472592,16.9557953 C3.89141081,17.5947952 4.56672672,18.3486175 5.67462923,18.9569092 C4.58221436,19.5927048 3.92612459,20.3633499 3.53572844,21.0122299 L3.53572844,21.0122299 Z" id="Shape" fill="#000000"></path>
                <path d="M11.7650223,18.1649017 L11.7650223,31.8247604 C11.7650223,32.1075439 11.9944001,32.3369217 12.2774505,32.3369217 C12.5602341,32.3369217 12.7896118,32.1075439 12.7896118,31.8247604 L12.7896118,18.1649017 C12.7896118,17.8818512 12.5602341,17.6524735 12.2774505,17.6524735 C11.9944001,17.6524735 11.7650223,17.8818512 11.7650223,18.1649017 L11.7650223,18.1649017 Z" id="Path" fill="#000000"></path>
                <path d="M10.0517655,28.4452438 C10.0517655,28.7280273 10.2811432,28.9574051 10.5641937,28.9574051 C10.8469772,28.9574051 11.076355,28.7280273 11.076355,28.4452438 L11.076355,16.8115998 C11.076355,16.2636566 10.7473755,15.7712555 10.2381515,15.5570984 C9.33692936,15.1784515 8.52676392,14.6331787 7.83008577,13.9365006 C4.88822934,10.9946442 4.88822934,6.20788574 7.83008577,3.26602937 C9.25628662,1.83956145 11.1487198,1.05609896 13.1639862,1.05609896 L13.2157898,1.05609896 C15.2497482,1.06971744 17.1523285,1.88041684 18.5726547,3.33919523 C18.8129806,3.58566284 19.0375519,3.85055542 19.2404938,4.12612915 C19.4079208,4.35417172 19.7288895,4.402771 19.956398,4.2350769 C20.1844406,4.06738281 20.2333069,3.74668123 20.0653458,3.51890561 C19.8348999,3.20568083 19.5796204,2.90473941 19.306717,2.62435913 C17.6935959,0.967712402 15.5327988,0.0469970703 13.2227326,0.0315094336 C13.2029724,0.0315094336 13.1834793,0.0315094336 13.1639862,0.0315094336 C10.8750153,0.0315094336 8.72570036,0.921516436 7.10563656,2.54158023 C3.76457211,5.8829117 3.76457211,11.3196182 7.10563656,14.6609497 C7.89684294,15.451889 8.81729126,16.0713958 9.84134676,16.5015793 C9.96925357,16.5555191 10.0520325,16.6770172 10.0520325,16.8115998 L10.0520325,28.4452438 L10.0517655,28.4452438 Z" id="Path" fill="#000000"></path>
                <path d="M28.9672852,2.57549284 C27.5979614,1.93622591 26.9218445,1.04995728 26.5958023,0.418701172 C26.4606857,0.156745928 26.1920548,-0.00106811523 25.897255,-5.38753518e-06 C25.6016541,0.00373840332 25.3380966,0.170898437 25.2093888,0.436058027 C24.8993683,1.07532503 24.2456818,1.97841643 22.8926468,2.65186312 C22.6237488,2.78591154 22.458992,3.05561067 22.4626681,3.35655209 C22.4664688,3.65722656 22.6379013,3.92292024 22.9102707,4.04975895 C24.2798615,4.68902588 24.9559784,5.57556152 25.2820206,6.20681763 C25.415802,6.46583561 25.6788254,6.6255188 25.9704208,6.6255188 L25.9805679,6.6255188 C26.2761688,6.62178043 26.5397262,6.45462036 26.6684342,6.18946077 C26.9784546,5.55019377 27.6321411,4.64683529 28.9851761,3.97338867 C29.2540741,3.83960726 29.4188309,3.56964111 29.4151547,3.26896664 C29.4110871,2.96829224 29.2396545,2.70259855 28.9672852,2.57549284 Z M25.9642791,5.34084318 C25.5578613,4.70211027 24.8822785,3.94802092 23.7743759,3.33999634 C24.8667908,2.70393375 25.5228805,1.93328857 25.9132767,1.28467562 C26.3199616,1.92340853 26.9950104,2.6772308 28.1031799,3.28552246 C27.0107651,3.92131804 26.3546753,4.69223022 25.9642791,5.34084318 Z" id="Shape" fill="#000000"></path>
                <path d="M26.8201065,9.60689543 C25.0307464,8.74412533 24.1548919,7.56439209 23.7353897,6.72645572 C23.5906601,6.43726351 23.2990646,6.25755307 22.9746247,6.25755307 C22.6501846,6.25755307 22.3585892,6.43726351 22.2138595,6.72645572 C22.0814133,6.99081421 21.903305,7.28961946 21.6653824,7.60150911 C21.5930176,6.97345735 21.4528275,6.3528824 21.2424088,5.75153353 C21.1492157,5.48450472 20.8568192,5.34378052 20.5897904,5.43697355 C20.3227616,5.53043367 20.1820374,5.82256315 20.2754974,6.08959196 C20.558815,6.90082552 20.7011414,7.75131226 20.7003403,8.60527035 C20.2765656,8.95935059 19.7598648,9.30274967 19.1291427,9.60689543 C18.8319397,9.75002287 18.6474228,10.0442887 18.6474228,10.3740692 C18.6474228,10.7041169 18.8319397,10.9981156 19.1288757,11.14151 C19.4701385,11.3059998 19.7777557,11.4819718 20.0557327,11.6648865 C19.6995163,12.4718475 19.2036438,13.2125854 18.58387,13.8515854 C17.8676987,14.5899201 17.0281601,15.164299 16.0887528,15.5584335 C15.581665,15.7712555 15.2540207,16.2601852 15.2540207,16.8041229 L15.2540207,17.4222946 C15.2540207,17.8508758 15.0740433,18.046875 14.7287751,18.3843994 C14.357338,18.7472916 13.8948441,19.1991043 13.8948441,20.0789642 C13.8948441,20.9585571 14.357338,21.4103699 14.7287751,21.7735291 C15.0740433,22.1107865 15.2540207,22.3067856 15.2540207,22.7353669 C15.2540207,23.1639481 15.0740433,23.3599472 14.7287751,23.6974716 C14.357338,24.0603638 13.8948441,24.5121765 13.8948441,25.3920365 C13.8948441,26.2718963 14.357071,26.7237091 14.7287751,27.0866012 C15.0740433,27.4241257 15.2540207,27.6201248 15.2540207,28.0487061 C15.2540207,28.6238861 14.9239731,29.5440674 14.6046066,30.4338074 C14.3891144,31.0343551 14.1661453,31.6551971 14.0307617,32.2079468 C13.9290238,32.6237106 13.6651993,32.9823303 13.3041763,33.1970215 L11.2485885,33.9673996 C11.196785,33.9866257 11.1561966,33.9700699 11.1310959,33.952713 C11.1062622,33.9353561 11.076355,33.9030457 11.076355,33.8477707 L11.076355,30.8183289 C11.076355,30.5355453 10.8469772,30.3061676 10.5639267,30.3061676 C10.2811432,30.3061676 10.0517655,30.5352783 10.0517655,30.8183289 L10.0517655,33.8477707 C10.0517655,34.2256165 10.2370834,34.5794296 10.5476379,34.7946549 C10.742836,34.9300384 10.9724808,34.999733 11.2039948,34.999733 C11.3401794,34.999733 11.4771652,34.9757004 11.6082764,34.9265671 L13.7031174,34.1415024 C13.727951,34.1321564 13.7517166,34.1212082 13.7746811,34.1081238 C14.3979263,33.7572479 14.8540116,33.1534958 15.0259781,32.4517441 C15.1485443,31.950798 15.3621673,31.3555908 15.5685806,30.7798767 C15.933609,29.762764 16.2783432,28.8022614 16.2783432,28.0487061 C16.2783432,27.1688461 15.8161164,26.7170334 15.4446793,26.3541413 C15.099411,26.0166169 14.9191666,25.8206177 14.9191666,25.3920365 C14.9191666,24.9634552 15.099411,24.7674561 15.4446793,24.4299316 C15.8161164,24.0670395 16.2783432,23.6152267 16.2783432,22.7353669 C16.2783432,21.8557739 15.8161164,21.4039612 15.4446793,21.040802 C15.099411,20.7035446 14.9191666,20.5075455 14.9191666,20.0789642 C14.9191666,19.650383 15.099411,19.4543839 15.4446793,19.1168595 C15.8161164,18.7539673 16.2783432,18.3021545 16.2783432,17.4222946 L16.2783432,16.8041229 C16.2783432,16.6740799 16.3595199,16.5557861 16.4850235,16.5031815 C17.5526047,16.0551071 18.5061646,15.4030228 19.3190002,14.5648193 C19.9649429,13.8985824 20.4931259,13.1354141 20.8885955,12.3062897 C21.5548324,12.9068375 21.9644547,13.5247421 22.2135925,14.0219498 C22.3583221,14.3111419 22.6499176,14.4908524 22.9743576,14.4908524 C23.2987976,14.4908524 23.5903931,14.3111419 23.7351227,14.0219498 C24.1546249,13.1840133 25.0304794,12.0042801 26.8198395,11.14151 C27.1170426,10.9981156 27.3015594,10.7041169 27.3012927,10.3740692 C27.3015594,10.0442887 27.1173096,9.75028988 26.8201065,9.60689543 L26.8201065,9.60689543 Z M22.9746247,13.2726669 C22.4664688,12.3778534 21.541214,11.2496567 19.882431,10.3743363 C21.541214,9.49901579 22.4664688,8.37055208 22.9746247,7.47573853 C23.4827804,8.37055208 24.4080353,9.49901579 26.0668182,10.3743363 C24.4080353,11.2496567 23.4827804,12.3778534 22.9746247,13.2726669 Z" id="Shape" fill="#000000"></path>
            </g>
        </g>
    </g>
</svg>