<?xml version="1.0" encoding="UTF-8"?>
<svg width="15px" height="15px" viewBox="0 0 15 15" version="1.1" xmlns="http://www.w3.org/2000/svg" xmlns:xlink="http://www.w3.org/1999/xlink">
    <!-- Generator: Sketch 55.2 (78181) - https://sketchapp.com -->
    <title>icn_undo</title>
    <desc>Created with Sketch.</desc>
    <g id="Page-1" stroke="none" stroke-width="1" fill="none" fill-rule="evenodd">
        <g id="Sports-Overview" transform="translate(-339.000000, -508.000000)" fill="#FFB40D" fill-rule="nonzero">
            <g id="Group-7-Copy-2" transform="translate(334.000000, 503.000000)">
                <g id="Group-6">
                    <path d="M5.60238406,5.98275992 L6.39391178,5.98275992 C6.48814112,5.98275992 6.56823648,6.01574038 6.63419698,6.08170088 C6.70015748,6.14766138 6.73313794,6.22775674 6.73313794,6.32198608 L6.6483314,9.12060194 C7.28909208,8.15946114 8.12773425,7.39620227 9.16425879,6.83082533 C10.2007833,6.26544839 11.322114,5.98275992 12.5282516,5.98275992 C13.7909269,5.98275992 14.9593724,6.29842885 16.0335886,6.9297663 C17.1078048,7.56110374 17.9558702,8.41388077 18.5777849,9.48809696 C19.1996995,10.5623131 19.5106568,11.7354703 19.5106568,13.0075684 C19.5106568,14.2796665 19.1949879,15.4481121 18.5636504,16.5129055 C17.932313,17.5776988 17.079536,18.4257642 16.0053198,19.0571017 C14.9311036,19.6884391 13.7626581,20.0041081 12.4999827,20.0041081 C11.6142257,20.0041081 10.7661603,19.8439178 9.95578651,19.5235377 C9.14541275,19.2031575 8.42926877,18.7602788 7.80735413,18.1949019 C7.7319704,18.1383642 7.69427874,18.0582692 7.69427874,17.9546167 C7.69427874,17.8509641 7.72254759,17.7708691 7.77908528,17.7143315 L8.34446223,17.1489545 C8.40099992,17.0924168 8.47638366,17.0594364 8.570613,17.0500135 C8.66484235,17.0405907 8.74964889,17.064148 8.82503263,17.1206857 C9.31502583,17.5729872 9.87569159,17.9216362 10.507029,18.166633 C11.1383665,18.4116298 11.8026844,18.534128 12.4999827,18.534128 C13.4988152,18.534128 14.4222643,18.28442 15.2703298,17.7850036 C16.1183952,17.2855871 16.7921359,16.6118464 17.2915523,15.763781 C17.7909688,14.9157156 18.0406768,13.9922664 18.0406768,12.993434 C18.0406768,11.9946015 17.7909688,11.0711524 17.2915523,10.223087 C16.7921359,9.37502157 16.1183952,8.70128086 15.2703298,8.20186441 C14.4222643,7.70244797 13.4988152,7.45273997 12.4999827,7.45273997 C11.3880749,7.45273997 10.3798192,7.74956286 9.47521611,8.34320865 C8.570613,8.93685444 7.89216067,9.72367054 7.43985912,10.7036574 L11.0300027,10.6188508 C11.124232,10.6188508 11.2043274,10.6518313 11.2702879,10.7177918 C11.3362484,10.7837523 11.3692289,10.8638477 11.3692289,10.958077 L11.3692289,11.7496047 C11.3692289,11.8438341 11.3362484,11.9239294 11.2702879,11.9898899 C11.2043274,12.0558504 11.124232,12.0888309 11.0300027,12.0888309 L5.60238406,12.0888309 C5.50815471,12.0888309 5.42805936,12.0558504 5.36209886,11.9898899 C5.29613836,11.9239294 5.26315789,11.8438341 5.26315789,11.7496047 L5.26315789,6.32198608 C5.26315789,6.22775674 5.29613836,6.14766138 5.36209886,6.08170088 C5.42805936,6.01574038 5.50815471,5.98275992 5.60238406,5.98275992 Z" id="icn_undo"></path>
                </g>
            </g>
        </g>
    </g>
</svg>