<?xml version="1.0" encoding="UTF-8"?>
<svg width="28px" height="29px" viewBox="0 0 28 29" version="1.1" xmlns="http://www.w3.org/2000/svg" xmlns:xlink="http://www.w3.org/1999/xlink">
    <!-- Generator: Sketch 55.2 (78181) - https://sketchapp.com -->
    <title>icn_submit</title>
    <desc>Created with Sketch.</desc>
    <g id="Page-1" stroke="none" stroke-width="1" fill="none" fill-rule="evenodd">
        <g id="Location-Prompt" transform="translate(-293.000000, -351.000000)" fill="#40CA9D" fill-rule="nonzero">
            <g id="Group-3" transform="translate(44.000000, 340.000000)">
                <g id="icn_submit" transform="translate(249.437499, 11.937557)">
                    <path d="M13.5624677,0 C16.0051705,0 18.2655815,0.610675906 20.3437015,1.83202688 C22.4218215,3.05337786 24.0715575,4.70311379 25.2929084,6.78123383 C26.5142594,8.85935388 27.1249353,11.1197649 27.1249353,13.5624677 C27.1249353,16.0051705 26.5142594,18.2655815 25.2929084,20.3437015 C24.0715575,22.4218215 22.4218215,24.0715575 20.3437015,25.2929084 C18.2655815,26.5142594 16.0051705,27.1249353 13.5624677,27.1249353 C11.1197649,27.1249353 8.85935388,26.5142594 6.78123383,25.2929084 C4.70311379,24.0715575 3.05337786,22.4218215 1.83202688,20.3437015 C0.610675906,18.2655815 0,16.0051705 0,13.5624677 C0,11.1197649 0.610675906,8.85935388 1.83202688,6.78123383 C3.05337786,4.70311379 4.70311379,3.05337786 6.78123383,1.83202688 C8.85935388,0.610675906 11.1197649,0 13.5624677,0 Z M11.9765339,7.87498122 L16.132774,11.8124718 L6.1249854,11.8124718 C5.76040265,11.8124718 5.45050812,11.9400754 5.19530011,12.1952834 C4.94009211,12.4504914 4.81248853,12.760386 4.81248853,13.1249687 L4.81248853,13.9999666 C4.81248853,14.3645494 4.94009211,14.6744439 5.19530011,14.9296519 C5.45050812,15.1848599 5.76040265,15.3124635 6.1249854,15.3124635 L16.132774,15.3124635 L11.9765339,19.2499541 C11.7213259,19.5051621 11.5937224,19.8241715 11.5937224,20.2069831 C11.5937224,20.5897947 11.7213259,20.908804 11.9765339,21.164012 L12.578095,21.7655731 C12.833303,22.0207811 13.1431976,22.1483847 13.5077803,22.1483847 C13.872363,22.1483847 14.1822576,22.0207811 14.4374656,21.7655731 L21.6561984,14.4921529 C21.9114064,14.2369449 22.03901,13.9270504 22.03901,13.5624677 C22.03901,13.1978849 21.9114064,12.8879904 21.6561984,12.6327824 L14.4374656,5.35936222 C14.1822576,5.10415422 13.872363,4.97655063 13.5077803,4.97655063 C13.1431976,4.97655063 12.833303,5.10415422 12.578095,5.35936222 L11.9765339,5.96092329 C11.7213259,6.21613129 11.5937224,6.53514067 11.5937224,6.91795226 C11.5937224,7.30076384 11.7213259,7.61977322 11.9765339,7.87498122 Z" id="icn_"></path>
                </g>
            </g>
        </g>
    </g>
</svg>