<?xml version="1.0" encoding="UTF-8"?>
<svg width="21px" height="22px" viewBox="0 0 21 22" version="1.1" xmlns="http://www.w3.org/2000/svg" xmlns:xlink="http://www.w3.org/1999/xlink">
    <!-- Generator: Sketch 55.2 (78181) - https://sketchapp.com -->
    <title>icn_menu</title>
    <desc>Created with Sketch.</desc>
    <g id="Page-1" stroke="none" stroke-width="1" fill="none" fill-rule="evenodd">
        <g id="Sports-Overview" transform="translate(-338.000000, -29.000000)" fill="#FFFFFF" fill-rule="nonzero">
            <g id="icn_menu" transform="translate(338.000000, 29.000000)">
                <path d="M18.3218314,12.1601273 L20.1265146,13.2343434 C20.2410979,13.2916348 20.3198735,13.3775721 20.3628422,13.4921553 C20.4058108,13.6067386 20.4129725,13.7213212 20.3843265,13.8359045 C19.8973487,15.3541298 19.1095897,16.7004812 18.0210509,17.8749574 C17.9351136,17.9608947 17.8348536,18.018186 17.7202703,18.046832 C17.6056871,18.075478 17.4911044,18.0611546 17.3765212,18.0038633 L15.571838,16.9296471 C14.7984023,17.5884995 13.9247067,18.0898006 12.9507505,18.4335498 L12.9507505,20.5390135 C12.9507505,20.6535968 12.9149435,20.7610184 12.8433288,20.8612784 C12.7717142,20.9615383 12.6786159,21.0259913 12.5640326,21.0546373 C10.9885153,21.3983865 9.4129987,21.3983865 7.83748141,21.0546373 C7.72289813,21.0259913 7.62979983,20.9615383 7.5581852,20.8612784 C7.48657057,20.7610184 7.45076358,20.6535968 7.45076358,20.5390135 L7.45076358,18.4335498 C6.47680735,18.0898006 5.60311174,17.5884995 4.82967608,16.9296471 L3.02499288,18.0038633 C2.9104096,18.0611546 2.79582698,18.075478 2.6812437,18.046832 C2.56666042,18.018186 2.46640046,17.9608947 2.38046317,17.8749574 C1.29192432,16.7004812 0.504165341,15.3541298 0.0171875534,13.8359045 C-0.0114584302,13.7213212 -0.00429677034,13.6067386 0.0386718772,13.4921553 C0.0816405248,13.3775721 0.16041616,13.2916348 0.274999439,13.2343434 L2.07968264,12.1601273 C1.90780805,11.1575257 1.90780805,10.1549235 2.07968264,9.15232193 L0.274999439,8.07810574 C0.16041616,8.02081443 0.0816405248,7.93487713 0.0386718772,7.82029385 C-0.00429677034,7.70571058 -0.0114584302,7.59112795 0.0171875534,7.47654467 C0.504165341,5.95831935 1.29192432,4.61196795 2.38046317,3.4374918 C2.46640046,3.35155451 2.56666042,3.2942632 2.6812437,3.26561721 C2.79582698,3.23697123 2.9104096,3.25129455 3.02499288,3.30858586 L4.82967608,4.38280205 C5.60311174,3.72394967 6.47680735,3.22264857 7.45076358,2.87889939 L7.45076358,0.773435656 C7.45076358,0.658852377 7.48657057,0.551430758 7.5581852,0.451170799 C7.62979983,0.35091084 7.72289813,0.286457869 7.83748141,0.257811885 C9.4129987,-0.0859372951 10.9885153,-0.0859372951 12.5640326,0.257811885 C12.6786159,0.286457869 12.7717142,0.35091084 12.8433288,0.451170799 C12.9149435,0.551430758 12.9507505,0.658852377 12.9507505,0.773435656 L12.9507505,2.87889939 C13.9247067,3.22264857 14.7984023,3.72394967 15.571838,4.38280205 L17.3765212,3.30858586 C17.4911044,3.25129455 17.6056871,3.23697123 17.7202703,3.26561721 C17.8348536,3.2942632 17.9351136,3.35155451 18.0210509,3.4374918 C19.1095897,4.61196795 19.8973487,5.95831935 20.3843265,7.47654467 C20.4129725,7.59112795 20.4058108,7.70571058 20.3628422,7.82029385 C20.3198735,7.93487713 20.2410979,8.02081443 20.1265146,8.07810574 L18.3218314,9.15232193 C18.493706,10.1549235 18.493706,11.1575257 18.3218314,12.1601273 Z M13.6382488,10.6562246 C13.6382488,9.71091435 13.3016613,8.9016717 12.6284856,8.22849601 C11.9553099,7.55532031 11.1460673,7.21873279 10.200757,7.21873279 C9.25544678,7.21873279 8.44620413,7.55532031 7.77302844,8.22849601 C7.09985274,8.9016717 6.76326522,9.71091435 6.76326522,10.6562246 C6.76326522,11.6015348 7.09985274,12.4107775 7.77302844,13.0839532 C8.44620413,13.7571289 9.25544678,14.0937164 10.200757,14.0937164 C11.1460673,14.0937164 11.9553099,13.7571289 12.6284856,13.0839532 C13.3016613,12.4107775 13.6382488,11.6015348 13.6382488,10.6562246 Z" id="c"></path>
            </g>
        </g>
    </g>
</svg>