<?xml version="1.0" encoding="UTF-8"?>
<svg width="10px" height="17px" viewBox="0 0 10 17" version="1.1" xmlns="http://www.w3.org/2000/svg" xmlns:xlink="http://www.w3.org/1999/xlink">
    <!-- Generator: Sketch 55.2 (78181) - https://sketchapp.com -->
    <title>icn_back</title>
    <desc>Created with Sketch.</desc>
    <g id="Page-1" stroke="none" stroke-width="1" fill="none" fill-rule="evenodd">
        <g id="Sports-Overview" transform="translate(-17.000000, -31.000000)" fill="#FFFFFF" fill-rule="nonzero">
            <path d="M17.3012804,38.837156 L24.6073312,31.2729358 C24.7830783,31.0909784 24.9964849,31 25.2475521,31 C25.4986193,31 25.7120259,31.0909784 25.8877731,31.2729358 L26.7162943,32.1307339 C26.8920414,32.3126913 26.9861915,32.5336389 26.9987447,32.793578 C27.0112979,33.053517 26.9297015,33.2744646 26.7539543,33.456422 L20.9166458,39.5 L26.7539543,45.543578 C26.9297015,45.7255354 27.0112979,45.946483 26.9987447,46.206422 C26.9861915,46.4663611 26.8920414,46.6873087 26.7162943,46.8692661 L25.8877731,47.7270642 C25.7120259,47.9090216 25.4986193,48 25.2475521,48 C24.9964849,48 24.7830783,47.9090216 24.6073312,47.7270642 L17.3012804,40.162844 C17.100427,39.9808867 17,39.759939 17,39.5 C17,39.240061 17.100427,39.0191133 17.3012804,38.837156 Z" id="icn_back"></path>
        </g>
    </g>
</svg>