<?xml version="1.0" encoding="UTF-8"?>
<svg width="25px" height="27px" viewBox="0 0 25 27" version="1.1" xmlns="http://www.w3.org/2000/svg" xmlns:xlink="http://www.w3.org/1999/xlink">
    <!-- Generator: Sketch 55.2 (78181) - https://sketchapp.com -->
    <title>icn_arm</title>
    <desc>Created with Sketch.</desc>
    <g id="Page-1" stroke="none" stroke-width="1" fill="none" fill-rule="evenodd">
        <g id="1.-Main-Page-Copy-7" transform="translate(-298.000000, -539.000000)" fill-rule="nonzero">
            <g id="icn_arm" transform="translate(298.000000, 539.000000)">
                <path d="M12.4685864,2.96465969 C11.9803665,3.28926702 12.0759162,3.61910995 12.0759162,3.61910995 C12.0759162,3.61910995 12.8612565,3.75 12.8612565,4.53534031 C12.8612565,5.32068063 12.2068063,5.84424084 11.6832461,6.23691099 C11.1596859,6.62958115 11.421466,6.89136126 10.2434555,7.80759162 C9.06544503,8.72382199 8.01832461,8.06937173 7.88743455,9.5091623 C7.79188482,10.5562827 7.4947644,18.1479058 7.36387435,19.3259162 C7.23298429,20.5039267 7.62565445,20.3730366 7.62565445,20.3730366 C7.62565445,20.3730366 8.60340314,18.0405759 10.5052356,16.184555 C11.9698953,14.7552356 14.039267,13.658377 16.2643979,13.828534 C21.3691099,14.2212042 23.7251309,17.8861257 23.7251309,17.8861257 C26.7356021,22.0746073 22.4162304,24.1688482 22.4162304,24.1688482 C22.4162304,24.1688482 15.2172775,27.1793194 9.71989529,26.5248691 C4.22251309,25.8704188 3.43717277,26.6557592 1.47382199,26.263089 C-0.489528796,25.8704188 0.295811518,23.5143979 0.688481675,22.3363874 C1.08115183,21.158377 0.459424084,18.4201571 1.08115183,16.184555 C1.73560209,13.828534 4.09162304,7.41492147 4.22251309,5.97513089 C4.26570681,5.4934555 4.28010471,5.10078534 4.28010471,4.78926702 C4.27787329,4.05615324 4.49284986,3.33880557 4.89790576,2.72774869 C5.09554974,2.43324607 5.34554974,2.07329843 5.66230366,1.65575916 C6.96204188,-0.0772251309 8.80366492,0.215968586 8.80366492,0.215968586 C8.80366492,0.215968586 10.2774869,0.882198953 11.8141361,1.39397906 C12.9921466,1.78664921 12.8612565,2.70287958 12.4685864,2.96465969 Z" id="Path" fill="#7B95C9"></path>
                <path d="M11.3599476,26.8142142 C10.804025,26.8159985 10.2484908,26.7845284 9.69633508,26.7198953 C6.5104712,26.341623 4.91884817,26.447644 3.7565445,26.526178 C2.89921466,26.5837696 2.27879581,26.6256545 1.43455497,26.4554974 C0.886125654,26.3468586 0.489528796,26.0850785 0.256544503,25.6780105 C-0.304973822,24.7081152 0.201570681,23.184555 0.505235602,22.2748691 C0.667539267,21.7879581 0.643979058,20.9829843 0.616492147,20.0497382 C0.581151832,18.8128272 0.540575916,17.4096859 0.895287958,16.132199 C1.14136126,15.2303665 1.63874346,13.7434555 2.16492147,12.1727749 C3,9.66884817 3.94764398,6.83246073 4.02617801,5.96335079 C4.06413613,5.54319372 4.08376963,5.14921466 4.08376963,4.79450262 C4.08165568,4.02218971 4.30947934,3.26672646 4.7382199,2.62434555 C4.96073298,2.29188482 5.21858639,1.92801047 5.5078534,1.54319372 C6.85994764,-0.261780105 8.7539267,0.0104712042 8.83376963,0.0222513089 L8.85994764,0.0222513089 L8.88350785,0.0340314136 C8.89790576,0.0405759162 10.367801,0.701570681 11.8756545,1.20418848 C12.7120419,1.48298429 12.8979058,1.9895288 12.934555,2.2578534 C12.9854592,2.59061363 12.8478936,2.92419764 12.5772251,3.12434555 C12.4408485,3.20017543 12.3349359,3.32088799 12.2774869,3.46596859 C12.7473962,3.60649638 13.0676435,4.04096523 13.0628272,4.53141361 C13.0628272,5.44764398 12.2774869,6.03795812 11.8062827,6.39005236 C11.6586413,6.50005453 11.53819,6.64244683 11.4541885,6.80628272 C11.302356,7.05628272 11.0942408,7.39921466 10.3638743,7.96727749 C9.95970445,8.26906793 9.49406498,8.47820351 9,8.57984293 C8.43324607,8.72774869 8.14921466,8.80104712 8.08376963,9.53141361 C8.04188482,9.9882199 7.95287958,11.736911 7.87303665,13.5890052 C7.7604712,15.9790576 7.63350785,18.6858639 7.56020942,19.3481675 C7.52452606,19.5793467 7.52452606,19.8146324 7.56020942,20.0458115 C7.87041885,19.3913613 8.80759162,17.5693717 10.3704188,16.0445026 C12.0994764,14.3560209 14.2539267,13.4777487 16.2814136,13.6335079 C21.4240838,14.026178 23.8730366,17.7434555 23.8926702,17.7801047 C24.8468586,19.1086387 25.1832461,20.382199 24.8848168,21.5589005 C24.4188482,23.3992147 22.5824607,24.3075916 22.5039267,24.3455497 C21.0940592,24.9109761 19.6517048,25.391761 18.184555,25.7853403 C16.3259162,26.2827225 13.7853403,26.8128272 11.3599476,26.8142142 Z M5.68848168,26.0575916 C7.04522439,26.0675285 8.4001644,26.1584406 9.7460733,26.3298429 C12.5536649,26.6649215 15.8259162,26.0117801 18.0759162,25.4044503 C19.525389,25.017007 20.9506565,24.5441032 22.3442408,23.9882199 C22.3442408,23.9882199 24.0837696,23.1217277 24.5026178,21.4659686 C24.7643979,20.408377 24.4541885,19.2408377 23.565445,18.0078534 C23.5366492,17.9633508 21.1897906,14.4109948 16.2486911,14.0314136 C14.3350785,13.8743455 12.2905759,14.7159686 10.6413613,16.3259162 C8.79057592,18.132199 7.81544503,20.4267016 7.80628272,20.4489529 L7.77225131,20.5314136 L7.68717277,20.5602094 C7.5756006,20.5919378 7.45555766,20.5664592 7.36649215,20.4921466 C7.15968586,20.3259162 7.09685864,19.947644 7.16753927,19.3049738 C7.2382199,18.6623037 7.36780105,15.9489529 7.47905759,13.565445 C7.57068063,11.6295812 7.64921466,9.95680628 7.69109948,9.4921466 C7.78272251,8.48691099 8.32591623,8.34554974 8.90052356,8.19633508 C9.34262945,8.10742131 9.75963367,7.92193712 10.1217277,7.65314136 C10.7958115,7.12958115 10.9751309,6.83507853 11.117801,6.60602094 C11.2272883,6.40110751 11.3800331,6.22245858 11.565445,6.08246073 C12.1217277,5.66623037 12.6649215,5.20287958 12.6649215,4.53795812 C12.6649215,3.92670157 12.0680628,3.82068063 12.0431937,3.81544503 L11.9201571,3.79581152 L11.8861257,3.67670157 C11.8861257,3.65706806 11.7552356,3.20418848 12.3586387,2.80497382 L12.3586387,2.80497382 C12.505474,2.68802435 12.5771647,2.50052537 12.5458115,2.31544503 C12.5026178,2 12.2212042,1.7395288 11.7513089,1.58376963 C10.3403141,1.10863874 8.95418848,0.498691099 8.7486911,0.407068063 C8.52879581,0.379581152 6.96465969,0.246073298 5.81937173,1.77356021 C5.53534031,2.15314136 5.28010471,2.5104712 5.06151832,2.83769634 C4.67706261,3.41570525 4.47338592,4.0950832 4.47643979,4.78926702 C4.47643979,5.15575916 4.45680628,5.56151832 4.41753927,5.9934555 C4.33376963,6.90968586 3.42015707,9.64528796 2.53664921,12.2918848 C2.01308901,13.8625654 1.51701571,15.3455497 1.26963351,16.2382199 C0.930628272,17.4581152 0.969895288,18.828534 1.0078534,20.0340314 C1.03664921,21.0039267 1.06151832,21.841623 0.876963351,22.3900524 C0.615183246,23.1819372 0.121727749,24.6557592 0.595549738,25.4712042 C0.77486911,25.7814136 1.07591623,25.973822 1.5117801,26.0615183 C2.30497382,26.2212042 2.90314136,26.1806283 3.73691099,26.1256545 C4.2591623,26.0981675 4.87696335,26.0575916 5.68848168,26.0575916 Z" id="Shape" fill="#51688C"></path>
                <path d="M9.65837696,4.7552356 C8.88612565,4.7552356 8.48036649,4.36256545 8.46727749,4.34685864 L8.44502618,4.31937173 L8.43062827,4.29057592 C8.13350785,3.69764398 8.47382199,2.79712042 8.4895288,2.7591623 L8.53664921,2.62827225 L8.66753927,2.62827225 C9.07752861,2.6451163 9.47503401,2.7741471 9.81675393,3.0013089 C10.2316754,2.46858639 11.0968586,2.38089005 11.1387435,2.37696335 L11.1740838,2.76963351 L11.1570681,2.57329843 L11.1753927,2.76963351 C11.1662304,2.76963351 10.25,2.86387435 10.0366492,3.39790576 L9.87434555,3.80366492 L9.67931937,3.41099476 C9.61256545,3.28010471 9.17146597,3.08115183 8.80759162,3.03795812 C8.72643979,3.30759162 8.63350785,3.78141361 8.76439791,4.08507853 C8.85863874,4.16361257 9.2486911,4.43717277 9.95026178,4.33769634 C10.3651832,4.27879581 10.632199,4.09947644 10.9162304,3.91099476 C11.2463721,3.65999018 11.632758,3.4933051 12.0418848,3.42539267 L12.0981675,3.81806283 C11.6832461,3.87696335 11.4162304,4.05628272 11.132199,4.2447644 C10.8016869,4.49756064 10.4143277,4.66562598 10.0039267,4.73429319 C9.88934116,4.74899118 9.77389887,4.75598768 9.65837696,4.7552356 Z" id="Path" fill="#51688C"></path>
                <path d="M8.11518325,4.51701571 C7.91750557,4.53125823 7.72431373,4.45349852 7.59162304,4.30628272 L7.7486911,4.18848168 L7.89921466,4.05759162 C7.89921466,4.05759162 8.05890052,4.21596859 8.54319372,4.02225131 L8.68848168,4.38743455 C8.50733735,4.46661949 8.31277451,4.51059602 8.11518325,4.51701571 L8.11518325,4.51701571 Z" id="Path" fill="#51688C"></path>
                <path d="M8.5078534,2.93586387 C8.44749177,2.81662011 8.36329302,2.71103756 8.2604712,2.62565445 L8.31151832,2.53926702 L8.42539267,2.27748691 C8.46989529,2.29581152 8.63219895,2.38481675 8.84424084,2.7395288 L8.5078534,2.93586387 Z" id="Path" fill="#51688C"></path>
                <path d="M7.42801047,9.08638743 C6.92699243,9.09539552 6.43547087,8.94908212 6.02094241,8.66753927 L6.2513089,8.34947644 C6.59554974,8.59947644 7.27748691,8.81806283 8.06413613,8.61125654 L8.16492147,8.9908377 C7.92436384,9.05398052 7.67671693,9.08609104 7.42801047,9.08638743 L7.42801047,9.08638743 Z" id="Path" fill="#51688C"></path>
                <path d="M6.68848168,21.3115183 L6.33638743,21.1361257 C6.62172775,20.5667539 7.33115183,20.1557592 7.36125654,20.1387435 L7.55628272,20.4790576 C7.55628272,20.4790576 6.92015707,20.8494764 6.68848168,21.3115183 Z" id="Path" fill="#51688C"></path>
                <path d="M7.36910995,21.5340314 C7.29053726,21.1270769 7.31437619,20.7069719 7.43848168,20.3115183 L7.81151832,20.4358639 L7.62565445,20.3730366 L7.81151832,20.4358639 C7.71054564,20.7602346 7.68944073,21.1041997 7.75,21.4384817 L7.36910995,21.5340314 Z" id="Path" fill="#51688C"></path>
            </g>
        </g>
    </g>
</svg>