<?xml version="1.0" encoding="UTF-8"?>
<svg width="21px" height="29px" viewBox="0 0 21 29" version="1.1" xmlns="http://www.w3.org/2000/svg" xmlns:xlink="http://www.w3.org/1999/xlink">
    <!-- Generator: Sketch 55.2 (78181) - https://sketchapp.com -->
    <title>icn_location</title>
    <desc>Created with Sketch.</desc>
    <g id="Page-1" stroke="none" stroke-width="1" fill="none" fill-rule="evenodd">
        <g id="Profile" transform="translate(-56.000000, -600.000000)" fill="#F88101" fill-rule="nonzero">
            <g id="Group-7" transform="translate(44.000000, 561.000000)">
                <g id="Group-3-Copy-8" transform="translate(0.000000, 28.000000)">
                    <g id="icn_location" transform="translate(12.000000, 11.500058)">
                        <path d="M9.40622757,27.4530595 C8.45831345,26.0676465 7.23696163,24.3176506 5.74217381,22.2030721 C3.91926177,19.5780783 2.71613964,17.8098536 2.13280741,16.8983972 C1.29426803,15.5859003 0.72916465,14.4830381 0.437498957,13.5898113 C0.145833264,12.6965846 0,11.6666386 0,10.499975 C0,8.60414587 0.473957481,6.85415005 1.42187161,5.24998748 C2.36978574,3.64582492 3.64582492,2.36978574 5.24998748,1.42187161 C6.85415005,0.473957481 8.60414587,0 10.499975,0 C12.3958041,0 14.1457999,0.473957481 15.7499624,1.42187161 C17.354125,2.36978574 18.6301642,3.64582492 19.5780783,5.24998748 C20.5259925,6.85415005 20.9999499,8.60414587 20.9999499,10.499975 C20.9999499,11.6666386 20.8541167,12.6965846 20.562451,13.5898113 C20.2707853,14.4830381 19.7056819,15.5859003 18.8671425,16.8983972 C18.2838103,17.8098536 17.0806882,19.5780783 15.2577761,22.2030721 L11.5937224,27.4530595 C11.3385144,27.8176423 10.9739324,27.9999332 10.499975,27.9999332 C10.0260175,27.9999332 9.66143558,27.8176423 9.40622757,27.4530595 Z M10.499975,14.8749645 C11.7030971,14.8749645 12.7330423,14.4465804 13.5898113,13.5898113 C14.4465804,12.7330423 14.8749645,11.7030971 14.8749645,10.499975 C14.8749645,9.29685283 14.4465804,8.26690765 13.5898113,7.41013858 C12.7330423,6.55336951 11.7030971,6.1249854 10.499975,6.1249854 C9.29685283,6.1249854 8.26690765,6.55336951 7.41013858,7.41013858 C6.55336951,8.26690765 6.1249854,9.29685283 6.1249854,10.499975 C6.1249854,11.7030971 6.55336951,12.7330423 7.41013858,13.5898113 C8.26690765,14.4465804 9.29685283,14.8749645 10.499975,14.8749645 Z" id="m"></path>
                    </g>
                </g>
            </g>
        </g>
    </g>
</svg>