<?xml version="1.0" encoding="UTF-8"?>
<svg width="20px" height="35px" viewBox="0 0 20 35" version="1.1" xmlns="http://www.w3.org/2000/svg" xmlns:xlink="http://www.w3.org/1999/xlink">
    <!-- Generator: Sketch 55.2 (78181) - https://sketchapp.com -->
    <title>icn_profile</title>
    <desc>Created with Sketch.</desc>
    <g id="Page-1" stroke="none" stroke-width="1" fill="none" fill-rule="evenodd">
        <g id="Menu" transform="translate(-62.000000, -524.000000)" fill-rule="nonzero">
            <g id="icn_profile" transform="translate(62.000000, 524.000000)">
                <path d="M19.0690613,34.4873047 L0.512695312,34.4873047 L0.512695312,26.287384 C0.512695312,23.8576889 2.4822998,21.8878174 4.91226196,21.8878174 L14.6694946,21.8878174 C17.0991898,21.8878174 19.0690613,23.8576889 19.0690613,26.287384 L19.0690613,34.4873047 Z" id="Path" fill="#EBEEF2"></path>
                <path d="M19.0687943,26.287651 L19.0687943,34.4870377 L17.5696945,34.4870377 L17.5696945,26.287651 C17.5696945,23.8579559 15.5992889,21.8878174 13.1698608,21.8878174 L14.6697616,21.8878174 C17.0991898,21.8878174 19.0687943,23.8579559 19.0687943,26.287651 L19.0687943,26.287651 Z" id="Path" fill="#D3D8DF"></path>
                <polygon id="Path" fill="#7FB7EA" points="4.09648894 30.3392791 15.4852677 30.3392791 15.4852677 34.4873047 4.09648894 34.4873047"></polygon>
                <path d="M9.89635466,24.3650436 C9.06803133,24.3650436 8.39645386,23.6937332 8.39645386,22.8654098 L8.39645386,18.658638 L11.3957215,18.658638 L11.3957215,22.8654098 C11.3959884,23.6937332 10.724411,24.3650436 9.89635466,24.3650436 Z" id="Path" fill="#E39F6E"></path>
                <path d="M1.9623947,12.7922821 L17.8300476,12.7922821 L18.2484818,10.7508468 C19.3323517,5.46394352 15.2932739,0.512695312 9.89635466,0.512695312 C4.49916838,0.512695312 0.460090654,5.46394352 1.54396061,10.7508468 L1.9623947,12.7922821 Z" id="Path" fill="#627687"></path>
                <path d="M18.7149811,13.5912323 C18.7149811,14.7063446 17.8110885,15.6102371 16.6959762,15.6102371 C15.5808639,15.6102371 14.6767044,14.7063446 14.6767044,13.5912323 C14.6767044,12.47612 15.5808639,11.5719604 16.6959762,11.5719604 C17.8110885,11.5719604 18.7149811,12.47612 18.7149811,13.5912323 Z" id="Path" fill="#E39F6E"></path>
                <path d="M5.11573795,13.5912323 C5.11573795,14.7063446 4.21157837,15.6102371 3.09646606,15.6102371 C1.98135376,15.6102371 1.07746126,14.7063446 1.07746126,13.5912323 C1.07746126,12.47612 1.98135376,11.5719604 3.09646606,11.5719604 C4.21157837,11.5719604 5.11573795,12.47612 5.11573795,13.5912323 Z" id="Path" fill="#E39F6E"></path>
                <path d="M9.89635466,20.3537369 C7.15156559,20.3537369 4.83669279,18.3098984 4.49649813,15.5864715 L3.49193571,7.54516602 L16.3005066,7.54516602 L15.2962113,15.5864715 C14.9560165,18.3098984 12.6408768,20.3537369 9.89635466,20.3537369 Z" id="Path" fill="#F8C298"></path>
                <path d="M2.58110043,9.69020842 C2.58110043,9.69020842 5.34591675,10.4712677 7.88562776,8.61755371 C7.88562776,8.61755371 13.5565186,12.6382065 19.0744019,8.74359131 C19.3545151,8.54598999 19.3473053,8.12862395 19.0583801,7.9443741 L15.6305313,5.75981137 L2.58110043,5.75981137 L2.58110043,9.69020842 Z" id="Path" fill="#627687"></path>
                <path d="M14.6694946,21.3751221 L11.9086838,21.3751221 L11.9086838,20.5152893 C12.3289871,20.364151 12.7332687,20.1657486 13.1140518,19.9208831 C13.3519745,19.7678757 13.4208679,19.4506454 13.2678604,19.2124557 C13.1145859,18.974266 12.7973556,18.9053726 12.5591659,19.0586471 C11.7631531,19.5705413 10.8421707,19.8410416 9.89608765,19.8410416 C7.41538998,19.8410416 5.31253816,17.9846573 5.00518799,15.5229187 L4.35977938,10.3575134 C5.36006926,10.3129196 6.6410065,10.0549698 7.89497379,9.23439029 C8.43784334,9.56764225 9.66377262,10.2392196 11.2883758,10.6389618 C12.1418,10.8488464 12.9850769,10.9529876 13.8115311,10.9529876 C14.3402481,10.9529876 14.8614884,10.9089279 15.3741837,10.8240128 L14.7872543,15.5229187 C14.691925,16.2879562 14.4272995,17.0001221 14.0016556,17.6401901 C13.8446427,17.8757096 13.9087296,18.1940079 14.1442489,18.3510208 C14.2315674,18.4092331 14.330368,18.4370041 14.4278336,18.4370041 C14.5936584,18.4370041 14.756279,18.3566284 14.8550797,18.2081604 C15.3149032,17.5173569 15.618515,16.7565918 15.7603073,15.943222 C16.0561752,16.0609818 16.3739395,16.1229325 16.6957092,16.1229325 C18.0917358,16.1229325 19.2276764,14.9872589 19.2276764,13.5912323 C19.2276764,12.9236603 18.9675903,12.3159027 18.5438156,11.8630218 L18.7507629,10.85392 C18.8452912,10.3922272 18.9043045,9.92305754 18.927002,9.45655826 C19.0760041,9.36256412 19.223938,9.26536557 19.3700028,9.16229248 C19.6421051,8.97029875 19.7999191,8.65707397 19.7921753,8.32462313 C19.7841644,7.99377441 19.6129989,7.68989566 19.3336868,7.51205444 L18.7352752,7.13047029 C18.3123016,5.1747513 17.2329712,3.39046477 15.6871414,2.09697722 C14.0713501,0.74474333 12.0146942,2.84217094e-14 9.89635466,2.84217094e-14 C8.11073307,2.84217094e-14 6.38706209,0.517234785 4.91146086,1.49562834 C4.67567447,1.65210726 4.61105347,1.9704056 4.76753238,2.20645906 C4.92427824,2.44251253 5.24230957,2.50686646 5.47836304,2.35038754 C6.78520199,1.48361206 8.31287386,1.02539063 9.89635466,1.02539063 C11.8018722,1.02539063 13.5768127,1.66786197 15.0294495,2.88337711 C16.1178589,3.79421232 16.9443131,4.97955322 17.4271012,6.29653931 L15.9061051,5.32722477 C15.6673813,5.17501831 15.3504181,5.2452469 15.1982117,5.48397063 C15.0460052,5.72269441 15.1162338,6.03965756 15.3549576,6.19186401 L18.7416839,8.3505249 C16.5993118,9.84828947 14.1859054,10.2862167 11.567955,9.65148926 C9.57057951,9.16736604 8.19538118,8.20846558 8.18229672,8.19911955 C8.00258635,8.07174683 7.76145932,8.07334896 7.58335115,8.20339201 C5.75714111,9.53639982 3.79554752,9.38766479 3.0371857,9.26189421 C2.75787354,9.21543123 2.49378206,9.40422055 2.44758609,9.68353271 C2.40112305,9.96284488 2.58991243,10.2269364 2.86922453,10.2733993 C2.99419401,10.2939606 3.1472015,10.3150558 3.32317351,10.3318787 L3.41663362,11.0800934 C3.31115723,11.0667419 3.2043457,11.0592651 3.09646606,11.0592651 C2.76828768,11.0592651 2.45479582,11.122818 2.1669388,11.2368393 L2.04624178,10.6477738 C1.53594971,8.15933228 2.2088623,5.63884733 3.8919449,3.73252865 C4.07939909,3.5202408 4.05937191,3.1963348 3.84708406,3.00888062 C3.63479614,2.82142643 3.31089021,2.84172055 3.12343596,3.05400847 C1.22512817,5.20412443 0.466232266,8.04691316 1.04167937,10.853653 L1.24862671,11.8627548 C0.824851973,12.3156357 0.564498867,12.9233932 0.564498867,13.5909653 C0.564498867,14.9869919 1.70043945,16.1229325 3.09646606,16.1229325 C3.4219742,16.1229325 3.73760222,16.0617829 4.03213501,15.9442902 C4.40837858,18.084259 5.91629028,19.8039246 7.88375854,20.5136872 L7.88375854,21.3748551 L4.91226196,21.3748551 C3.91757967,21.3748551 2.9594803,21.670723 2.14130403,22.2304154 C1.90765381,22.3903656 1.84783936,22.709198 2.00778963,22.9431152 C2.10712435,23.0881119 2.26787565,23.1663513 2.43129729,23.1663513 C2.53116609,23.1663513 2.63183594,23.1372452 2.7204895,23.0766296 C3.36723324,22.6341629 4.12506104,22.4002457 4.91226196,22.4002457 L7.88375854,22.4002457 L7.88375854,22.8651428 C7.88375854,23.9749146 8.78658293,24.8774719 9.89608765,24.8774719 C11.0058594,24.8774719 11.9084167,23.9749146 11.9084167,22.8651428 L11.9084167,22.4002457 L14.6692276,22.4002457 C16.8124008,22.4002457 18.556099,24.1439438 18.556099,26.287384 L18.556099,34.4873047 C18.556099,34.7703552 18.7857437,35 19.0687943,35 C19.3521118,35 19.5814896,34.7703552 19.5814896,34.4873047 L19.5814896,26.287384 C19.5817566,23.5789108 17.3779679,21.3751221 14.6694946,21.3751221 L14.6694946,21.3751221 Z M16.6959762,15.0975418 C16.4102554,15.0975418 16.1394882,15.0187683 15.9023666,14.8705673 L16.2414932,12.1548844 C16.3875579,12.1086883 16.5397644,12.0846558 16.6959762,12.0846558 C17.5267029,12.0846558 18.2022858,12.7605057 18.2022858,13.5912323 C18.2022858,14.4219589 17.5267029,15.0975418 16.6959762,15.0975418 Z M17.7462005,10.6477738 L17.6255036,11.2371063 C17.3373795,11.122818 17.0238876,11.0595321 16.6959762,11.0595321 C16.5880966,11.0595321 16.4812851,11.067009 16.3755417,11.0803604 L16.4377594,10.5831528 C16.9168091,10.4448319 17.3862458,10.2675247 17.8442001,10.0520325 C17.8182983,10.251503 17.7867889,10.4504395 17.7462005,10.6477738 L17.7462005,10.6477738 Z M1.59015657,13.5912323 C1.59015657,12.7605057 2.2660065,12.0846558 3.09646606,12.0846558 C3.2526779,12.0846558 3.40488436,12.1086883 3.55094906,12.1548844 L3.8903427,14.8711014 C3.65268709,15.0193024 3.38111881,15.0975418 3.09646606,15.0975418 C2.26573942,15.0975418 1.59015657,14.4219589 1.59015657,13.5912323 Z M9.89635466,23.8523483 C9.35214998,23.8523483 8.90914917,23.4096146 8.90914917,22.8654098 L8.90914917,20.7828522 C9.23091887,20.836792 9.56043245,20.8664322 9.89635466,20.8664322 C10.2288055,20.8664322 10.5588532,20.8378601 10.8830261,20.7833862 L10.8830261,22.8654098 C10.8830261,23.4096146 10.4405594,23.8523483 9.89635466,23.8523483 Z" id="Shape" fill="#000000"></path>
                <path d="M1.10549927,24.0216446 C0.847015381,23.9057541 0.543670654,24.0213776 0.427780117,24.2795944 C0.143928545,24.9127197 0,25.5883026 0,26.287384 L0,34.4873047 C0,34.7703552 0.229644775,35 0.512695313,35 C0.79574585,35 1.02539063,34.7703552 1.02539063,34.4873047 L1.02539063,26.287384 C1.02539063,25.7338333 1.13914486,25.1995086 1.36344906,24.6990967 C1.4793396,24.4408798 1.36371614,24.1375351 1.10549927,24.0216446 L1.10549927,24.0216446 Z" id="Path" fill="#000000"></path>
                <path d="M6.81243896,12.643013 C6.52965544,12.6507568 6.30641936,12.8865433 6.31416324,13.1695938 L6.32270816,13.4897614 C6.33045198,13.7680054 6.55849455,13.9883041 6.8351364,13.9883041 C6.83967594,13.9883041 6.84448242,13.9883041 6.84928891,13.9880371 C7.13233951,13.9802933 7.35557553,13.7445068 7.34783171,13.4617233 L7.33901978,13.1415558 C7.33127596,12.8585052 7.09602359,12.6347351 6.81243896,12.643013 Z" id="Path" fill="#000000"></path>
                <path d="M12.7324676,12.643013 C12.4494171,12.6507568 12.226181,12.8865433 12.2339249,13.1695938 L12.2427368,13.4897614 C12.2502136,13.7680054 12.4782562,13.9883041 12.7548981,13.9883041 C12.7594376,13.9883041 12.7642441,13.9883041 12.7690506,13.9880371 C13.0521012,13.9802933 13.2753372,13.7445068 13.2675934,13.4617233 L13.2587814,13.1415558 C13.2510376,12.8585052 13.0157852,12.6347351 12.7324676,12.643013 Z" id="Path" fill="#000000"></path>
                <path d="M11.1748886,15.0914001 C10.85392,15.534668 10.3364181,15.7992935 9.79087826,15.7992935 C9.24507145,15.7992935 8.72783659,15.534668 8.406868,15.0914001 C8.24077604,14.8620224 7.92007446,14.8107529 7.6906967,14.9768448 C7.461319,15.1429367 7.41004947,15.4636383 7.57614136,15.692749 C8.08937076,16.4017105 8.91742708,16.8246842 9.79087826,16.8246842 C10.6643295,16.8246842 11.4921188,16.4017105 12.0053482,15.692749 C12.1714401,15.4636383 12.1201706,15.1429367 11.8907928,14.9768448 C11.6614151,14.8107529 11.3409805,14.8620224 11.1748886,15.0914001 Z" id="Path" fill="#000000"></path>
                <path d="M15.4852677,27.1066284 C15.20195,27.1066284 14.9725723,27.3362732 14.9725723,27.6193237 L14.9725723,29.8265838 L4.60918425,29.8265838 L4.60918425,27.6193237 C4.60918425,27.3362732 4.37953947,27.1066284 4.09648894,27.1066284 C3.8134384,27.1066284 3.58379362,27.3362732 3.58379362,27.6193237 L3.58379362,34.4873047 C3.58379362,34.7703552 3.8134384,35 4.09648894,35 C4.37953947,35 4.60918425,34.7703552 4.60918425,34.4873047 L4.60918425,30.8519745 L14.9725723,30.8519745 L14.9725723,34.4873047 C14.9725723,34.7703552 15.20195,35 15.4852677,35 C15.7683182,35 15.997963,34.7703552 15.997963,34.4873047 L15.997963,27.6193237 C15.997963,27.3362732 15.7683182,27.1066284 15.4852677,27.1066284 Z" id="Path" fill="#000000"></path>
            </g>
        </g>
    </g>
</svg>