<?xml version="1.0" encoding="UTF-8"?>
<svg width="36px" height="32px" viewBox="0 0 36 32" version="1.1" xmlns="http://www.w3.org/2000/svg" xmlns:xlink="http://www.w3.org/1999/xlink">
    <!-- Generator: Sketch 55.2 (78181) - https://sketchapp.com -->
    <title>icn_share</title>
    <desc>Created with Sketch.</desc>
    <g id="Page-1" stroke="none" stroke-width="1" fill="none" fill-rule="evenodd">
        <g id="Menu" transform="translate(-54.000000, -458.000000)" fill-rule="nonzero">
            <g id="icn_share" transform="translate(54.000000, 458.000000)">
                <g id="Group" transform="translate(0.549356, 0.480687)" fill="#6EDCF9">
                    <circle id="Oval" cx="7.03004292" cy="3.13613734" r="3.09692704"></circle>
                    <circle id="Oval" cx="29.1982833" cy="4.42877253" r="3.09692704"></circle>
                    <circle id="Oval" cx="2.19440343" cy="18.5060258" r="2.18980258"></circle>
                    <circle id="Oval" cx="31.9425236" cy="20.4210129" r="2.18980258"></circle>
                    <circle id="Oval" cx="18.7502146" cy="28.2012017" r="2.79793991"></circle>
                </g>
                <g id="Group" transform="translate(0.549356, 0.480687)" fill="#54B8E5">
                    <path d="M5.26255794,3.13634335 C5.26255794,1.65445494 6.30393133,0.416343348 7.69455794,0.11206867 C5.75196567,-0.312927039 3.93318455,1.16848069 3.93318455,3.13634335 C3.93318455,5.10812017 5.75553648,6.58499571 7.69455794,6.16075536 C6.30386266,5.85648069 5.26255794,4.6183691 5.26255794,3.13634335 Z" id="Path"></path>
                    <path d="M27.4307983,4.42904721 C27.4307983,2.94709013 28.4721717,1.70897854 29.8627983,1.40470386 C27.920206,0.979708155 26.1014249,2.46111588 26.1014249,4.42904721 C26.1014249,6.4 27.9228155,7.87797425 29.8627983,7.45345923 C28.4721717,7.14925322 27.4307983,5.91107296 27.4307983,4.42904721 Z" id="Path"></path>
                    <path d="M2.85905579,16.4192961 C1.4463176,15.9695107 0.00460085837,17.0262661 0.00460085837,18.5061631 C0.00460085837,19.9872275 1.44727897,21.0424034 2.85905579,20.5929614 C0.835708155,19.9489099 0.828841202,17.0655451 2.85905579,16.4192961 Z" id="Path"></path>
                    <path d="M32.60697,18.3339399 C31.1940944,17.8841545 29.7524464,18.9409099 29.7524464,20.4208069 C29.7524464,21.9018712 31.1951245,22.9569785 32.60697,22.5075365 C30.583485,21.8636223 30.5767554,18.9801202 32.60697,18.3339399 Z" id="Path"></path>
                    <path d="M17.2813734,28.200927 C17.2813734,26.8848755 18.1903519,25.7815622 19.4145923,25.4831931 C17.6464206,25.0519485 15.9520687,26.393133 15.9520687,28.200927 C15.9520687,30.0131159 17.6504721,31.3490129 19.4145923,30.9187296 C18.1903519,30.6204292 17.2813734,29.5171159 17.2813734,28.200927 Z" id="Path"></path>
                </g>
                <circle id="Oval" fill="#5FAFE0" cx="17.9587296" cy="16.7967039" r="4.10437768"></circle>
                <path d="M15.1949185,16.7969785 C15.1949185,14.7585236 16.6813391,13.0680172 18.6290815,12.7479485 C16.1119313,12.3341459 13.8546266,14.2776309 13.8546266,16.7969785 C13.8546266,19.3167382 16.112206,21.2597425 18.6290815,20.8460086 C16.6813391,20.5260086 15.1949185,18.8355708 15.1949185,16.7969785 Z" id="Path" fill="#4A94CC"></path>
                <circle id="Oval" fill="#2571A0" cx="17.9594163" cy="16.7967039" r="1.54142489"></circle>
                <path d="M18.7297511,15.4623863 C17.7079485,14.870867 16.4177167,15.608721 16.4177167,16.7970472 C16.4177167,17.9857167 17.7080858,18.7230901 18.7297511,18.1316395 C17.7027983,17.5373734 17.7032103,16.0563777 18.7297511,15.4623863 Z" id="Path" fill="#1A6489"></path>
                <g id="Group" fill="#020202">
                    <path d="M32.4533562,18.1959142 C31.399485,18.1959142 30.4850815,18.8019914 30.0385923,19.6835708 L22.4786953,17.5484292 C22.6944549,16.2359485 22.3414249,14.9059571 21.5178026,13.888 L27.5357253,7.79296137 C29.4060773,9.20645494 32.128206,8.48961373 33.0428841,6.30262661 C33.1527554,6.03982833 33.0288755,5.73775107 32.7661459,5.62787983 C32.503485,5.51800858 32.2012704,5.64188841 32.0913305,5.90461803 C31.6883777,6.86812017 30.7533047,7.49067811 29.7091159,7.49067811 C28.2860086,7.49067811 27.1282403,6.3328412 27.1282403,4.90966524 C27.1282403,3.48655794 28.2860086,2.3287897 29.7091159,2.3287897 C30.7458197,2.3287897 31.6783519,2.94516738 32.0848069,3.89912446 C32.1964635,4.16116738 32.4993648,4.28305579 32.7614077,4.17139914 C33.0234506,4.05981116 33.1453391,3.7568412 33.0336824,3.49479828 C32.4648927,2.15986266 31.159897,1.29737339 29.7091159,1.29737339 C26.7486352,1.29737339 25.0429528,4.68600858 26.8090644,7.06080687 L20.7826266,13.1644292 C20.3434163,12.8200515 19.8358112,12.5509356 19.2749871,12.3791931 C19.0023691,12.2954163 18.7142318,12.4489614 18.630867,12.7213047 C18.5474335,12.9936481 18.7006352,13.2819914 18.9729785,13.3653562 C20.4900258,13.8299742 21.5093562,15.2089957 21.5093562,16.7969785 C21.5093562,18.7757597 19.8994678,20.3855794 17.9206867,20.3855794 C14.5139227,20.3855794 13.0462489,16.0685322 15.7006009,13.9780944 C16.0672961,13.6896137 16.4418884,13.4959657 16.8683948,13.3652876 C17.1406695,13.2818541 17.2938712,12.9935794 17.2105064,12.7212361 C17.127073,12.44903 16.8389356,12.295691 16.5663863,12.3791245 C16.1781974,12.4979914 15.8158283,12.664103 15.4835365,12.8688069 L10.1564979,6.10451502 C12.3360687,3.81390558 10.7099056,0.00453218884 7.54087554,0.00453218884 C5.54904721,0.00453218884 3.92851502,1.62499571 3.92851502,3.61682403 C3.92851502,6.39114163 6.94633476,8.13534764 9.34681545,6.74341631 L14.671176,13.5043433 C13.7892532,14.3723262 13.2635193,15.5924464 13.304309,16.9402232 L5.26036052,18.0979227 C4.89181116,17.0415794 3.88614592,16.2812017 2.70564807,16.2812017 C1.21373391,16.2812017 6.86695279e-05,17.4949356 6.86695279e-05,18.9867811 C6.86695279e-05,20.4786266 1.21373391,21.6922918 2.7055794,21.6922918 C4.15313305,21.6922918 5.33850644,20.5495622 5.40765665,19.1188326 L13.4496824,17.9615451 C13.9648412,19.9380601 15.7652876,21.416927 17.9228841,21.416927 L18.3818712,25.4872446 C16.9801888,25.8734421 15.9473991,27.158867 15.9473991,28.6815451 C15.9473991,30.5087039 17.4338197,31.9951931 19.2609785,31.9951931 C21.0881373,31.9951931 22.5746266,30.5087039 22.5746266,28.6815451 C22.5746266,26.9033476 21.1664893,25.448309 19.4067639,25.3716738 L18.9476395,21.3004635 C20.424721,20.9637768 21.6344034,19.9180086 22.1979056,18.5408412 L29.7578712,20.6759828 C29.6258197,22.265133 30.8846009,23.6067983 32.4533562,23.6067983 C33.945133,23.6067983 35.1587983,22.3932017 35.1587983,20.9013562 C35.1587983,19.4096481 33.9452017,18.1959142 32.4533562,18.1959142 Z M7.54094421,6.19804292 C6.11783691,6.19804292 4.96,5.04020601 4.96,3.61703004 C4.96,2.19392275 6.11776824,1.03615451 7.54094421,1.03615451 C8.96412017,1.03615451 10.1219571,2.19392275 10.1219571,3.61703004 C10.1219571,5.04020601 8.96412017,6.19804292 7.54094421,6.19804292 Z M2.70551073,20.6609442 C1.78238627,20.6609442 1.03141631,19.9099742 1.03141631,18.9868498 C1.03141631,18.0636567 1.78238627,17.3126867 2.70551073,17.3126867 C3.62856652,17.3126867 4.37953648,18.0636567 4.37953648,18.9868498 C4.37953648,19.9099742 3.62856652,20.6609442 2.70551073,20.6609442 Z M19.2609785,26.3994506 C20.5194163,26.3994506 21.5432103,27.4233133 21.5432103,28.6816137 C21.5432103,29.9400515 20.5194163,30.9638455 19.2609785,30.9638455 C18.0026094,30.9638455 16.9788155,29.9399828 16.9788155,28.6816137 C16.9787468,27.4232446 18.0025408,26.3994506 19.2609785,26.3994506 Z M32.4533562,22.5754506 C31.5302318,22.5754506 30.7791931,21.8244807 30.7791931,20.9014249 C30.7791931,19.9782318 31.5301631,19.2272618 32.4533562,19.2272618 C33.376412,19.2272618 34.127382,19.9782318 34.127382,20.9014249 C34.127382,21.8245494 33.3764807,22.5754506 32.4533562,22.5754506 Z" id="Shape"></path>
                    <path d="M15.8204979,16.7751416 C15.8204979,17.9094249 16.7433476,18.8321373 17.8775622,18.8321373 C19.0118455,18.8321373 19.9346266,17.9093562 19.9346266,16.7751416 C19.9346266,15.6408584 19.0118455,14.7180773 17.8775622,14.7180773 C16.7433476,14.7180086 15.8204979,15.6408584 15.8204979,16.7751416 Z M17.8776309,15.7494249 C18.4431931,15.7494249 18.9033476,16.2095107 18.9033476,16.7751416 C18.9033476,17.3407039 18.4432618,17.8007897 17.8776309,17.8007897 C17.3120687,17.8007897 16.8519142,17.3407039 16.8519142,16.7751416 C16.8519142,16.2095107 17.3120687,15.7494249 17.8776309,15.7494249 Z" id="Shape"></path>
                </g>
            </g>
        </g>
    </g>
</svg>