<?xml version="1.0" encoding="UTF-8"?>
<svg width="30px" height="27px" viewBox="0 0 30 27" version="1.1" xmlns="http://www.w3.org/2000/svg" xmlns:xlink="http://www.w3.org/1999/xlink">
    <!-- Generator: Sketch 55.2 (78181) - https://sketchapp.com -->
    <title>icn_karate</title>
    <desc>Created with Sketch.</desc>
    <g id="Page-1" stroke="none" stroke-width="1" fill="none" fill-rule="evenodd" opacity="0.799999952">
        <g id="Sports-Overview" transform="translate(-30.000000, -249.000000)" fill="#0FB47E" fill-rule="nonzero">
            <g id="Group" transform="translate(20.000000, 244.000000)">
                <g id="icn_karate" transform="translate(9.984127, 5.285714)">
                    <g id="94204">
                        <path d="M6.70222118,4.53198829 C7.92898337,4.79765864 9.13839365,4.01407257 9.40293526,2.78409047 C9.66651621,1.55302473 8.88447933,0.342307192 7.65777718,0.077118451 C6.43053466,-0.187588676 5.22196496,0.595455581 4.95844405,1.82549788 C4.69492314,3.0560218 5.47497866,4.26776277 6.70222118,4.53198829 Z" id="XMLID_107_"></path>
                        <path d="M13.4386659,5.21907094 L10.8379204,7.83543931 L10.9937274,7.75446795 C11.9637533,7.25009762 13.1304142,7.53942727 13.770994,8.38183046 L15.182443,6.96173121 C15.6623524,6.47903352 15.6613918,5.6974341 15.179501,5.21624146 C14.6976702,4.734507 13.9186354,4.73643345 13.4386659,5.21907094 Z" id="XMLID_108_"></path>
                        <path d="M11.4472787,8.63106573 L8.43393002,10.1976961 L8.03141369,8.39519525 L8.41225514,9.09630491 L10.6220122,7.94777579 C10.6220122,7.94777579 9.49227659,6.87425805 9.1230231,6.50895379 C8.90087058,6.28915718 8.44725917,5.95497722 8.02853171,5.82999837 C7.15307069,5.56872275 6.52137703,5.41581028 5.73801924,5.92403352 C5.30181978,6.20656036 4.99548948,6.65115034 4.88633454,7.15985519 L2.54004378,19.2921347 L0.147521276,24.2528799 C-0.207382371,24.9891474 0.0999085888,25.8749561 0.834753071,26.2313505 C1.57103854,26.5876245 2.45202335,26.2800537 2.80788766,25.5422812 L5.29749681,20.3800407 C5.36192104,20.246453 5.40569109,20.1037146 5.42778626,19.9571233 L5.99001224,16.2351497 L8.76908011,18.8384543 L9.56360556,25.0852294 C9.66747687,25.9044549 10.4167312,26.4700504 11.2159399,26.3669248 C12.0252956,26.263739 12.5975484,25.5215718 12.4942175,24.7100521 L11.6324459,17.9334413 C11.5890961,17.5910137 11.4275852,17.2742922 11.1755922,17.0385421 C11.101021,16.9686479 8.2464213,14.2944256 8.17335113,14.2263977 C7.11872712,14.7736918 6.05209486,14.3035161 5.62268006,13.4737553 C5.24129823,12.7345981 5.44952118,12.0016417 5.62844401,8.93442239 L6.38058037,12.3010251 C6.50660689,12.8661992 7.00909185,13.2654572 7.58188508,13.2654572 C8.05849228,13.2654572 12.1316285,11.0565343 12.5804367,10.8231321 C13.183971,10.5093004 13.4195727,9.76430361 13.1069381,9.15915555 C12.7933428,8.55394728 12.0497924,8.3180768 11.4472787,8.63106573 Z" id="XMLID_109_"></path>
                        <path d="M29.4295638,24.2528799 L27.0370413,19.2921949 L24.6907506,7.15985519 C24.5815356,6.65115034 24.2752653,6.20662057 23.8390659,5.92403352 C23.4033468,5.64144647 22.8733629,5.54452164 22.3655343,5.65402864 C22.0963095,5.71188253 21.715408,5.78906118 21.4508663,5.8618451 L19.0208781,5.90428734 L17.9941132,2.47928897 C17.7989793,1.82688253 17.1126481,1.45513667 16.4606005,1.65235763 C15.8094534,1.84861536 15.4401399,2.53720306 15.6358743,3.19009112 L16.9309634,7.51053043 C17.0876109,8.03314188 17.5675804,8.38959649 18.1100528,8.38959649 C18.1172578,8.38959649 18.1245228,8.38959649 18.1317277,8.38959649 L20.088471,8.35534169 L20.1576986,8.67934754 L21.0551347,8.74587048 L21.3455541,8.33312724 L21.5619426,8.02501464 L21.0820331,9.73823625 L17.6541599,9.48364302 C16.9847603,9.42572893 16.3860293,9.94316303 16.3355946,10.6235031 C16.2855803,11.3034217 16.7943696,11.8955662 17.4724751,11.9455939 C17.4724751,11.9455939 21.9655397,12.2779076 21.9957404,12.2779076 C22.5434965,12.2779076 23.0306109,11.9128441 23.1807139,11.3772291 L23.9327902,8.69289294 L24.1285846,11.6443443 C24.1862843,12.5127546 23.5221083,13.2509486 22.6776886,13.3069362 C22.6166267,13.3107891 21.1291655,13.2071217 21.1291655,13.2071217 L21.357142,14.2698633 L18.4014929,17.0385421 C18.14956,17.2742922 17.987989,17.5910739 17.9446393,17.9334413 L17.0828677,24.7100521 C16.9704104,25.5935129 17.6547002,26.3789652 18.550155,26.3789652 C19.2825378,26.3789652 19.9187345,25.8330556 20.0134796,25.0852294 L20.808005,18.8384543 L23.5871329,16.2351497 L24.1492989,19.9571233 C24.171394,20.1037146 24.215104,20.246453 24.2796484,20.3800407 L26.7691975,25.5422812 C27.1250618,26.2800537 28.0061066,26.5876847 28.7423321,26.2313505 C29.4771165,25.8749561 29.7844075,24.9891474 29.4295638,24.2528799 Z" id="XMLID_110_"></path>
                        <path d="M22.8748639,4.53198829 C24.1021065,4.26776277 24.882162,3.0560218 24.618581,1.82543768 C24.3550001,0.595395379 23.1466105,-0.187648877 21.9193079,0.0770582493 C20.6925458,0.34224699 19.9105689,1.55302473 20.1741499,2.78403026 C20.4386915,4.01407257 21.6481018,4.79765864 22.8748639,4.53198829 Z" id="XMLID_111_"></path>
                    </g>
                </g>
            </g>
        </g>
    </g>
</svg>