<?xml version="1.0" encoding="UTF-8"?>
<svg width="33px" height="33px" viewBox="0 0 33 33" version="1.1" xmlns="http://www.w3.org/2000/svg" xmlns:xlink="http://www.w3.org/1999/xlink">
    <!-- Generator: Sketch 55.2 (78181) - https://sketchapp.com -->
    <title>icn_sports</title>
    <desc>Created with Sketch.</desc>
    <g id="Page-1" stroke="none" stroke-width="1" fill="none" fill-rule="evenodd">
        <g id="Menu" transform="translate(-56.000000, -317.000000)" fill-rule="nonzero">
            <g id="icn_sports" transform="translate(56.000000, 317.000000)">
                <g id="Group" transform="translate(0.514079, 0.449819)">
                    <g id="Path">
                        <path d="M8.11119791,26.8653028 C7.42792306,24.9438051 7.76580128,22.751131 8.98275407,21.1172604 C10.0900796,19.6305448 11.8320352,18.6775071 13.6678103,18.4743818 C14.8895183,18.3391791 16.1443844,18.5296453 17.270538,19.0222612 C16.5176055,17.0544322 16.8076744,14.8257725 17.9390331,13.0619043 C18.4552966,12.2570498 19.1408206,11.7100701 19.8976087,11.1526802 C20.7116523,10.5530717 21.7766948,10.2041408 22.7686096,10.0667533 C24.7151686,9.79711898 26.7493138,10.3062497 28.3195029,11.4911368 C29.9128898,12.6935026 30.9035837,14.5450855 31.0996405,16.5251239 C31.2968539,18.5160864 30.7131175,20.4660512 29.6763493,22.156599 C29.5465445,22.3682709 29.4101208,22.5758301 29.2676568,22.7792125 C29.2676568,22.7792125 27.5794223,24.7546242 26.9287272,25.3228096 C20.7960897,30.6776461 12.2174015,32.5090515 4.12066204,31.8664531 C3.79936285,31.8021933 3.54232351,31.7379334 3.28528416,31.5451539 C3.09250465,31.3523744 2.89972514,31.0310752 2.77120546,30.7740359 C2.70694563,30.6455162 2.64268579,30.5169965 2.51416612,30.324217 C1.35748905,28.5892014 0.843410359,26.789926 0.457851337,24.797871 C0.20081199,23.7697136 0.136552153,22.7415563 0.0722923164,21.7133989 C0.00803247961,20.492462 0.0722923164,19.3357849 0.20081199,18.114848 C0.393591501,16.8939111 0.599480018,15.7559979 0.843410359,14.580557 C1.19683946,12.8776713 1.92323266,11.0690139 1.92323266,11.0690139 C2.38564644,9.63254954 3.15676448,8.28309297 3.60658334,6.86937656 C3.54232351,5.90547901 3.54232351,4.87732162 3.92788253,3.91342406 C4.0564022,3.59212488 4.12066204,3.2708257 4.31344155,2.94952651 C4.37770138,2.88526667 4.44196122,2.82100684 4.50622106,2.756747 C5.34159894,1.27877075 6.88383502,0.443392874 8.49033094,0.186353527 C9.58274817,0.0578338532 10.6109056,-0.00642598368 11.6390629,0.0578338532 C12.2174015,0.12209369 12.7314802,0.443392874 13.1170392,0.893211732 C13.8238974,1.85710928 14.0166769,2.94952651 14.3379761,4.04194374 C14.4022359,4.29898308 14.4022359,4.55602243 14.2737163,4.74880194 C14.2094564,4.87732162 14.1451966,5.07010113 14.0809367,5.1986208 C13.5025982,6.03399868 12.4744408,6.22677819 11.6390629,6.67659705 C10.9322047,6.99789623 10.1610867,6.54807737 9.90404735,5.84121917 C9.83978752,5.77695933 9.77552768,5.7126995 9.71126784,5.64843966 L9.49419811,5.65878549 C9.49419811,5.65878549 9.18761443,6.70654213 6.94064072,7.60354519 L6.98767892,7.96436418 C10.2697501,15.0057001 8.75835872,21.5318648 8.75835872,21.5318648" fill="#F9CFBF"></path>
                        <g transform="translate(4.626708, 0.000000)" fill="#F6B99C">
                            <path d="M3.47806367,26.5970822 C3.47806367,26.5970822 3.67084318,22.355933 4.18492187,21.2635158 C4.89178008,17.4721854 4.42608904,12.3947586 2.36097067,7.96429992 L2.31393246,7.60348093 C2.32138661,7.5761705 0.714890685,7.76895001 0.000578338532,7.60348093 L0.0476165391,7.96429992 C2.89972514,13.295296 3.40962694,26.6889095 3.47806367,26.5970822 Z"></path>
                            <path d="M9.041102,18.4743818 C8.91251807,18.4885832 8.78451248,18.5068973 8.65708522,18.5284243 C9.23227502,18.6235931 9.79596231,18.7884839 10.3304756,19.0222612 C10.2571552,18.8305741 10.1939877,18.6363808 10.1402665,18.4403883 C9.77379266,18.4232952 9.40596936,18.4339624 9.041102,18.4743818 Z"></path>
                            <path d="M6.17697682,0.893147472 C6.88383502,1.85704502 7.07661453,2.94946225 7.39791372,4.04187948 C7.46217355,4.29891882 7.46217355,4.55595817 7.33365388,4.74873768 C7.26939404,4.87725736 7.20513421,5.07003687 7.14087437,5.19855654 C6.74773269,5.76642072 6.14677469,6.03734019 5.53977627,6.29386546 C5.89706097,6.7177876 6.47327892,6.92155555 7.0123547,6.67653279 C7.84773257,6.22671393 8.87588996,6.03393442 9.4542285,5.19855654 C9.51848833,5.07003687 9.58274817,4.87725736 9.64700801,4.74873768 C9.77552768,4.55595817 9.77552768,4.29891882 9.71126784,4.04187948 C9.38996866,2.94946225 9.19718915,1.85704502 8.49033094,0.893147472 C8.10477192,0.443328614 7.59069323,0.12202943 7.0123547,0.0577695933 C6.30813114,0.0137516051 5.60339351,0.0310375012 4.87854255,0.0869435592 C5.38356061,0.191494314 5.83183723,0.490495335 6.17697682,0.893147472 Z"></path>
                            <path d="M26.4729322,16.5251239 C26.2768112,14.5450855 25.2861173,12.6935026 23.6927946,11.4911368 C22.1226055,10.3061854 20.0884604,9.79711898 18.1419014,10.0667533 C18.1009679,10.0724081 18.0597131,10.0790269 18.0185868,10.0853886 C19.2305273,10.2719992 20.396008,10.7489999 21.3794405,11.4911368 C22.9728274,12.6935026 23.9635213,14.5450855 24.1595781,16.5251239 C24.3567915,18.5160864 23.7730552,20.4660512 22.736287,22.156599 C22.6064821,22.3682709 22.4700584,22.5758301 22.3275944,22.7792125 C22.3275944,22.7792125 20.63936,24.7546242 19.9886648,25.3228096 C14.9198489,29.7487059 8.18008445,31.7674287 1.42252001,31.9718392 C8.93224584,32.1971985 16.6543504,30.2541095 22.302019,25.3228096 C22.9527141,24.7546242 24.6409485,22.7792125 24.6409485,22.7792125 C24.7834126,22.5758301 24.9198362,22.3682709 25.0496411,22.156599 C26.0864093,20.4659869 26.6701456,18.5160864 26.4729322,16.5251239 Z"></path>
                        </g>
                        <g transform="translate(7.711180, 0.000000)" fill="#F6B99C">
                            <path d="M2.32138661,0.0577695933 C2.89972514,0.12202943 3.41380383,0.443328614 3.79936285,0.893147472 C4.50622106,1.85704502 4.69900057,2.94946225 5.02029975,4.04187948 C5.08455959,4.29891882 5.08455959,4.55595817 4.95603992,4.74873768 C4.89178008,4.87725736 4.82752024,5.07003687 4.76326041,5.19855654 C4.6335198,5.38593822 4.48115972,5.54099721 4.31344155,5.67388655 C3.8356054,6.05244125 3.23291239,6.25106841 2.67308069,6.50431643 C3.02336106,6.77767777 3.48802394,6.87644514 3.92788253,6.67653279 C4.76326041,6.22671393 5.7914178,6.03393442 6.36975633,5.19855654 C6.43401616,5.07003687 6.498276,4.87725736 6.56253584,4.74873768 C6.69105551,4.55595817 6.69105551,4.29891882 6.62679567,4.04187948 C6.30549649,2.94946225 6.11271698,1.85704502 5.40585877,0.893147472 C5.02029975,0.443328614 4.50622106,0.12202943 3.92788253,0.0577695933 C3.38032446,0.0235191003 2.83244509,0.0266035725 2.27518378,0.0555847589 C2.29054188,0.0565486564 2.30596425,0.0568056958 2.32138661,0.0577695933 Z"></path>
                            <path d="M9.51848833,18.8859018 C9.51848833,18.8859018 4.42339013,16.9437125 1.10044971,21.2635158 C0.457851337,22.0988936 -0.441786378,24.3479879 0.393591501,26.9183814 C0.393591501,26.9183814 0.545180456,23.3139186 3.73510302,20.8136969 C6.11271698,18.9501616 9.51848833,18.8859018 9.51848833,18.8859018 Z"></path>
                        </g>
                        <path d="M11.2535039,3.84909997 C11.2535039,3.84909997 10.4823859,3.14224176 9.71126784,3.72058029 C8.9401498,4.29891882 8.9401498,4.94151719 9.51848833,5.71263524 C10.0968269,6.48375328 10.6109056,6.80505246 10.9964646,6.80505246 C11.3820236,6.80505246 12.137398,6.65622668 12.79574,6.16245409 C13.3098187,5.77689507 12.6029605,5.1342967 12.6029605,5.1342967 C12.6029605,5.1342967 11.28814,6.46601756 10.418126,4.81299752 C9.77552768,3.59206062 11.2535039,3.84909997 11.2535039,3.84909997 Z" fill="#F6B99C"></path>
                    </g>
                </g>
                <g id="Group" fill="#000000">
                    <path d="M27.1256194,25.4096889 C24.2433729,27.928289 20.7153151,29.7551962 16.6393136,30.8397737 C13.0726356,31.7887629 9.0812644,32.1419993 5.07138632,31.8653607 C4.69925761,31.8396567 4.35019817,31.6711032 4.10087001,31.3936292 C3.36085373,30.5701394 2.8452328,29.5063178 2.41347095,28.4971171 C1.90022764,27.2974502 1.57063893,26.041813 1.3482999,24.7580942 C0.874704899,22.0231313 1.0327841,19.2887467 1.51209822,16.5657361 C1.61690601,15.9703045 1.77871228,15.4028259 1.93370701,14.8212743 C2.02765489,14.4686163 2.02084335,13.9849326 1.52867726,14.002604 C1.0406238,14.0200827 0.945005161,14.6966102 0.848679665,15.0651404 C0.665924689,15.764416 0.57088439,16.4811059 0.434267977,17.1903417 C-0.313266705,21.0707362 -0.313266705,27.1111609 3.01654952,31.673031 C3.37839666,32.1687314 3.72610664,32.6003647 4.34473609,32.7465558 C5.42603636,33.0021172 6.68218765,32.9246198 7.78835648,32.9246198 C10.9531534,32.9246198 14.0025397,32.5388038 16.8870996,31.77122 C21.1072358,30.6482794 24.7653556,28.7521644 27.759864,26.1354395 C28.2269045,25.7272611 27.5960656,24.9989401 27.1256194,25.4096889 Z" id="Path"></path>
                    <path d="M32.0933546,16.9274547 C31.8803975,14.7773849 30.798069,12.8196447 29.1238433,11.556232 C25.7437758,9.00556631 20.4104664,9.56732581 18.0475037,13.2514708 C16.9939637,14.8939522 16.6435548,16.8678216 17.0494842,18.6953071 C16.1051216,18.4228454 15.111279,18.3363517 14.1288746,18.4451436 C12.5706378,18.617617 11.1233135,19.2753807 10.0035216,20.29512 C10.0662392,19.6265607 10.112185,18.7933676 10.0997828,17.832169 C10.0699663,15.5216423 9.67888088,12.0117057 8.00015691,8.34555353 C9.19269096,7.81354634 9.81954567,7.23822802 10.1430297,6.82220984 C10.352324,7.16092344 10.6583936,7.42843714 11.020562,7.58060443 C11.8321638,7.92156713 12.5325317,7.46750712 13.2636159,7.15276244 C13.9235001,6.8686697 14.5716891,6.52886368 14.9913059,5.92270064 C15.4838575,5.21121573 15.3554664,4.52305714 15.1437944,3.74454921 C14.898836,2.84324074 14.6455237,1.91121607 14.0197614,1.05797395 C14.0125643,1.0481422 14.0049816,1.03856748 13.9970134,1.02931407 C13.5071607,0.457851337 12.8712453,0.10249444 12.2063488,0.0285956274 C12.1986376,0.0277602495 12.1909264,0.0270533913 12.1832152,0.0266035725 C11.224587,-0.0333508553 10.2268245,0.00706858205 8.94811802,0.15750086 C8.94149926,0.158271978 8.93488049,0.159171616 8.92826173,0.160264033 C7.03921531,0.462478046 5.64130682,1.57166709 4.63422665,2.91097061 C3.54225925,4.36317866 3.57747364,6.3486791 3.63376525,7.25840561 C3.41907314,7.91282779 3.13722949,8.55002833 2.83957793,9.22295734 C2.53331555,9.91535708 2.21664307,10.6313402 1.97849612,11.3711637 C1.78995776,11.9569564 2.70443949,12.2619335 2.89599807,11.6665019 C3.35911871,10.2277884 4.12143316,8.90602783 4.57986283,7.46532229 C4.69842223,7.09267949 4.12059778,5.13436096 5.48875396,3.3616891 C6.42444145,2.14936302 7.52739729,1.3630154 9.07072579,1.11362297 C10.2794533,0.971801513 11.2182253,0.932988571 12.1106659,0.987866472 C12.5231498,1.03689673 12.9279225,1.26900326 13.2533343,1.64299551 C13.7652282,2.34818296 13.983069,3.14943886 14.2135048,3.99734741 C14.3827652,4.62034653 14.4468965,4.81203362 14.1777763,5.40348116 C13.8458743,5.86017582 13.3231205,6.06150189 12.830119,6.28943153 C12.383963,6.49570561 11.7757436,6.93241546 11.2801075,6.63360722 C11.0264097,6.48066881 10.9741664,6.26038608 10.8245053,6.03207088 C10.6009453,5.69091541 10.0647612,5.21121573 10.2836302,4.7432756 C10.4808436,4.32166681 10.9827772,4.42988037 11.3053616,4.59419278 C11.6225482,4.75580626 12.0904883,4.9562327 12.3021602,4.53796542 C12.5211577,4.10530394 12.0572017,3.89543131 11.7430354,3.73536006 C11.4298329,3.57573862 11.0404826,3.3773685 10.5051339,3.50723763 C9.98617142,3.61435878 9.57265937,3.93527241 9.39568778,4.36819093 C9.11904919,5.00031494 9.366064,5.56920728 9.60356836,5.99004495 L9.54554172,5.97308035 C9.54554172,5.97308035 9.54663414,5.96838939 9.54978287,5.95952153 C9.4425332,6.25768717 8.82917306,6.98549408 7.27582003,7.60560151 C7.0875387,7.68078552 6.96827245,7.87028778 6.97579085,8.07071421 C6.98131719,8.21684108 7.00522185,8.48994538 7.06472646,8.61762968 C8.71826058,12.165094 9.10343405,15.5759419 9.13530692,17.8125697 C9.16287439,19.7444775 8.93931442,21.1575513 8.84427412,21.6657823 C7.75275654,23.378564 7.49044788,25.5626274 8.17102381,27.4764138 C8.37755493,28.0573227 9.28773126,27.7400077 9.07920809,27.1535081 C8.29388862,24.9450903 9.01257064,22.4175582 10.7695631,20.9091228 C12.6399099,19.3033337 15.3376021,18.9275422 17.5913231,19.9134166 C17.9733478,20.0806849 18.3836469,19.6892783 18.2346283,19.2996709 C17.724598,17.9667933 17.7314096,16.4696034 18.199414,15.1260587 C18.668318,13.7798794 19.5537543,12.8072425 20.6973866,11.9903072 C22.9817595,10.3585572 26.3629194,10.6802419 28.5431271,12.3254223 C30.0031749,13.4272214 30.9474732,15.1391035 31.1339552,17.022238 C31.3082279,18.781351 30.8397737,20.6251585 29.7794221,22.3542622 C29.6568143,22.5542388 29.5246961,22.7554364 29.3868588,22.9522643 C29.0309235,23.4603025 29.8180423,24.0167927 30.1762909,23.5052844 C30.3253737,23.2924558 30.4683518,23.0747435 30.6011126,22.8581236 C31.7725052,20.9484498 32.2884474,18.8975971 32.0933546,16.9274547 Z" id="Path"></path>
                </g>
            </g>
        </g>
    </g>
</svg>