<?xml version="1.0" encoding="UTF-8"?>
<svg width="325px" height="591px" viewBox="0 0 325 591" version="1.1" xmlns="http://www.w3.org/2000/svg" xmlns:xlink="http://www.w3.org/1999/xlink">
    <!-- Generator: Sketch 55.2 (78181) - https://sketchapp.com -->
    <title>icn_close</title>
    <desc>Created with Sketch.</desc>
    <defs>
        <rect id="path-1" x="0" y="0" width="325" height="591" rx="18"></rect>
    </defs>
    <g id="Page-1" stroke="none" stroke-width="1" fill="none" fill-rule="evenodd">
        <g id="Moments-1" transform="translate(-27.000000, -46.000000)">
            <g id="group" transform="translate(27.000000, 11.000000)">
                <g id="icn_close" transform="translate(0.000000, 35.000000)">
                    <mask id="mask-2" fill="white">
                        <use xlink:href="#path-1"></use>
                    </mask>
                    <use id="Rectangle" fill="#FFFFFF" xlink:href="#path-1"></use>
                    <path d="M302.124981,25.5000179 L306.304658,29.7187578 C306.434866,29.8229244 306.49997,29.9661529 306.49997,30.1484443 C306.49997,30.3307357 306.434866,30.4739642 306.304658,30.5781308 L305.328098,31.5546909 C305.223931,31.6848988 305.080703,31.750003 304.898412,31.750003 C304.71612,31.750003 304.572892,31.6848988 304.468725,31.5546909 L300.249985,27.3750134 L296.031245,31.5546909 C295.927079,31.6848988 295.78385,31.750003 295.601559,31.750003 C295.419267,31.750003 295.276039,31.6848988 295.171872,31.5546909 L294.195312,30.5781308 C294.065104,30.4739642 294,30.3307357 294,30.1484443 C294,29.9661529 294.065104,29.8229244 294.195312,29.7187578 L298.37499,25.5000179 L294.195312,21.2812779 C294.065104,21.1771113 294,21.0338829 294,20.8515915 C294,20.6693 294.065104,20.5260716 294.195312,20.421905 L295.171872,19.4453448 C295.276039,19.315137 295.419267,19.2500328 295.601559,19.2500328 C295.78385,19.2500328 295.927079,19.315137 296.031245,19.4453448 L300.249985,23.6250224 L304.468725,19.4453448 C304.572892,19.315137 304.71612,19.2500328 304.898412,19.2500328 C305.080703,19.2500328 305.223931,19.315137 305.328098,19.4453448 L306.304658,20.421905 C306.434866,20.5260716 306.49997,20.6693 306.49997,20.8515915 C306.49997,21.0338829 306.434866,21.1771113 306.304658,21.2812779 L302.124981,25.5000179 Z" id="t" fill="#4B4B4B" fill-rule="nonzero" mask="url(#mask-2)"></path>
                </g>
            </g>
        </g>
    </g>
</svg>