<?xml version="1.0" encoding="UTF-8"?>
<svg width="36px" height="33px" viewBox="0 0 36 33" version="1.1" xmlns="http://www.w3.org/2000/svg" xmlns:xlink="http://www.w3.org/1999/xlink">
    <!-- Generator: Sketch 55.2 (78181) - https://sketchapp.com -->
    <title>icn_friends</title>
    <desc>Created with Sketch.</desc>
    <g id="Page-1" stroke="none" stroke-width="1" fill="none" fill-rule="evenodd">
        <g id="Menu" transform="translate(-54.000000, -386.000000)" fill-rule="nonzero">
            <g id="icn_friends" transform="translate(54.000000, 386.000000)">
                <path d="M25.422217,0.560789362 L28.9150213,0.560789362 C29.7807447,0.560789362 30.5637574,1.07509787 30.9075191,1.86962553 L31.1307255,2.38547872 L32.1848298,2.38547872 C33.9728681,2.38547872 35.4224106,3.83495106 35.4224106,5.62305957 L35.4224106,17.5287574 C35.4224106,18.7988362 34.3928106,19.8285064 33.1226617,19.8285064 L21.5067319,19.8285064 C20.2366532,19.8285064 19.206983,18.7989064 19.206983,17.5287574 L19.206983,6.7760234 C19.206983,3.3434617 21.9896553,0.560789362 25.422217,0.560789362 Z" id="Path" fill="#475D6D"></path>
                <path d="M32.1847596,2.38547872 L31.1307255,2.38547872 L30.9075191,1.86962553 C30.5636872,1.07509787 29.7807447,0.560789362 28.9150213,0.560789362 L27.1058489,0.560789362 C27.9715723,0.560789362 28.7545851,1.07509787 29.0983468,1.86962553 L29.3215532,2.38547872 L30.3756574,2.38547872 C32.1636957,2.38547872 33.6132383,3.83495106 33.6132383,5.62305957 L33.6132383,17.5287574 C33.6132383,18.7988362 32.5836383,19.8284362 31.3134894,19.8284362 L33.1226617,19.8284362 C34.3927404,19.8284362 35.4223404,18.7988362 35.4223404,17.5287574 L35.4223404,5.62305957 C35.4223404,3.83502128 33.9728681,2.38547872 32.1847596,2.38547872 Z" id="Path" fill="#2C3F4F"></path>
                <path d="M14.5558085,2.4068234 L7.93179574,0.831108511 C7.22566596,0.663159574 6.48295532,0.873446809 5.9697,1.38670213 L4.08603191,3.2703 L3.28771277,3.2703 C2.13313404,3.2703 1.19712766,4.20630638 1.19712766,5.36088511 C1.19712766,5.36088511 1.09166809,7.92582766 1.19712766,8.77210213 C1.32238723,9.77754894 2.19162128,12.7012085 2.19162128,12.7012085 L16.3195532,12.7012085 L18.9669957,2.22391915 C19.1026468,1.68644043 18.4784553,1.28377021 18.0446809,1.62893617 L18.0446809,1.62893617 C17.062966,2.41040426 15.7764574,2.69715319 14.5558085,2.4068234 Z" id="Path" fill="#F9DC6A"></path>
                <path d="M18.0446809,1.62900638 L18.0446809,1.62900638 C17.7690957,1.84835106 17.468866,2.02725319 17.1534,2.16683617 C17.1504511,2.18586383 17.1486255,2.20461064 17.1437106,2.22398936 L14.4962681,12.7012787 L16.319483,12.7012787 L18.9669255,2.22398936 C19.1026468,1.68644043 18.4784553,1.28377021 18.0446809,1.62900638 Z" id="Path" fill="#E5AC51"></path>
                <path d="M31.206766,21.6252511 L23.4225574,21.6252511 L3.18618511,21.6252511 L3.18618511,25.8559213 L22.1863213,25.8559213 L22.1863213,32.4392106 L34.972417,32.4392106 L34.972417,25.3908319 C34.972417,23.3111298 33.2864681,21.6252511 31.206766,21.6252511 Z" id="Path" fill="#2BB4F3"></path>
                <path d="M31.206766,21.6252511 L29.5948213,21.6252511 C31.6745234,21.6252511 33.3604021,23.3111298 33.3604021,25.3908319 L33.3604021,32.4392106 L34.9723468,32.4392106 L34.9723468,25.3908319 C34.972417,23.3111298 33.2864681,21.6252511 31.206766,21.6252511 Z" id="Path" fill="#1687C4"></path>
                <path d="M18.9851809,25.8559213 L18.9851809,25.3908319 C18.9851809,23.3112 17.2993723,21.6253915 15.2198106,21.6252511 L7.43511064,21.6252511 C5.35554894,21.6253213 3.66974043,23.3112 3.66974043,25.3908319 L3.66974043,25.8559213 L18.9851809,25.8559213 Z" id="Path" fill="#1687C4"></path>
                <path d="M25.0458766,17.8416957 L25.0458766,22.4148638 C25.0458766,23.6678809 27.3146617,24.9322723 27.3146617,24.9322723 C27.3146617,24.9322723 29.5834468,23.6678809 29.5834468,22.4148638 L29.5834468,17.8416957 L25.0458766,17.8416957 Z" id="Path" fill="#F2A077"></path>
                <path d="M35.2421043,12.3810383 L35.2421043,13.0490426 C35.2421043,13.8288957 34.6106106,14.4612319 33.8307574,14.4612319 L33.351766,14.4612319 C33.160366,18.1450851 29.7436021,20.7035681 26.3911532,20.1198894 L26.3903106,20.1198894 C23.5924723,19.6906085 21.4269702,17.3427638 21.2777681,14.4612319 L20.7987766,14.4612319 C20.0189234,14.4612319 19.3865872,13.8288957 19.3865872,13.0490426 L19.3865872,12.3810383 C19.3865872,11.6011851 20.0189234,10.9688489 20.7987766,10.9688489 L21.2686404,10.9688489 L21.2686404,7.90413191 C21.2686404,7.82205319 21.2703255,7.74088723 21.2744681,7.66049362 C22.1031894,7.8204383 22.9592936,7.90328936 23.8344255,7.90328936 C26.501317,7.90328936 28.9875511,7.13087872 31.0817872,5.79662553 C31.5409085,5.50489149 31.9818447,5.18584468 32.4011553,4.8411 C32.9915745,5.67550851 33.3599809,6.75917234 33.3599809,7.90413191 L33.3599809,10.9688489 L33.8306872,10.9688489 C34.6106106,10.9688489 35.2421043,11.6012553 35.2421043,12.3810383 Z" id="Path" fill="#FFCCAA"></path>
                <path d="M33.8307574,10.9688489 L33.3600511,10.9688489 L33.3600511,9.71772766 L33.3594191,9.71772766 C33.3591383,7.64048298 33.3589277,7.80323617 33.358366,7.77402766 C33.3314745,6.67245957 32.9661574,5.63955957 32.4011553,4.8411 C31.9817745,5.18584468 31.5409085,5.50489149 31.0817872,5.79662553 C31.3577936,6.44384681 31.5110681,7.15573404 31.5110681,7.90413191 L31.5110681,10.9688489 L31.5019404,14.4612319 C31.4190894,16.0565362 30.7187872,17.4894383 29.6339298,18.5229 C28.7604128,19.3557638 27.6383426,19.9276468 26.391083,20.1198894 C29.4501128,20.6524532 32.562083,18.5687489 33.229034,15.4012404 L33.229034,15.4012404 C33.2291043,15.4010298 33.2291043,15.4008191 33.2291745,15.4006085 C33.2608404,15.2500723 33.2871702,15.0972191 33.3075319,14.9419085 C33.3081638,14.9372043 33.3086553,14.9324298 33.3092872,14.9277255 C33.317783,14.8619362 33.3250149,14.7957255 33.3314745,14.7291638 C33.3330894,14.7124532 33.3347043,14.6958128 33.3361787,14.6791021 C33.3424979,14.6068532 33.3480447,14.5343234 33.3518362,14.4611617 L33.3601213,14.4611617 L33.8308277,14.4611617 C34.6106809,14.4611617 35.2421745,13.8288255 35.2421745,13.0489723 L35.2421745,12.3809681 C35.2421745,11.6012553 34.6106106,10.9688489 33.8307574,10.9688489 Z" id="Path" fill="#F2A077"></path>
                <path d="M16.9132723,32.4392106 L1.59783191,32.4392106 L1.59783191,25.3908319 C1.59783191,23.3111298 3.28371064,21.6252511 5.36341277,21.6252511 L13.1476915,21.6252511 C15.2273936,21.6252511 16.9132723,23.3111298 16.9132723,25.3908319 L16.9132723,32.4392106 Z" id="Path" fill="#FF5A59"></path>
                <path d="M13.1476915,21.6252511 L11.5357468,21.6252511 C13.6154489,21.6252511 15.3013277,23.3111298 15.3013277,25.3908319 L15.3013277,32.4392106 L16.9132723,32.4392106 L16.9132723,25.3908319 C16.9132723,23.3111298 15.2273936,21.6252511 13.1476915,21.6252511 Z" id="Path" fill="#CE3A4C"></path>
                <path d="M6.98680213,17.8416957 L6.98680213,22.4148638 C6.98680213,23.6678809 8.00257021,24.6836489 9.25558723,24.6836489 L9.25558723,24.6836489 C10.5086043,24.6836489 11.5243723,23.6678809 11.5243723,22.4148638 L11.5243723,17.8416957 L6.98680213,17.8416957 Z" id="Path" fill="#F2A077"></path>
                <path d="M17.1837319,12.3810383 L17.1837319,13.0490426 C17.1837319,13.8288957 16.5513957,14.4612319 15.7715426,14.4612319 L15.2925511,14.4612319 C15.2292894,15.6302745 14.8264787,16.7299468 14.2574745,17.5399915 C14.2574745,17.540834 14.2566319,17.540834 14.2566319,17.5416766 C13.1189043,19.2915894 10.7763255,20.4893489 8.3319383,20.1198894 L8.33109574,20.1198894 C5.53325745,19.6906085 3.36775532,17.3427638 3.21855319,14.4612319 L2.7395617,14.4612319 C1.95970851,14.4612319 1.32821489,13.8288957 1.32821489,13.0490426 L1.32821489,12.3810383 C1.32821489,11.6011851 1.95970851,10.9688489 2.7395617,10.9688489 L3.21026809,10.9688489 L3.21026809,8.7461234 C4.83211277,8.63673191 5.35674255,8.13948511 5.35674255,6.54081064 C5.35674255,6.54081064 7.42029574,10.2163085 13.4519234,9.12070851 C14.0312489,9.01545957 14.6469447,8.86625745 15.3016787,8.66572979 L15.3016787,10.9687787 L15.7715426,10.9687787 C16.5513957,10.9688489 17.1837319,11.6012553 17.1837319,12.3810383 Z" id="Path" fill="#FFCCAA"></path>
                <path d="M15.7715426,10.9688489 L15.3016787,10.9688489 L15.3016787,10.5464489 L15.3016787,8.66572979 C14.6469447,8.86625745 14.0311787,9.01545957 13.4519234,9.12070851 L13.4519234,10.9687787 L13.4427957,14.4611617 C13.3599447,16.056466 12.6596426,17.4893681 11.5747851,18.5228298 C10.7012681,19.3556936 9.57997021,19.9275766 8.33186809,20.1198191 C10.7754128,20.4891383 13.1230468,19.2849894 14.2565617,17.5416064 C14.2565617,17.5407638 14.2574043,17.5407638 14.2574043,17.5399213 C14.6225106,17.0751128 15.0129638,16.2015255 15.1949553,15.2426298 L15.1983255,15.2426298 C15.2306936,15.0675191 15.2556191,14.8894596 15.2731021,14.7095043 C15.2738043,14.7023426 15.2746468,14.6952511 15.2753489,14.6880894 C15.2823702,14.6127511 15.2884085,14.5371319 15.2925511,14.4611617 L15.3016787,14.4611617 L15.7715426,14.4611617 C16.5513957,14.4611617 17.1837319,13.8288255 17.1837319,13.0489723 L17.1837319,12.3809681 C17.1837319,11.6012553 16.5513957,10.9688489 15.7715426,10.9688489 Z" id="Path" fill="#F2A077"></path>
                <path d="M3.12165957,26.4674043 L1.8392234,26.4674043 C1.1142766,26.4674043 0.526595745,25.8797234 0.526595745,25.1547766 L0.526595745,22.2898149 C0.526595745,21.5648681 1.1142766,20.9771872 1.8392234,20.9771872 L3.12165957,20.9771872 C3.65429362,20.9771872 4.08603191,21.4089255 4.08603191,21.9415596 L4.08603191,25.5030319 C4.08603191,26.035666 3.6542234,26.4674043 3.12165957,26.4674043 Z" id="Path" fill="#FFCCAA"></path>
                <g id="Group" fill="#000000">
                    <path d="M24.5575468,14.8350447 C24.7067489,15.2046447 24.9264447,15.5360489 25.2109468,15.8204809 C25.7737723,16.3820426 26.5209064,16.6912596 27.3147319,16.6912596 C28.5322213,16.6912596 29.6143404,15.9629426 30.0714957,14.8358872 C30.180817,14.5664106 30.0509234,14.2593 29.7814468,14.1499787 C29.5118298,14.0406574 29.2048596,14.1705511 29.0954681,14.4400277 C28.8002936,15.167783 28.1013255,15.6380681 27.3147319,15.6380681 C26.8017574,15.6380681 26.3187638,15.4380319 25.9552021,15.0753128 C25.7718064,14.891917 25.6301872,14.6784702 25.5342766,14.4408 C25.4253766,14.171183 25.1185468,14.0406574 24.8487894,14.1496277 C24.5790319,14.2584574 24.448717,14.5652872 24.5575468,14.8350447 Z" id="Path"></path>
                    <path d="M24.2882106,11.8873021 C24.5791021,11.8873021 24.8148064,11.6515277 24.8148064,11.3607064 L24.8148064,11.0686915 C24.8148064,10.7778702 24.5791021,10.5420957 24.2882106,10.5420957 C23.9973191,10.5420957 23.7616149,10.7778702 23.7616149,11.0686915 L23.7616149,11.3607064 C23.7616149,11.6515277 23.9973191,11.8873021 24.2882106,11.8873021 Z" id="Path"></path>
                    <path d="M30.3411128,11.8873021 C30.6320043,11.8873021 30.8677085,11.6515277 30.8677085,11.3607064 L30.8677085,11.0686915 C30.8677085,10.7778702 30.6320043,10.5420957 30.3411128,10.5420957 C30.0502213,10.5420957 29.814517,10.7778702 29.814517,11.0686915 L29.814517,11.3607064 C29.814517,11.6515277 30.0502213,11.8873021 30.3411128,11.8873021 Z" id="Path"></path>
                    <path d="M9.25558723,16.6911894 C10.4730766,16.6911894 11.5551957,15.9628723 12.0123511,14.835817 C12.1216723,14.5663404 11.9917787,14.2592298 11.7223021,14.1499085 C11.4526149,14.0405872 11.1457149,14.1704809 11.0363234,14.4399574 C10.7411489,15.1677128 10.0421809,15.6379979 9.25558723,15.6379979 C8.74261277,15.6379979 8.25961915,15.4379617 7.89605745,15.0753128 C7.71259149,14.8917766 7.57090213,14.6783298 7.47513191,14.4408702 C7.36630213,14.171183 7.05954255,14.0406574 6.78978511,14.1495574 C6.52002766,14.2583872 6.38964255,14.565217 6.49847234,14.8349043 C6.64753404,15.2043638 6.86715957,15.5357681 7.15180213,15.8204809 C7.71469787,16.3819723 8.46183191,16.6911894 9.25558723,16.6911894 Z" id="Path"></path>
                    <path d="M6.75573191,11.3607064 L6.75573191,11.0686915 C6.75573191,10.7778702 6.52002766,10.5420957 6.22913617,10.5420957 C5.93824468,10.5420957 5.70254043,10.7778702 5.70254043,11.0686915 L5.70254043,11.3607064 C5.70254043,11.6515277 5.93824468,11.8873021 6.22913617,11.8873021 C6.52002766,11.8873021 6.75573191,11.6515277 6.75573191,11.3607064 Z" id="Path"></path>
                    <path d="M12.2820383,11.8873021 C12.5729298,11.8873021 12.808634,11.6515277 12.808634,11.3607064 L12.808634,11.0686915 C12.808634,10.7778702 12.5729298,10.5420957 12.2820383,10.5420957 C11.9911468,10.5420957 11.7554426,10.7778702 11.7554426,11.0686915 L11.7554426,11.3607064 C11.7554426,11.6515277 11.9911468,11.8873021 12.2820383,11.8873021 Z" id="Path"></path>
                    <path d="M35.4223404,7.61106383 C35.7132319,7.61106383 35.9489362,7.37528936 35.9489362,7.08446809 L35.9489362,5.62334043 C35.9489362,3.54778085 34.2603191,1.85923404 32.1848298,1.85923404 L31.4768745,1.85923404 L31.390934,1.66053191 C30.9632681,0.672708511 29.9914532,0.0344042553 28.9150213,0.0344042553 L25.4219362,0.0344042553 C21.7044511,0.0344042553 18.6800362,3.05874894 18.6800362,6.77623404 L18.6800362,17.528617 C18.6800362,19.0873404 19.9481489,20.355383 21.5068021,20.355383 L24.5189298,20.355383 L24.5189298,21.0989362 L13.1480426,21.0989362 L12.050617,21.0989362 L12.050617,20.0939106 C12.6827426,19.7965596 13.2695809,19.3978213 13.7876809,18.9042255 C14.8880553,17.8560191 15.5823191,16.4802702 15.7735085,14.9878277 C16.8416553,14.9867745 17.7102574,14.1174702 17.7102574,13.0490426 L17.7102574,12.3810383 C17.7102574,11.9082957 17.5397809,11.4748723 17.257666,11.1380617 L18.4696085,6.34140638 C18.5408745,6.05943191 18.3700468,5.77310426 18.0880021,5.7018383 C17.8064489,5.63085319 17.5197,5.8014 17.4485043,6.08337447 L16.3265745,10.5237 C16.1678936,10.476166 16.0009979,10.4480809 15.8282043,10.4430957 L15.8282043,8.6658 C15.8282043,8.49876383 15.748934,8.34162766 15.614617,8.24234681 C15.4803,8.14306596 15.3066638,8.11329574 15.1471404,8.16237447 C12.2613255,9.04768723 9.73212128,9.00092553 7.8330766,8.02679362 C6.41042553,7.29700213 5.82028723,6.29085319 5.81586383,6.28312979 C5.69860851,6.07424681 5.4549,5.97089362 5.22340851,6.03148723 C4.99163617,6.09208085 4.83000638,6.30145532 4.83000638,6.54095106 C4.83000638,7.84536383 4.55154255,8.12797021 3.17474043,8.2208617 C2.89824255,8.2395383 2.68360213,8.46920426 2.68360213,8.74626383 L2.68360213,10.443166 C2.49164043,10.4486426 2.30662979,10.4823447 2.1323617,10.5399894 C1.90494255,9.67812766 1.76058511,9.03862979 1.71958085,8.70743617 C1.63764255,8.04848936 1.69444468,6.08379574 1.72323191,5.38244043 C1.72351277,5.37520851 1.72365319,5.36804681 1.72365319,5.36081489 C1.72365319,4.49860213 2.42507872,3.7971766 3.2873617,3.7971766 L4.08568085,3.7971766 C4.22533404,3.7971766 4.35922979,3.74170851 4.45808936,3.64291915 L6.34175745,1.75911064 C6.7232234,1.37771489 7.28569787,1.21854255 7.81004681,1.3436617 L14.4337085,2.91916596 C14.7827362,3.00229787 15.141734,3.04442553 15.5008021,3.04442553 C16.5398809,3.04442553 17.5597915,2.68802553 18.3726447,2.04094468 C18.3857745,2.03048298 18.402134,2.01728298 18.4340106,2.03792553 C18.465817,2.05842766 18.4606915,2.07864894 18.4566191,2.09472766 L18.0578106,3.67311064 C17.9865447,3.95508511 18.1573723,4.24141277 18.439417,4.31267872 C18.7213213,4.38394468 19.0077894,4.21311702 19.0789149,3.93114255 L19.4777936,2.35261915 C19.5957511,1.88514255 19.4100383,1.41422553 19.0048404,1.15289362 C18.5994319,0.891421277 18.0937596,0.916697872 17.7166468,1.2171383 C17.0894362,1.71642128 16.3024915,1.99137447 15.5007319,1.99137447 C15.2237426,1.99137447 14.9467532,1.95886596 14.6774872,1.8947617 L8.05410638,0.319046809 C7.17672766,0.109742553 6.23531489,0.376129787 5.59708085,1.01429362 L3.8676,2.74391489 L3.2873617,2.74391489 C1.84821064,2.74391489 0.676640426,3.91169362 0.670461702,5.34944043 C0.662246809,5.55375957 0.567389362,7.97659149 0.67446383,8.83704894 C0.728387234,9.27307021 0.910308511,10.063034 1.21510213,11.1858766 C0.956368085,11.5154553 0.801548936,11.9304128 0.801548936,12.3811085 L0.801548936,13.0491128 C0.801548936,14.1174 1.66965957,14.9867043 2.73724468,14.9878979 C3.02799574,17.2639851 4.4753617,19.1602915 6.46020638,20.0934894 L6.46020638,21.0989362 L5.36355319,21.0989362 C5.0418383,21.0989362 4.72482766,21.134534 4.41582128,21.2042553 C4.15877234,20.7548234 3.67549787,20.4505915 3.12165957,20.4505915 L1.8392234,20.4505915 C0.825070213,20.4505915 0,21.2756617 0,22.2898149 L0,25.1547064 C0,25.8948894 0.439742553,26.5338957 1.07144681,26.8253489 L1.07144681,32.4389298 C1.07144681,32.7297511 1.30715106,32.9655957 1.59804255,32.9655957 L16.9135532,32.9655957 C17.2044447,32.9655957 17.4401489,32.7297511 17.4401489,32.4389298 L17.4401489,25.3910426 C17.4401489,24.0991277 16.8655979,22.939634 15.9595723,22.1521277 L24.519,22.1521277 L24.519,22.4147234 C24.519,23.933566 26.7986681,25.2476681 27.0585957,25.392517 C27.1382872,25.4368915 27.2266149,25.4591489 27.3148723,25.4591489 C27.4032702,25.4591489 27.4915979,25.4369617 27.5712191,25.392517 C27.8310766,25.2476681 30.1099723,23.9334957 30.1099723,22.4147234 L30.1099723,22.1521277 L31.2066957,22.1521277 C32.9926979,22.1521277 34.4456106,23.6051106 34.4456106,25.3910426 L34.4456106,31.9124043 L32.9695979,31.9124043 L32.9695979,28.3842128 C32.9695979,28.0933915 32.7338936,27.857617 32.4430021,27.857617 C32.1521106,27.857617 31.9164064,28.0933915 31.9164064,28.3842128 L31.9164064,31.9124043 L22.7131277,31.9124043 L22.7131277,25.8558511 C22.7131277,25.5650298 22.4774234,25.3292553 22.1865319,25.3292553 L19.0276596,25.3292553 C18.7367681,25.3292553 18.5010638,25.5650298 18.5010638,25.8558511 C18.5010638,26.1466723 18.7367681,26.3824468 19.0276596,26.3824468 L21.6599362,26.3824468 L21.6599362,32.439 C21.6599362,32.7298213 21.8956404,32.9655957 22.1865319,32.9655957 L34.9722766,32.9655957 C35.2631681,32.9655957 35.4988723,32.7298213 35.4988723,32.439 L35.4988723,25.3910426 C35.4988723,23.0243809 33.5734277,21.0989362 31.206766,21.0989362 L30.1100426,21.0989362 L30.1100426,20.355383 L33.1228723,20.355383 C34.6811745,20.355383 35.9489362,19.0872702 35.9489362,17.528617 L35.9489362,9.57070213 C35.9489362,9.27988085 35.7132319,9.04410638 35.4223404,9.04410638 C35.1314489,9.04410638 34.8957447,9.27988085 34.8957447,9.57070213 L34.8957447,10.7625638 C34.6044319,10.5700404 34.258634,10.4536277 33.8865766,10.4430255 L33.8865766,7.90413191 C33.8865766,6.69387447 33.522383,5.53072979 32.8333851,4.54037872 C32.7495511,4.41975319 32.6190255,4.33971064 32.4735447,4.31948936 C32.3279936,4.29919787 32.1806872,4.34083404 32.067083,4.43400638 C29.7544149,6.33164681 26.8306851,7.37669362 23.8344255,7.37669362 C23.0040894,7.37669362 22.1763511,7.29819574 21.3741702,7.1433766 C21.2247574,7.11458936 21.0696574,7.15187234 20.9496638,7.24588723 C20.8296702,7.33990213 20.7562979,7.48131064 20.7485043,7.63353191 C20.7440809,7.71919149 20.7419745,7.80772979 20.7419745,7.90413191 L20.7419745,10.4430957 C20.3701277,10.4538383 20.0245404,10.5702511 19.7332979,10.762634 L19.7332979,6.77623404 C19.7332979,3.63954894 22.2852511,1.08759574 25.4220064,1.08759574 L28.9150915,1.08759574 C29.5713,1.08759574 30.1637553,1.47671489 30.4243851,2.07885957 L30.6476617,2.5949234 C30.7310745,2.78765745 30.921,2.91242553 31.1310064,2.91242553 L32.1849,2.91242553 C33.6797298,2.91242553 34.8958149,4.12851064 34.8958149,5.62334043 L34.8958149,7.08446809 C34.8957447,7.37528936 35.1314489,7.61106383 35.4223404,7.61106383 Z M3.7443766,14.4340596 C3.72991277,14.1541915 3.49877234,13.9346362 3.21848298,13.9346362 L2.73949149,13.9346362 C2.25165319,13.9346362 1.85474043,13.5373723 1.85474043,13.0490426 L1.85474043,12.3810383 C1.85474043,11.8927085 2.25158298,11.4954447 2.73949149,11.4954447 L3.21026809,11.4954447 C3.50115957,11.4954447 3.73686383,11.2596702 3.73686383,10.9688489 L3.73686383,9.22118298 C4.83428936,9.0645383 5.45195106,8.63701277 5.72030426,7.80365745 C6.09552128,8.16623617 6.60961915,8.57318936 7.28401277,8.92825532 C9.74286383,10.2227681 12.6057191,9.93307021 14.7750128,9.36315319 L14.7750128,10.9688489 C14.7750128,11.2596702 15.010717,11.4954447 15.3016085,11.4954447 L15.7714723,11.4954447 C16.2597319,11.4954447 16.6569957,11.8927085 16.6569957,12.3810383 L16.6569957,13.0490426 C16.6569957,13.5373723 16.2597319,13.9346362 15.7714723,13.9346362 L15.2924809,13.9346362 C15.0122617,13.9346362 14.7811213,14.1540511 14.7665872,14.4339191 C14.6931447,15.8472319 14.0874894,17.1640021 13.0612596,18.1416447 C12.5508128,18.6279383 11.9613766,19.0056128 11.3235638,19.2632936 C11.3202638,19.2646277 11.317034,19.2660319 11.313734,19.2675064 C10.666934,19.5273638 9.97056383,19.6637872 9.25586809,19.6637872 C8.52965745,19.6637872 7.8353234,19.5230809 7.19884468,19.2676468 C7.18894468,19.2632936 7.17869362,19.2595021 7.16851277,19.2557106 C5.24461277,18.4703809 3.85791064,16.6305255 3.7443766,14.4340596 Z M9.2559383,20.7169787 C9.85148298,20.7169787 10.435934,20.635883 10.9974255,20.482117 L10.9974255,21.6255319 L10.9974255,22.4147234 C10.9974255,22.8803043 10.8163468,23.3178 10.4874,23.6466766 C10.1585936,23.9755532 9.72109787,24.1566319 9.25544681,24.1566319 C8.29486596,24.1566319 7.51339787,23.375234 7.51339787,22.4146532 L7.51339787,21.6255319 L7.51339787,20.4824681 C8.06899149,20.6346894 8.65309149,20.7169787 9.2559383,20.7169787 Z M1.05319149,22.2898149 C1.05319149,21.8563915 1.4058,21.503783 1.8392234,21.503783 L3.12165957,21.503783 C3.36305106,21.503783 3.55936596,21.7001681 3.55936596,21.9415596 L3.55936596,25.5030319 C3.55936596,25.7444234 3.36298085,25.9408085 3.12165957,25.9408085 L1.8392234,25.9408085 C1.4058,25.9408085 1.05319149,25.5882 1.05319149,25.1547766 L1.05319149,22.2898149 Z M16.3869574,25.3910426 L16.3869574,31.9124043 L14.9105936,31.9124043 L14.9105936,28.3842128 C14.9105936,28.0933915 14.6748894,27.857617 14.3839979,27.857617 C14.0931064,27.857617 13.8574021,28.0933915 13.8574021,28.3842128 L13.8574021,31.9124043 L4.65377234,31.9124043 L4.65377234,28.3842128 C4.65377234,28.0933915 4.41806809,27.857617 4.1271766,27.857617 C3.83628511,27.857617 3.60058085,28.0933915 3.60058085,28.3842128 L3.60058085,31.9124043 L2.1246383,31.9124043 L2.1246383,26.994 L3.12165957,26.994 C3.94378085,26.994 4.61255745,26.3251532 4.61255745,25.5030319 L4.61255745,22.2401043 C4.85675745,22.1821085 5.10797872,22.1521277 5.36348298,22.1521277 L6.46020638,22.1521277 L6.46020638,22.4147234 C6.46020638,23.9559638 7.71413617,25.2098936 9.25544681,25.2098936 C10.0024404,25.2098936 10.7044277,24.9192128 11.2321468,24.3914234 C11.7599362,23.863634 12.0505468,23.1616468 12.0505468,22.4147234 L12.0505468,22.1521277 L13.1479723,22.1521277 C14.9339745,22.1521277 16.3869574,23.6051106 16.3869574,25.3910426 Z M29.0568511,22.4147234 C29.0568511,22.9984723 28.1091894,23.8231915 27.3148723,24.3204383 C26.5199936,23.8230511 25.5721915,22.9984021 25.5721915,22.4147234 L25.5721915,20.4824681 C26.1276447,20.6346894 26.7116043,20.7169085 27.3143106,20.7169085 C27.9102766,20.7169085 28.4950787,20.6357426 29.0568511,20.4819064 L29.0568511,22.4147234 Z M34.8957447,17.528617 C34.8957447,18.5066106 34.1004447,19.3021915 33.1228723,19.3021915 L31.3881957,19.3021915 C31.5462447,19.1770723 31.6995191,19.0445809 31.8470362,18.9040851 C32.9472702,17.8552468 33.641534,16.4794277 33.8327234,14.9878277 C34.2251426,14.9874064 34.5903894,14.8693787 34.8957447,14.6676574 L34.8957447,17.528617 Z M19.9131128,12.3810383 C19.9131128,11.8927085 20.3103766,11.4954447 20.7986362,11.4954447 L21.2685,11.4954447 C21.5593915,11.4954447 21.7950957,11.2596702 21.7950957,10.9688489 L21.7950957,8.28257872 C22.4661894,8.38045532 23.1496404,8.42995532 23.8343553,8.42995532 C26.8725319,8.42995532 29.8418298,7.43595319 32.2618532,5.61968936 C32.6371404,6.31900851 32.8333149,7.09879149 32.8333149,7.90420213 L32.8333149,10.9689191 C32.8333149,11.2597404 33.0690191,11.4955149 33.3599106,11.4955149 L33.8306872,11.4955149 C34.3185255,11.4955149 34.7154383,11.8927787 34.7154383,12.3811085 L34.7154383,13.0491128 C34.7154383,13.5374426 34.3185957,13.9347064 33.8306872,13.9347064 L33.3516957,13.9347064 C33.0714766,13.9347064 32.8403362,14.1541213 32.8258021,14.4339894 C32.7524298,15.8465298 32.1467043,17.1633702 31.1204745,18.1417149 C30.6124851,18.6256213 30.0261383,19.0018213 29.391766,19.2594319 C29.3824277,19.263083 29.3732298,19.2670149 29.3641021,19.2712277 C28.7196191,19.5288383 28.0259872,19.6638574 27.3142404,19.6638574 C26.5883106,19.6638574 25.8941872,19.5232213 25.2579191,19.2678574 C25.2477383,19.2633638 25.2372766,19.2595021 25.2268149,19.2556404 C23.3034064,18.4702404 21.9170553,16.6304553 21.8035915,14.4341298 C21.7891277,14.1542617 21.5579872,13.9347064 21.2776979,13.9347064 L20.7987064,13.9347064 C20.3104468,13.9347064 19.9131128,13.5374426 19.9131128,13.0491128 L19.9131128,12.3810383 L19.9131128,12.3810383 Z M20.7964596,14.9878277 C21.0201574,16.7393553 21.9290617,18.2659213 23.2401447,19.3021915 L21.5068723,19.3021915 C20.5288787,19.3021915 19.7332979,18.5065404 19.7332979,17.528617 L19.7332979,14.6677277 C20.0386532,14.8693787 20.4039702,14.9874064 20.7964596,14.9878277 Z" id="Shape"></path>
                </g>
            </g>
        </g>
    </g>
</svg>