<?xml version="1.0" encoding="UTF-8"?>
<svg width="33px" height="25px" viewBox="0 0 33 25" version="1.1" xmlns="http://www.w3.org/2000/svg" xmlns:xlink="http://www.w3.org/1999/xlink">
    <!-- Generator: Sketch 55.2 (78181) - https://sketchapp.com -->
    <title>icn_soccer</title>
    <desc>Created with Sketch.</desc>
    <g id="Page-1" stroke="none" stroke-width="1" fill="none" fill-rule="evenodd" opacity="0.799999952">
        <g id="Sports-Overview" transform="translate(-29.000000, -145.000000)" fill="#0FB47E" fill-rule="nonzero">
            <g id="icn_soccer" transform="translate(20.000000, 140.000000)">
                <g transform="translate(9.000000, 5.000000)">
                    <path d="M16.9501181,5.60683404 C17.8516534,4.72979579 17.8684885,3.28893777 16.9914765,2.39204205 C16.1132716,1.49269723 14.6737446,1.47270738 13.7744627,2.34974564 C12.8739879,3.22651912 12.8539051,4.66433233 13.7331043,5.56235331 C14.6080615,6.46255861 16.0508362,6.48049653 16.9501181,5.60683404 Z" id="XMLID_478_"></path>
                    <path d="M14.3422581,21.1004809 C13.4428625,21.9752707 13.4237053,23.4139052 14.3009606,24.3120589 C15.1758959,25.2121321 16.6189856,25.2311939 17.5204361,24.3562716 C18.4199642,23.47943 18.4379282,22.0386776 17.5596786,21.1417152 C16.6814289,20.2415758 15.2428468,20.2236392 14.3422581,21.1004809 Z" id="XMLID_479_"></path>
                    <path d="M17.8721765,12.7730882 L14.5430619,11.826116 L14.0405035,10.208907 C14.7091959,9.44393986 14.6973962,8.28953242 13.9719179,7.5501285 L13.3813983,6.94905908 C13.1167774,6.67784889 12.6647028,6.45010956 12.4482862,6.39578763 L7.56979523,5.15310707 C7.12509536,5.03820556 6.65156677,5.17867033 6.34075287,5.5157858 L3.4049158,8.69288601 C2.9398347,9.19716122 2.97302125,9.98130084 3.47987049,10.4429706 C3.71881371,10.6610572 4.02097899,10.7695679 4.32307722,10.7695679 C4.66057446,10.7695679 4.99599334,10.6334302 5.24251247,10.3684777 L7.67257299,7.73632754 L9.29904952,8.15033249 L5.8253891,11.5112352 C5.29192357,11.964517 4.80974636,12.6836168 5.11606834,13.4071768 L6.48871798,16.6501157 L0.808855453,19.5747122 C0.0747956211,19.952436 -0.212284861,20.8503454 0.168053199,21.578166 C0.547318563,22.3016594 1.44623848,22.5910435 2.18559476,22.2133197 L9.09248834,18.6576303 C9.29060204,18.555577 9.44507038,18.4096534 9.57459851,18.2448237 L10.3289725,19.073699 L9.22530162,23.1272728 C9.00995773,23.9178698 9.48234659,24.7348955 10.2796955,24.9487215 C11.085559,25.1626141 11.9008086,24.6869644 12.1140741,23.9017596 L13.4308765,19.0661099 C13.5627511,18.5789434 13.4384524,18.0585581 13.0965973,17.6840963 L9.93361673,14.2049635 L12.0390524,12.1675585 L12.3594535,13.1962134 C12.4837522,13.5964381 12.8019409,13.9071249 13.2070181,14.0219599 L17.1853823,15.1528677 C17.8497169,15.3423288 18.5386564,14.9582142 18.7273169,14.3039545 C18.9169161,13.6464329 18.5343656,12.9613509 17.8721765,12.7730882 Z" id="XMLID_480_"></path>
                    <path d="M32.9267523,11.3758798 L31.4592751,7.26444475 C31.3038309,6.82936763 30.9211574,6.51483456 30.4639328,6.4459715 L25.4510588,5.6932618 C25.2224127,5.65984097 24.7199851,5.69656345 24.3685489,5.84405978 L23.582557,6.17361874 C22.6196664,6.57945264 22.1495555,7.65107515 22.4698894,8.62668018 L21.3666672,9.93622391 L17.9064813,9.51731815 C17.2023945,9.4344399 16.5921544,9.9233542 16.5091699,10.6103003 C16.4261853,11.298392 16.9156593,11.9220676 17.6036214,12.0049459 L21.7386808,12.5057192 C22.1505675,12.5573328 22.571225,12.3979101 22.8514834,12.0684185 L23.5511848,11.2359301 L24.8117404,14.2264199 L22.7307847,15.7114903 C22.5300701,15.8558198 22.3673394,16.0463724 22.257368,16.2661682 L18.9945234,22.8274977 C18.6246687,23.5705046 18.9286755,24.4740797 19.6737823,24.8433932 C20.4156507,25.2096073 21.3203172,24.9134018 21.6934779,24.1650718 L24.2337496,19.0540443 L28.7215271,24.4567628 C29.2499295,25.0910846 30.1977075,25.1848112 30.8424233,24.6540535 C31.4828886,24.1230263 31.571338,23.1753168 31.0398321,22.5357393 L26.9283861,17.586358 L29.4807345,15.0988651 C30.0370009,14.5571243 29.8947802,13.7720719 29.5927299,13.1032511 L27.6788903,8.56334233 L29.3480267,8.81305517 L30.5632444,12.2170603 C30.7972203,12.874022 31.5206702,13.2099148 32.1666678,12.9763059 C32.8188724,12.7447185 33.1595813,12.0275184 32.9267523,11.3758798 Z" id="XMLID_481_"></path>
                    <path d="M24.7799566,4.36551976 C25.9385953,3.88021738 26.4807422,2.54871283 25.9935918,1.39077633 C25.5064415,0.23588373 24.1730728,-0.308906897 23.0158256,0.178777656 C21.8572532,0.665138776 21.3118595,1.99770208 21.7990098,3.15570474 C22.2882806,4.310465 23.6224444,4.85518946 24.7799566,4.36551976 Z" id="XMLID_482_"></path>
                </g>
            </g>
        </g>
    </g>
</svg>