<?xml version="1.0" encoding="UTF-8"?>
<svg width="20px" height="18px" viewBox="0 0 20 18" version="1.1" xmlns="http://www.w3.org/2000/svg" xmlns:xlink="http://www.w3.org/1999/xlink">
    <!-- Generator: Sketch 55.2 (78181) - https://sketchapp.com -->
    <title>icn_camera</title>
    <desc>Created with Sketch.</desc>
    <g id="Page-1" stroke="none" stroke-width="1" fill="none" fill-rule="evenodd">
        <g id="Profile" transform="translate(-126.000000, -119.000000)" fill="#FFFFFF" fill-rule="nonzero">
            <g id="Group-4" transform="translate(118.000000, 110.000000)">
                <g id="icn_camera" transform="translate(8.000000, 9.000000)">
                    <path d="M19.9999523,4.37498957 L19.9999523,15.6249627 C19.9999523,16.1457946 19.8176609,16.5885023 19.4530786,16.9530846 C19.0884964,17.3176668 18.6457887,17.4999583 18.1249568,17.4999583 L1.87499553,17.4999583 C1.35416364,17.4999583 0.911455962,17.3176668 0.546873696,16.9530846 C0.182291431,16.5885023 0,16.1457946 0,15.6249627 L0,4.37498957 C0,3.85415768 0.182291431,3.41145 0.546873696,3.04686774 C0.911455962,2.68228547 1.35416364,2.5 1.87499553,2.5 L5.31248733,2.5 L5.78123622,1.21093461 C5.93748584,0.846352347 6.17186029,0.553384296 6.48435954,0.332030458 C6.79685879,0.110676621 7.14842046,-1.77635684e-15 7.53904453,-1.77635684e-15 L12.4609078,-1.77635684e-15 C12.8515319,-1.77635684e-15 13.2030935,0.110676621 13.5155928,0.332030458 C13.828092,0.553384296 14.0624665,0.846352347 14.2187161,1.21093461 L14.687465,2.5 L18.1249568,2.5 C18.6457887,2.5 19.0884964,2.68228547 19.4530786,3.04686774 C19.8176609,3.41145 19.9999523,3.85415768 19.9999523,4.37498957 Z M14.687465,9.99997616 C14.687465,9.14060321 14.4791323,8.35284447 14.0624665,7.63670054 C13.6458006,6.92055662 13.0793957,6.35415172 12.3632518,5.93748584 C11.6471078,5.52081997 10.8593491,5.31248733 9.99997616,5.31248733 C9.14060321,5.31248733 8.35284447,5.52081997 7.63670054,5.93748584 C6.92055662,6.35415172 6.35415172,6.92055662 5.93748584,7.63670054 C5.52081997,8.35284447 5.31248733,9.14060321 5.31248733,9.99997616 C5.31248733,10.8593491 5.52081997,11.6471078 5.93748584,12.3632518 C6.35415172,13.0793957 6.92055662,13.6458006 7.63670054,14.0624665 C8.35284447,14.4791323 9.14060321,14.687465 9.99997616,14.687465 C10.8593491,14.687465 11.6471078,14.4791323 12.3632518,14.0624665 C13.0793957,13.6458006 13.6458006,13.0793957 14.0624665,12.3632518 C14.4791323,11.6471078 14.687465,10.8593491 14.687465,9.99997616 Z M13.437468,9.99997616 C13.437468,10.9374739 13.0989269,11.7447639 12.4218454,12.4218454 C11.7447639,13.0989269 10.9374739,13.437468 9.99997616,13.437468 C9.06248435,13.437468 8.25518845,13.0989269 7.57810693,12.4218454 C6.90102541,11.7447639 6.56248435,10.9374739 6.56248435,9.99997616 C6.56248435,9.06248435 6.90102541,8.25518845 7.57810693,7.57810693 C8.25518845,6.90102541 9.06248435,6.56248435 9.99997616,6.56248435 C10.9374739,6.56248435 11.7447639,6.90102541 12.4218454,7.57810693 C13.0989269,8.25518845 13.437468,9.06248435 13.437468,9.99997616 Z" id="C"></path>
                </g>
            </g>
        </g>
    </g>
</svg>