<?xml version="1.0" encoding="UTF-8"?>
<svg width="40px" height="40px" viewBox="0 0 40 40" version="1.1" xmlns="http://www.w3.org/2000/svg" xmlns:xlink="http://www.w3.org/1999/xlink">
    <!-- Generator: Sketch 55.2 (78181) - https://sketchapp.com -->
    <title>icn_flag_gb</title>
    <desc>Created with Sketch.</desc>
    <g id="Page-1" stroke="none" stroke-width="1" fill="none" fill-rule="evenodd">
        <g id="Landing" transform="translate(-140.000000, -389.000000)" fill-rule="nonzero">
            <g id="icn_flag_gb" transform="translate(140.000000, 389.000000)">
                <circle id="Oval" fill="#F0F0F0" cx="20" cy="20" r="20"></circle>
                <g id="Group" transform="translate(0.672269, 0.672269)" fill="#0052B4">
                    <path d="M3.50081323,7.18103144 C1.93363039,9.22002914 0.751911087,11.570141 0.0638282732,14.123194 L10.4429757,14.123194 L3.50081323,7.18103144 Z" id="Path"></path>
                    <path d="M38.5916339,14.123194 C37.9035511,11.5702189 36.7217539,9.22010708 35.154649,7.18110938 L28.2126423,14.123194 L38.5916339,14.123194 Z" id="Path"></path>
                    <path d="M0.0638282732,24.532502 C0.751989021,27.0854771 1.93370832,29.4355889 3.50081323,31.4745087 L10.4427419,24.532502 L0.0638282732,24.532502 L0.0638282732,24.532502 Z" id="Path"></path>
                    <path d="M31.4744307,3.50089116 C29.435433,1.93370832 27.0853992,0.751989021 24.5323462,0.0638282732 L24.5323462,10.4428978 L31.4744307,3.50089116 Z" id="Path"></path>
                    <path d="M7.18103144,35.154571 C9.22002914,36.7217539 11.570141,37.9034732 14.123116,38.5916339 L14.123116,28.2126423 L7.18103144,35.154571 Z" id="Path"></path>
                    <path d="M14.1230381,0.0638282732 C11.570063,0.751989021 9.21995121,1.93370832 7.18103144,3.50081323 L14.1230381,10.4428199 L14.1230381,0.0638282732 Z" id="Path"></path>
                    <path d="M24.5324241,38.5916339 C27.0853992,37.9034732 29.435511,36.7217539 31.4744307,35.154649 L24.5324241,28.2126423 L24.5324241,38.5916339 Z" id="Path"></path>
                    <path d="M28.2126423,24.532502 L35.154649,31.4745866 C36.7217539,29.4356668 37.9035511,27.0854771 38.5916339,24.532502 L28.2126423,24.532502 Z" id="Path"></path>
                </g>
                <g id="Group" fill="#D80027">
                    <path d="M39.8307031,17.3913281 L22.6088281,17.3913281 L22.60875,17.3913281 L22.60875,0.169296875 C21.7547656,0.058125 20.8841406,0 20,0 C19.1157031,0 18.2452344,0.058125 17.3913281,0.169296875 L17.3913281,17.3911719 L17.3913281,17.39125 L0.169296875,17.39125 C0.058125,18.2452344 0,19.1158594 0,20 C0,20.8842969 0.058125,21.7547656 0.169296875,22.6086719 L17.3911719,22.6086719 L17.39125,22.6086719 L17.39125,39.8307031 C18.2452344,39.941875 19.1157031,40 20,40 C20.8841406,40 21.7547656,39.9419531 22.6086719,39.8307031 L22.6086719,22.6088281 L22.6086719,22.60875 L39.8307031,22.60875 C39.941875,21.7547656 40,20.8842969 40,20 C40,19.1158594 39.941875,18.2452344 39.8307031,17.3913281 Z" id="Path"></path>
                    <path d="M25.2174219,25.2174219 L25.2174219,25.2174219 L34.1421094,34.1421875 C34.5525781,33.731875 34.9441406,33.3028906 35.3177344,32.8582031 L27.6769531,25.2174219 L25.2174219,25.2174219 L25.2174219,25.2174219 Z" id="Path"></path>
                    <path d="M14.7825781,25.2175 L14.7824219,25.2175 L5.8578125,34.1421094 C6.268125,34.5525781 6.69710938,34.9441406 7.14179688,35.3177344 L14.7825781,27.6767969 L14.7825781,25.2175 Z" id="Path"></path>
                    <path d="M14.7825781,14.7827344 L14.7825781,14.7825781 L5.85789063,5.8578125 C5.44742188,6.268125 5.05585938,6.69710938 4.68226563,7.14179688 L12.323125,14.7827344 L14.7825781,14.7827344 L14.7825781,14.7827344 Z" id="Path"></path>
                    <path d="M25.2174219,14.7827344 L25.2174219,14.7827344 L34.1421875,5.85789063 C33.731875,5.44742188 33.3028906,5.05585938 32.8582031,4.68234375 L25.2174219,12.3232031 L25.2174219,14.7827344 L25.2174219,14.7827344 Z" id="Path"></path>
                </g>
            </g>
        </g>
    </g>
</svg>