<?xml version="1.0" encoding="UTF-8"?>
<svg width="143px" height="104px" viewBox="0 0 143 104" version="1.1" xmlns="http://www.w3.org/2000/svg" xmlns:xlink="http://www.w3.org/1999/xlink">
    <!-- Generator: Sketch 55.2 (78181) - https://sketchapp.com -->
    <title>img_cake_orange</title>
    <desc>Created with Sketch.</desc>
    <defs>
        <linearGradient x1="50%" y1="3.061617e-15%" x2="50%" y2="100%" id="linearGradient-1">
            <stop stop-color="#F76D1D" offset="0%"></stop>
            <stop stop-color="#FFCC27" offset="100%"></stop>
        </linearGradient>
        <path d="M7.69814046,104 C2.77475446,94.2783551 0,83.2801446 0,71.6326531 C0,32.0710312 32.0116404,0 71.5,0 C110.98836,0 143,32.0710312 143,71.6326531 C143,83.2801446 140.225246,94.2783551 135.30186,104 L7.69814046,104 Z" id="path-2"></path>
    </defs>
    <g id="Page-1" stroke="none" stroke-width="1" fill="none" fill-rule="evenodd">
        <g id="Gender-Prompt_Sucess" transform="translate(-116.000000, -109.000000)">
            <g id="img_cake_orange" transform="translate(116.000000, 109.000000)">
                <mask id="mask-3" fill="white">
                    <use xlink:href="#path-2"></use>
                </mask>
                <use id="Combined-Shape" fill="url(#linearGradient-1)" xlink:href="#path-2"></use>
                <g id="1718051" mask="url(#mask-3)">
                    <g transform="translate(33.000000, 26.000000)">
                        <g id="Group" stroke-width="1" fill="none" fill-rule="evenodd" transform="translate(15.375000, 1.121094)">
                            <path d="M5.12750244,12.5678863 C5.6423798,12.4921875 6.14349365,12.3120117 6.59893799,12.0179748 C10.8612213,9.26153564 8.3694152,2.70451359 5.28765869,0.218963703 C4.95295711,-0.0512999688 4.44996639,0.0919647617 4.30607609,0.49798584 C3.95761116,1.48332218 3.65669246,2.31288143 3.01919548,3.12617489 C2.32664494,4.0095367 1.39323429,4.82971191 0.804534992,5.73934945 C-0.185806234,7.26771541 -0.0725708008,9.28656006 0.971572836,10.7592469 C1.91812126,12.0949249 3.58662411,12.7949829 5.12750244,12.5678863 Z" id="Path" fill="#FF7117" fill-rule="nonzero"></path>
                            <path d="M23.6092834,12.5678863 C24.1247863,12.4921875 24.6259003,12.3120117 25.0813446,12.0179748 C29.3430024,9.26153564 26.8518219,2.70451359 23.7700653,0.218963703 C23.4347382,-0.0512999688 22.9317475,0.0919647617 22.7884826,0.49798584 C22.4393921,1.48332218 22.1390991,2.31288143 21.5009766,3.12617489 C20.8090516,4.0095367 19.8750152,4.82971191 19.2863159,5.73934945 C18.2966004,7.26771541 18.4098359,9.28656006 19.4533539,10.7592469 C20.4005279,12.0949249 22.0684052,12.7949829 23.6092834,12.5678863 Z" id="Path" fill="#FF7117" fill-rule="nonzero"></path>
                            <path d="M42.09169,12.5678863 C42.607193,12.4921875 43.1083068,12.3120117 43.5637511,12.0179748 C47.825409,9.26153564 45.3342285,2.70451359 42.2524718,0.218963703 C41.9171447,-0.0512999688 41.4141541,0.0919647617 41.2708892,0.49798584 C40.9217987,1.48332218 40.6215058,2.31288143 39.9833832,3.12617489 C39.2908325,4.0095367 38.3574219,4.82971191 37.7687226,5.73934945 C36.7790069,7.26771541 36.8922424,9.28656006 37.9357606,10.7592469 C38.8829346,12.0949249 40.5508117,12.7949829 42.09169,12.5678863 Z" id="Path" fill="#FF7117" fill-rule="nonzero"></path>
                        </g>
                        <path d="M21.973938,13.1390685 C21.5184937,13.433731 21.0186309,13.6132812 20.5025024,13.6889801 C19.771164,13.7959595 19.0110474,13.6952362 18.3141174,13.4180908 C18.4917909,13.3392638 18.6650849,13.2479248 18.8314972,13.1390685 C22.3155213,10.8862457 21.2895203,6.09782414 19.1136475,3.06486515 C19.3269806,2.61254883 19.4971466,2.13645939 19.6817017,1.61845402 C19.8243408,1.21305851 20.3273315,1.07041935 20.6626587,1.34005745 C23.7456665,3.82623291 26.2368468,10.383255 21.973938,13.1390685 Z" id="Path" fill="#FF5F00" fill-rule="nonzero"></path>
                        <path d="M40.4569702,13.1390685 C40.0015259,13.433731 39.4997863,13.6132812 38.9849091,13.6889801 C38.2541962,13.7959595 37.4940796,13.6952362 36.796524,13.4180908 C36.9748231,13.3392638 37.1474914,13.2479248 37.3145294,13.1390685 C40.7979278,10.8862457 39.7719268,6.09782414 37.5966797,3.06486515 C37.8100128,2.61254883 37.9795532,2.13645939 38.1641083,1.61845402 C38.3067475,1.21305851 38.8103638,1.07041935 39.1450653,1.34005745 C42.2268219,3.82623291 44.7180024,10.383255 40.4569702,13.1390685 Z" id="Path" fill="#FF5F00" fill-rule="nonzero"></path>
                        <path d="M58.9393769,13.1390685 C58.4826812,13.433731 57.982193,13.6132813 57.4660645,13.6889801 C56.7353516,13.7959595 55.9764862,13.6952362 55.2795562,13.4162139 C55.4572296,13.3392638 55.6305236,13.2460479 55.796936,13.1390685 C59.2790832,10.8862457 58.2530822,6.09782414 56.077835,3.06486515 C56.2924194,2.61254883 56.4625854,2.13645939 56.6452637,1.61845402 C56.7897797,1.21305851 57.2927704,1.07041935 57.6280976,1.34005745 C60.7092285,3.82623291 63.200409,10.383255 58.9393769,13.1390685 L58.9393769,13.1390685 Z" id="Path" fill="#FF5F00" fill-rule="nonzero"></path>
                        <path d="M23.4935455,24.3587646 L16.2483521,24.3587646 L16.2483521,14.6955871 C16.2483521,14.1331635 16.704422,13.6770936 17.2674713,13.6770936 L22.4750518,13.6770936 C23.0374756,13.6770936 23.4935455,14.1331635 23.4935455,14.6955871 L23.4935455,24.3587646 Z" id="Path" fill="#F3CC50" fill-rule="nonzero"></path>
                        <path d="M41.9759521,24.3587646 L34.7307587,24.3587646 L34.7307587,14.6955871 C34.7307587,14.1331635 35.1868286,13.6770936 35.7492524,13.6770936 L40.9574585,13.6770936 C41.5198822,13.6770936 41.9759521,14.1331635 41.9759521,14.6955871 L41.9759521,24.3587646 Z" id="Path" fill="#F3CC50" fill-rule="nonzero"></path>
                        <path d="M60.4583588,24.3587646 L53.2131652,24.3587646 L53.2131652,14.6955871 C53.2131652,14.1331635 53.6692353,13.6770936 54.231659,13.6770936 L59.4392394,13.6770936 C60.0022889,13.6770936 60.4583588,14.1331635 60.4583588,14.6955871 L60.4583588,24.3587646 Z" id="Path" fill="#F3CC50" fill-rule="nonzero"></path>
                        <path d="M23.4935455,14.6955871 L23.4935455,24.3593902 L19.8706359,24.3593902 L19.8706359,14.6955871 C19.8706359,14.1331635 19.4151916,13.6777192 18.852768,13.6777192 L22.4744263,13.6777192 C23.03685,13.6777192 23.4935455,14.1331635 23.4935455,14.6955871 Z" id="Path" fill="#EEB900" fill-rule="nonzero"></path>
                        <path d="M41.9765777,14.6955871 L41.9765777,24.3593902 L38.3536681,24.3593902 L38.3536681,14.6955871 C38.3536681,14.1331635 37.8963471,13.6777192 37.3351746,13.6777192 L40.9568329,13.6777192 C41.5198822,13.6777192 41.9765777,14.1331635 41.9765777,14.6955871 Z" id="Path" fill="#EEB900" fill-rule="nonzero"></path>
                        <path d="M60.4577332,14.6955871 L60.4577332,24.3593902 L56.8360748,24.3593902 L56.8360748,14.6955871 C56.8360748,14.1331635 56.3793793,13.6777192 55.81633,13.6777192 L59.4398652,13.6777192 C60.0022889,13.6777192 60.4577332,14.1331635 60.4577332,14.6955871 Z" id="Path" fill="#EEB900" fill-rule="nonzero"></path>
                        <polygon id="Path" fill="#FFE7BF" fill-rule="nonzero" points="3.95323185 53.9557647 72.753479 53.9557647 72.753479 67.3995057 3.95323185 67.3995057"></polygon>
                        <polygon id="Path" fill="#FFE7BF" fill-rule="nonzero" points="3.95323185 27.0476379 72.753479 27.0476379 72.753479 40.4913788 3.95323185 40.4913788"></polygon>
                        <path d="M68.6532287,80.797577 L8.05348202,80.797577 C5.78877254,80.797577 3.95323185,78.9620361 3.95323185,76.6979522 L3.95323185,67.353836 L72.753479,67.353836 L72.753479,76.6979522 C72.753479,78.9620361 70.9179383,80.797577 68.6532287,80.797577 Z" id="Path" fill="#C78E7A" fill-rule="nonzero"></path>
                        <polygon id="Path" fill="#C78E7A" fill-rule="nonzero" points="3.95323185 40.4913788 72.753479 40.4913788 72.753479 53.9351196 3.95323185 53.9351196"></polygon>
                        <polygon id="Path" fill="#FFE1A8" fill-rule="nonzero" points="69.0536193 53.9551392 72.753479 53.9551392 72.753479 67.39888 69.0536193 67.39888"></polygon>
                        <polygon id="Path" fill="#FFE1A8" fill-rule="nonzero" points="69.0536193 27.0476379 72.753479 27.0476379 72.753479 40.4920044 69.0536193 40.4920044"></polygon>
                        <path d="M72.753479,67.3544618 L72.753479,76.6973267 C72.753479,78.9626617 70.9179383,80.7982026 68.6526031,80.7982026 L64.9527436,80.7982026 C67.2180786,80.7982026 69.0536193,78.9626617 69.0536193,76.6973267 L69.0536193,67.3544618 L72.753479,67.3544618 Z" id="Path" fill="#AC6A51" fill-rule="nonzero"></path>
                        <polygon id="Path" fill="#AC6A51" fill-rule="nonzero" points="69.0536193 40.4920044 72.753479 40.4920044 72.753479 53.9357452 69.0536193 53.9357452"></polygon>
                        <path d="M1.20242302,27.1070709 L1.20242302,37.9532775 C1.20242302,41.3296967 3.94009391,44.0673676 7.3165131,44.0673676 C10.6935577,44.0673676 13.430603,41.3296967 13.430603,37.9532775 L13.430603,37.1406098 C13.430603,34.8039551 15.3249512,32.9096069 17.6622314,32.9096069 C19.9988861,32.9096069 21.8932343,34.8039551 21.8932343,37.1406098 L21.8932343,37.9532775 C21.8932343,41.3296967 24.6309052,44.0673676 28.0073242,44.0673676 C31.384369,44.0673676 34.1214141,41.3296967 34.1214141,37.9532775 L34.1214141,37.1406098 C34.1214141,34.8039551 36.0163879,32.9096069 38.3530426,32.9096069 C40.6896973,32.9096069 42.584671,34.8039551 42.584671,37.1406098 L42.584671,37.9532775 C42.584671,41.3296967 45.3217163,44.0673676 48.6987609,44.0673676 C52.0751801,44.0673676 54.812851,41.3296967 54.812851,37.9532775 L54.812851,37.1406098 C54.812851,34.8039551 56.7071991,32.9096069 59.0438537,32.9096069 C61.381134,32.9096069 63.2754823,34.8039551 63.2754823,37.1406098 L63.2754823,37.9532775 C63.2754823,41.3296967 66.0125274,44.0673676 69.3895722,44.0673676 C72.7659912,44.0673676 75.5036621,41.3296967 75.5036621,37.9532775 L75.5036621,27.1070709 C75.5036621,25.5893402 74.2730865,24.3587646 72.7553559,24.3587646 L3.95072941,24.3587646 C2.43299862,24.3587646 1.20242302,25.5893402 1.20242302,27.1070709 L1.20242302,27.1070709 Z" id="Path" fill="#8BEBDB" fill-rule="nonzero"></path>
                        <path d="M75.5049132,27.1070709 L75.5049132,37.9526519 C75.5049132,39.6424256 74.8204956,41.170166 73.7137909,42.2762451 C72.6064605,43.3823242 71.0787201,44.066742 69.3901978,44.066742 C68.6194458,44.066742 67.8818512,43.9241027 67.2018127,43.6625977 C68.0113525,43.3547974 68.7376861,42.8774566 69.3388976,42.2762451 C70.4449767,41.170166 71.1300201,39.6424256 71.1300201,37.9526519 L71.1300201,27.1070709 C71.1300201,25.5887147 69.9000702,24.3593902 68.3817139,24.3593902 L72.7553559,24.3593902 C74.2737121,24.3593902 75.5049132,25.5887147 75.5049132,27.1070709 L75.5049132,27.1070709 Z" id="Path" fill="#5EE2C5" fill-rule="nonzero"></path>
                        <path d="M72.7559814,23.1563416 L61.6607818,23.1563416 L61.6607818,14.6955871 C61.6607818,14.0299377 61.3648682,13.433731 60.8994141,13.0258331 C61.8071747,11.995453 62.3220519,10.6879272 62.4015045,9.16769417 C62.5816803,5.72683708 60.4652404,2.08453369 58.381958,0.404144367 C57.9221344,0.0331573086 57.3071593,-0.0919647617 56.737854,0.0688172187 C56.1672974,0.23085018 55.7093506,0.660018961 55.5122833,1.21806339 C55.1588135,2.21778866 54.9160767,2.86279297 54.4124604,3.50592041 C54.1572113,3.83123779 53.8562928,4.15718075 53.537857,4.50251766 C53.0455018,5.03491211 52.5368805,5.58544922 52.1346131,6.20668026 C50.9015351,8.1116639 50.9797363,10.6710357 52.3298035,12.5760194 C52.452423,12.7486877 52.5850526,12.9125977 52.7251893,13.0690002 C52.2872619,13.4743957 52.0107422,14.0530854 52.0107422,14.6962128 L52.0107422,16.4992218 C52.0107422,17.1629943 52.5487671,17.7016449 53.2131652,17.7016449 C53.8775635,17.7016449 54.4155884,17.1629943 54.4155884,16.4992218 L54.4155884,14.878891 L59.2559356,14.878891 L59.2559356,23.1563416 L54.4155884,23.1563416 L54.4155884,22.0296173 C54.4155884,21.3652192 53.8775635,20.8271943 53.2131652,20.8271943 C52.5487671,20.8271943 52.0107422,21.3652192 52.0107422,22.0296173 L52.0107422,23.1563416 L43.1783752,23.1563416 L43.1783752,14.6955871 C43.1783752,14.0299377 42.8824615,13.433731 42.417633,13.0258331 C43.3247681,11.995453 43.8396454,10.6879272 43.9190978,9.16769417 C44.0998993,5.72683708 41.9828339,2.08453369 39.9001769,0.404144367 C39.4397277,0.0331573086 38.8247528,-0.0919647617 38.2554473,0.0688172187 C37.6855164,0.230224609 37.2275695,0.660018961 37.0298768,1.21806339 C36.6764068,2.21778866 36.4342957,2.86279297 35.9300537,3.50592041 C35.6748047,3.83186336 35.3738861,4.15780648 35.0548248,4.50251766 C34.5630951,5.03491211 34.0544738,5.58544922 33.6522065,6.20730583 C32.419754,8.1116639 32.4979552,10.6710357 33.8473969,12.5760194 C33.9706421,12.7486877 34.1020203,12.9132232 34.2421571,13.0690002 C33.8048554,13.4750214 33.5283355,14.0530854 33.5283355,14.6955871 L33.5283355,23.1563416 L24.6959687,23.1563416 L24.6959687,14.6955871 C24.6959687,14.0305634 24.4006806,13.4343566 23.9358521,13.0264588 C24.8442383,11.9960785 25.3572388,10.6879272 25.4373169,9.16769417 C25.6174927,5.72683708 23.5010528,2.08453369 21.4177704,0.404144367 C20.9573212,0.0331573086 20.3429718,-0.0919647617 19.7730409,0.0688172187 C19.2031098,0.230224609 18.745163,0.660018961 18.5480957,1.21806339 C18.2421723,2.08265682 17.9775391,2.82963566 17.4476471,3.50592041 C17.192398,3.83186336 16.8914795,4.15718075 16.5730439,4.50251766 C16.0806885,5.03491211 15.5720673,5.58544922 15.1697998,6.20668026 C13.9373475,8.1116639 14.0155487,10.6710357 15.3656158,12.5753936 C15.4882354,12.7486877 15.6202393,12.9125977 15.760376,13.0690002 C15.3224487,13.4750214 15.0465546,14.0530854 15.0465546,14.6955871 L15.0465546,23.1563416 L3.95072941,23.1563416 C1.77235409,23.1563416 0,24.9286957 0,27.1070709 L0,37.9532775 C0,40.2617798 1.07542423,42.3219146 2.75080868,43.6644745 L2.75080868,45.8897705 C2.75080868,46.5541688 3.28883358,47.0921935 3.95323185,47.0921935 C4.61700439,47.0921935 5.15565487,46.5541688 5.15565487,45.8897705 L5.15565487,44.9438477 C5.83882137,45.1553039 6.56452938,45.2697906 7.3165131,45.2697906 C9.98474121,45.2697906 12.3232726,43.8333892 13.6013946,41.6938018 L21.7230683,41.6938018 C23.0011903,43.8333892 25.3397217,45.2697906 28.0073242,45.2697906 C30.6755523,45.2697906 33.0140839,43.8333892 34.2922059,41.6938018 L42.4138794,41.6938018 C43.6920014,43.8333892 46.0305328,45.2697906 48.6987609,45.2697906 C51.3663634,45.2697906 53.704895,43.8333892 54.983017,41.6938018 L63.1046905,41.6938018 C64.3834381,43.8333892 66.7213439,45.2697906 69.3895722,45.2697906 C70.1415557,45.2697906 70.8672638,45.1553039 71.5504303,44.9438477 L71.5504303,52.7533417 L5.15565487,52.7533417 L5.15565487,51.5008697 C5.15565487,50.8364716 4.61762996,50.2984467 3.95323185,50.2984467 C3.28883358,50.2984467 2.75080868,50.8364716 2.75080868,51.5008697 L2.75080868,53.9357452 C2.75080868,53.9388732 2.75143441,53.9420014 2.75143441,53.945755 C2.75143441,53.948883 2.75080868,67.3544617 2.75080868,67.3544617 L2.75080868,76.6979522 C2.75080868,79.6214295 5.12937931,82 8.05348202,82 L68.6532287,82 C71.5773315,82 73.9559022,79.6214295 73.9559022,76.6979522 L73.9559022,43.6638488 C75.6306611,42.3219146 76.7060851,40.2611542 76.7060851,37.9532775 L76.7060851,27.1070709 C76.7060851,24.9286957 74.9343566,23.1563416 72.7559814,23.1563416 Z M58.2856141,12.1293335 C58.0234833,12.2988739 57.7306977,12.4127349 57.4166412,12.4746704 L56.3168183,12.4746704 C55.5210419,12.3232726 54.7715606,11.8621978 54.2917176,11.1846619 C53.5053253,10.0754547 53.449646,8.59963981 54.1534576,7.51358024 C54.4431152,7.06564339 54.8610229,6.61270134 55.3039551,6.13410946 C55.6411591,5.76937874 55.989624,5.39150993 56.3049316,4.98924259 C56.8629761,4.27729793 57.2039337,3.5534668 57.4804535,2.8390197 C58.8899536,4.31483455 60.1167755,6.81039437 60.000412,9.0413208 C59.9290924,10.4007721 59.3522797,11.4392852 58.2856141,12.1293335 L58.2856141,12.1293335 Z M35.6710509,7.51358024 C35.9607086,7.06564339 36.3786163,6.61332707 36.8209229,6.13410946 C37.1587524,5.76937874 37.5072174,5.39213566 37.822525,4.98924259 C38.3805694,4.27729793 38.7215272,3.5534668 38.9980469,2.8390197 C40.407547,4.31483455 41.6349945,6.81039437 41.5180054,9.0413208 C41.4466857,10.4007721 40.869873,11.4392852 39.803833,12.1293335 C39.5410767,12.2988739 39.248291,12.4127349 38.9342345,12.4746704 L37.8344116,12.4746704 C37.0386353,12.3232726 36.2897797,11.8621978 35.8099365,11.1846619 C35.0235444,10.0754547 34.9678651,8.59963981 35.6710509,7.51358024 Z M40.7735291,14.878891 L40.7735291,23.1563416 L35.9331817,23.1563416 L35.9331817,14.878891 L40.7735291,14.878891 Z M17.1886444,7.51358024 C17.4783019,7.06564339 17.8962098,6.61332707 18.3391418,6.13410946 C18.6763458,5.76937874 19.0248107,5.39213566 19.3401183,4.98924259 C19.8987885,4.27729793 20.2397461,3.5534668 20.5162658,2.8390197 C21.925766,4.31483455 23.1525879,6.81039437 23.0355987,9.0413208 C22.9642792,10.4007721 22.3874664,11.4392852 21.3214264,12.1293335 C21.05867,12.2988739 20.7658844,12.4127349 20.4524536,12.4746704 L19.352005,12.4746704 C18.5562286,12.3232726 17.807373,11.8615723 17.3275299,11.1846619 C16.5411377,10.0754547 16.4854584,8.59963981 17.1886444,7.51358024 Z M22.2911225,14.878891 L22.2911225,23.1563416 L17.4507752,23.1563416 L17.4507752,14.878891 L22.2911225,14.878891 Z M14.5091553,39.2889556 C14.5892334,38.8554077 14.6330262,38.4093476 14.6330262,37.9532775 L14.6330262,37.1412354 C14.6330262,35.4708556 15.9918517,34.1120301 17.6622314,34.1120301 C19.3326112,34.1120301 20.6914367,35.4708556 20.6914367,37.1412354 L20.6914367,37.9532775 C20.6914367,38.4093476 20.7352295,38.8554077 20.8159332,39.2889556 L14.5091553,39.2889556 Z M35.1999664,39.2889556 C35.2800445,38.8554077 35.3244629,38.4093476 35.3244629,37.9532775 L35.3244629,37.1412354 C35.3244629,35.4708556 36.6832886,34.1120301 38.3536681,34.1120301 C40.0234223,34.1120301 41.382248,35.4708556 41.382248,37.1412354 L41.382248,37.9532775 C41.382248,38.4093476 41.4266662,38.8554077 41.5067443,39.2889556 L35.1999664,39.2889556 Z M55.8907775,39.2889556 C55.9714814,38.8554077 56.015274,38.4093476 56.015274,37.9532775 L56.015274,37.1412354 C56.015274,35.4708556 57.3740997,34.1120301 59.0444794,34.1120301 C60.714859,34.1120301 62.0736847,35.4708556 62.0736847,37.1412354 L62.0736847,37.9532775 C62.0736847,38.4093476 62.1174775,38.8554077 62.1975556,39.2889556 L55.8907775,39.2889556 Z M71.5510558,55.1581879 L71.5510558,66.151413 L5.15565487,66.151413 L5.15565487,55.1581879 L71.5510558,55.1581879 Z M68.6532287,79.5951538 L8.05348202,79.5951538 C6.45567326,79.5951538 5.15565487,78.2951356 5.15565487,76.6979522 L5.15565487,68.6019287 L71.5510558,68.6019287 L71.5510558,76.6979522 C71.5510558,78.2951356 70.2510376,79.5951538 68.6532287,79.5951538 Z M74.3018647,37.9532775 C74.3018647,40.6615448 72.0984649,42.8649444 69.3895722,42.8649444 C66.6813049,42.8649444 64.4779053,40.6615448 64.4779053,37.9532775 L64.4779053,37.1412354 C64.4779053,34.1445617 62.0405273,31.7071838 59.0438537,31.7071838 C56.0478057,31.7071838 53.6104278,34.1445617 53.6104278,37.1412354 L53.6104278,37.9532775 C53.6104278,40.6615448 51.4070282,42.8649444 48.6987609,42.8649444 C45.9898682,42.8649444 43.7864686,40.6615448 43.7864686,37.9532775 L43.7864686,37.1412354 C43.7864686,34.1445617 41.3490907,31.7071838 38.3530426,31.7071838 C35.3563691,31.7071838 32.9189911,34.1445617 32.9189911,37.1412354 L32.9189911,37.9532775 C32.9189911,40.6615448 30.7155914,42.8649444 28.0073242,42.8649444 C25.299057,42.8649444 23.0956573,40.6615448 23.0956573,37.9532775 L23.0956573,37.1412354 C23.0956573,34.1445617 20.6576538,31.7071838 17.6616059,31.7071838 C14.6655578,31.7071838 12.2275543,34.1445617 12.2275543,37.1412354 L12.2275543,37.9532775 C12.2275543,40.6615448 10.0241547,42.8649444 7.31588753,42.8649444 C4.6076202,42.8649444 2.40422062,40.6615448 2.40422062,37.9532775 L2.40422062,27.1070709 C2.40422062,26.2543641 3.09739689,25.5611877 3.94947811,25.5611877 L72.7547303,25.5611877 C73.6074371,25.5611877 74.3006134,26.2543641 74.3006134,27.1070709 L74.3006134,37.9532775 L74.3018647,37.9532775 Z" id="Shape" fill="#000000" fill-rule="nonzero"></path>
                    </g>
                </g>
            </g>
        </g>
    </g>
</svg>