<?xml version="1.0" encoding="UTF-8"?>
<svg width="297px" height="150px" viewBox="0 0 297 150" version="1.1" xmlns="http://www.w3.org/2000/svg" xmlns:xlink="http://www.w3.org/1999/xlink">
    <!-- Generator: Sketch 55.2 (78181) - https://sketchapp.com -->
    <title>img_BackGroundWaves3</title>
    <desc>Created with Sketch.</desc>
    <g id="Page-1" stroke="none" stroke-width="1" fill="none" fill-rule="evenodd" opacity="0.200000003">
        <g id="Match" transform="translate(-39.000000, -488.000000)" stroke="#808080">
            <g id="Group-6" transform="translate(39.000000, 108.000000)">
                <g id="Group">
                    <g id="img_BackGroundWaves3" transform="translate(148.584500, 714.000000) scale(-1, 1) rotate(-194.000000) translate(-148.584500, -714.000000) translate(-107.915500, 424.000000)">
                        <path d="M35.6994041,578.070427 C37.7793932,578.422504 39.9476981,578.678816 42.2012735,578.830914 C77.7072666,581.213775 116.724574,559.846893 149.474505,546.06517 C195.356081,526.754422 228.511047,524.878553 273.013069,527.016367 C303.96014,528.503543 336.77707,527.974018 370.340115,521.095832 C403.900116,514.217645 438.498588,500.252842 460.513583,480.91111 C482.531623,461.569379 488.957358,436.836636 470.822167,423.795684 C460.836392,416.613302 445.006548,413.500937 430.949111,409.228124 C416.891673,404.955311 403.601669,398.637632 402.030257,388.083756 C400.611114,378.563579 409.074203,367.508344 419.081296,357.638907 C449.851735,327.28419 491.238342,296.890041 507.171728,264.127114 C521.816923,234.02026 507.576763,205.414664 478.810178,188.923352 C432.176395,162.187993 352.509462,172.401058 287.990209,207.977789 C256.589377,225.29437 230.731123,247.097828 215.19668,269.743455 C192.950237,302.18247 201.114879,330.258541 194.095297,361.345579 C191.229602,374.023187 184.718596,387.373967 169.446055,399.12209 C149.492777,414.472671 120.421655,420.7819 95.4130599,430.586556 C71.1810342,440.084199 51.568838,452.570277 35.7664023,467.523714 C4.52088469,497.089777 -8.26663268,532.694674 5.50758524,558.728695 C10.3740898,567.92496 20.6765836,575.515752 35.6994041,578.070427 Z" id="Stroke-1"></path>
                        <path d="M284.932706,199.000239 C253.76442,214.675676 228.162552,233.961825 211.938591,254.337366 C206.884027,260.685595 203.21269,266.924323 200.461471,273.109705 C190.733188,294.967716 192.606941,315.907606 186.01072,338.790431 C182.528281,350.880424 175.706601,363.680767 161.316785,375.254141 C154.629162,380.633711 147.021419,385.055852 139.035878,389.042798 C124.19819,396.446725 108.248436,401.961065 94.1907166,408.696757 C77.9423813,416.479725 64.7590798,425.750779 53.7024122,436.187032 C50.4850407,439.216549 47.4535212,442.372413 44.5499653,445.606894 C19.0120792,474.07425 9.34168429,507.483174 23.6096299,533.889673 C28.1858534,542.37176 37.6277418,549.435955 51.4082069,551.912354 C53.3154745,552.26051 55.3050044,552.521626 57.3767966,552.690089 C90.0105711,555.343374 125.84953,536.469957 156.015434,524.447349 C198.164219,507.469136 228.854165,505.371777 269.781202,508.628719 C292.778096,510.459345 317.374535,511.523467 342.321351,508.185101 C350.24291,507.126595 358.194936,505.652548 366.119541,503.743306 C382.36483,499.832168 398.555277,493.93598 412.75924,486.543284 C424.769542,480.32421 435.387477,473.144899 444.39368,465.131699 C446.297901,463.43865 448.132046,461.703487 449.896116,459.940246 C458.155864,451.660313 464.176249,442.549299 467.50635,433.842595 C471.988124,421.968796 471.055818,410.920463 462.366477,403.814152 C454.027514,396.997036 440.204394,394.062981 428.069176,389.991803 C415.882163,385.937472 404.353248,380.038477 403.545858,370.29292 C402.814638,361.482331 411.129227,351.273503 420.796576,342.131604 C450.889358,313.877633 490.494104,285.446777 506.306753,254.168904 C520.577746,225.948625 506.303707,201.086366 482.517704,182.263488 C452.178134,158.260388 398.567464,150.028187 346.157214,169.314337 C325.652564,176.858649 305.111353,188.855988 284.932706,199.000239 Z" id="Stroke-3"></path>
                        <path d="M279.698498,192.104987 C248.79102,206.35691 223.332592,223.11841 206.347072,241.358619 C201.117938,246.97489 197.177762,252.593978 194.098926,258.227149 C183.307729,277.965781 183.234424,297.563583 175.528171,319.20341 C171.404731,330.78521 164.27576,343.116222 150.732549,354.585358 C144.351906,359.990386 137.250425,364.58987 129.950408,368.87953 C116.288075,376.901165 102.298922,383.069488 90.3959231,390.215165 C76.6358492,398.476211 66.2722686,407.920222 57.7474371,418.152878 C55.2581007,421.121559 52.9520284,424.20572 50.6917721,427.337763 C30.8534414,454.850171 24.2528821,486.308615 39.0514521,513.254889 C43.3459391,521.076547 51.9562939,527.619475 64.5068252,530.075538 C66.2508878,530.416345 68.0682561,530.686737 69.9589299,530.866998 C99.7820956,533.813147 132.549703,517.426252 160.140102,506.97672 C198.704962,492.369907 226.942894,490.043407 264.340972,494.282369 C286.928263,496.845461 311.555894,498.997333 336.336244,495.39492 C344.210489,494.242936 352.100005,492.575518 359.885672,490.401114 C375.841859,485.948092 391.407084,479.219269 404.427993,471.056804 C415.402454,464.181519 424.599253,456.50914 432.549858,448.104448 C434.220615,446.335633 435.836392,444.530201 437.415517,442.699421 C444.730806,434.201782 450.323414,424.971831 453.863464,416.226333 C458.597784,404.548769 458.952095,393.899259 452.079694,387.212685 C445.39972,380.717639 433.548646,377.91232 423.310296,374.047964 C412.989477,370.155443 403.184852,364.663101 403.139036,355.66411 C403.096274,347.507279 411.245415,338.052001 420.628533,329.607877 C449.990484,303.179855 487.990279,276.633536 503.72655,246.639716 C517.633235,220.127197 507.193295,194.225876 484.468556,177.582672 C462.51658,143.051333 399.562333,132.125797 343.941702,156.683607 C322.817468,166.009322 301.571059,182.018794 279.698498,192.104987 Z" id="Stroke-5"></path>
                        <path d="M275.797005,183.178911 C245.37856,196.010575 220.138566,210.023549 202.436128,226.017532 C197.065657,230.866234 192.871691,235.813145 189.467142,240.866682 C177.692948,258.336601 175.614253,276.477145 166.863616,296.716549 C162.102733,307.71592 154.714525,319.495348 142.080813,330.778121 C136.036747,336.17118 129.468435,340.918867 122.884884,345.475749 C110.467575,354.067605 98.4952654,360.844003 88.8180547,368.341533 C77.5955383,377.037209 70.1372282,386.588704 64.1541212,396.530227 C62.4167952,399.420368 60.8379621,402.405911 59.2316975,405.413902 C45.2142198,431.733825 41.678609,461.081381 56.9487902,488.377779 C60.9294003,495.490892 68.6772647,501.481621 79.9424524,503.877913 C81.5151896,504.211822 83.1488856,504.486806 84.8526843,504.68603 C111.729422,507.831513 141.242629,494.051434 166.156494,485.302445 C200.918254,473.09651 226.633726,470.795621 260.301276,475.823905 C282.435419,479.129328 306.922572,482.319707 331.424964,478.475539 C339.221596,477.249334 347.006035,475.394593 354.613695,472.970242 C370.210006,468.012107 385.087002,460.506159 396.8551,451.616872 C406.745667,444.144595 414.481339,436.029753 421.330061,427.277958 C422.762593,425.451276 424.155502,423.590924 425.536219,421.705317 C431.875935,413.057343 436.996475,403.752773 440.754585,395.040261 C445.680057,383.622802 447.396047,373.484861 442.330371,367.23879 C437.377467,361.130211 427.51738,358.464547 419.217839,354.822409 C410.808571,351.132569 402.783344,346.065001 403.496562,337.885622 C404.148822,330.430181 412.11309,321.815878 421.144137,314.107901 C449.709434,289.740927 485.851911,265.20279 501.442126,236.708247 C514.920118,212.080319 506.434652,187.626361 486.812012,170.970171 C470.575634,128.852682 401.320333,112.524789 342.772446,142.273598 C321.110734,153.278581 299.308817,173.262641 275.797005,183.178911 Z" id="Stroke-7"></path>
                        <path d="M271.769523,174.810562 C241.758055,186.422755 216.616615,197.708003 198.059182,211.580628 C192.541447,215.704084 188.071654,220.019197 184.316783,224.531605 C171.555112,239.872665 167.387786,256.710345 157.574405,275.715447 C152.148327,286.222791 144.482769,297.553134 132.695714,308.73128 C126.964113,314.162516 120.899493,319.100517 115.00291,323.956781 C103.771906,333.207077 93.7538251,340.650718 86.2654704,348.548137 C77.5214185,357.764611 72.9324716,367.468684 69.4831234,377.220671 C68.4810098,380.050439 67.6286023,382.956305 66.6692618,385.879083 C58.4048802,411.138422 57.9160443,438.697651 73.7390508,466.566915 C77.4114304,473.032539 84.3406791,478.520146 94.3740357,480.876406 C95.7794388,481.203351 97.239836,481.488019 98.7582825,481.702225 C122.812063,485.123876 149.19698,473.793532 171.552056,466.674017 C202.657295,456.764194 225.990043,454.655961 256.06567,460.332407 C277.883027,464.447408 302.297324,468.666692 326.635241,464.548873 C334.386345,463.232637 342.103842,461.177955 349.57081,458.483475 C364.871373,452.973321 379.13316,444.639035 389.701181,434.943418 C398.54911,426.817701 404.861204,418.198748 410.638633,409.018915 C411.836281,407.122069 413.012542,405.182945 414.204079,403.229729 C419.605716,394.368386 424.255767,384.906703 428.255056,376.149644 C433.390888,364.901036 436.519438,355.247696 433.198409,349.334497 C429.981258,343.604499 422.04684,341.014304 415.64309,337.564468 C409.114076,334.04417 402.832535,329.357015 404.308208,321.930284 C405.658617,315.106712 413.470826,307.276937 422.190436,300.244796 C450.090744,277.739125 484.520066,255.007975 500.052827,227.772873 C513.141407,204.82188 506.584896,181.625679 489.982807,164.816184 C479.38729,114.756921 403.474132,92.8177675 341.770822,128.07994 C319.46463,140.825167 297.054559,165.024752 271.769523,174.810562 Z" id="Stroke-9"></path>
                        <path d="M268.601679,167.001161 C239.168589,177.363888 214.239972,185.760109 194.852742,197.365578 C189.232062,200.731921 184.498857,204.367572 180.3939,208.303388 C166.746291,221.384437 160.424169,236.746184 149.618922,254.35216 C143.531631,264.271652 135.64499,275.057977 124.7513,286.021035 C119.359351,291.446458 113.824063,296.535247 108.639497,301.635258 C98.6393823,311.470591 90.6216023,319.527373 85.3516427,327.724419 C79.1271128,337.411072 77.4192556,347.142609 76.5256802,356.624476 C76.2664519,359.365241 76.1353129,362.15089 75.8364378,364.970202 C73.3051494,388.845993 75.9035322,414.472281 92.228818,442.651381 C95.5713387,448.413438 101.664729,453.345131 110.417498,455.63705 C111.652645,455.959658 112.933538,456.242992 114.263227,456.475831 C135.388811,460.142339 158.524178,451.364599 178.234681,445.936371 C205.539049,438.415398 226.396256,436.715395 252.761303,442.78884 C274.207111,447.731754 298.409888,452.885064 322.478477,448.53126 C330.154686,447.139838 337.769899,444.90122 345.06184,441.966891 C360.005591,435.955163 373.592206,426.874451 382.909177,416.452813 C390.686027,407.750816 395.547321,398.712184 400.22563,389.177016 C401.18325,387.227343 402.13782,385.235589 403.132037,383.224199 C407.578566,374.241673 411.735368,364.69809 415.959265,355.97926 C421.281071,344.999371 425.84044,336.022455 424.254572,330.392246 C422.790694,325.185635 416.819293,322.604771 412.330069,319.375887 C407.721904,316.062844 403.21438,311.787588 405.425446,305.195166 C407.484024,299.060005 415.108386,292.091674 423.470788,285.793807 C450.61047,265.362908 483.148201,244.629038 498.570762,218.91298 C511.205856,197.845282 506.622089,176.115535 493.105619,159.311871 C488.201628,101.769842 405.907305,74.362197 341.344201,114.870529 C318.471112,129.222372 295.598023,157.494046 268.601679,167.001161 Z" id="Stroke-11"></path>
                    </g>
                </g>
            </g>
        </g>
    </g>
</svg>