<?xml version="1.0" encoding="UTF-8"?>
<svg width="34px" height="50px" viewBox="0 0 34 50" version="1.1" xmlns="http://www.w3.org/2000/svg" xmlns:xlink="http://www.w3.org/1999/xlink">
    <!-- Generator: Sketch 55.2 (78181) - https://sketchapp.com -->
    <title>img_female</title>
    <desc>Created with Sketch.</desc>
    <g id="Page-1" stroke="none" stroke-width="1" fill="none" fill-rule="evenodd">
        <g id="Gender-Prompt" transform="translate(-225.000000, -280.000000)" fill-rule="nonzero">
            <g id="Group-2" transform="translate(210.000000, 273.000000)">
                <g id="img_female" transform="translate(15.000000, 7.000000)">
                    <path d="M22.8515625,38.9160156 L19.921875,38.9160156 L19.921875,43.3105469 L22.8515625,43.3105469 C24.0650391,43.3105469 25.0488281,42.3267578 25.0488281,41.1132812 C25.0488281,39.8998047 24.0650391,38.9160156 22.8515625,38.9160156 Z" id="Path" fill="#D63D76"></path>
                    <path d="M33.0078125,16.8457031 C33.0078125,7.94658203 25.7936523,0.732421875 16.8945312,0.732421875 C7.99541016,0.732421875 0.78125,7.94658203 0.78125,16.8457031 C0.78125,24.9994141 6.83779297,31.7374023 14.6972656,32.8092773 L14.6972656,38.9160156 L10.9375,38.9160156 C9.72402344,38.9160156 8.74023438,39.8998047 8.74023438,41.1132812 C8.74023438,42.3267578 9.72402344,43.3105469 10.9375,43.3105469 L14.6972656,43.3105469 L14.6972656,47.0703125 C14.6972656,48.2837891 15.6810547,49.2675781 16.8945312,49.2675781 C18.1080078,49.2675781 19.0917969,48.2837891 19.0917969,47.0703125 L19.0917969,43.3105469 L19.921875,43.3105469 C21.1353516,43.3105469 22.1191406,42.3267578 22.1191406,41.1132812 C22.1191406,39.8998047 21.1353516,38.9160156 19.921875,38.9160156 L19.0917969,38.9160156 L19.0917969,32.8092773 C26.9512695,31.7374023 33.0078125,24.9994141 33.0078125,16.8457031 Z M16.8945312,28.5644531 C10.4224609,28.5644531 5.17578125,23.3177734 5.17578125,16.8457031 C5.17578125,10.3736328 10.4224609,5.12695312 16.8945312,5.12695312 C23.3666016,5.12695312 28.6132812,10.3736328 28.6132812,16.8457031 C28.6132812,23.3177734 23.3666016,28.5644531 16.8945312,28.5644531 Z" id="Shape" fill="#FF4181"></path>
                    <path d="M16.8945312,0 C7.60576172,0 0.048828125,7.55693359 0.048828125,16.8457031 C0.048828125,20.9438477 1.53798828,24.893457 4.24199219,27.9668945 C6.77900391,30.8505859 10.2118164,32.7767578 13.9648438,33.4360352 L13.9648438,38.1835938 L10.9375,38.1835938 C9.32207031,38.1835938 8.0078125,39.4978516 8.0078125,41.1132812 C8.0078125,41.8958008 8.31259766,42.631543 8.86591797,43.1848633 C9.41923828,43.7381836 10.1549805,44.0429688 10.9375,44.0429688 L13.9648438,44.0429688 L13.9648438,47.0703125 C13.9648438,48.6857422 15.2791016,50 16.8945312,50 C18.5099609,50 19.8242188,48.6857422 19.8242188,47.0703125 L19.8242188,44.0429688 L22.8515625,44.0429688 C23.6341797,44.0429688 24.3698242,43.7381836 24.9231445,43.1848633 C25.4764648,42.6314453 25.78125,41.8958008 25.78125,41.1132812 C25.78125,39.4978516 24.4669922,38.1835938 22.8515625,38.1835938 L19.8242188,38.1835938 L19.8242188,33.4361328 C23.5772461,32.7768555 27.0099609,30.8505859 29.5470703,27.9669922 C32.2510742,24.893457 33.7402344,20.9438477 33.7402344,16.8457031 C33.7402344,7.55693359 26.1833008,0 16.8945312,0 Z M18.9927734,32.0834961 C18.6298828,32.1330078 18.359375,32.4429688 18.359375,32.8091797 L18.359375,38.9160156 C18.359375,39.3205078 18.687207,39.6484375 19.0917969,39.6484375 L22.8515625,39.6484375 C23.6592773,39.6484375 24.3164062,40.3055664 24.3164062,41.1132812 C24.3164062,41.5044922 24.1639648,41.8723633 23.8873047,42.1491211 C23.6106445,42.4257812 23.2428711,42.578125 22.8515625,42.578125 L19.0917969,42.578125 C18.687207,42.578125 18.359375,42.9060547 18.359375,43.3105469 L18.359375,47.0703125 C18.359375,47.8780273 17.7022461,48.5351562 16.8945312,48.5351562 C16.0868164,48.5351562 15.4296875,47.8780273 15.4296875,47.0703125 L15.4296875,43.3105469 C15.4296875,42.9060547 15.1018555,42.578125 14.6972656,42.578125 L10.9375,42.578125 C10.5461914,42.578125 10.178418,42.4257812 9.90175781,42.1491211 C9.62509766,41.8723633 9.47265625,41.5044922 9.47265625,41.1132812 C9.47265625,40.3055664 10.1297852,39.6484375 10.9375,39.6484375 L14.6972656,39.6484375 C15.1018555,39.6484375 15.4296875,39.3205078 15.4296875,38.9160156 L15.4296875,32.8091797 C15.4296875,32.4429688 15.159082,32.1330078 14.7962891,32.0834961 C7.22392578,31.0507812 1.51367188,24.5 1.51367188,16.8457031 C1.51367188,8.36464844 8.41347656,1.46484375 16.8945312,1.46484375 C25.3755859,1.46484375 32.2753906,8.36464844 32.2753906,16.8457031 C32.2753906,24.5 26.5651367,31.0507812 18.9927734,32.0834961 Z" id="Shape" fill="#000000"></path>
                    <path d="M16.8945312,4.39453125 C14.1010742,4.39453125 11.4608398,5.29902344 9.25947266,7.01025391 C8.94003906,7.25849609 8.88242188,7.71865234 9.13066406,8.03798828 C9.37890625,8.35732422 9.83916016,8.41494141 10.1583984,8.16669922 C12.1003906,6.65722656 14.4296875,5.859375 16.8945312,5.859375 C22.9523437,5.859375 27.8808594,10.787793 27.8808594,16.8457031 C27.8808594,22.9036133 22.9523437,27.8320312 16.8945312,27.8320312 C10.8367188,27.8320312 5.90820312,22.9036133 5.90820312,16.8457031 C5.90820312,14.3807617 6.70605469,12.0514648 8.215625,10.1095703 C8.46386719,9.79013672 8.40615234,9.33007812 8.08681641,9.08183594 C7.76757812,8.83359375 7.30742188,8.89111328 7.05908203,9.21054688 C5.34785156,11.4119141 4.44335938,14.0521484 4.44335938,16.8457031 C4.44335938,23.7113281 10.0289063,29.296875 16.8945312,29.296875 C23.7601562,29.296875 29.3457031,23.7113281 29.3457031,16.8457031 C29.3457031,9.98007813 23.7601562,4.39453125 16.8945312,4.39453125 Z" id="Path" fill="#000000"></path>
                </g>
            </g>
        </g>
    </g>
</svg>