<?xml version="1.0" encoding="UTF-8"?>
<svg width="143px" height="104px" viewBox="0 0 143 104" version="1.1" xmlns="http://www.w3.org/2000/svg" xmlns:xlink="http://www.w3.org/1999/xlink">
    <!-- Generator: Sketch 55.2 (78181) - https://sketchapp.com -->
    <title>img_share</title>
    <desc>Created with Sketch.</desc>
    <defs>
        <linearGradient x1="50%" y1="3.061617e-15%" x2="50%" y2="100%" id="linearGradient-1">
            <stop stop-color="#F76D1D" offset="0%"></stop>
            <stop stop-color="#FFCC27" offset="100%"></stop>
        </linearGradient>
        <path d="M7.69814046,104 C2.77475446,94.2783551 0,83.2801446 0,71.6326531 C0,32.0710312 32.0116404,0 71.5,0 C110.98836,0 143,32.0710312 143,71.6326531 C143,83.2801446 140.225246,94.2783551 135.30186,104 L7.69814046,104 Z" id="path-2"></path>
    </defs>
    <g id="Page-1" stroke="none" stroke-width="1" fill="none" fill-rule="evenodd">
        <g id="Share-Prompt" transform="translate(-116.000000, -70.000000)">
            <g id="Group-6" transform="translate(27.000000, 70.000000)">
                <g id="img_share" transform="translate(89.000000, 0.000000)">
                    <mask id="mask-3" fill="white">
                        <use xlink:href="#path-2"></use>
                    </mask>
                    <use id="Combined-Shape" fill="url(#linearGradient-1)" xlink:href="#path-2"></use>
                    <g id="902691" mask="url(#mask-3)">
                        <g transform="translate(32.000000, 24.000000)">
                            <rect id="Rectangle" fill="#00CA9D" fill-rule="nonzero" x="22.6666667" y="8" width="34.6666667" height="58.6666667"></rect>
                            <path d="M20,29.3333333 L4,29.3333333 C2.52716667,29.3333333 1.33333333,28.1395 1.33333333,26.6666667 L1.33333333,10.6666667 C1.33333333,9.19383333 2.52716667,8 4,8 L20,8 C21.4728333,8 22.6666667,9.19383333 22.6666667,10.6666667 L22.6666667,26.6666667 C22.6666667,28.1395 21.4728333,29.3333333 20,29.3333333 Z" id="Path" fill="#DEDFE3" fill-rule="nonzero"></path>
                            <path d="M48,37.3333333 L32,37.3333333 C30.5271667,37.3333333 29.3333333,36.1395 29.3333333,34.6666667 L29.3333333,18.6666667 C29.3333333,17.1938333 30.5271667,16 32,16 L48,16 C49.4728333,16 50.6666667,17.1938333 50.6666667,18.6666667 L50.6666667,34.6666667 C50.6666667,36.1395 49.4728333,37.3333333 48,37.3333333 Z" id="Path" fill="#3F708D" fill-rule="nonzero"></path>
                            <path d="M6.66666667,15.2 L7.13183333,15.5135 C8.63416667,16.5261667 10.3995,17.0666667 12.2051667,17.0666667 L12.2051667,17.0666667 L12.2051667,15.6666667 C12.2051667,14.378 13.2383333,13.3333333 14.5128333,13.3333333 L14.5128333,13.3333333 C15.7873333,13.3333333 16.8205,14.378 16.8205,15.6666667 L18.6666667,17.0666667 L16.8205,18.9333333 L16.8205,18.9333333 C16.8205,20.9951667 15.1673333,22.6666667 13.1281667,22.6666667 L6.66666667,22.6666667 L8.51283333,20.8 L8.51283333,20.8 C7.33066667,19.6048333 6.66666667,17.9836667 6.66666667,16.2935 L6.66666667,15.2 Z" id="Path" fill="#2F9BD7" fill-rule="nonzero"></path>
                            <g id="Group" stroke-width="1" fill="none" fill-rule="evenodd" transform="translate(36.000000, 12.000000)">
                                <path d="M8,10.6666667 L8,8 L4,8 C3.263,8 2.66666667,8.597 2.66666667,9.33333333 L2.66666667,13.3333333 L0,13.3333333 L0,16 L2.66666667,16 L2.66666667,21.3333333 L5.33333333,21.3333333 L5.33333333,16 L8,16 L8,13.3333333 L5.33333333,13.3333333 L5.33333333,10.6666667 L8,10.6666667 Z" id="Path" fill="#DEDFE3" fill-rule="nonzero"></path>
                                <path d="M32,5.33333333 C29.0545,5.33333333 26.6666667,2.9455 26.6666667,0 L21.3333333,0 L21.3333333,8 C21.3333333,9.47266667 22.5273333,10.6666667 24,10.6666667 L40,10.6666667 C41.4726667,10.6666667 42.6666667,9.47266667 42.6666667,8 L42.6666667,0 L37.3333333,0 C37.3333333,2.9455 34.9455,5.33333333 32,5.33333333 Z" id="Path" fill="#DEDFE3" fill-rule="nonzero"></path>
                            </g>
                            <path d="M76,1.33333333 L60,1.33333333 C58.5273333,1.33333333 57.3333333,2.52716667 57.3333333,4 L57.3333333,12 L62.6666667,12 C62.6666667,9.0545 65.0545,6.66666667 68,6.66666667 C70.9455,6.66666667 73.3333333,9.0545 73.3333333,12 L78.6666667,12 L78.6666667,4 C78.6666667,2.52716667 77.4726667,1.33333333 76,1.33333333 Z" id="Path" fill="#E7343A" fill-rule="nonzero"></path>
                            <g id="Group" stroke-width="1" fill="none" fill-rule="evenodd" transform="translate(38.666667, 6.666667)">
                                <circle id="Oval" fill="#E7F6FE" fill-rule="nonzero" cx="29.3333333" cy="5.33333333" r="5.33333333"></circle>
                                <rect id="Rectangle" fill="#E7F6FE" fill-rule="nonzero" x="0" y="48" width="2.66666667" height="2.66666667"></rect>
                            </g>
                            <path d="M28,73.3333333 C31.6818333,73.3333333 34.6666667,70.3485 34.6666667,66.6666667 L34.6666667,65.3333333 C34.6666667,59.4423333 29.891,54.6666667 24,54.6666667 L28,54.6666667 C31.6818333,54.6666667 34.6666667,51.6818333 34.6666667,48 L21.3333333,48 C19.8606667,48 18.6666667,49.1938333 18.6666667,50.6666667 L18.6666667,80 L40,80 L40,73.3333333 L28,73.3333333 Z" id="Path" fill="#FFB398" fill-rule="nonzero"></path>
                            <path d="M34.6666667,66.6666667 C34.6666667,70.3485 31.6818333,73.3333333 28,73.3333333 L40,73.3333333 L40,80 L48,80 L48,73.3333333 L50.6666667,73.3333333 L50.6666667,66.6666667 L34.6666667,66.6666667 Z" id="Path" fill="#FE946F" fill-rule="nonzero"></path>
                            <g id="Group" stroke-width="1" fill="none" fill-rule="evenodd" transform="translate(43.333333, 46.666667)">
                                <path d="M18,6.66666667 L9.33333333,6.66666667 C7.49233333,6.66666667 6,5.17433333 6,3.33333333 L6,3.33333333 C6,1.49233333 7.49233333,0 9.33333333,0 L18,0 C19.841,0 21.3333333,1.49233333 21.3333333,3.33333333 L21.3333333,3.33333333 C21.3333333,5.17433333 19.841,6.66666667 18,6.66666667 Z" id="Path" fill="#FFB398" fill-rule="nonzero"></path>
                                <path d="M18,13.3333333 L9.33333333,13.3333333 C7.49233333,13.3333333 6,11.841 6,10 L6,10 C6,8.159 7.49233333,6.66666667 9.33333333,6.66666667 L18,6.66666667 C19.841,6.66666667 21.3333333,8.159 21.3333333,10 L21.3333333,10 C21.3333333,11.841 19.841,13.3333333 18,13.3333333 Z" id="Path" fill="#FFB398" fill-rule="nonzero"></path>
                                <path d="M16,20 L7.33333333,20 C5.49233333,20 4,18.5076667 4,16.6666667 L4,16.6666667 C4,14.8256667 5.49233333,13.3333333 7.33333333,13.3333333 L16,13.3333333 C17.841,13.3333333 19.3333333,14.8256667 19.3333333,16.6666667 L19.3333333,16.6666667 C19.3333333,18.5076667 17.841,20 16,20 Z" id="Path" fill="#FFB398" fill-rule="nonzero"></path>
                                <path d="M12,26.6666667 L3.33333333,26.6666667 C1.49233333,26.6666667 0,25.1743333 0,23.3333333 L0,23.3333333 C0,21.4923333 1.49233333,20 3.33333333,20 L12,20 C13.841,20 15.3333333,21.4923333 15.3333333,23.3333333 L15.3333333,23.3333333 C15.3333333,25.1743333 13.841,26.6666667 12,26.6666667 Z" id="Path" fill="#FFB398" fill-rule="nonzero"></path>
                            </g>
                            <rect id="Rectangle" fill="#000000" fill-rule="nonzero" x="26.6666667" y="6.66666667" width="26.6666667" height="2.66666667"></rect>
                            <path d="M66,50 C66,47.427 63.9061667,45.3333333 61.3333333,45.3333333 L58.6666667,45.3333333 L58.6666667,26.6666667 L56,26.6666667 L56,45.3333333 L52.6666667,45.3333333 C50.0936667,45.3333333 48,47.4271667 48,50 C48,51.3063333 48.543,52.4853333 49.411,53.3333333 C48.543,54.1813333 48,55.3603333 48,56.6666667 C48,57.5655 48.2675,58.3983333 48.7098333,59.1113333 C47.1148333,59.8541667 46,61.4613333 46,63.3333333 C46,64.0518333 46.1768333,64.7248333 46.4681667,65.3333333 L36,65.3333333 C36,61.2565 33.957,57.6485 30.8411667,55.4791667 C33.8541667,54.3306667 36,51.4115 36,48 C36,47.2636667 35.4036667,46.6666667 34.6666667,46.6666667 L24,46.6666667 L24,33.3333333 L21.3333333,33.3333333 L21.3333333,46.6666667 C19.1276667,46.6666667 17.3333333,48.461 17.3333333,50.6666667 L17.3333333,80 L20,80 L20,50.6666667 C20,49.9316667 20.5976667,49.3333333 21.3333333,49.3333333 L33.164,49.3333333 C32.5715,51.6308333 30.4803333,53.3333333 28,53.3333333 L24,53.3333333 C23.263,53.3333333 22.6666667,53.9303333 22.6666667,54.6666667 C22.6666667,55.403 23.263,56 24,56 C29.1458333,56 33.3333333,60.1868333 33.3333333,65.3333333 L33.3333333,66.6666667 C33.3333333,67.403 33.9296667,68 34.6666667,68 L42.4681667,68 C42.1768333,68.6085 42,69.2815 42,70 C42,72.573 44.0938333,74.6666667 46.6666667,74.6666667 L46.6666667,80 L49.3333333,80 L49.3333333,74.6666667 L54.6666667,74.6666667 L55.3333333,74.6666667 C57.9063333,74.6666667 60,72.5728333 60,70 C60,69.2738333 59.8188333,68.5945 59.5215,67.981 C62.0056667,67.8796667 64,65.8418333 64,63.3333333 C64,62.4345 63.7325,61.6016667 63.2901667,60.8886667 C64.8851667,60.1458333 66,58.5386667 66,56.6666667 C66,55.3603333 65.457,54.1813333 64.589,53.3333333 C65.457,52.4853333 66,51.3063333 66,50 Z M55.3333333,72 L54.6666667,72 L48,72 L46.6666667,72 C45.5638333,72 44.6666667,71.1028333 44.6666667,70 C44.6666667,68.8971667 45.5638333,68 46.6666667,68 L50.6666667,68 L55.3333333,68 C56.4361667,68 57.3333333,68.8971667 57.3333333,70 C57.3333333,71.1028333 56.4361667,72 55.3333333,72 Z M59.3333333,65.3333333 L55.3333333,65.3333333 L50.6666667,65.3333333 C49.5638333,65.3333333 48.6666667,64.4361667 48.6666667,63.3333333 C48.6666667,62.2305 49.5638333,61.3333333 50.6666667,61.3333333 L52.6666667,61.3333333 L59.3333333,61.3333333 C60.4361667,61.3333333 61.3333333,62.2305 61.3333333,63.3333333 C61.3333333,64.4361667 60.4361667,65.3333333 59.3333333,65.3333333 Z M63.3333333,56.6666667 C63.3333333,57.7695 62.4361667,58.6666667 61.3333333,58.6666667 L59.3333333,58.6666667 L52.6666667,58.6666667 C51.5638333,58.6666667 50.6666667,57.7695 50.6666667,56.6666667 C50.6666667,55.5638333 51.5638333,54.6666667 52.6666667,54.6666667 L61.3333333,54.6666667 C62.4361667,54.6666667 63.3333333,55.5638333 63.3333333,56.6666667 Z M52.6666667,52 C51.5638333,52 50.6666667,51.1028333 50.6666667,50 C50.6666667,48.8971667 51.5638333,48 52.6666667,48 L61.3333333,48 C62.4361667,48 63.3333333,48.8971667 63.3333333,50 C63.3333333,51.1028333 62.4361667,52 61.3333333,52 L52.6666667,52 Z" id="Shape" fill="#000000" fill-rule="nonzero"></path>
                            <path d="M18.0846667,14.9518333 C17.7526667,13.2708333 16.2773333,12 14.513,12 C12.5221667,12 10.8983333,13.6185 10.8723333,15.6178333 C9.80716667,15.4316667 8.789,15.0228333 7.8775,14.4088333 L7.41266667,14.095 C7.00516667,13.8196667 6.4765,13.7896667 6.04033333,14.0226667 C5.6055,14.2538333 5.33331352,14.707 5.33331352,15.1998333 L5.33331352,16.2936667 C5.33331352,17.9005 5.81766667,19.433 6.71616667,20.7201667 L5.71883333,21.7293333 C5.34,22.1115 5.22916667,22.6838333 5.43633333,23.1805 C5.64316667,23.6765 6.12883333,24 6.66666667,24 L13.1276667,24 C15.7045,24 17.8346667,22.0358333 18.1211667,19.515 L19.6146667,18.004 C19.8841667,17.7311667 20.0235,17.3548333 19.9961667,16.9715 C19.9688333,16.5886667 19.7786667,16.2358333 19.4726667,16.004 L18.0846667,14.9518333 Z M15.8723333,17.9961667 C15.625,18.2455 15.4868333,18.5828333 15.4868333,18.9336667 C15.4868333,20.2566667 14.4281667,21.3333333 13.1275,21.3333333 L9.73566667,21.3333333 C9.94666667,20.8476667 9.8555,20.2616667 9.461,19.8626667 C8.83866667,19.2325 8.39333333,18.4395 8.168,17.5846667 C9.44016667,18.1211667 10.8073333,18.3998333 12.2058333,18.3998333 C12.9428333,18.3998333 13.5391667,17.8028333 13.5391667,17.0665 L13.5391667,15.6666667 C13.5391667,15.1151667 13.9766667,14.6666667 14.5131667,14.6666667 C15.0496667,14.6666667 15.4871667,15.1151667 15.4871667,15.6666667 C15.4871667,16.084 15.6825,16.4771667 16.0145,16.7291667 L16.65,17.2103333 L15.8723333,17.9961667 Z" id="Shape" fill="#000000" fill-rule="nonzero"></path>
                            <path d="M38.6666667,21.3333333 L38.6666667,25.3333333 L36,25.3333333 L36,28 L38.6666667,28 L38.6666667,33.3333333 L41.3333333,33.3333333 L41.3333333,28 L44,28 L44,25.3333333 L41.3333333,25.3333333 L41.3333333,22.6666667 L44,22.6666667 L44,20 L40,20 C39.263,20 38.6666667,20.597 38.6666667,21.3333333 Z" id="Path" fill="#000000" fill-rule="nonzero"></path>
                            <path d="M52,34.6666667 L52,18.6666667 C52,16.461 50.2056667,14.6666667 48,14.6666667 L32,14.6666667 C29.7943333,14.6666667 28,16.461 28,18.6666667 L28,34.6666667 C28,36.8723333 29.7943333,38.6666667 32,38.6666667 L48,38.6666667 C50.2056667,38.6666667 52,36.8723333 52,34.6666667 Z M30.6666667,34.6666667 L30.6666667,18.6666667 C30.6666667,17.9316667 31.2643333,17.3333333 32,17.3333333 L48,17.3333333 C48.7356667,17.3333333 49.3333333,17.9316667 49.3333333,18.6666667 L49.3333333,34.6666667 C49.3333333,35.4016667 48.7356667,36 48,36 L32,36 C31.2643333,36 30.6666667,35.4016667 30.6666667,34.6666667 Z" id="Shape" fill="#000000" fill-rule="nonzero"></path>
                            <path d="M24,26.6666667 L24,10.6666667 C24,8.461 22.2056667,6.66666667 20,6.66666667 L4,6.66666667 C1.79433333,6.66666667 0,8.461 0,10.6666667 L0,26.6666667 C0,28.8723333 1.79433333,30.6666667 4,30.6666667 L20,30.6666667 C22.2056667,30.6666667 24,28.8723333 24,26.6666667 Z M2.66666667,26.6666667 L2.66666667,10.6666667 C2.66666667,9.93166667 3.26433333,9.33333333 4,9.33333333 L20,9.33333333 C20.7356667,9.33333333 21.3333333,9.93166667 21.3333333,10.6666667 L21.3333333,26.6666667 C21.3333333,27.4016667 20.7356667,28 20,28 L4,28 C3.26433333,28 2.66666667,27.4016667 2.66666667,26.6666667 Z" id="Shape" fill="#000000" fill-rule="nonzero"></path>
                            <path d="M76,0 L60,0 C57.7943333,0 56,1.79433333 56,4 L56,20 C56,22.2056667 57.7943333,24 60,24 L76,24 C78.2056667,24 80,22.2056667 80,20 L80,4 C80,1.79433333 78.2056667,0 76,0 Z M60,2.66666667 L76,2.66666667 C76.7356667,2.66666667 77.3333333,3.265 77.3333333,4 L77.3333333,10.6666667 L74.5318333,10.6666667 C73.9123333,7.62766667 71.2191667,5.33333333 68,5.33333333 C64.7808333,5.33333333 62.0876667,7.62766667 61.4681667,10.6666667 L58.6666667,10.6666667 L58.6666667,4 C58.6666667,3.265 59.2643333,2.66666667 60,2.66666667 Z M72,12 C72,14.2056667 70.2056667,16 68,16 C65.7943333,16 64,14.2056667 64,12 C64,9.79433333 65.7943333,8 68,8 C70.2056667,8 72,9.79433333 72,12 Z M76,21.3333333 L60,21.3333333 C59.2643333,21.3333333 58.6666667,20.735 58.6666667,20 L58.6666667,13.3333333 L61.4681667,13.3333333 C62.0876667,16.3723333 64.7808333,18.6666667 68,18.6666667 C71.2191667,18.6666667 73.9123333,16.3723333 74.5318333,13.3333333 L77.3333333,13.3333333 L77.3333333,20 C77.3333333,20.735 76.7356667,21.3333333 76,21.3333333 Z" id="Shape" fill="#000000" fill-rule="nonzero"></path>
                            <rect id="Rectangle" fill="#000000" fill-rule="nonzero" x="38.6666667" y="54.6666667" width="2.66666667" height="2.66666667"></rect>
                        </g>
                    </g>
                </g>
            </g>
        </g>
    </g>
</svg>