<?xml version="1.0" encoding="UTF-8"?>
<svg width="143px" height="104px" viewBox="0 0 143 104" version="1.1" xmlns="http://www.w3.org/2000/svg" xmlns:xlink="http://www.w3.org/1999/xlink">
    <!-- Generator: Sketch 55.2 (78181) - https://sketchapp.com -->
    <title>img_settings</title>
    <desc>Created with Sketch.</desc>
    <defs>
        <linearGradient x1="50%" y1="3.061617e-15%" x2="50%" y2="100%" id="linearGradient-1">
            <stop stop-color="#F76D1D" offset="0%"></stop>
            <stop stop-color="#FFCC27" offset="100%"></stop>
        </linearGradient>
        <path d="M7.69814046,104 C2.77475446,94.2783551 0,83.2801446 0,71.6326531 C0,32.0710312 32.0116404,0 71.5,0 C110.98836,0 143,32.0710312 143,71.6326531 C143,83.2801446 140.225246,94.2783551 135.30186,104 L7.69814046,104 Z" id="path-2"></path>
    </defs>
    <g id="Page-1" stroke="none" stroke-width="1" fill="none" fill-rule="evenodd">
        <g id="Menu" transform="translate(-116.000000, -60.000000)">
            <g id="Group-6" transform="translate(27.000000, 60.000000)">
                <g id="img_settings" transform="translate(89.000000, 0.000000)">
                    <mask id="mask-3" fill="white">
                        <use xlink:href="#path-2"></use>
                    </mask>
                    <use id="Combined-Shape" fill="url(#linearGradient-1)" xlink:href="#path-2"></use>
                    <g id="148909" mask="url(#mask-3)" fill-rule="nonzero">
                        <g transform="translate(16.000000, 16.000000)">
                            <circle id="Oval" fill="#424A60" cx="56" cy="56" r="56"></circle>
                            <path d="M101.933891,41.9680588 C101.658923,40.9314706 100.60328,40.3122353 99.5784022,40.5956471 L95.2154609,41.7758824 C94.5059301,39.5085882 93.6060374,37.3072941 92.5234742,35.1894706 L96.4268549,32.9144118 C97.347899,32.3786471 97.6613231,31.1906471 97.1306172,30.2627647 C96.5999112,29.3329412 95.4212056,29.0126471 94.5040073,29.5522941 L90.5717838,31.8448235 C89.2834759,29.8124118 87.86826,27.9061765 86.3049849,26.1746471 L89.4911435,22.9581176 C90.2429769,22.1991176 90.2429769,20.9722941 89.4911435,20.2132941 C88.73931,19.4542941 87.5240703,19.4542941 86.7722369,20.2132941 L83.5937697,23.4220588 C81.8382098,21.807 79.9518963,20.3782941 77.9771317,19.1068235 L80.2384006,15.1545882 C80.7691065,14.2247647 80.4556824,13.0387059 79.5346383,12.5029412 C78.6135943,11.9652353 77.4368116,12.2835882 76.9080284,13.2134118 L74.6409911,17.1772941 C72.5431643,16.0863529 70.362655,15.1914706 68.1206147,14.4732353 L69.2993203,10.0318235 C69.5742875,8.99717647 68.9647448,7.93147059 67.939867,7.65388235 C66.9072978,7.36852941 65.8593459,7.99164706 65.5843786,9.02629412 L64.405673,13.4677059 C62.1136386,12.9571765 59.7812244,12.633 57.4238132,12.5184706 L57.4238132,7.94117647 C57.4238132,6.86770588 56.5623775,6 55.5009656,6 C54.4395537,6 53.5781179,6.86770588 53.5781179,7.94117647 L53.5781179,12.5068235 C51.2380123,12.6116471 48.8979067,12.897 46.5770296,13.4094706 L45.4137068,9.02629412 C45.1387396,7.99164706 44.0907876,7.36852941 43.0582184,7.65388235 C42.0333406,7.93147059 41.4237979,8.99523529 41.6987651,10.0318235 L42.8640108,14.4247059 C40.6508132,15.1351765 38.4837639,16.0727647 36.3590172,17.1811765 L34.090057,13.2134118 C33.559351,12.2816471 32.3844911,11.9632941 31.4653699,12.5029412 C30.5443259,13.0387059 30.2309018,14.2267059 30.7616077,15.1545882 L33.0151852,19.0932353 C31.0154236,20.388 29.1464157,21.84 27.4196985,23.4356471 L24.2277714,20.2132941 C23.475938,19.4542941 22.2606982,19.4542941 21.5088648,20.2132941 C20.7570314,20.9722941 20.7570314,22.1991176 21.5088648,22.9581176 L24.7084833,26.1882353 C23.122134,27.9527647 21.6896125,29.8434706 20.4243787,31.8428824 L16.496001,29.5542353 C15.5730341,29.0165294 14.4000971,29.3348824 13.8693911,30.2647059 C13.3386852,31.1945294 13.6540322,32.3805882 14.5731533,32.9163529 L18.5053768,35.2088824 C17.4285821,37.3150588 16.5248437,39.5144118 15.8076215,41.7836471 L11.421606,40.5956471 C10.4005739,40.3141765 9.34108489,40.9334118 9.06611768,41.9680588 C8.79115046,43.0027059 9.39877032,44.0684118 10.425571,44.346 L14.8115865,45.534 C14.1616639,48.5137059 13.8097828,51.5807647 13.8193971,54.6982941 C13.8213199,55.7698235 14.6827557,56.6336471 15.7422447,56.6336471 C15.7441676,56.6336471 15.7460904,56.6336471 15.7480133,56.6336471 C16.8094252,56.6297647 17.6689381,55.7581765 17.6650924,54.6866471 C17.6362497,45.0506471 21.2262062,35.8960588 27.425467,28.9330588 L41.9814237,43.6277647 C40.5104453,45.4854706 39.4124993,47.6401765 38.7837281,50.0084118 C37.585794,54.5138824 38.2011053,59.2231765 40.5104453,63.2627647 C43.5985386,68.6514706 49.3440074,72 55.5144255,72 C58.5352192,72 61.5233244,71.1885882 64.1518571,69.657 C68.1552259,67.3256471 71.0164232,63.5578235 72.2124345,59.0504118 C73.4103686,54.5449412 72.7950573,49.8356471 70.4857173,45.7960588 C70.047308,45.0312353 69.5435219,44.3188235 69.0051246,43.6394118 L83.5880012,28.9175294 C85.3416382,30.8781176 86.9279875,33.0425294 88.2874408,35.4204706 C91.617813,41.244 93.3599129,47.9061176 93.3253017,54.6847059 C93.3195331,55.7562353 94.1771232,56.6297647 95.2385351,56.6355882 C95.2404579,56.6355882 95.2443036,56.6355882 95.2481493,56.6355882 C96.3057155,56.6355882 97.1652284,55.7737059 97.170997,54.7041176 C97.1863798,51.6040588 96.8460357,48.5311765 96.2018818,45.5320588 L100.572514,44.3479412 C101.601238,44.0684118 102.208858,43.0046471 101.933891,41.9680588 Z M55.4875056,37.0588235 C52.466712,37.0588235 49.4786067,37.8702353 46.850074,39.4018235 C46.0905492,39.8444118 45.3887098,40.353 44.7137903,40.8926471 L30.1405279,26.1804706 C32.096064,24.3907059 34.2400391,22.7872941 36.5724533,21.4284706 C51.1341786,12.9397059 69.0070475,15.3758824 80.8690946,26.1746471 L66.2842952,40.8984706 C63.2558101,38.4661765 59.4658774,37.0588235 55.4875056,37.0588235 Z M68.4994157,58.0468235 C67.5687574,61.5525882 65.3420998,64.4798824 62.2290095,66.2948824 C60.1850224,67.4867647 57.8622225,68.1176471 55.5144255,68.1176471 C50.7130749,68.1176471 46.2424541,65.5125882 43.846586,61.3215882 C42.0487234,58.1788235 41.5718572,54.5177647 42.5025155,51.012 C43.4331737,47.5062353 45.6598313,44.5789412 48.7729216,42.7639412 C50.8169087,41.5720588 53.1397087,40.9411765 55.4875056,40.9411765 C60.2888562,40.9411765 64.759477,43.5462353 67.1553452,47.7372353 C68.9532077,50.88 69.4300739,54.5410588 68.4994157,58.0468235 Z" id="Shape" fill="#FFFFFF"></path>
                            <path d="M50.0682301,90.1819328 L45.804814,90.1819328 C45.7739057,90.1819328 45.7487926,90.1975238 45.7198161,90.1994727 C45.4880037,86.8766479 44.645752,83.557721 43.1293127,80.4102946 C43.1524939,80.3966525 43.1795387,80.3927548 43.2027199,80.3791127 L46.8943322,78.2275593 C47.81965,77.689671 48.1345285,76.4969621 47.60136,75.5654018 C47.0662597,74.6318927 45.8820848,74.3122779 44.9625623,74.8521151 L41.27095,77.0036685 C41.2419735,77.0212083 41.2245876,77.0504414 41.1975428,77.0699301 C39.2541823,74.1700103 36.8336746,71.7709504 34.0982885,69.9039321 C34.1156744,69.8766479 34.1407874,69.8552104 34.1562415,69.8279262 L36.2889155,66.1036341 C36.822084,65.170125 36.5052737,63.9793649 35.5818877,63.4414766 C34.6546382,62.9035882 33.4762585,63.2212542 32.9430901,64.1547633 L30.8104161,67.8790554 C30.7988255,67.9004929 30.7988255,67.9258283 30.7872349,67.9472658 C27.7466291,66.4622263 24.4471661,65.5715923 21.0781594,65.3221369 C21.0781594,65.2968016 21.0916818,65.2773129 21.0916818,65.2519775 L21.0916818,60.9488708 C21.0916818,59.8711452 20.2262489,59 19.1599119,59 C18.0935749,59 17.228142,59.8711452 17.228142,60.9488708 L17.228142,65.2500287 C17.228142,65.2831595 17.245528,65.3104437 17.2474597,65.3455233 C13.3491481,65.6261607 9.45083646,66.7467614 5.83842677,68.8515419 C4.45141599,69.6603233 3.18417494,70.5918835 2,71.595552 C3.6420044,77.403187 6.18614535,82.8249455 9.46049531,87.7068669 C10.3471777,85.7248653 11.8230499,83.9884214 13.8340223,82.8171501 C18.9319631,79.847071 25.4497547,81.610799 28.393772,86.7538691 C31.3377893,91.8969391 29.5895375,98.4724292 24.4935286,101.442508 C24.0994475,101.672475 23.6957076,101.863464 23.2861724,102.036914 C28.0421899,105.476671 33.34683,108.189499 39.0532782,110 C42.992157,105.537086 45.2870996,99.9029004 45.7159526,94.0601857 C45.7487926,94.0621346 45.7758374,94.0796744 45.8086775,94.0796744 L50.0682301,94.0796744 C51.1345671,94.0796744 52,93.2085292 52,92.1308036 C52,91.0530781 51.1345671,90.1819328 50.0682301,90.1819328 Z" id="Path" fill="#C7CAC7"></path>
                            <path d="M94.5974845,64.2570912 C94.5994077,64.2244321 94.616716,64.1956153 94.616716,64.1610351 L94.616716,59.921121 C94.616716,58.8587411 93.7551444,58 92.6935651,58 C91.6319858,58 90.7704142,58.8587411 90.7704142,59.921121 L90.7704142,64.1610351 C90.7704142,64.1917731 90.7857995,64.2148265 90.7877226,64.2455645 C87.5087503,64.476099 84.2297781,65.3156289 81.1219662,66.8237089 C81.1104273,66.8006554 81.1104273,66.7737597 81.0969653,66.7507063 L78.9738067,63.079444 C78.443017,62.1573059 77.2660487,61.8422421 76.3467826,62.3743926 C75.4255933,62.904622 75.1121197,64.0803481 75.6429093,64.9986439 L77.7660679,68.6699062 C77.7833763,68.698723 77.8083772,68.7198554 77.8256856,68.746751 C74.9640371,70.6813199 72.5966383,73.0884846 70.7561829,75.808792 C70.7292588,75.7915019 70.7138736,75.762685 70.6850263,75.745395 L67.009885,73.6244773 C66.0848494,73.0923268 64.9155737,73.4073907 64.3828609,74.3276076 C63.8520712,75.2478246 64.167468,76.4216296 65.0867341,76.951859 L68.7618755,79.0727766 C68.7830301,79.0843033 68.8061079,79.0881456 68.8272626,79.0996723 C67.3637448,82.1215957 66.4848648,85.4009493 66.2387015,88.7513843 C66.2117774,88.7513843 66.1925459,88.7379365 66.1675449,88.7379365 L61.9231509,88.7379365 C60.8615716,88.7379365 60,89.5966776 60,90.6590575 C60,91.7214375 60.8615716,92.5801786 61.9231509,92.5801786 L66.1675449,92.5801786 C66.2002385,92.5801786 66.2290857,92.5628885 66.2617793,92.5609673 C66.538713,96.4377896 67.6445248,100.314612 69.7215278,103.907108 C70.8177238,105.803255 72.1312358,107.488078 73.5851379,109 C79.3507443,107.105775 84.6913343,104.285569 89.454979,100.735337 C87.0337321,99.9592044 84.8778799,98.3300938 83.5066733,95.9575093 C80.5757914,90.8876709 82.3162429,84.4058086 87.389515,81.4780201 C92.462787,78.5502317 98.9534213,80.2888462 101.884303,85.3586846 C102.170853,85.8543338 102.399708,86.3672731 102.597792,86.8859758 C105.884457,81.952537 108.417247,76.475421 110,70.602554 C105.64791,66.8602102 100.220778,64.6739745 94.5974845,64.2570912 Z" id="Path" fill="#ED7161"></path>
                        </g>
                    </g>
                </g>
            </g>
        </g>
    </g>
</svg>