<?xml version="1.0" encoding="UTF-8"?>
<svg width="143px" height="104px" viewBox="0 0 143 104" version="1.1" xmlns="http://www.w3.org/2000/svg" xmlns:xlink="http://www.w3.org/1999/xlink">
    <!-- Generator: Sketch 55.2 (78181) - https://sketchapp.com -->
    <title>img_key_orange</title>
    <desc>Created with Sketch.</desc>
    <defs>
        <linearGradient x1="50%" y1="3.061617e-15%" x2="50%" y2="100%" id="linearGradient-1">
            <stop stop-color="#F76D1D" offset="0%"></stop>
            <stop stop-color="#FFCC27" offset="100%"></stop>
        </linearGradient>
        <path d="M7.69814046,104 C2.77475446,94.2783551 0,83.2801446 0,71.6326531 C0,32.0710312 32.0116404,0 71.5,0 C110.98836,0 143,32.0710312 143,71.6326531 C143,83.2801446 140.225246,94.2783551 135.30186,104 L7.69814046,104 Z" id="path-2"></path>
    </defs>
    <g id="Page-1" stroke="none" stroke-width="1" fill="none" fill-rule="evenodd">
        <g id="Email-Prompt-1" transform="translate(-116.000000, -70.000000)">
            <g id="Group-6" transform="translate(27.000000, 70.000000)">
                <g id="img_key_orange" transform="translate(89.000000, 0.000000)">
                    <mask id="mask-3" fill="white">
                        <use xlink:href="#path-2"></use>
                    </mask>
                    <use id="Combined-Shape" fill="url(#linearGradient-1)" xlink:href="#path-2"></use>
                    <g id="1759253" mask="url(#mask-3)" fill-rule="nonzero">
                        <g transform="translate(33.000000, 23.000000)">
                            <path d="M54.1130066,8.51898203 C45.1423645,-0.693511914 30.4008484,-0.767517187 21.3371277,8.29620352 C12.3466492,17.286682 12.3466492,31.8626404 21.3371277,40.8531189 C23.5115051,43.0282594 26.0139465,44.6762086 28.6849977,45.7984924 C29.588318,46.1776734 30.1834105,47.0527648 30.1834105,48.0331422 L30.1834105,96.7086793 C30.1834105,97.985077 31.4582824,98.8685607 32.6530457,98.4199523 L38.6390686,96.1769104 C40.084076,95.363617 41.1155701,93.9826965 41.5100098,92.3713684 C42.4621582,88.482666 45.0469971,83.2366943 45.0469971,80.139923 C45.0469971,76.3442992 41.1636352,76.3442992 41.1636352,72.5486756 C41.1636352,68.7538146 45.0469971,68.7538146 45.0469971,64.9589539 C45.0469971,61.164093 41.1636352,61.164093 41.1636352,57.3684691 C41.1636352,53.5736084 45.0469971,53.5736084 45.0469971,49.7787477 L45.0469971,48.0125428 C45.0469971,47.0413207 45.6390381,46.1784363 46.5347289,45.8030701 C49.3141174,44.6365355 51.9111633,42.9016113 54.1473389,40.5960082 C62.7746582,31.6986084 62.7593994,17.3980713 54.1130066,8.51898203 Z" id="Path" fill="#D3D3D3"></path>
                            <path d="M46.8261719,19.3107605 C46.8261719,24.3980408 42.7017211,28.5217285 37.6152039,28.5217285 C32.5279236,28.5217285 28.4042359,24.3980408 28.4042359,19.3107605 C28.4042359,14.2242432 32.5279236,10.1005555 37.6152039,10.1005555 C42.7017211,10.1005555 46.8261719,14.2242432 46.8261719,19.3107605 Z" id="Path" fill="#FFF5F5"></path>
                            <path d="M44.1276551,25.8247375 C40.5311584,29.4212342 34.6984863,29.4212342 31.1019898,25.8247375 C30.6808473,25.402832 30.3085328,24.9481201 29.9842834,24.4728088 C33.3778381,26.0139465 37.5167848,25.3875732 40.3068543,22.5967406 C43.4837342,19.4206238 43.8568115,14.5065309 41.4253234,10.9214783 C42.4049377,11.367035 43.321991,11.9911193 44.1276551,12.7967834 C47.7241516,16.3955688 47.7241516,22.226715 44.1276551,25.8247375 Z" id="Path" fill="#EFE2DD"></path>
                            <path d="M73.4390258,1.87606816 C72.5151062,3.72085566 70.4414367,6.67724609 66.0675049,8.78601074 C65.4998779,9.05990605 65.4998779,9.87014766 66.0675049,10.144043 C70.4414367,12.2528076 72.5151062,15.209198 73.4390258,17.0539855 C73.7144471,17.6048279 74.507141,17.6048279 74.7825623,17.0539855 C75.706482,15.209198 77.7801514,12.2528076 82.1540832,10.144043 C82.7217102,9.87014766 82.7217102,9.05990605 82.1540832,8.78601074 C77.7801514,6.67724609 75.706482,3.72085566 74.7833252,1.87606816 C74.507141,1.32522578 73.7144471,1.32522578 73.4390258,1.87606816 Z" id="Path" fill="#AED3FF"></path>
                            <path d="M82.1548461,10.144043 C77.7801514,12.2535705 75.7080078,15.2099609 74.7825623,17.0539855 C74.5079041,17.6040648 73.71521,17.6040648 73.4382629,17.0539855 C73.1567383,16.4924621 72.769165,15.826416 72.2396852,15.1123047 C73.2551574,13.1217957 75.491333,9.99603281 80.1353455,7.75756836 C80.1643371,7.74383555 80.1918029,7.72857656 80.2169801,7.70874023 C80.8067322,8.08563242 81.4506531,8.44650273 82.1548461,8.78601074 C82.7232361,9.05914297 82.7232361,9.87091055 82.1548461,10.144043 Z" id="Path" fill="#83BFFF"></path>
                            <path d="M9.35745234,46.6506957 C8.43353281,48.4954834 6.35986328,51.4518738 1.98593145,53.5606385 C1.41830449,53.8345336 1.41830449,54.6455383 1.98593145,54.9186707 C6.35986328,57.0274354 8.43353281,59.9845887 9.35745234,61.8293762 C9.63287344,62.3794555 10.4263305,62.3794555 10.7017518,61.8293762 C11.6256715,59.9845887 13.6993408,57.0274354 18.0725098,54.9186707 C18.6401367,54.6455383 18.6401367,53.8345336 18.0725098,53.5606385 C13.6993408,51.4518738 11.6256715,48.4954834 10.7017518,46.6506957 C10.4255676,46.0998535 9.63287344,46.0998535 9.35745234,46.6506957 L9.35745234,46.6506957 Z" id="Path" fill="#AED3FF"></path>
                            <path d="M18.0732727,54.9194336 C13.6985779,57.0289611 11.6264344,59.9845887 10.7009887,61.8293762 C10.4263305,62.3794555 9.63363652,62.3794555 9.35668945,61.8293762 C9.07592773,61.2670898 8.6875916,60.6018066 8.15887461,59.8876953 C9.17358398,57.8971863 11.4097596,54.7706604 16.0537719,52.532959 C16.0835266,52.5192262 16.1102295,52.5032043 16.1354064,52.4841309 C16.7251586,52.86026 17.3690797,53.2211305 18.0732727,53.5606385 C18.6416625,53.8345336 18.6416625,54.6463012 18.0732727,54.9194336 Z" id="Path" fill="#83BFFF"></path>
                            <path d="M64.7766113,19.8738098 C63.5879516,22.2480773 60.9191895,26.0528564 55.2902223,28.766632 C54.5593262,29.1191102 54.5593262,30.1620484 55.2902223,30.5145264 C60.9191895,33.2290648 63.5879516,37.0338439 64.7766113,39.4081115 C65.1313781,40.1168824 66.1521912,40.1168824 66.506958,39.4081115 C67.6956176,37.0338439 70.3643799,33.2290648 75.9933473,30.5145264 C76.7242432,30.1620484 76.7242432,29.1191102 75.9933473,28.766632 C70.3643799,26.0528564 67.6956176,22.2480773 66.506958,19.8738098 C66.1521912,19.1650391 65.1313781,19.1650391 64.7766113,19.8738098 Z" id="Path" fill="#AED3FF"></path>
                            <path d="M75.9925842,30.5145264 C70.3643799,33.2290648 67.6948547,37.034607 66.506958,39.4073486 C66.1514281,40.1161193 65.1313781,40.1161193 64.7758484,39.4073486 C64.4989014,38.8549805 64.1433715,38.2270812 63.6871338,37.5518799 C63.7145996,37.5129699 63.7374879,37.4740602 63.75885,37.4305725 C65.0314332,34.8884582 67.8886414,30.8158875 73.9143371,27.9098512 C73.9967346,27.8709412 74.068451,27.824402 74.1333008,27.7709961 C74.7146605,28.1150818 75.3326416,28.4484863 75.9925842,28.766632 C76.7242432,29.119873 76.7242432,30.1620484 75.9925842,30.5145264 L75.9925842,30.5145264 Z" id="Path" fill="#83BFFF"></path>
                            <path d="M45.1629639,26.8592834 C47.17865,24.8428344 48.2894898,22.1626281 48.2894898,19.3107605 C48.2894898,16.4596559 47.17865,13.7794494 45.1629639,11.7630004 C43.1465148,9.74731445 40.4663086,8.63647461 37.614441,8.63647461 C34.7633361,8.63647461 32.0831299,9.74731445 30.0666809,11.7630004 C25.9048461,15.9248352 25.9048461,22.6974488 30.0666809,26.8592834 C32.0831299,28.8749695 34.7633361,29.9858094 37.614441,29.9858094 C40.4663086,29.9850465 43.1465148,28.8749695 45.1629639,26.8592834 Z M32.1372986,13.8328553 C33.6006164,12.3695373 35.5453492,11.5638732 37.6152039,11.5638732 C39.6842957,11.5638732 41.6297912,12.3695373 43.0931092,13.8328553 C44.556427,15.296173 45.3628539,17.2416687 45.3628539,19.3107605 C45.3628539,21.3806152 44.556427,23.3261109 43.0931092,24.7894287 C41.6297912,26.2527465 39.6842957,27.0584105 37.6152039,27.0584105 C35.5453492,27.0584105 33.6006164,26.2527465 32.1372986,24.7894287 C29.1160584,21.7689514 29.1160584,16.8533324 32.1372986,13.8328553 Z" id="Shape" fill="#000000"></path>
                            <path d="M18.6828613,52.1339416 C14.7697449,50.3074646 12.8379822,47.7745057 11.9064332,45.9709168 C11.5242004,45.2308654 10.7727051,44.7746277 9.9395752,44.7746277 C9.92965703,44.7746277 9.91973867,44.7746277 9.91058359,44.7753906 C9.06600957,44.7860719 8.31298828,45.262909 7.94525156,46.0212707 C7.05947871,47.8469848 5.19256602,50.428009 1.32598867,52.3521424 C0.557708789,52.734375 0.086975,53.5057068 0.0974782579,54.3647766 C0.1083375,55.2238465 0.598144531,55.9829711 1.37634277,56.3461305 C5.28945918,58.1726074 7.22122187,60.7055664 8.15277109,62.5091553 C8.53500371,63.2492066 9.28649902,63.7054443 10.1196289,63.7054443 C10.1295471,63.7054443 10.1387023,63.7054443 10.1486207,63.7046814 C10.9931945,63.6940002 11.7462158,63.2171631 12.1139527,62.4588012 C12.9997254,60.6330871 14.8666383,58.0520629 18.7324523,56.1279297 C19.5014953,55.7456971 19.9722289,54.9743652 19.9617258,54.1152953 C19.9508668,53.2562256 19.4610596,52.4971008 18.6828613,52.1339416 L18.6828613,52.1339416 Z M10.1020812,60.0349426 C8.9408875,58.2099914 7.01141367,56.0554504 3.84521484,54.3182373 C6.9664002,52.5009156 8.84170527,50.2990723 9.95635977,48.4451293 C11.1183166,50.2708436 13.0477906,52.4246215 16.2132264,54.1625977 C13.092041,55.9791564 11.2174988,58.1809998 10.1020812,60.0349426 L10.1020812,60.0349426 Z" id="Shape" fill="#000000"></path>
                            <path d="M33.6143494,51.8997191 L33.6143494,90.9278869 C33.6143494,91.7358398 34.2697145,92.3912049 35.0784301,92.3912049 C35.886383,92.3912049 36.541748,91.7358398 36.541748,90.9278869 L36.541748,51.8997191 C36.541748,51.0910035 35.886383,50.4356385 35.0784301,50.4356385 C34.2697145,50.4356385 33.6143494,51.0910035 33.6143494,51.8997191 L33.6143494,51.8997191 Z" id="Path" fill="#000000"></path>
                            <path d="M28.7193299,81.2721252 C28.7193299,82.0800781 29.3746949,82.7354432 30.1834105,82.7354432 C30.9913635,82.7354432 31.6467285,82.0800781 31.6467285,81.2721252 L31.6467285,48.0331422 C31.6467285,46.4675902 30.7067871,45.0607301 29.2518615,44.4488525 C26.676941,43.3670043 24.3621826,41.809082 22.3716736,39.818573 C13.9663695,31.4132691 13.9663695,17.7368164 22.3716736,9.3315125 C26.4465332,5.25588984 31.8534852,3.01742559 37.6113891,3.01742559 L37.7593994,3.01742559 C43.5707092,3.05633555 49.0066527,5.37261953 53.0647277,9.54055781 C53.7513732,10.244751 54.3930055,11.0015869 54.9728395,11.7889404 C55.4512023,12.4404906 56.3682557,12.5793457 57.0182801,12.1002197 C57.6698303,11.6210937 57.8094482,10.7048035 57.3295594,10.054016 C56.6711426,9.15908809 55.9417725,8.29925547 55.1620484,7.49816895 C50.5531311,2.76489258 44.379425,0.134277344 37.7792359,0.0900269531 C37.7227783,0.0900269531 37.6670838,0.0900269531 37.6113891,0.0900269531 C31.0714723,0.0900269531 24.9305725,2.6329041 20.3018188,7.26165781 C10.7559203,16.8083191 10.7559203,32.3417664 20.3018188,41.8884277 C22.5624084,44.1482543 25.1922607,45.9182738 28.1181336,47.1473693 C28.4835816,47.3014832 28.7200928,47.6486207 28.7200928,48.0331422 L28.7200928,81.2721252 L28.7193299,81.2721252 Z" id="Path" fill="#000000"></path>
                            <path d="M82.7636719,7.35855098 C78.8513184,5.53207402 76.9195557,2.99987793 75.9880066,1.19628906 C75.6019592,0.447845508 74.8344422,-0.00305175781 73.992157,-1.53929576e-05 C73.147583,0.0106811523 72.3945617,0.48828125 72.026825,1.24588008 C71.1410523,3.07235723 69.2733766,5.65261836 65.4075623,7.57675176 C64.6392822,7.95974727 64.1685486,8.73031621 64.1790517,9.59014883 C64.1899109,10.4492187 64.679718,11.2083436 65.4579162,11.5707398 C69.3710328,13.3972168 71.3027953,15.9301758 72.2343445,17.7337646 C72.6165771,18.473816 73.3680725,18.9300537 74.2012023,18.9300537 L74.2301941,18.9300537 C75.074768,18.9193727 75.8277893,18.4417725 76.1955262,17.6841736 C77.0812988,15.8576965 78.9489746,13.2766723 82.8147889,11.3525391 C83.5830687,10.9703064 84.0538025,10.1989746 84.0432993,9.33990469 C84.0316773,8.48083496 83.5418701,7.72171016 82.7636719,7.35855098 Z M74.1836547,15.259552 C73.0224609,13.4346008 71.0922242,11.2800598 67.9267883,9.54284668 C71.0479736,7.725525 72.9225158,5.52368164 74.0379334,3.67050176 C75.1998902,5.49545293 77.1286012,7.64923086 80.2947998,9.38720703 C77.1736145,11.2037658 75.2990723,13.4063721 74.1836547,15.259552 Z" id="Shape" fill="#000000"></path>
                            <path d="M76.6288758,27.4482727 C71.5164184,24.9832152 69.013977,21.6125488 67.8153992,19.2184449 C67.4018859,18.3921814 66.5687561,17.878723 65.6417848,17.878723 C64.7148133,17.878723 63.8816834,18.3921814 63.4681701,19.2184449 C63.0897521,19.9737549 62.5808715,20.8274842 61.9010926,21.7185975 C61.6943359,19.9241639 61.2937928,18.1510926 60.6925965,16.4329529 C60.4263305,15.6700135 59.5909119,15.2679443 58.8279725,15.5342102 C58.065033,15.8012391 57.6629639,16.6358947 57.9299926,17.3988342 C58.7394715,19.7166443 59.1461182,22.1466064 59.1438293,24.5864867 C57.9330445,25.5981445 56.4567566,26.5792848 54.6546936,27.4482727 C53.805542,27.8572082 53.2783508,28.6979676 53.2783508,29.6401977 C53.2783508,30.583191 53.805542,31.4231873 54.6539307,31.8328857 C55.6289672,32.3028564 56.5078734,32.8056336 57.3020936,33.3282471 C56.2843322,35.63385 54.8675537,37.7502441 53.0967713,39.5759582 C51.0505676,41.6854859 48.6518859,43.3265686 45.967865,44.4526672 C44.519043,45.0607301 43.5829162,46.4576721 43.5829162,48.0117797 L43.5829162,49.7779846 C43.5829162,51.0025023 43.0686951,51.5625 42.0822145,52.5268555 C41.0209656,53.5636902 39.6995545,54.8545838 39.6995545,57.3684691 C39.6995545,59.8815918 41.0209656,61.1724854 42.0822145,62.210083 C43.0686951,63.1736756 43.5829162,63.733673 43.5829162,64.958191 C43.5829162,66.1827088 43.0686951,66.7427062 42.0822145,67.7070617 C41.0209656,68.7438965 39.6995545,70.03479 39.6995545,72.5486756 C39.6995545,75.0625609 41.0202027,76.3534547 42.0822145,77.3902893 C43.0686951,78.3546447 43.5829162,78.9146424 43.5829162,80.1391602 C43.5829162,81.7825316 42.639923,84.4116211 41.7274475,86.9537354 C41.1117555,88.6695861 40.474701,90.4434203 40.0878906,92.0227051 C39.7972107,93.2106018 39.0434266,94.2352295 38.0119324,94.8486328 L32.1388244,97.0497131 C31.9908143,97.1046447 31.8748475,97.0573426 31.8031311,97.0077516 C31.7321777,96.9581604 31.6467285,96.8658447 31.6467285,96.7079162 L31.6467285,88.0523682 C31.6467285,87.2444152 30.9913635,86.5890504 30.1826477,86.5890504 C29.3746949,86.5890504 28.7193299,87.2436523 28.7193299,88.0523682 L28.7193299,96.7079162 C28.7193299,97.7874756 29.2488098,98.7983703 30.1361084,99.4132996 C30.6938172,99.8001098 31.3499451,99.9992371 32.0114137,99.9992371 C32.4005127,99.9992371 32.7919006,99.9305725 33.1665039,99.7901916 L39.1517639,97.5471496 C39.2227172,97.5204469 39.2906189,97.4891662 39.3562316,97.4517822 C41.1369324,96.4492797 42.440033,94.7242736 42.931366,92.7192688 C43.2815551,91.2879943 43.8919066,89.5874023 44.481659,87.9425049 C45.5245973,85.0364686 46.509552,82.2921754 46.509552,80.1391602 C46.509552,77.6252746 45.1889039,76.3343811 44.1276551,75.2975465 C43.1411742,74.333191 42.6261902,73.7731934 42.6261902,72.5486756 C42.6261902,71.3241578 43.1411742,70.7641602 44.1276551,69.7998047 C45.1889039,68.7629699 46.509552,67.4720764 46.509552,64.958191 C46.509552,62.4450684 45.1889039,61.1541748 44.1276551,60.1165771 C43.1411742,59.1529846 42.6261902,58.5929871 42.6261902,57.3684691 C42.6261902,56.1439514 43.1411742,55.5839539 44.1276551,54.6195984 C45.1889039,53.5827637 46.509552,52.2918701 46.509552,49.7779846 L46.509552,48.0117797 C46.509552,47.6402283 46.7414855,47.3022461 47.1000672,47.1519471 C50.150299,45.8717346 52.8747559,44.0086365 55.1971436,41.6137695 C57.0426941,39.7102355 58.5517883,37.5297547 59.6817016,35.1608277 C61.5852355,36.8766785 62.7555848,38.6421203 63.4674072,40.0627137 C63.8809203,40.888977 64.7140504,41.4024354 65.6410217,41.4024354 C66.5679932,41.4024354 67.401123,40.888977 67.8146363,40.0627137 C69.0132141,37.6686096 71.5156555,34.2979432 76.6281129,31.8328857 C77.4772645,31.4231873 78.0044555,30.583191 78.0036934,29.6401977 C78.0044555,28.6979676 77.4780273,27.8579711 76.6288758,27.4482727 L76.6288758,27.4482727 Z M65.6417848,37.9219055 C64.1899109,35.3652953 61.5463258,32.1418762 56.8069457,29.6409607 C61.5463258,27.1400451 64.1899109,23.9158631 65.6417848,21.3592529 C67.0936584,23.9158631 69.7372438,27.1400451 74.4766234,29.6409607 C69.7372438,32.1418762 67.0936584,35.3652953 65.6417848,37.9219055 Z" id="Shape" fill="#000000"></path>
                        </g>
                    </g>
                </g>
            </g>
        </g>
    </g>
</svg>