<?xml version="1.0" encoding="UTF-8"?>
<svg width="143px" height="104px" viewBox="0 0 143 104" version="1.1" xmlns="http://www.w3.org/2000/svg" xmlns:xlink="http://www.w3.org/1999/xlink">
    <!-- Generator: Sketch 55.2 (78181) - https://sketchapp.com -->
    <title>img_friends</title>
    <desc>Created with Sketch.</desc>
    <defs>
        <linearGradient x1="50%" y1="3.061617e-15%" x2="50%" y2="100%" id="linearGradient-1">
            <stop stop-color="#F76D1D" offset="0%"></stop>
            <stop stop-color="#FFCC27" offset="100%"></stop>
        </linearGradient>
        <path d="M7.69814046,104 C2.77475446,94.2783551 0,83.2801446 0,71.6326531 C0,32.0710312 32.0116404,0 71.5,0 C110.98836,0 143,32.0710312 143,71.6326531 C143,83.2801446 140.225246,94.2783551 135.30186,104 L7.69814046,104 Z" id="path-2"></path>
    </defs>
    <g id="Page-1" stroke="none" stroke-width="1" fill="none" fill-rule="evenodd">
        <g id="Friends" transform="translate(-116.000000, -77.000000)">
            <g id="Group-6" transform="translate(27.000000, 77.000000)">
                <g id="img_friends" transform="translate(89.000000, 0.000000)">
                    <mask id="mask-3" fill="white">
                        <use xlink:href="#path-2"></use>
                    </mask>
                    <use id="Combined-Shape" fill="url(#linearGradient-1)" xlink:href="#path-2"></use>
                    <g id="1006106" mask="url(#mask-3)">
                        <g transform="translate(27.000000, 26.000000)">
                            <path d="M63.7149476,2 L72.5463505,2 C74.7352942,2 76.7151078,3.28125239 77.5842942,5.26059056 L78.1486618,6.54569108 L80.8139183,6.54569108 C85.334895,6.54569108 89,10.1566364 89,14.6111967 L89,44.270834 C89,47.4348715 86.3967014,50 83.1851853,50 L53.8148147,50 C50.6034761,50 48,47.4350464 48,44.270834 L48,17.483476 C48,8.93223137 55.0358654,2 63.7149476,2 Z" id="Path" fill="#475D6D" fill-rule="nonzero"></path>
                            <path d="M79.8247739,6.54570764 L77.1632291,6.54570764 L76.59961,5.26060244 C75.7313989,3.28125706 73.754388,2 71.568347,2 L67,2 C69.186041,2 71.1632291,3.28125706 72.0312629,5.26060244 L72.5948821,6.54570764 L75.2566042,6.54570764 C79.7715856,6.54570764 83.4318303,10.1566661 83.4318303,14.6112427 L83.4318303,44.2709881 C83.4318303,47.4350371 80.8319839,50 77.6247267,50 L82.1930737,50 C85.4001537,50 88,47.4350371 88,44.2709881 L88,14.6112427 C88,10.156841 84.3399326,6.54570764 79.8247739,6.54570764 Z" id="Path" fill="#2C3F4F" fill-rule="nonzero"></path>
                            <path d="M35.8227154,5.10626514 L19.1100801,1.14282844 C17.3284878,0.720382111 15.4546007,1.24932307 14.1596381,2.54032753 L9.40707209,7.2781903 L7.39288261,7.2781903 C4.47983671,7.2781903 2.11825711,9.63255152 2.11825711,12.5366934 C2.11825711,12.5366934 1.85217861,18.9883602 2.11825711,21.1170164 C2.43429177,23.646043 4.62740222,31 4.62740222,31 L40.2727102,31 L46.9523081,4.6462013 C47.2945609,3.29426708 45.7197021,2.28142021 44.6252727,3.14962513 L44.6252727,3.14962513 C42.1483688,5.11527214 38.902459,5.83653921 35.8227154,5.10626514 Z" id="Path" fill="#F9DC6A" fill-rule="nonzero"></path>
                            <path d="M44.6940329,3.32095536 L44.6940329,3.32095536 C44.0188167,3.86928464 43.283218,4.31651353 42.5102889,4.66545035 C42.5030637,4.71301668 42.4985909,4.75988093 42.4865488,4.80832488 L36,31 L40.4670931,31 L46.953642,4.80832488 C47.2861752,3.46453197 45.7568319,2.45791595 44.6940329,3.32095536 Z" id="Path" fill="#E5AC51" fill-rule="nonzero"></path>
                            <path d="M78.5225607,54 L58.9311639,54 L8,54 L8,64.5630223 L55.8197887,64.5630223 L55.8197887,81 L88,81 L88,63.4017998 C88,58.2092561 83.7567819,54 78.5225607,54 Z" id="Path" fill="#2BB4F3" fill-rule="nonzero"></path>
                            <path d="M78.1965818,54 L74,54 C79.4143545,54 83.8034182,58.2092561 83.8034182,63.4017998 L83.8034182,81 L88,81 L88,63.4017998 C88.0001828,58.2092561 83.6109363,54 78.1965818,54 Z" id="Path" fill="#1687C4" fill-rule="nonzero"></path>
                            <path d="M48,64 L48,62.9006721 C48,57.9850635 43.7071733,54.0003319 38.4116738,54 L18.5883262,54 C13.2928267,54.000166 9,57.9850635 9,62.9006721 L9,64 L48,64 Z" id="Path" fill="#1687C4" fill-rule="nonzero"></path>
                            <path d="M63,44 L63,55.6093557 C63,58.7902403 68.5,62 68.5,62 C68.5,62 74,58.7902403 74,55.6093557 L74,44 L63,44 Z" id="Path" fill="#F2A077" fill-rule="nonzero"></path>
                            <path d="M88,30.6513088 L88,32.3037299 C88,34.2328283 86.4467078,35.7970184 84.5284938,35.7970184 L83.3503129,35.7970184 C82.879524,44.9096505 74.4752702,51.2384895 66.2292125,49.7946618 L66.2271401,49.7946618 C59.3452646,48.7327632 54.0187538,42.9249735 53.6517596,35.7970184 L52.4735786,35.7970184 C50.5553646,35.7970184 49,34.2328283 49,32.3037299 L49,30.6513088 C49,28.7222104 50.5553646,27.1580203 52.4735786,27.1580203 L53.6293082,27.1580203 L53.6293082,19.5769259 C53.6293082,19.3738904 53.633453,19.1731127 53.6436425,18.9742455 C55.6820579,19.3698957 57.7878275,19.5748417 59.9403997,19.5748417 C66.5001838,19.5748417 72.6156026,17.6641538 77.7668197,14.3636535 C78.8961257,13.6420002 79.9807015,12.8527841 81.0120848,12 C82.4643457,14.0640501 83.3705191,16.7446754 83.3705191,19.5769259 L83.3705191,27.1580203 L84.5283211,27.1580203 C86.4467078,27.1580203 88,28.7223841 88,30.6513088 Z" id="Path" fill="#FFCCAA" fill-rule="nonzero"></path>
                            <path d="M85.3323629,27.1580311 L84.109209,27.1580311 L84.109209,24.0631695 L84.107567,24.0631695 C84.1068372,18.9247508 84.1062898,19.3273486 84.1048302,19.2550963 C84.0349513,16.53018 83.0856569,13.9751258 81.6174709,12 C80.527689,12.8527847 79.3820769,13.6420014 78.1890275,14.3636552 C78.9062438,15.9646673 79.3045351,17.7256417 79.3045351,19.5769314 L79.3045351,27.1580311 L79.2808164,35.7970355 C79.0655238,39.7432924 77.245754,43.28782 74.4266982,45.8442636 C72.1568209,47.9044942 69.2410658,49.3191442 66,49.7946889 C73.9490405,51.1120763 82.0356494,45.9576788 83.7687548,38.1223067 L83.7687548,38.1223067 C83.7689373,38.1217857 83.7689373,38.1212646 83.7691197,38.1207436 C83.8514053,37.7483667 83.9198245,37.3702583 83.9727354,36.986071 C83.9743775,36.9744342 83.9756546,36.9626237 83.9772967,36.950987 C83.9993733,36.7882458 84.0181658,36.6244625 84.0349513,36.4598108 C84.0391477,36.4184742 84.0433441,36.3773112 84.0471756,36.3359746 C84.0635962,36.1572546 84.0780099,35.9778398 84.0878622,35.7968618 L84.1093915,35.7968618 L85.3325454,35.7968618 C87.3590325,35.7968618 89,34.2326706 89,32.3035708 L89,30.6511485 C89,28.7223961 87.3588501,27.1580311 85.3323629,27.1580311 Z" id="Path" fill="#F2A077" fill-rule="nonzero"></path>
                            <path d="M43,81 L4,81 L4,63.4017998 C4,58.2092561 8.29300552,54 13.5888626,54 L33.4111374,54 C38.7069945,54 43,58.2092561 43,63.4017998 L43,81 Z" id="Path" fill="#FF5A59" fill-rule="nonzero"></path>
                            <path d="M33.1965818,54 L29,54 C34.4143545,54 38.8034182,58.2092561 38.8034182,63.4017998 L38.8034182,81 L43,81 L43,63.4017998 C43,58.2092561 38.6109363,54 33.1965818,54 Z" id="Path" fill="#CE3A4C" fill-rule="nonzero"></path>
                            <path d="M18,44 L18,55.3628163 C18,58.4761509 20.46243,61 23.5,61 L23.5,61 C26.53757,61 29,58.4761509 29,55.3628163 L29,44 L18,44 Z" id="Path" fill="#F2A077" fill-rule="nonzero"></path>
                            <path d="M42,30.5511732 L42,32.2155339 C42,34.158571 40.4446354,35.7340632 38.5264214,35.7340632 L37.3482404,35.7340632 C37.1926349,38.6467819 36.2018369,41.3866619 34.8022505,43.4049223 C34.8022505,43.4070215 34.800178,43.4070215 34.800178,43.4091208 C32.001696,47.7691021 26.2396278,50.7533706 20.2271401,49.8328465 L20.2250676,49.8328465 C13.3431922,48.7632752 8.01668135,42.9135213 7.64968714,35.7340632 L6.47150619,35.7340632 C4.55329221,35.7340632 3,34.158571 3,32.2155339 L3,30.5511732 C3,28.6081361 4.55329221,27.0326439 6.47150619,27.0326439 L7.62930817,27.0326439 L7.62930817,21.4946296 C11.6185784,21.2220761 12.9090164,19.9831648 12.9090164,16 C12.9090164,16 17.9847623,25.1576577 32.8208271,22.4279242 C34.2458009,22.165692 35.7602349,21.7939487 37.3706918,21.2943255 L37.3706918,27.032469 L38.5264214,27.032469 C40.4446354,27.0326439 42,28.608311 42,30.5511732 Z" id="Path" fill="#FFCCAA" fill-rule="nonzero"></path>
                            <path d="M40.3306761,27.7973397 L39.1098182,27.7973397 L39.1098182,26.7340876 L39.1098182,22 C37.4086078,22.504762 35.808649,22.8803289 34.3035567,23.1452583 L34.3035567,27.797163 L34.2798401,36.5880806 C34.0645663,40.6037307 32.2449553,44.2105873 29.4261454,46.8119848 C27.1564661,48.9084437 24.2429723,50.3479697 21,50.8318767 C27.349118,51.7615153 33.4490291,48.7304692 36.3942668,44.3420799 C36.3942668,44.339959 36.396456,44.339959 36.396456,44.3378382 C37.3451202,43.1678367 38.3596437,40.9688701 38.8325163,38.5551677 L38.8412732,38.5551677 C38.925376,38.1143846 38.9901406,37.6661786 39.035567,37.2132007 C39.0373913,37.1951735 39.0395806,37.177323 39.0414049,37.1592958 C39.0596485,36.9696566 39.0753379,36.7793104 39.0861016,36.5880806 L39.1098182,36.5880806 L40.3306761,36.5880806 C42.3569865,36.5880806 44,34.9963837 44,33.0333615 L44,31.351882 C44,29.3892134 42.3569865,27.7973397 40.3306761,27.7973397 Z" id="Path" fill="#F2A077" fill-rule="nonzero"></path>
                            <path d="M8.56159385,66 L5.31896637,66 C3.48594536,66 2,64.5014195 2,62.6528122 L2,55.3471878 C2,53.4985805 3.48594536,52 5.31896637,52 L8.56159385,52 C9.90835388,52 11,53.1009285 11,54.4591401 L11,63.5408599 C11,64.8990715 9.90817635,66 8.56159385,66 Z" id="Path" fill="#FFCCAA" fill-rule="nonzero"></path>
                            <g id="Group" stroke-width="1" fill="none" fill-rule="evenodd">
                                <path d="M61.4810742,36.8628383 C61.8546094,37.7812383 62.4046289,38.6047277 63.1168945,39.3114979 C64.525957,40.7068936 66.3964453,41.4752511 68.3838281,41.4752511 C71.431875,41.4752511 74.1410156,39.6654936 75.2855273,36.8649319 C75.5592187,36.1953234 75.2340234,35.4322 74.559375,35.1605532 C73.884375,34.8889064 73.1158594,35.2116723 72.8419922,35.8812809 C72.1030078,37.6896426 70.3531055,38.8582298 68.3838281,38.8582298 C67.0995703,38.8582298 65.8903711,38.3611702 64.9801758,37.4598681 C64.5210352,37.0041574 64.1664844,36.4737745 63.9263672,35.8832 C63.6537305,35.2132426 62.8855664,34.8889064 62.2102148,35.1596809 C61.5348633,35.4301064 61.2086133,36.1925319 61.4810742,36.8628383 Z" id="Path" fill="#000000" fill-rule="nonzero"></path>
                                <path d="M60.8067773,29.5381447 C61.5350391,29.5381447 62.1251367,28.9522809 62.1251367,28.229634 L62.1251367,27.5040213 C62.1251367,26.7813745 61.5350391,26.1955106 60.8067773,26.1955106 C60.0785156,26.1955106 59.488418,26.7813745 59.488418,27.5040213 L59.488418,28.229634 C59.488418,28.9522809 60.0785156,29.5381447 60.8067773,29.5381447 Z" id="Path" fill="#000000" fill-rule="nonzero"></path>
                                <path d="M75.9605273,29.5381447 C76.6887891,29.5381447 77.2788867,28.9522809 77.2788867,28.229634 L77.2788867,27.5040213 C77.2788867,26.7813745 76.6887891,26.1955106 75.9605273,26.1955106 C75.2322656,26.1955106 74.642168,26.7813745 74.642168,27.5040213 L74.642168,28.229634 C74.642168,28.9522809 75.2322656,29.5381447 75.9605273,29.5381447 Z" id="Path" fill="#000000" fill-rule="nonzero"></path>
                                <path d="M23.1718359,41.4750766 C26.2198828,41.4750766 28.9290234,39.6653191 30.0735352,36.8647574 C30.3472266,36.1951489 30.0220312,35.4320255 29.3473828,35.1603787 C28.672207,34.8887319 27.9038672,35.2114979 27.63,35.8811064 C26.8910156,37.6894681 25.1411133,38.8580553 23.1718359,38.8580553 C21.8875781,38.8580553 20.6783789,38.3609957 19.7681836,37.4598681 C19.3088672,37.0038085 18.9541406,36.4734255 18.714375,35.8833745 C18.4419141,35.2132426 17.6739258,34.8889064 16.9985742,35.1595064 C16.3232227,35.4299319 15.9967969,36.1923574 16.2692578,36.8624894 C16.6424414,37.7805404 17.1922852,38.6040298 17.9049023,39.3114979 C19.3141406,40.7067191 21.1846289,41.4750766 23.1718359,41.4750766 Z" id="Path" fill="#000000" fill-rule="nonzero"></path>
                                <path d="M16.9133203,28.229634 L16.9133203,27.5040213 C16.9133203,26.7813745 16.3232227,26.1955106 15.5949609,26.1955106 C14.8666992,26.1955106 14.2766016,26.7813745 14.2766016,27.5040213 L14.2766016,28.229634 C14.2766016,28.9522809 14.8666992,29.5381447 15.5949609,29.5381447 C16.3232227,29.5381447 16.9133203,28.9522809 16.9133203,28.229634 Z" id="Path" fill="#000000" fill-rule="nonzero"></path>
                                <path d="M30.7487109,29.5381447 C31.4769727,29.5381447 32.0670703,28.9522809 32.0670703,28.229634 L32.0670703,27.5040213 C32.0670703,26.7813745 31.4769727,26.1955106 30.7487109,26.1955106 C30.0204492,26.1955106 29.4303516,26.7813745 29.4303516,27.5040213 L29.4303516,28.229634 C29.4303516,28.9522809 30.0204492,29.5381447 30.7487109,29.5381447 Z" id="Path" fill="#000000" fill-rule="nonzero"></path>
                                <path d="M88.6816406,18.9123404 C89.4099023,18.9123404 90,18.3264766 90,17.6038298 L90,13.9731489 C90,8.81569787 85.7724609,4.61991489 80.5763672,4.61991489 L78.8039648,4.61991489 L78.5888086,4.12617021 C77.518125,1.67157872 75.0851367,0.0854893617 72.3902344,0.0854893617 L63.6451172,0.0854893617 C54.3382031,0.0854893617 46.7664258,7.60052766 46.7664258,16.8379149 L46.7664258,43.5559574 C46.7664258,47.4291489 49.9412109,50.5800426 53.8433789,50.5800426 L61.3843945,50.5800426 L61.3843945,52.4276596 L32.9167969,52.4276596 L30.1693359,52.4276596 L30.1693359,49.9303234 C31.7518945,49.1914511 33.2210742,48.2006468 34.5181641,46.9741362 C37.2730078,44.3695021 39.0111328,40.9509745 39.4897852,37.2424809 C42.1639453,37.2398638 44.3385352,35.0797745 44.3385352,32.4248936 L44.3385352,30.7650043 C44.3385352,29.5903106 43.9117383,28.5133191 43.2054492,27.6763957 L46.2396094,15.757434 C46.4180273,15.0567702 45.9903516,14.3452894 45.2842383,14.1682043 C44.5793555,13.991817 43.8614648,14.4156 43.6832227,15.1162638 L40.8744141,26.1498 C40.4771484,26.0316851 40.0593164,25.9618979 39.6267188,25.9495106 L39.6267188,21.5332 C39.6267188,21.1181404 39.4282617,20.7276809 39.0919922,20.480983 C38.7557227,20.2342851 38.3210156,20.1603106 37.9216406,20.2822638 C30.6968555,22.4821319 24.3648633,22.3659362 19.6105078,19.945366 C16.0488281,18.1319447 14.5713867,15.631817 14.5603125,15.6126255 C14.2667578,15.093583 13.6566211,14.836766 13.0770703,14.9873319 C12.4968164,15.1378979 12.092168,15.6581617 12.092168,16.2532723 C12.092168,19.4945404 11.3950195,20.1967745 7.948125,20.4275957 C7.25589844,20.4740043 6.71853516,21.0446894 6.71853516,21.7331404 L6.71853516,25.9496851 C6.23794922,25.9632936 5.77476563,26.0470383 5.33847656,26.1902766 C4.76912109,24.0486809 4.40771484,22.4596255 4.30505859,21.6366596 C4.09992188,19.9992766 4.24212891,15.1173106 4.31419922,13.3745489 C4.31490234,13.3565787 4.31525391,13.338783 4.31525391,13.3208128 C4.31525391,11.1783447 6.07130859,9.43540851 8.23007813,9.43540851 L10.2287109,9.43540851 C10.5783398,9.43540851 10.9135547,9.29757872 11.1610547,9.05210213 L15.8769141,4.3711234 C16.8319336,3.42341277 18.2401172,3.02789362 19.5528516,3.33879574 L36.1355273,7.25368511 C37.0093359,7.46025532 37.9081055,7.56493617 38.8070508,7.56493617 C41.4084375,7.56493617 43.9618359,6.67933617 45.9968555,5.0714383 C46.0297266,5.04544255 46.0706836,5.01264255 46.1504883,5.06393617 C46.2301172,5.11488085 46.2172852,5.16512766 46.2070898,5.20508085 L45.2086523,9.1271234 C45.0302344,9.82778723 45.4579102,10.5392681 46.1640234,10.7163532 C46.8697852,10.8934383 47.5869727,10.4689574 47.7650391,9.76829362 L48.7636523,5.84590213 C49.0589648,4.68429362 48.5940234,3.51413617 47.5795898,2.86476596 C46.5646289,2.21504681 45.2986523,2.27785532 44.3545313,3.02440426 C42.7842773,4.26504681 40.8141211,4.94826383 38.806875,4.94826383 C38.113418,4.94826383 37.4199609,4.86748511 36.7458398,4.70819574 L20.1638672,0.792782979 C17.9673047,0.272693617 15.6104297,0.934625532 14.0125781,2.52036596 L9.68273438,6.81821277 L8.23007813,6.81821277 C4.62708984,6.81821277 1.69400391,9.71996596 1.67853516,13.2925489 C1.65796875,13.8002511 1.42048828,19.8206213 1.68855469,21.9587277 C1.82355469,23.0421745 2.27900391,25.0051149 3.04207031,27.7952085 C2.39431641,28.6141617 2.00671875,29.6452681 2.00671875,30.7651787 L2.00671875,32.4250681 C2.00671875,35.0796 4.18007813,37.2396894 6.85283203,37.2426553 C7.58074219,42.8983872 11.2042969,47.6104213 16.173457,49.9292766 L16.173457,52.4276596 L13.4279297,52.4276596 C12.6225,52.4276596 11.8288477,52.5161149 11.0552344,52.6893617 C10.4116992,51.5725915 9.20179687,50.8166213 7.81523438,50.8166213 L4.60458984,50.8166213 C2.06560547,50.8166213 0,52.8667957 0,55.3868128 L0,62.505634 C0,64.3448766 1.10091797,65.9327106 2.68242188,66.6569277 L2.68242188,80.6058255 C2.68242188,81.3284723 3.27251953,81.9145106 4.00078125,81.9145106 L42.3439453,81.9145106 C43.072207,81.9145106 43.6623047,81.3284723 43.6623047,80.6058255 L43.6623047,63.0928936 C43.6623047,59.8826809 42.2238867,57.0015149 39.9556055,55.0446809 L61.3845703,55.0446809 L61.3845703,55.6971915 C61.3845703,59.4712851 67.0918359,62.7366298 67.7425781,63.0965574 C67.9420898,63.2068213 68.1632227,63.2621277 68.3841797,63.2621277 C68.6054883,63.2621277 68.8266211,63.2069957 69.025957,63.0965574 C69.6765234,62.7366298 75.3818555,59.4711106 75.3818555,55.6971915 L75.3818555,55.0446809 L78.1275586,55.0446809 C82.5989062,55.0446809 86.2363477,58.6551234 86.2363477,63.0928936 L86.2363477,79.2974894 L82.5410742,79.2974894 L82.5410742,70.5304681 C82.5410742,69.8078213 81.9509766,69.2219574 81.2227148,69.2219574 C80.4944531,69.2219574 79.9043555,69.8078213 79.9043555,70.5304681 L79.9043555,79.2974894 L56.8634766,79.2974894 L56.8634766,64.2478723 C56.8634766,63.5252255 56.2733789,62.9393617 55.5451172,62.9393617 L47.6367188,62.9393617 C46.908457,62.9393617 46.3183594,63.5252255 46.3183594,64.2478723 C46.3183594,64.9705191 46.908457,65.556383 47.6367188,65.556383 L54.2267578,65.556383 L54.2267578,80.606 C54.2267578,81.3286468 54.8168555,81.9145106 55.5451172,81.9145106 L87.5548828,81.9145106 C88.2831445,81.9145106 88.8732422,81.3286468 88.8732422,80.606 L88.8732422,63.0928936 C88.8732422,57.2120979 84.052793,52.4276596 78.1277344,52.4276596 L75.3820313,52.4276596 L75.3820313,50.5800426 L82.9248047,50.5800426 C86.8260937,50.5800426 90,47.4289745 90,43.5559574 L90,23.7817447 C90,23.0590979 89.4099023,22.473234 88.6816406,22.473234 C87.9533789,22.473234 87.3632812,23.0590979 87.3632812,23.7817447 L87.3632812,26.7433404 C86.6339648,26.2649489 85.7682422,25.9756809 84.8367773,25.9493362 L84.8367773,19.6405702 C84.8367773,16.6332638 83.925,13.7430255 82.2000586,11.2821532 C81.9901758,10.982417 81.6633984,10.7835234 81.2991797,10.7332766 C80.9347852,10.6828553 80.5659961,10.7863149 80.281582,11.017834 C74.4916992,15.733183 67.1719922,18.329966 59.6707031,18.329966 C57.5919141,18.329966 55.5196289,18.1349106 53.5113281,17.7502085 C53.1372656,17.6786766 52.7489648,17.7713191 52.4485547,18.0049319 C52.1481445,18.2385447 51.9644531,18.5899234 51.9449414,18.9681702 C51.9338672,19.1810213 51.9285937,19.4010255 51.9285937,19.6405702 L51.9285937,25.9495106 C50.9976562,25.9762043 50.1324609,26.2654723 49.4033203,26.7435149 L49.4033203,16.8379149 C49.4033203,9.04372766 55.7922656,2.70251064 63.645293,2.70251064 L72.3904102,2.70251064 C74.0332617,2.70251064 75.5165039,3.66941277 76.1690039,5.16565106 L76.7279883,6.44799149 C76.9368164,6.92690638 77.4123047,7.23693617 77.9380664,7.23693617 L80.576543,7.23693617 C84.3189258,7.23693617 87.363457,10.2587234 87.363457,13.9731489 L87.363457,17.6038298 C87.3632812,18.3264766 87.9533789,18.9123404 88.6816406,18.9123404 Z M9.37423828,35.8664511 C9.33802734,35.1710213 8.75935547,34.6254596 8.05763672,34.6254596 L6.85845703,34.6254596 C5.63712891,34.6254596 4.6434375,33.6383191 4.6434375,32.4248936 L4.6434375,30.7650043 C4.6434375,29.5515787 5.63695312,28.5644383 6.85845703,28.5644383 L8.03707031,28.5644383 C8.76533203,28.5644383 9.35542969,27.9785745 9.35542969,27.2559277 L9.35542969,22.9132426 C12.1028906,22.5240043 13.6492383,21.4616681 14.3210742,19.3909064 C15.2604492,20.2918596 16.5475195,21.3030766 18.2358984,22.1853617 C24.3917578,25.4020298 31.5590625,24.6821745 36.99,23.266017 L36.99,27.2559277 C36.99,27.9785745 37.5800977,28.5644383 38.3083594,28.5644383 L39.4846875,28.5644383 C40.7070703,28.5644383 41.7016406,29.5515787 41.7016406,30.7650043 L41.7016406,32.4248936 C41.7016406,33.6383191 40.7070703,34.6254596 39.4846875,34.6254596 L38.2855078,34.6254596 C37.5839648,34.6254596 37.005293,35.1706723 36.9689062,35.8661021 C36.7850391,39.3779702 35.26875,42.6499447 32.6995312,45.0792383 C31.4216016,46.2876043 29.945918,47.2260681 28.3491211,47.866366 C28.3408594,47.8696809 28.3327734,47.8731702 28.3245117,47.876834 C26.7052148,48.5225404 24.9618164,48.8615319 23.1725391,48.8615319 C21.3544336,48.8615319 19.6161328,48.5118979 18.0226758,47.877183 C17.9978906,47.866366 17.9722266,47.8569447 17.9467383,47.8475234 C13.1301562,45.8960979 9.65847656,41.3243362 9.37423828,35.8664511 Z M23.1727148,51.4785532 C24.6636914,51.4785532 26.1268945,51.2770426 27.5326172,50.8949574 L27.5326172,53.7361702 L27.5326172,55.6971915 C27.5326172,56.8540894 27.0792773,57.9412 26.2557422,58.7584085 C25.4325586,59.575617 24.3372656,60.0255702 23.1714844,60.0255702 C20.7666211,60.0255702 18.8101758,58.0839149 18.8101758,55.697017 L18.8101758,53.7361702 L18.8101758,50.8958298 C20.2011328,51.2740766 21.663457,51.4785532 23.1727148,51.4785532 Z M2.63671875,55.3868128 C2.63671875,54.3098213 3.51949219,53.4336426 4.60458984,53.4336426 L7.81523437,53.4336426 C8.41957031,53.4336426 8.91105469,53.9216298 8.91105469,54.5214511 L8.91105469,63.3711702 C8.91105469,63.9709915 8.41939453,64.4589787 7.81523437,64.4589787 L4.60458984,64.4589787 C3.51949219,64.4589787 2.63671875,63.5828 2.63671875,62.5058085 L2.63671875,55.3868128 Z M41.0255859,63.0928936 L41.0255859,79.2974894 L37.3294336,79.2974894 L37.3294336,70.5304681 C37.3294336,69.8078213 36.7393359,69.2219574 36.0110742,69.2219574 C35.2828125,69.2219574 34.6927148,69.8078213 34.6927148,70.5304681 L34.6927148,79.2974894 L11.650957,79.2974894 L11.650957,70.5304681 C11.650957,69.8078213 11.0608594,69.2219574 10.3325977,69.2219574 C9.60433594,69.2219574 9.01423828,69.8078213 9.01423828,70.5304681 L9.01423828,79.2974894 L5.31914062,79.2974894 L5.31914062,67.076 L7.81523437,67.076 C9.87345703,67.076 11.5477734,65.414017 11.5477734,63.3711702 L11.5477734,55.2632894 C12.1591406,55.1191787 12.7880859,55.0446809 13.4277539,55.0446809 L16.173457,55.0446809 L16.173457,55.6971915 C16.173457,59.5269404 19.3127344,62.642766 23.1714844,62.642766 C25.0416211,62.642766 26.799082,61.9204681 28.1202539,60.6089915 C29.4416016,59.2975149 30.1691602,57.553183 30.1691602,55.6971915 L30.1691602,55.0446809 L32.9166211,55.0446809 C37.3879688,55.0446809 41.0255859,58.6551234 41.0255859,63.0928936 Z M72.7453125,55.6971915 C72.7453125,57.1477191 70.372793,59.1970213 68.3841797,60.4326043 C66.3941602,59.1966723 64.0212891,57.1475447 64.0212891,55.6971915 L64.0212891,50.8958298 C65.4118945,51.2740766 66.8738672,51.4783787 68.3827734,51.4783787 C69.8748047,51.4783787 71.3388867,51.2766936 72.7453125,50.894434 L72.7453125,55.6971915 Z M87.3632812,43.5559574 C87.3632812,45.9861234 85.372207,47.9630213 82.9248047,47.9630213 L78.5819531,47.9630213 C78.9776367,47.6521191 79.3613672,47.3228979 79.7306836,46.9737872 C82.4851758,44.367583 84.2233008,40.9488809 84.7019531,37.2424809 C85.6843945,37.241434 86.5988086,36.9481532 87.3632812,36.4469064 L87.3632812,43.5559574 Z M49.8534961,30.7650043 C49.8534961,29.5515787 50.8480664,28.5644383 52.0704492,28.5644383 L53.2467773,28.5644383 C53.9750391,28.5644383 54.5651367,27.9785745 54.5651367,27.2559277 L54.5651367,20.5809532 C56.2452539,20.8241617 57.9563086,20.9471617 59.6705273,20.9471617 C67.2767578,20.9471617 74.7105469,18.477217 80.7691992,13.9640766 C81.70875,15.7017787 82.1998828,17.6394213 82.1998828,19.6407447 L82.1998828,27.2561021 C82.1998828,27.9787489 82.7899805,28.5646128 83.5182422,28.5646128 L84.6968555,28.5646128 C85.9181836,28.5646128 86.911875,29.5517532 86.911875,30.7651787 L86.911875,32.4250681 C86.911875,33.6384936 85.9183594,34.625634 84.6968555,34.625634 L83.4976758,34.625634 C82.7961328,34.625634 82.2174609,35.1708468 82.1810742,35.8662766 C81.9973828,39.3762255 80.480918,42.6483745 77.9116992,45.0794128 C76.6399219,46.2818468 75.1719727,47.2166468 73.5837891,47.8567702 C73.5604102,47.8658426 73.5373828,47.8756128 73.5145313,47.8860809 C71.9010352,48.5262043 70.1644922,48.8617064 68.3825977,48.8617064 C66.5651953,48.8617064 64.8274219,48.5122468 63.2344922,47.8777064 C63.2090039,47.8665404 63.1828125,47.8569447 63.1566211,47.8473489 C58.3412695,45.8957489 54.8704688,41.3241617 54.5864063,35.8666255 C54.5501953,35.1711957 53.9715234,34.625634 53.2698047,34.625634 L52.070625,34.625634 C50.8482422,34.625634 49.8534961,33.6384936 49.8534961,32.4250681 L49.8534961,30.7650043 L49.8534961,30.7650043 Z M52.065,37.2424809 C52.6250391,41.5947617 54.9005273,45.3880468 58.1828906,47.9630213 L53.8435547,47.9630213 C51.3950977,47.9630213 49.4033203,45.9859489 49.4033203,43.5559574 L49.4033203,36.4470809 C50.167793,36.9481532 51.0823828,37.241434 52.065,37.2424809 Z" id="Shape" fill="#000000" fill-rule="nonzero"></path>
                            </g>
                        </g>
                    </g>
                </g>
            </g>
        </g>
    </g>
</svg>