<?xml version="1.0" encoding="UTF-8"?>
<svg width="143px" height="104px" viewBox="0 0 143 104" version="1.1" xmlns="http://www.w3.org/2000/svg" xmlns:xlink="http://www.w3.org/1999/xlink">
    <!-- Generator: Sketch 55.2 (78181) - https://sketchapp.com -->
    <title>img_gender_orange</title>
    <desc>Created with Sketch.</desc>
    <defs>
        <linearGradient x1="50%" y1="3.061617e-15%" x2="50%" y2="100%" id="linearGradient-1">
            <stop stop-color="#F76D1D" offset="0%"></stop>
            <stop stop-color="#FFCC27" offset="100%"></stop>
        </linearGradient>
        <path d="M7.69814046,104 C2.77475446,94.2783551 0,83.2801446 0,71.6326531 C0,32.0710312 32.0116404,0 71.5,0 C110.98836,0 143,32.0710312 143,71.6326531 C143,83.2801446 140.225246,94.2783551 135.30186,104 L7.69814046,104 Z" id="path-2"></path>
    </defs>
    <g id="Page-1" stroke="none" stroke-width="1" fill="none" fill-rule="evenodd">
        <g id="Gender-Prompt" transform="translate(-116.000000, -109.000000)">
            <g id="img_gender_orange" transform="translate(116.000000, 109.000000)">
                <g id="Group">
                    <mask id="mask-3" fill="white">
                        <use xlink:href="#path-2"></use>
                    </mask>
                    <use id="Combined-Shape" fill="url(#linearGradient-1)" xlink:href="#path-2"></use>
                </g>
                <g id="703253" transform="translate(69.000000, 60.000000) rotate(-45.000000) translate(-69.000000, -60.000000) translate(28.000000, 19.000000)" fill-rule="nonzero">
                    <path d="M63.0133164,31.9144961 C54.4391914,23.3403711 40.4879805,23.3403711 31.9138555,31.9144961 C23.3397305,40.4886211 23.3397305,54.439832 31.9138555,63.013957 C39.7664766,70.8665781 52.1282969,71.5259414 60.7400586,64.99525 L66.9586055,71.2137969 L64.0714688,74.1009336 C62.8965625,75.2758398 62.8965625,77.1805781 64.0714688,78.3554844 C65.246375,79.5303906 67.1512734,79.5303906 68.3260195,78.3554844 L71.2131563,75.4683477 L75.6630977,79.9182891 C76.8380039,81.0931953 78.7429023,81.0931953 79.9176484,79.9182891 C81.0925547,78.7433828 81.0925547,76.8386445 79.9176484,75.6637383 L75.467707,71.2137969 L78.3548438,68.3266602 C79.52975,67.1517539 79.52975,65.2470156 78.3548438,64.0721094 C77.1799375,62.8972031 75.2750391,62.8972031 74.100293,64.0721094 L71.2131563,66.9592461 L64.9946094,60.7405391 C71.5253008,52.1289375 70.8659375,39.7671172 63.0133164,31.9144961 Z M58.7587656,58.7594063 C52.5306094,64.9875625 42.3965625,64.9875625 36.1684063,58.7594063 C29.94025,52.53125 29.94025,42.3973633 36.1684063,36.169207 C42.3965625,29.9410508 52.5304492,29.9408906 58.7586055,36.169207 C64.9867617,42.3975234 64.987082,52.53125 58.7587656,58.7594063 Z" id="Shape" fill="#7F7FBF"></path>
                    <path d="M19.6707109,50.7708125 C28.2448359,59.3449375 42.1960469,59.3449375 50.7701719,50.7708125 C59.3442969,42.1966875 59.3442969,28.2454766 50.7701719,19.6713516 C42.9175508,11.8187305 30.5557305,11.1593672 21.9439688,17.6900586 L11.652168,7.39825781 L14.0216797,7.20943359 C15.6781758,7.07746484 16.9137813,5.62789063 16.7816523,3.97155469 C16.6498438,2.31537891 15.2001094,1.07961328 13.5439336,1.21158203 L5.01032813,1.89144531 C4.20201953,1.86021484 3.38362109,2.1499375 2.76637891,2.76701953 C2.14913672,3.38410156 1.85957422,4.20266016 1.89080469,5.01096875 L1.21094141,13.5445742 C1.07897266,15.20075 2.31473828,16.6506445 3.97091406,16.7824531 C5.62725,16.9144219 7.07666406,15.6786563 7.20879297,14.0224805 L7.39761719,11.6529688 L17.689418,21.9447695 C11.1587266,30.5563711 11.8180898,42.9181914 19.6707109,50.7708125 Z M23.9252617,23.9259023 C30.153418,17.6977461 40.2874648,17.6977461 46.5156211,23.9259023 C52.7437773,30.1540586 52.7437773,40.2879453 46.5156211,46.5161016 C40.2874648,52.7442578 30.1535781,52.744418 23.9254219,46.5161016 C17.6972656,40.2877852 17.6969453,30.1540586 23.9252617,23.9259023 Z" id="Shape" fill="#53E7D3"></path>
                    <path d="M50.7701719,19.6713516 C42.9175508,11.8187305 30.5557305,11.1593672 21.9439688,17.6900586 L11.652168,7.39825781 L14.0216797,7.20959375 C15.6781758,7.077625 16.9137813,5.62805078 16.7816523,3.97171484 C16.6498437,2.31537891 15.2001094,1.07961328 13.5439336,1.21158203 L5.01032813,1.89144531 C4.20201953,1.86021484 3.38362109,2.1499375 2.76637891,2.76701953 L20.7706641,20.7713047 C24.7987539,19.0390547 29.2422891,18.5640313 33.4981211,19.3483164 C38.1416914,18.8491094 42.9638359,20.3742773 46.5156211,23.9260625 C50.0672461,27.4776875 51.5924141,32.2991914 51.0933672,36.9424414 C52.1281367,42.5541563 50.9751719,48.49275 47.6341523,53.3739922 C48.73875,52.6178945 49.7898555,51.7511289 50.7700117,50.7709727 C59.3442969,42.1966875 59.3442969,28.2453164 50.7701719,19.6713516 Z" id="Path" fill="#1BCCC7"></path>
                    <path d="M79.9176484,75.6637383 L75.467707,71.2137969 L78.3548437,68.3266602 C79.52975,67.1517539 79.52975,65.2470156 78.3548437,64.0721094 C77.1799375,62.8972031 75.2750391,62.8972031 74.100293,64.0721094 L71.2131562,66.9592461 L64.9946094,60.7406992 C71.5254609,52.1289375 70.8659375,39.7671172 63.0133164,31.9144961 C54.4391914,23.3403711 40.4879805,23.3403711 31.9138555,31.9144961 C30.8778047,32.9505469 29.9681172,34.0657148 29.1825508,35.2398203 C33.7732695,32.1678633 39.2736758,31.0088125 44.5506641,31.7645898 C49.5478594,30.8448125 54.902043,32.3121641 58.7587656,36.1688867 C62.6167695,40.0270508 64.0839609,45.3836367 63.1622617,50.3824336 C63.7091953,54.2095273 63.2485859,58.153375 61.7823555,61.7828359 L79.9176484,79.9181289 C81.0925547,78.7433828 81.0925547,76.8386445 79.9176484,75.6637383 Z" id="Path" fill="#7272AF"></path>
                    <path d="M80.766957,74.8142695 L77.1664844,71.2137969 L79.2041523,69.1761289 C80.8454336,67.5348477 80.8454336,64.864082 79.2041523,63.2226406 C77.5627109,61.5813594 74.8921055,61.5813594 73.2508242,63.2226406 L71.2131562,65.2604687 L66.5673437,60.6146562 C68.6477734,57.5923477 69.9865195,54.0929336 70.4552969,50.4301602 C70.5395391,49.7722383 70.0744453,49.1705312 69.4163633,49.0861289 C68.7581211,49.0026875 68.1567344,49.4673008 68.072332,50.1250625 C67.612043,53.7212109 66.2167617,57.1411875 64.0375156,60.0147109 C63.6749219,60.4929375 63.7208867,61.1655937 64.1453008,61.5900078 L70.3638477,67.8083945 C70.8329453,68.277332 71.5935273,68.277332 72.0624648,67.8083945 L74.9494414,64.921418 C75.6539688,64.2167305 76.8006875,64.2167305 77.5052148,64.9212578 C78.2099023,65.6259453 78.2099023,66.7726641 77.5052148,67.4771914 L74.6183984,70.3643281 C74.1493008,70.8335859 74.1493008,71.5940078 74.6183984,72.0631055 L79.0683398,76.5130469 C79.7730273,77.2175742 79.7730273,78.364293 79.0683398,79.0688203 C78.3636523,79.7735078 77.2170938,79.7735078 76.5124063,79.0688203 L72.0624648,74.6188789 C71.8372852,74.3936992 71.531707,74.2671758 71.2131563,74.2671758 C70.8946055,74.2671758 70.5890273,74.3936992 70.3638477,74.6188789 L67.4767109,77.5060156 C66.7720234,78.210543 65.6253047,78.210543 64.9209375,77.5061758 C64.21625,76.8014883 64.21625,75.6547695 64.9209375,74.950082 L67.8080742,72.0631055 C68.2771719,71.5938477 68.2771719,70.8334258 67.8080742,70.3643281 L61.5895273,64.1459414 C61.1651133,63.7215273 60.492457,63.6754023 60.0143906,64.0383164 C51.7865234,70.2781641 40.0712539,69.4727383 32.7633242,62.1646484 C31.4069609,60.8082852 30.2605625,59.2965703 29.3371016,57.6496836 C29.4030859,57.6668203 29.4695508,57.6820352 29.5356953,57.6986914 C29.6207383,57.7199922 29.7057813,57.741293 29.7909844,57.761793 C29.9018125,57.7883789 30.0128008,57.8136836 30.1239492,57.838668 C30.1989023,57.8553242 30.2738555,57.8718203 30.3488086,57.8878359 C30.466043,57.9128203 30.5832773,57.9371641 30.7009922,57.9602266 C30.7716211,57.9741602 30.8424102,57.9874531 30.9130391,58.0007461 C31.0328359,58.023168 31.152793,58.0452695 31.2729102,58.0657695 C31.3443398,58.0779414 31.4157695,58.0893125 31.4871992,58.1008437 C31.6057148,58.1200625 31.7242305,58.1391211 31.8430664,58.156418 C31.9225039,58.1681094 32.0022617,58.1781992 32.0818594,58.1890898 C32.1923672,58.2039844 32.3027148,58.2193594 32.413543,58.2328125 C32.5269336,58.2464258 32.6404844,58.2581172 32.753875,58.2701289 C32.8313906,58.2782969 32.9085859,58.2877461 32.9862617,58.2951133 C33.1826133,58.3138516 33.379125,58.3301875 33.5756367,58.3439609 C33.6004609,58.3457227 33.6256055,58.3466836 33.6504297,58.3484453 C33.8256406,58.3601367 34.0010117,58.3702266 34.176543,58.3780742 C34.1853516,58.3783945 34.1941602,58.3791953 34.2029688,58.3795156 C34.5553125,58.8069727 34.9291172,59.2188945 35.3190977,59.608875 C38.6678047,62.9574219 43.0650547,64.6316953 47.4637461,64.6312148 C51.8613164,64.6308945 56.2603281,62.9567813 59.6082344,59.6090352 C62.8473945,56.3697148 64.6312148,52.0568672 64.6312148,47.4643867 C64.6312148,42.8719063 62.8472344,38.5588984 59.6082344,35.3197383 C59.083082,34.7945859 58.5177305,34.2982617 57.9281953,33.8446992 C57.9254727,33.8426172 57.9225898,33.8410156 57.919707,33.8389336 C55.9023789,32.2887813 53.6145469,31.229668 51.1196328,30.6901016 C51.1068203,30.6868984 51.0946484,30.6827344 51.0816758,30.6800117 C45.3450391,29.4524141 39.4524102,31.1867461 35.3192578,35.3198984 C31.6431914,38.996125 29.8646563,44.0637891 30.3800391,49.1758164 C30.1474922,49.0955781 29.9163867,49.0097344 29.6872031,48.9174844 C29.668625,48.909957 29.6500469,48.9024297 29.6314688,48.8949023 C29.1977656,48.71825 28.7706289,48.5209375 28.3521406,48.3013633 C28.3478164,48.2991211 28.3436523,48.2967188 28.3393281,48.2944766 C28.1431367,48.1913359 27.9491875,48.08275 27.757,47.9701602 C27.7320156,47.9555859 27.7070313,47.9411719 27.682207,47.9264375 C27.4847344,47.8093633 27.2891836,47.6878047 27.0963555,47.5606406 C27.0846641,47.5529531 27.073293,47.544625 27.0617617,47.5369375 C26.9350781,47.4530156 26.8111172,47.3639688 26.6865156,47.2757227 C26.7316797,41.7847656 28.8764922,36.650957 32.7636445,32.7639648 C36.7898125,28.7377969 42.1513633,26.5780898 47.865418,26.6900391 L47.865418,26.6900391 L47.865418,26.6900391 C50.3915625,26.7382461 52.856207,27.2345703 55.1904844,28.1653984 C55.1906445,28.1653984 55.1906445,28.1653984 55.1908047,28.1655586 C57.8116016,29.2102578 60.1577305,30.7573672 62.1643281,32.7639648 C65.4438477,36.0434844 67.4872813,40.208668 68.0739336,44.8097969 C68.1512891,45.4163086 68.6681133,45.8593008 69.2640547,45.8593008 C69.3146641,45.8593008 69.3659141,45.8559375 69.4174844,45.8493711 C70.0755664,45.7656094 70.5409805,45.1640625 70.4570586,44.5059805 C69.8025,39.3720117 67.5223555,34.7244375 63.8631055,31.0650273 C61.7464805,28.9482422 59.2896836,27.2903047 56.5550156,26.1299727 C55.3946836,23.3954648 53.7365859,20.9385078 51.6199609,18.8218828 C47.6384766,14.8403984 42.3465938,12.4489453 36.7190234,12.0881133 C31.4971289,11.7541875 26.3364141,13.179418 22.070332,16.1171641 L14.3363867,8.38385938 C15.3705156,8.24788672 16.3048672,7.74099219 16.9864922,6.94149219 C17.7160039,6.08577734 18.0685078,4.99703516 17.9791406,3.87642188 C17.8899336,2.75548828 17.3694258,1.73641406 16.5137109,1.00690234 C15.6579961,0.277390625 14.5695742,-0.0744726563 13.4484805,0.0142539062 L4.97973828,0.688832031 C3.83830469,0.672175781 2.72361719,1.11116406 1.91707031,1.91787109 C1.11068359,2.72441797 0.665289062,3.83670312 0.688351562,4.98037891 L0.0136132812,13.4491211 C-0.0757539063,14.5698945 0.276910156,15.6584766 1.00626172,16.5143516 C1.73577344,17.3702266 2.7546875,17.8905742 3.87562109,17.9797812 C6.11524609,18.1567539 8.09189453,16.5401367 8.38305859,14.3370273 L16.1168437,22.0706523 C14.2242773,24.822457 12.9355,27.990668 12.3719102,31.2959727 C12.2604414,31.9498906 12.7000703,32.5704961 13.3539883,32.6819648 C14.0079062,32.7921523 14.6283516,32.3536445 14.7399805,31.6997266 C15.298125,28.4266133 16.649043,25.304207 18.6466719,22.6702773 C19.0092656,22.1920508 18.9633008,21.5193945 18.5388867,21.0949805 L8.24692578,10.8035 C7.91572266,10.4722969 7.42212109,10.3640312 6.98233203,10.5257891 C6.54270312,10.6878672 6.23744531,11.0905 6.20028906,11.5575156 L6.011625,13.9268672 C5.93234766,14.9203164 5.05949609,15.6642422 4.06652734,15.5849648 C3.58541797,15.5466875 3.14787109,15.3232695 2.83476562,14.9558711 C2.5215,14.5884727 2.3703125,14.1211367 2.40858984,13.6398672 L3.08845312,5.10626172 C3.09213672,5.05917578 3.09309766,5.01176953 3.09133594,4.96452344 C3.07163672,4.45330469 3.25805859,3.97427734 3.61600781,3.61632812 C3.97411719,3.25821875 4.45250391,3.07067578 4.96436328,3.09149609 C5.01160937,3.09357812 5.05885547,3.09245703 5.10594141,3.08861328 L13.6395469,2.40891016 C14.1208164,2.37111328 14.5881523,2.52182031 14.9555508,2.83492578 C15.3229492,3.14819141 15.5463672,3.58557812 15.5846445,4.06700781 C15.623082,4.54811719 15.4717344,5.01545312 15.1586289,5.38285156 C14.8453633,5.75025 14.4079766,5.97350781 13.9265469,6.01194531 L11.556875,6.20092969 C11.0898594,6.23808594 10.6870664,6.54350391 10.5251484,6.98313281 C10.3632305,7.42276172 10.4716562,7.91636328 10.8028594,8.24772656 L21.0948203,18.5395273 C21.5192344,18.9639414 22.1918906,19.0100664 22.669957,18.6471523 C30.8979844,12.407625 42.6132539,13.2130508 49.9208633,20.5208203 C51.2773867,21.8773437 52.4237852,23.3888984 53.3470859,25.0357852 C51.7608984,24.6216211 50.1335508,24.3773828 48.4810586,24.305793 C48.1287148,23.8783359 47.7549102,23.4664141 47.3649297,23.0764336 C40.6684766,16.3801406 29.7725664,16.3798203 23.0759531,23.0762734 C19.836793,26.3155937 18.0529727,30.6284414 18.0529727,35.2209219 C18.0529727,39.8134023 19.8369531,44.1264102 23.0759531,47.3655703 C23.7217031,48.0113203 24.4070117,48.5941289 25.1233906,49.1154375 C25.1480547,49.1335352 25.1731992,49.150832 25.1980234,49.1687695 C25.2928359,49.2369961 25.3879688,49.3044219 25.4837422,49.3704062 C25.5332305,49.4045195 25.5830391,49.437832 25.6328477,49.4714648 C25.7017148,49.5179102 25.770582,49.5640352 25.8400898,49.6093594 C25.9108789,49.6556445 25.9819883,49.7009687 26.0532578,49.7461328 C26.098582,49.7746406 26.1439063,49.8031484 26.1893906,49.8313359 C26.2805195,49.8878711 26.3721289,49.9434453 26.4642188,49.9982187 C26.4848789,50.0103906 26.5056992,50.0225625 26.5263594,50.0347344 C27.4797695,50.5954414 28.4820273,51.0592539 29.5276875,51.4237695 C29.5334531,51.4258516 29.5392188,51.4277734 29.5449844,51.4298555 C29.6647813,51.4714961 29.7848984,51.5118555 29.9058164,51.5509336 C29.9316016,51.5592617 29.9573867,51.5672695 29.9831719,51.5754375 C30.088875,51.6089102 30.1945781,51.6420625 30.301082,51.6736133 C30.3513711,51.6885078 30.4018203,51.7024414 30.4522695,51.7170156 C30.5382734,51.7416797 30.6241172,51.7666641 30.7106016,51.7898867 C30.8502578,51.8276836 30.9903945,51.8638789 31.1308516,51.8979922 C31.1419023,51.9007148 31.1531133,51.902957 31.1641641,51.9056797 C31.3006172,51.9386719 31.4375508,51.9699023 31.5746445,51.9993711 C31.5839336,52.001293 31.5932227,52.0036953 31.6025117,52.0057773 C31.6069961,52.0067383 31.6114805,52.0070586 31.6159648,52.0078594 C37.1218164,53.1810039 43.0964453,51.6342148 47.3649297,47.3658906 C51.0411563,43.6896641 52.8198516,38.6213594 52.3041484,33.5090117 C53.6203125,33.9611328 54.8563984,34.5956719 55.9979922,35.405582 C55.9539492,40.8979805 53.8089766,46.0335508 49.9207031,49.9218242 C45.769293,54.0733945 40.284582,56.0976094 34.8322227,55.9967109 C34.8277383,55.9965508 34.8234141,55.99575 34.8187695,55.99575 C34.3523945,55.9867812 33.8881016,55.9624375 33.4262109,55.9230391 C33.4146797,55.9220781 33.4031484,55.9211172 33.3917773,55.9201562 C33.2583672,55.9084648 33.1252773,55.895332 32.9921875,55.8810781 C32.9593555,55.8775547 32.9263633,55.8741914 32.8935313,55.8705078 C32.7775781,55.8576953 32.6617852,55.8436016 32.5461523,55.828707 C32.4958633,55.8221406 32.4454141,55.8155742 32.395125,55.8088477 C32.2935859,55.7950742 32.1920469,55.7805 32.090668,55.7652852 C32.0267656,55.7556758 31.9628633,55.7455859 31.8991211,55.7353359 C31.8083125,55.7207617 31.7175039,55.7058672 31.6270156,55.6900117 C31.5544648,55.6773594 31.4820742,55.6640664 31.4096836,55.6507734 C31.3254414,55.6352383 31.2410391,55.6193828 31.156957,55.6028867 C31.0808828,55.587832 31.0049687,55.5718164 30.9290547,55.5559609 C30.8470547,55.5388242 30.7648945,55.5216875 30.6832148,55.5035898 C30.6093828,55.4870937 30.5357109,55.4697969 30.4621992,55.4525 C30.3771562,55.4326406 30.2919531,55.4129414 30.2070703,55.3921211 C30.1446094,55.3767461 30.0823086,55.36025 30.0200078,55.3442344 C29.9232734,55.3194102 29.8265391,55.2949062 29.730125,55.2686406 C29.697293,55.2596719 29.6646211,55.2500625 29.6319492,55.2409336 C28.9086836,55.0400977 28.1951875,54.8003437 27.4937031,54.5205508 C27.4927422,54.5202305 27.4916211,54.5200703 27.4906602,54.5195898 C24.9512227,53.5064414 22.5724219,51.9745469 20.5198594,49.9219844 C17.0600039,46.4621289 14.9276836,41.868207 14.516082,36.9866445 C14.4603477,36.3253594 13.8801016,35.8356016 13.2181758,35.8905352 C12.5572109,35.9464297 12.0664922,36.5274766 12.1222266,37.1884414 C12.5815547,42.6347148 14.9605156,47.7603555 18.8212422,51.6209219 C20.9844727,53.7839922 23.4725,55.4283164 26.1294922,56.556457 C27.2899844,59.2909648 28.9479219,61.7476016 31.0643867,63.8640664 C35.0458711,67.8455508 40.3379141,70.2370039 45.9653242,70.5978359 C51.1870586,70.9336836 56.3479336,69.5065312 60.6140156,66.5687852 L65.2598281,71.2144375 L63.222,73.2522656 C61.5807187,74.8935469 61.5807187,77.5641523 63.222,79.2057539 C64.8634414,80.8470352 67.5340469,80.8470352 69.1753281,79.2057539 L71.2131562,77.1677656 L74.8136289,80.7683984 C75.6342695,81.5890391 76.7122812,81.9993594 77.790293,81.9993594 C78.8683047,81.9993594 79.9463164,81.5890391 80.766957,80.7683984 C81.5621328,79.9732227 81.9999942,78.9161914 81.9999942,77.7917344 C81.9999942,76.6664766 81.5621328,75.6094453 80.766957,74.8142695 Z M24.3857109,45.2585547 C21.8483555,42.5238867 20.4551562,38.9826719 20.4551562,35.221082 C20.4551562,31.2703477 21.9891328,27.5606484 24.7745703,24.7752109 C30.4011797,19.1486016 39.47275,19.021918 45.2587148,24.3879531 C39.8952422,24.8874805 34.926875,27.2028594 31.0645469,31.0650273 C27.2020586,34.9275156 24.8829961,39.8925195 24.3857109,45.2585547 Z M45.6661523,45.666793 C42.1912422,49.1418633 37.4020898,50.5168047 32.8842422,49.7988242 C32.1361523,45.1129727 33.6504297,40.3859609 37.017875,37.0185156 C40.3856406,33.6504297 45.1134531,32.1366328 49.799625,32.885043 C50.5481953,37.5712148 49.033918,42.2990273 45.6661523,45.666793 Z M51.6194805,51.6202813 C55.4819688,47.7576328 57.8010313,42.7927891 58.2983164,37.4267539 C60.8356719,40.1614219 62.2288711,43.7026367 62.2288711,47.4642266 C62.2288711,51.4149609 60.6948945,55.1246602 57.9096172,57.9100977 C52.2830078,63.536707 43.2117578,63.6635508 37.425793,58.2976758 C42.6094102,57.8067969 47.6584961,55.5811055 51.6194805,51.6202813 Z" id="Shape" fill="#000000"></path>
                </g>
            </g>
        </g>
    </g>
</svg>