<?xml version="1.0" encoding="UTF-8"?>
<svg width="375px" height="667px" viewBox="0 0 375 667" version="1.1" xmlns="http://www.w3.org/2000/svg" xmlns:xlink="http://www.w3.org/1999/xlink">
    <!-- Generator: Sketch 55.2 (78181) - https://sketchapp.com -->
    <title>img_bg</title>
    <desc>Created with Sketch.</desc>
    <g id="Page-1" stroke="none" stroke-width="1" fill="none" fill-rule="evenodd">
        <g id="Landing">
            <g id="img_bg" transform="translate(-87.000000, 0.000000)">
                <rect id="Rectangle" fill="#F5F5F9" x="87" y="0" width="375" height="667"></rect>
                <g id="img_BackGroundWaves_bottom" opacity="0.049999997" transform="translate(274.500000, 820.500000) scale(-1, 1) rotate(-184.000000) translate(-274.500000, -820.500000) translate(18.000000, 554.000000)" stroke="#000000">
                    <path d="M35.6994041,532.131055 C37.7793932,532.455153 39.9476981,532.691096 42.2012735,532.831106 C77.7072666,535.024601 116.724574,515.355749 149.474505,502.669263 C195.356081,484.893143 228.511047,483.16635 273.013069,485.134272 C303.96014,486.503261 336.77707,486.015818 370.340115,479.684242 C403.900116,473.352666 438.498588,460.497649 460.513583,442.693009 C482.531623,424.888368 488.957358,402.121142 470.822167,390.116557 C460.836392,383.50496 445.006548,380.639935 430.949111,376.706684 C416.891673,372.773432 403.601669,366.95782 402.030257,357.242662 C400.611114,348.479056 409.074203,338.302383 419.081296,329.217272 C449.851735,301.274851 491.238342,273.29613 507.171728,243.13688 C521.816923,215.422623 507.576763,189.09032 478.810178,173.909576 C432.176395,149.298881 352.509462,158.700312 287.990209,191.449752 C256.589377,207.390182 230.731123,227.460914 215.19668,248.306889 C192.950237,278.167969 201.114879,304.012829 194.095297,332.629374 C191.229602,344.29949 184.718596,356.589281 169.446055,367.403779 C149.492777,381.534445 120.421655,387.342279 95.4130599,396.367756 C71.1810342,405.11062 51.568838,416.604427 35.7664023,430.369511 C4.52088469,457.585954 -8.26663268,490.361322 5.50758524,514.326415 C10.3740898,522.791851 20.6765836,529.779401 35.6994041,532.131055 Z" id="Stroke-1"></path>
                    <path d="M284.932706,183.18565 C253.76442,197.615357 228.162552,215.368833 211.938591,234.125125 C206.884027,239.968859 203.21269,245.711794 200.461471,251.405623 C190.733188,271.526573 192.606941,290.802366 186.01072,311.866688 C182.528281,322.995887 175.706601,334.778984 161.316785,345.43262 C154.629162,350.384674 147.021419,354.455387 139.035878,358.125489 C124.19819,364.941025 108.248436,370.017139 94.1907166,376.217545 C77.9423813,383.381999 64.7590798,391.91628 53.7024122,401.523162 C50.4850407,404.311923 47.4535212,407.21699 44.5499653,410.194425 C19.0120792,436.399476 9.34168429,467.153385 23.6096299,491.461354 C28.1858534,499.269369 37.6277418,505.77217 51.4082069,508.051769 C53.3154745,508.372257 55.3050044,508.612623 57.3767966,508.767698 C90.0105711,511.210125 125.84953,493.836583 156.015434,482.769414 C198.164219,467.140462 228.854165,465.209782 269.781202,468.207894 C292.778096,469.89304 317.374535,470.872595 342.321351,467.79953 C350.24291,466.825144 358.194936,465.46824 366.119541,463.710726 C382.36483,460.110407 398.555277,454.68279 412.75924,447.877592 C424.769542,442.152749 435.387477,435.54398 444.39368,428.16759 C446.297901,426.609089 448.132046,425.011819 449.896116,423.388703 C458.155864,415.766778 464.176249,407.379818 467.50635,399.365038 C471.988124,388.434852 471.055818,378.264532 462.366477,371.722961 C454.027514,365.447603 440.204394,362.746717 428.069176,358.999077 C415.882163,355.266945 404.353248,349.836743 403.545858,340.865668 C402.814638,332.755258 411.129227,323.357728 420.796576,314.942337 C450.889358,288.933715 490.494104,262.762264 506.306753,233.97005 C520.577746,207.992443 506.303707,185.105993 482.517704,167.778973 C452.178134,145.683404 398.567464,138.105417 346.157214,155.858893 C325.652564,162.803657 305.111353,173.847565 284.932706,183.18565 Z" id="Stroke-3"></path>
                    <path d="M279.698498,176.838365 C248.79102,189.957685 223.332592,205.387146 206.347072,222.177801 C201.117938,227.347747 197.177762,232.520285 194.098926,237.705787 C183.307729,255.875785 183.234424,273.916146 175.528171,293.836252 C171.404731,304.497644 164.27576,315.848707 150.732549,326.406389 C144.351906,331.381878 137.250425,335.615841 129.950408,339.5646 C116.288075,346.948755 102.298922,352.626879 90.3959231,359.204689 C76.6358492,366.809227 66.2722686,375.502721 57.7474371,384.922185 C55.2581007,387.654945 52.9520284,390.494007 50.6917721,393.377146 C30.8534414,418.703137 24.2528821,447.661573 39.0514521,472.466421 C43.3459391,479.66649 51.9562939,485.689451 64.5068252,487.95033 C66.2508878,488.264052 68.0682561,488.512957 69.9589299,488.678893 C99.7820956,491.39091 132.549703,476.306285 160.140102,466.687179 C198.704962,453.241173 226.942894,451.09956 264.340972,455.001651 C286.928263,457.361054 311.555894,459.341916 336.336244,456.025787 C344.210489,454.965352 352.100005,453.430444 359.885672,451.42884 C375.841859,447.329701 391.407084,441.135619 404.427993,433.621826 C415.402454,427.292921 424.599253,420.230268 432.549858,412.493499 C434.220615,410.865251 435.836392,409.203298 437.415517,407.51801 C444.730806,399.69568 450.323414,391.199235 453.863464,383.148744 C458.597784,372.399198 458.952095,362.596007 452.079694,356.440816 C445.39972,350.461932 433.548646,347.879553 423.310296,344.322298 C412.989477,340.739116 403.184852,335.683252 403.139036,327.399413 C403.096274,319.890806 411.245415,311.186941 420.628533,303.413874 C449.990484,279.086092 487.990279,254.649414 503.72655,227.039209 C517.633235,202.633645 507.193295,178.790707 484.468556,163.470141 C462.51658,131.683015 399.562333,121.625734 343.941702,144.231929 C322.817468,152.816528 301.571059,167.553724 279.698498,176.838365 Z" id="Stroke-5"></path>
                    <path d="M275.797005,168.621646 C245.37856,180.433576 220.138566,193.332936 202.436128,208.055874 C197.065657,212.519249 192.871691,217.073027 189.467142,221.724959 C177.692948,237.80654 175.614253,254.505452 166.863616,273.136426 C162.102733,283.261674 154.714525,294.104989 142.080813,304.491118 C136.036747,309.455589 129.468435,313.825977 122.884884,318.020723 C110.467575,325.929782 98.4952654,332.167658 88.8180547,339.069358 C77.5955383,347.073987 70.1372282,355.866423 64.1541212,365.017891 C62.4167952,367.678352 60.8379621,370.426633 59.2316975,373.195579 C45.2142198,397.423852 41.678609,424.439152 56.9487902,449.5663 C60.9294003,456.114133 68.6772647,461.628777 79.9424524,463.834635 C81.5151896,464.142008 83.1488856,464.39514 84.8526843,464.578531 C111.729422,467.474042 141.242629,454.789068 166.156494,446.735363 C200.918254,435.499436 226.633726,433.3814 260.301276,438.010085 C282.435419,441.052825 306.922572,443.989664 331.424964,440.450993 C339.221596,439.322234 347.006035,437.61489 354.613695,435.383203 C370.210006,430.819092 385.087002,423.909643 396.8551,415.726789 C406.745667,408.848336 414.481339,401.378382 421.330061,393.322093 C422.762593,391.640579 424.155502,389.928069 425.536219,388.192312 C431.875935,380.231593 436.996475,371.66646 440.754585,363.646333 C445.680057,353.136222 447.396047,343.803945 442.330371,338.054251 C437.377467,332.431121 427.51738,329.977298 419.217839,326.624601 C410.808571,323.227994 402.783344,318.563147 403.496562,311.033785 C404.148822,304.170829 412.11309,296.241106 421.144137,289.145684 C449.709434,266.715158 485.851911,244.127072 501.442126,217.896995 C514.920118,195.226254 506.434652,172.715656 486.812012,157.383137 C470.575634,118.612734 401.320333,103.582422 342.772446,130.967087 C321.110734,141.097501 299.308817,159.493425 275.797005,168.621646 Z" id="Stroke-7"></path>
                    <path d="M271.769523,160.918331 C241.758055,171.607701 216.616615,181.996108 198.059182,194.766273 C192.541447,198.562037 188.071654,202.534228 184.316783,206.688034 C171.555112,220.809937 167.387786,236.309523 157.574405,253.804285 C152.148327,263.476608 144.482769,273.906528 132.695714,284.196343 C126.964113,289.195959 120.899493,293.741536 115.00291,298.211872 C103.771906,306.727044 93.7538251,313.579138 86.2654704,320.848947 C77.5214185,329.332986 72.9324716,338.265874 69.4831234,347.24287 C68.4810098,349.847755 67.6286023,352.522692 66.6692618,355.213196 C58.4048802,378.46517 57.9160443,403.834262 73.7390508,429.488749 C77.4114304,435.440549 84.3406791,440.492055 94.3740357,442.661063 C95.7794388,442.962025 97.239836,443.224071 98.7582825,443.421253 C122.812063,446.570985 149.19698,436.141066 171.552056,429.587341 C202.657295,420.465053 225.990043,418.524362 256.06567,423.749699 C277.883027,427.53768 302.297324,431.421657 326.635241,427.631082 C334.386345,426.419447 342.103842,424.528051 349.57081,422.047703 C364.871373,416.975441 379.13316,409.303483 389.701181,400.378378 C398.54911,392.898414 404.861204,384.96441 410.638633,376.5141 C411.836281,374.767997 413.012542,372.982976 414.204079,371.184982 C419.605716,363.027852 424.255767,354.318091 428.255056,346.256957 C433.390888,335.902278 436.519438,327.016091 433.198409,321.572815 C429.981258,316.298182 422.04684,313.913829 415.64309,310.738153 C409.114076,307.497613 402.832535,303.182947 404.308208,296.346421 C405.658617,290.065119 413.470826,282.857578 422.190436,276.384282 C450.090744,255.667142 484.520066,234.742441 500.052827,209.671717 C513.141407,188.544645 506.584896,167.19185 489.982807,151.718209 C479.38729,105.637166 403.474132,85.4415211 341.770822,117.901401 C319.46463,129.633763 297.054559,151.910202 271.769523,160.918331 Z" id="Stroke-9"></path>
                    <path d="M268.601679,153.729545 C239.168589,163.268744 214.239972,170.997716 194.852742,181.680896 C189.232062,184.779715 184.498857,188.12644 180.3939,191.749477 C166.746291,203.790972 160.424169,217.931918 149.618922,234.138743 C143.531631,243.269931 135.64499,253.199065 124.7513,263.290887 C119.359351,268.28515 113.824063,272.969532 108.639497,277.664244 C98.6393823,286.717961 90.6216023,294.134469 85.3516427,301.680094 C79.1271128,310.596947 77.4192556,319.555117 76.5256802,328.283458 C76.2664519,330.806414 76.1353129,333.370687 75.8364378,335.965948 C73.3051494,357.944324 75.9035322,381.534087 92.228818,407.473787 C95.5713387,412.777933 101.664729,417.317704 110.417498,419.427483 C111.652645,419.724453 112.933538,419.985271 114.263227,420.199606 C135.388811,423.574736 158.524178,415.494565 178.234681,410.497719 C205.539049,403.57444 226.396256,402.009536 252.761303,407.600322 C274.207111,412.150422 298.409888,416.894198 322.478477,412.886392 C330.154686,411.605547 337.769899,409.544832 345.06184,406.843694 C360.005591,401.309719 373.592206,392.950654 382.909177,383.357226 C390.686027,375.346777 395.547321,367.026447 400.22563,358.249042 C401.18325,356.454309 402.13782,354.620841 403.132037,352.769296 C407.578566,344.500613 411.735368,335.71546 415.959265,327.689518 C421.281071,317.582202 425.84044,309.318684 424.254572,304.135908 C422.790694,299.343068 416.819293,296.967306 412.330069,293.995022 C407.721904,290.945267 403.21438,287.009767 405.425446,280.941245 C407.484024,275.293647 415.108386,268.879091 423.470788,263.081716 C450.61047,244.274465 483.148201,225.18832 498.570762,201.515922 C511.205856,182.122478 506.622089,162.119599 493.105619,146.651325 C488.201628,93.6821728 405.907305,68.4526184 341.344201,105.741745 C318.471112,118.953045 295.598023,144.977963 268.601679,153.729545 Z" id="Stroke-11"></path>
                </g>
            </g>
        </g>
    </g>
</svg>