<?xml version="1.0" encoding="UTF-8"?>
<svg width="46px" height="46px" viewBox="0 0 46 46" version="1.1" xmlns="http://www.w3.org/2000/svg" xmlns:xlink="http://www.w3.org/1999/xlink">
    <!-- Generator: Sketch 55.2 (78181) - https://sketchapp.com -->
    <title>img_male</title>
    <desc>Created with Sketch.</desc>
    <g id="Page-1" stroke="none" stroke-width="1" fill="none" fill-rule="evenodd">
        <g id="Gender-Prompt" transform="translate(-112.000000, -282.000000)">
            <g id="Group-3" transform="translate(102.000000, 273.000000)">
                <g id="img_male" transform="translate(10.000000, 9.000000)">
                    <path d="M19.7804496,11.9107036 C27.6829945,11.9107036 34.0893636,18.3170597 34.0893636,26.2195885 C34.0893636,34.1222068 27.6829945,40.5284735 19.7804496,40.5284735 C11.8778153,40.5284735 5.47153563,34.1221174 5.47153563,26.2195885 C5.47153563,18.3169703 11.8778153,11.9107036 19.7804496,11.9107036 Z M38.5608993,26.2195885 C38.5608993,21.8391917 37.0610568,17.8091837 34.5471595,14.6147251 L40.5284644,8.63343238 L40.5284644,11.2846005 C40.5284644,12.5142703 41.5345599,13.5203637 42.7642322,13.5203637 C43.9939045,13.5203637 45,12.5142703 45,11.2846005 L45,3.23576327 C45,1.87650863 44.0102703,1 42.7642322,1 L34.7153786,1 C33.4857063,1 32.4796108,2.00609347 32.4796108,3.23576327 C32.4796108,4.46543307 33.4857063,5.47152654 34.7153786,5.47152654 L37.3665521,5.47152654 L31.3852472,11.4528193 C28.1908716,8.93892708 24.1608554,7.43917708 19.7804496,7.43917708 C9.40827559,7.43917708 1,15.8474356 1,26.2195885 C1,36.5917415 9.40827559,45 19.7804496,45 C30.1525342,45 38.5608993,36.5916521 38.5608993,26.2195885 L38.5608993,26.2195885 Z" id="Shape" fill="#60A4FF"></path>
                    <path d="M19.7655864,46 C14.4860186,46 9.52243062,43.9440237 5.78925041,40.2107609 C2.05598036,36.477588 0,31.5140097 0,26.2344522 C0,22.4403655 1.07812289,18.7544502 3.11802125,15.5749821 C3.38593479,15.1573002 3.9416173,15.0360116 4.35930008,15.3039246 C4.77689301,15.5718376 4.89827168,16.1276089 4.63035814,16.5452908 C2.77670551,19.4345647 1.79687149,22.7850047 1.79687149,26.2344522 C1.79687149,36.1423823 9.857637,44.203132 19.7655864,44.203132 C29.6735358,44.203132 37.7343013,36.1423823 37.7343013,26.2344522 C37.7343013,22.1631087 36.4065031,18.3237409 33.8944768,15.131605 C33.6130867,14.7740282 33.6434538,14.2624599 33.9651837,13.9407307 L39.9741016,7.93182449 C40.2310542,7.67496221 40.6174715,7.59796641 40.9532169,7.73713384 C41.2889623,7.87621142 41.5078213,8.20378045 41.5078213,8.567197 L41.5078213,11.2306944 C41.5078213,11.9737892 42.1123787,12.5783454 42.8554749,12.5783454 C43.5985711,12.5783454 44.2031285,11.9737892 44.2031285,11.2306944 L44.2031285,3.14451897 C44.2031285,2.32586591 43.6741295,1.79686798 42.8554749,1.79686798 L34.7694633,1.79686798 C34.0263671,1.79686798 33.4218097,2.40142421 33.4218097,3.14451897 C33.4218097,3.88761372 34.0263671,4.49216995 34.7694633,4.49216995 L37.432966,4.49216995 C37.7962934,4.49216995 38.1239529,4.71111832 38.2630307,5.04677325 C38.4021086,5.38242819 38.3252025,5.7689345 38.0683397,6.02588662 L32.0594218,12.0347928 C31.7376021,12.3566119 31.2261226,12.3868891 30.8684553,12.1054996 C27.6765827,9.59347815 23.8372972,8.26568256 19.7656762,8.26568256 C16.3164017,8.26568256 12.9661348,9.24533498 10.077035,11.0988043 C9.65953191,11.3666275 9.10366972,11.2454287 8.83575618,10.8276569 C8.56784264,10.4100648 8.68922131,9.85429354 9.10681424,9.58638052 C12.286019,7.54684552 15.9718516,6.46881457 19.7656762,6.46881457 C23.9764649,6.46881457 27.9614766,7.75986422 31.3417513,10.2112414 L35.2639624,6.28903793 L34.7694633,6.28903793 C33.0355722,6.28903793 31.6249382,4.87840672 31.6249382,3.14451897 C31.6249382,1.41063121 33.0355722,0 34.7694633,0 L42.8554749,0 C44.6481237,0 46,1.35187363 46,3.14451897 L46,11.2305147 C46,12.9644025 44.589366,14.3750337 42.8554749,14.3750337 C41.1215837,14.3750337 39.7109498,12.9644025 39.7109498,11.2305147 L39.7109498,10.7361065 L35.788559,14.6584896 C38.2400308,18.0388475 39.5311728,22.0237616 39.5311728,26.2344522 C39.5311728,31.5140097 37.4751924,36.477588 33.7419224,40.2107609 C30.0087422,43.9440237 25.0451542,46 19.7655864,46 Z M19.7655864,41.50783 C11.3437396,41.50783 4.49217873,34.6561927 4.49217873,26.2344522 C4.49217873,17.8127117 11.3438294,10.9610744 19.7655864,10.9610744 C28.1873434,10.9610744 35.0389941,17.8127117 35.0389941,26.2344522 C35.0389941,28.7954383 34.3920305,31.3298307 33.1680915,33.5636072 C32.9296466,33.9988086 32.3835774,34.1583705 31.9484649,33.9197464 C31.5132627,33.681302 31.3537903,33.1353237 31.5922352,32.7001223 C32.6716159,30.7303057 33.2421226,28.4944629 33.2421226,26.2344522 C33.2421226,18.8035047 27.1965484,12.7579424 19.7655864,12.7579424 C12.3346243,12.7579424 6.28905022,18.8035047 6.28905022,26.2344522 C6.28905022,33.6653997 12.3346243,39.7109621 19.7655864,39.7109621 C22.0256914,39.7109621 24.261269,39.1405463 26.2306402,38.0613474 C26.6657526,37.8229929 27.2118219,37.9823751 27.4502667,38.4174867 C27.6887115,38.8526881 27.5292392,39.3986664 27.0941268,39.6372006 C24.8607952,40.8609576 22.3265775,41.50783 19.7655864,41.50783 L19.7655864,41.50783 Z" id="Shape" fill="#000000" fill-rule="nonzero"></path>
                    <path d="M6.00011799,14 C5.72816756,14 5.45731692,13.889809 5.26015286,13.6728269 C4.88872056,13.2642604 4.91851513,12.6321123 5.32714065,12.2605428 L5.32764056,12.2600429 C5.7361661,11.8885734 6.36855084,11.9186709 6.73998315,12.3273374 C7.11141545,12.7359038 7.08132093,13.3683519 6.67269541,13.7398214 C6.48113032,13.9140071 6.24027422,14 6.00011799,14 L6.00011799,14 Z" id="Path" fill="#000000" fill-rule="nonzero"></path>
                    <path d="M29.9998188,37 C29.7439684,37 29.4881179,36.9024037 29.2929558,36.707211 C28.9025314,36.3167256 28.9022315,35.6838494 29.2927558,35.293364 L29.2932557,35.292864 C29.6836801,34.9023787 30.3166574,34.9023787 30.7071817,35.292864 C31.0976061,35.6833494 31.0976061,36.3165256 30.7071817,36.707011 C30.5119196,36.9023037 30.2558692,37 29.9998188,37 Z" id="Path" fill="#000000" fill-rule="nonzero"></path>
                </g>
            </g>
        </g>
    </g>
</svg>