<?xml version="1.0" encoding="UTF-8"?>
<svg width="143px" height="104px" viewBox="0 0 143 104" version="1.1" xmlns="http://www.w3.org/2000/svg" xmlns:xlink="http://www.w3.org/1999/xlink">
    <!-- Generator: Sketch 55.2 (78181) - https://sketchapp.com -->
    <title>img_calendar_green</title>
    <desc>Created with Sketch.</desc>
    <defs>
        <linearGradient x1="50%" y1="0.667757601%" x2="50%" y2="100%" id="linearGradient-1">
            <stop stop-color="#07A17F" offset="0%"></stop>
            <stop stop-color="#7CFCE0" offset="100%"></stop>
        </linearGradient>
        <path d="M7.69814046,104 C2.77475446,94.2783551 0,83.2801446 0,71.6326531 C0,32.0710312 32.0116404,0 71.5,0 C110.98836,0 143,32.0710312 143,71.6326531 C143,83.2801446 140.225246,94.2783551 135.30186,104 L7.69814046,104 Z" id="path-2"></path>
    </defs>
    <g id="Page-1" stroke="none" stroke-width="1" fill="none" fill-rule="evenodd">
        <g id="Moments_Saved" transform="translate(-116.000000, -110.000000)">
            <g id="Group-6" transform="translate(27.000000, 110.000000)">
                <g id="img_calendar_green" transform="translate(89.000000, 0.000000)">
                    <mask id="mask-3" fill="white">
                        <use xlink:href="#path-2"></use>
                    </mask>
                    <use id="Combined-Shape" fill="url(#linearGradient-1)" xlink:href="#path-2"></use>
                    <g id="447931" mask="url(#mask-3)">
                        <g transform="translate(31.000000, 28.000000)">
                            <path d="M78.4036914,10.4224883 L73.2224766,10.4224883 L73.2224766,17.0865898 C73.2224766,18.4935625 72.0815234,19.6343555 70.6747109,19.6343555 C69.2672578,19.6343555 68.126625,18.4934023 68.126625,17.0865898 L68.126625,10.4224883 L62.9037695,10.4224883 L62.9037695,17.0865898 C62.9037695,18.4935625 61.7629766,19.6343555 60.3556836,19.6343555 C58.9485508,19.6343555 57.8077578,18.4934023 57.8077578,17.0865898 L57.8077578,10.4224883 L23.5706758,10.4224883 L23.5706758,17.0865898 C23.5706758,18.4935625 22.4298828,19.6343555 21.0229102,19.6343555 C19.615457,19.6343555 18.4748242,18.4934023 18.4748242,17.0865898 L18.4748242,10.4224883 L13.2519688,10.4224883 L13.2519688,17.0865898 C13.2519688,18.4935625 12.1111758,19.6343555 10.7038828,19.6343555 C9.29691016,19.6343555 8.15611719,18.4934023 8.15611719,17.0865898 L8.15611719,10.4224883 L2.97474219,10.4224883 C1.82802344,10.4224883 0.898476563,11.3520352 0.898476563,12.4985937 C0.898476563,15.0168906 0.898476563,76.0662109 0.898476563,78.7156758 C0.898476563,79.8620742 1.82786328,80.7917812 2.97474219,80.7917812 C5.43618359,80.7917812 12.810418,80.7917812 15.2382266,80.7917812 L78.4035313,80.7917812 C79.55025,80.7917812 80.4796367,79.8622344 80.4796367,78.7156758 C80.4796367,75.6371523 80.4796367,15.6554336 80.4796367,12.4985937 C80.4796367,11.3520352 79.5504102,10.4224883 78.4036914,10.4224883 Z" id="Path" fill="#ECF1F8" fill-rule="nonzero"></path>
                            <path d="M78.4036914,10.4224883 L73.2224766,10.4224883 L73.2224766,17.0865898 C73.2224766,18.4935625 72.0815234,19.6343555 70.6747109,19.6343555 C69.2672578,19.6343555 68.126625,18.4934023 68.126625,17.0865898 L68.126625,10.4224883 L62.9037695,10.4224883 L62.9037695,17.0865898 C62.9037695,18.4935625 61.7629766,19.6343555 60.3556836,19.6343555 C58.9485508,19.6343555 57.8077578,18.4934023 57.8077578,17.0865898 L57.8077578,10.4224883 L41.3645156,10.4224883 C36.8394609,36.1038633 55.2029766,59.6852695 80.4796367,62.2464883 C80.4796367,60.5675703 80.4796367,14.1744688 80.4796367,12.4985938 C80.4796367,11.3520352 79.5504102,10.4224883 78.4036914,10.4224883 Z" id="Path" fill="#F2F7FC" fill-rule="nonzero"></path>
                            <g id="Group" stroke-width="1" fill="none" fill-rule="evenodd" transform="translate(0.800781, 10.250000)">
                                <path d="M7.04030859,70.368332 L2.17380078,70.368332 C1.02676172,70.368332 0.0976953125,69.4410273 0.0976953125,68.2971914 L0.0976953125,15.3030898 L4.96436328,15.3030898 L4.96436328,68.2971914 C4.96452344,69.440707 5.89342969,70.368332 7.04030859,70.368332 Z" id="Path" fill="#AFCBD8" fill-rule="nonzero"></path>
                                <path d="M7.04030859,0.172488281 C5.89326953,0.172488281 4.96420313,1.09963281 4.96420313,2.24330859 L4.96420313,15.3030898 L0.0978554687,15.3030898 C0.0978554687,1.04181641 0.0120117187,2.03478516 0.260574219,1.43884375 C0.260574219,1.43884375 0.260574219,1.43884375 0.260574219,1.43692187 C0.451960937,0.996492187 0.746488281,0.683066406 1.13951172,0.447476562 C1.83378906,0.0507695312 2.01316406,0.172488281 7.04030859,0.172488281 Z" id="Path" fill="#AFCBD8" fill-rule="nonzero"></path>
                            </g>
                            <path d="M80.4796367,12.4985937 L80.4796367,25.5530898 L0.898636719,25.5530898 C0.898636719,11.2918164 0.812792969,12.2847852 1.06135547,11.6888437 C1.06135547,11.6888437 1.06135547,11.6888437 1.06135547,11.6869219 C1.25274219,11.2464922 1.54726953,10.9330664 1.94029297,10.6974766 C2.63969531,10.2980469 2.79648828,10.4224883 8.1564375,10.4224883 L8.1564375,17.0865898 C8.1564375,18.493082 9.29642969,19.6348359 10.7046836,19.6348359 C12.1111758,19.6348359 13.2529297,18.493082 13.2529297,17.0865898 L13.2529297,10.4224883 L18.4741836,10.4224883 L18.4741836,17.0865898 C18.4741836,18.493082 19.6159375,19.6348359 21.0224297,19.6348359 C22.4308438,19.6348359 23.5708359,18.493082 23.5708359,17.0865898 L23.5708359,10.4224883 L57.807918,10.4224883 L57.807918,17.0865898 C57.807918,18.493082 58.9480703,19.6348359 60.3561641,19.6348359 C61.7628164,19.6348359 62.9045703,18.493082 62.9045703,17.0865898 L62.9045703,10.4224883 L68.1256641,10.4224883 L68.1256641,17.0865898 C68.1256641,18.493082 69.267418,19.6348359 70.6740703,19.6348359 C72.0823242,19.6348359 73.2223164,18.493082 73.2223164,17.0865898 L73.2223164,10.4224883 L78.4036914,10.4224883 C79.5507305,10.4224883 80.4796367,11.3513945 80.4796367,12.4985937 Z" id="Path" fill="#FC3842" fill-rule="nonzero"></path>
                            <path d="M80.4796367,12.4985938 L80.4796367,25.5530898 L41.3050977,25.5530898 C40.4644375,20.5637422 40.4841367,15.4158398 41.363875,10.4224883 L57.8077578,10.4224883 L57.8077578,17.0865898 C57.8077578,18.493082 58.9479102,19.6348359 60.3560039,19.6348359 C61.7626562,19.6348359 62.9044102,18.493082 62.9044102,17.0865898 L62.9044102,10.4224883 L68.1255039,10.4224883 L68.1255039,17.0865898 C68.1255039,18.493082 69.2672578,19.6348359 70.6739102,19.6348359 C72.0821641,19.6348359 73.2221562,18.493082 73.2221562,17.0865898 L73.2221562,10.4224883 L78.4035312,10.4224883 C79.5507305,10.4224883 80.4796367,11.3513945 80.4796367,12.4985938 Z" id="Path" fill="#FC4F60" fill-rule="nonzero"></path>
                            <path d="M7.01244141,10.4224883 C6.27908594,10.7424805 5.76514453,11.4743945 5.76514453,12.3254648 L5.76514453,25.5530898 L0.898636719,25.5530898 C0.898636719,11.2918164 0.812792969,12.2847852 1.06135547,11.6888438 C1.06135547,11.6888438 1.06135547,11.6888438 1.06135547,11.6869219 C1.25274219,11.2464922 1.54726953,10.9330664 1.94029297,10.6974766 C2.62640234,10.3054141 2.91756641,10.4224883 7.01244141,10.4224883 Z" id="Path" fill="#C6122C" fill-rule="nonzero"></path>
                            <g id="Group" stroke-width="1" fill="none" fill-rule="evenodd" transform="translate(8.007812, 1.121094)">
                                <path d="M5.24415625,15.9654961 C5.24415625,17.3724687 4.10336328,18.5132617 2.69607031,18.5132617 L2.69607031,18.5132617 C1.28909766,18.5132617 0.148304688,17.3723086 0.148304688,15.9654961 L0.148304688,2.63729297 C0.148304688,1.23240234 1.28685547,0.0895273437 2.69607031,0.0895273437 C4.10352344,0.0895273437 5.24415625,1.23016016 5.24415625,2.63729297 L5.24415625,15.9654961 Z" id="Path" fill="#FFCA54" fill-rule="nonzero"></path>
                                <path d="M15.5628633,15.9654961 C15.5628633,17.3724687 14.4220703,18.5132617 13.0150977,18.5132617 L13.0150977,18.5132617 C11.6076445,18.5132617 10.4670117,17.3723086 10.4670117,15.9654961 L10.4670117,2.63729297 C10.4670117,1.23 11.6078047,0.0895273437 13.0150977,0.0895273437 L13.0150977,0.0895273437 C14.4222305,0.0895273437 15.5628633,1.23016016 15.5628633,2.63729297 L15.5628633,15.9654961 Z" id="Path" fill="#FFCA54" fill-rule="nonzero"></path>
                                <path d="M54.8957969,15.9654961 C54.8957969,17.3724687 53.7550039,18.5132617 52.3477109,18.5132617 L52.3477109,18.5132617 C50.9405781,18.5132617 49.7997852,17.3723086 49.7997852,15.9654961 L49.7997852,2.63729297 C49.7997852,1.23160156 50.9391367,0.0895273437 52.3477109,0.0895273437 C53.7551641,0.0895273437 54.8957969,1.23016016 54.8957969,2.63729297 L54.8957969,15.9654961 Z" id="Path" fill="#FFCA54" fill-rule="nonzero"></path>
                                <path d="M65.2145039,15.9654961 C65.2145039,17.3724687 64.0735508,18.5132617 62.6667383,18.5132617 L62.6667383,18.5132617 C61.2592852,18.5132617 60.1186523,17.3723086 60.1186523,15.9654961 L60.1186523,2.63729297 C60.1186523,1.23 61.2594453,0.0895273437 62.6667383,0.0895273437 L62.6667383,0.0895273437 C64.0737109,0.0895273437 65.2145039,1.23016016 65.2145039,2.63729297 L65.2145039,15.9654961 Z" id="Path" fill="#FFCA54" fill-rule="nonzero"></path>
                            </g>
                            <g id="Group" stroke-width="1" fill="none" fill-rule="evenodd" transform="translate(8.007812, 1.121094)">
                                <path d="M2.80049219,15.9654961 L2.80049219,2.63729297 C2.80049219,1.71671484 3.29057031,0.912730469 4.02232422,0.464933594 C2.3241875,-0.573359375 0.148304688,0.653917969 0.148304688,2.63729297 L0.148304688,15.9653359 C0.148304688,17.3723086 1.28925781,18.5131016 2.69607031,18.5131016 C3.18278516,18.5131016 3.63570703,18.3745664 4.02232422,18.1376953 C3.29041016,17.6900586 2.80049219,16.8862344 2.80049219,15.9654961 Z" id="Path" fill="#F99830" fill-rule="nonzero"></path>
                                <path d="M13.1191992,15.9654961 L13.1191992,2.63729297 C13.1191992,1.71671484 13.6092773,0.912730469 14.3411914,0.464933594 C13.9544141,0.228382812 13.501332,0.0895273437 13.0150977,0.0895273437 C11.6076445,0.0895273437 10.4670117,1.23016016 10.4670117,2.63729297 L10.4670117,15.9653359 C10.4670117,17.94775 12.6432148,19.1767891 14.3411914,18.1376953 C13.6091172,17.6900586 13.1191992,16.8862344 13.1191992,15.9654961 Z" id="Path" fill="#F99830" fill-rule="nonzero"></path>
                                <path d="M52.452293,15.9654961 L52.452293,2.63729297 C52.452293,1.71671484 52.9422109,0.912730469 53.674125,0.464933594 C51.9759883,-0.573359375 49.7999453,0.653917969 49.7999453,2.63729297 L49.7999453,15.9653359 C49.7999453,17.3723086 50.9407383,18.5131016 52.3478711,18.5131016 C52.8344258,18.5131016 53.2875078,18.3745664 53.674125,18.1376953 C52.9420508,17.6900586 52.452293,16.8862344 52.452293,15.9654961 Z" id="Path" fill="#F99830" fill-rule="nonzero"></path>
                                <path d="M62.771,15.9654961 L62.771,2.63729297 C62.771,1.71671484 63.2610781,0.912730469 63.992832,0.464933594 C63.6062148,0.228382812 63.153293,0.0895273437 62.6668984,0.0895273437 C61.2594453,0.0895273437 60.1188125,1.23016016 60.1188125,2.63729297 L60.1188125,15.9653359 C60.1188125,17.3723086 61.2596055,18.5131016 62.6668984,18.5131016 C63.153293,18.5131016 63.606375,18.3745664 63.992832,18.1376953 C63.260918,17.6900586 62.771,16.8862344 62.771,15.9654961 Z" id="Path" fill="#F99830" fill-rule="nonzero"></path>
                            </g>
                            <path d="M18.5303984,42.36325 L12.1962187,42.36325 C11.0831328,42.36325 10.1806523,41.4607695 10.1806523,40.3476836 L10.1806523,34.0135039 C10.1806523,32.900418 11.0831328,31.9977773 12.1962187,31.9977773 L18.5303984,31.9977773 C19.6436445,31.9977773 20.546125,32.900418 20.546125,34.0135039 L20.546125,40.3476836 C20.546125,41.4607695 19.6436445,42.36325 18.5303984,42.36325" id="Path" fill="#AFCBD8" fill-rule="nonzero"></path>
                            <path d="M20.5466055,34.0139844 L20.5466055,40.3473633 C20.5466055,41.4617305 19.6430039,42.3634102 18.5303984,42.3634102 L16.3711719,42.3634102 C17.4837773,42.3634102 18.3872188,41.4617305 18.3872188,40.3473633 L18.3872188,34.0139844 C18.3872188,32.8996172 17.4837773,31.9979375 16.3711719,31.9979375 L18.5303984,31.9979375 C19.6430039,31.9980977 20.5466055,32.8997773 20.5466055,34.0139844 Z" id="Path" fill="#9FB8C1" fill-rule="nonzero"></path>
                            <path d="M35.5148086,42.36325 L29.1804688,42.36325 C28.067543,42.36325 27.1650625,41.4607695 27.1650625,40.3476836 L27.1650625,34.0135039 C27.1650625,32.900418 28.067543,31.9977773 29.1804688,31.9977773 L35.5148086,31.9977773 C36.6280547,31.9977773 37.530375,32.900418 37.530375,34.0135039 L37.530375,40.3476836 C37.5302148,41.4607695 36.6278945,42.36325 35.5148086,42.36325" id="Path" fill="#AFCBD8" fill-rule="nonzero"></path>
                            <path d="M37.5308555,34.0139844 L37.5308555,40.3473633 C37.5308555,41.4617305 36.6272539,42.3634102 35.5146484,42.3634102 L33.3552617,42.3634102 C34.4678672,42.3634102 35.3714687,41.4617305 35.3714687,40.3473633 L35.3714687,34.0139844 C35.3714687,32.8996172 34.4678672,31.9979375 33.3552617,31.9979375 L35.5146484,31.9979375 C36.6272539,31.9980977 37.5308555,32.8997773 37.5308555,34.0139844 Z" id="Path" fill="#9FB8C1" fill-rule="nonzero"></path>
                            <path d="M52.4990586,42.36325 L46.1647187,42.36325 C45.0516328,42.36325 44.1493125,41.4607695 44.1493125,40.3476836 L44.1493125,34.0135039 C44.1493125,32.900418 45.0516328,31.9977773 46.1647187,31.9977773 L52.4990586,31.9977773 C53.6123047,31.9977773 54.514625,32.900418 54.514625,34.0135039 L54.514625,40.3476836 C54.514625,41.4607695 53.6123047,42.36325 52.4990586,42.36325" id="Path" fill="#BDDAE5" fill-rule="nonzero"></path>
                            <path d="M54.5151055,34.0139844 L54.5151055,40.3473633 C54.5151055,41.4617305 53.6116641,42.3634102 52.4990586,42.3634102 L50.3396719,42.3634102 C51.4522773,42.3634102 52.3557188,41.4617305 52.3557188,40.3473633 L52.3557188,34.0139844 C52.3557188,32.8996172 51.4522773,31.9979375 50.3396719,31.9979375 L52.4990586,31.9979375 C53.6116641,31.9980977 54.5151055,32.8997773 54.5151055,34.0139844 Z" id="Path" fill="#AFCBD8" fill-rule="nonzero"></path>
                            <path d="M69.4834687,42.36325 L63.1491289,42.36325 C62.036043,42.36325 61.1335625,41.4607695 61.1335625,40.3476836 L61.1335625,34.0135039 C61.1335625,32.900418 62.036043,31.9977773 63.1491289,31.9977773 L69.4834687,31.9977773 C70.5965547,31.9977773 71.4990352,32.900418 71.4990352,34.0135039 L71.4990352,40.3476836 C71.4990352,41.4607695 70.5965547,42.36325 69.4834687,42.36325" id="Path" fill="#BDDAE5" fill-rule="nonzero"></path>
                            <g id="Group" stroke-width="1" fill="none" fill-rule="evenodd" transform="translate(10.089844, 31.871094)">
                                <path d="M61.4096719,2.14289062 L61.4096719,8.47626953 C61.4096719,9.59063672 60.5060703,10.4923164 59.3934648,10.4923164 L57.2342383,10.4923164 C58.3468437,10.4923164 59.2502852,9.59063672 59.2502852,8.47626953 L59.2502852,2.14289062 C59.2502852,1.02852344 58.3468437,0.12684375 57.2342383,0.12684375 L59.3934648,0.12684375 C60.5060703,0.127003906 61.4096719,1.02868359 61.4096719,2.14289062 Z" id="Path" fill="#AFCBD8" fill-rule="nonzero"></path>
                                <path d="M8.44055469,26.1128359 L2.106375,26.1128359 C0.993289062,26.1128359 0.0908085938,25.2101953 0.0908085938,24.0972695 L0.0908085938,17.7630898 C0.0908085938,16.6500039 0.993289062,15.7475234 2.106375,15.7475234 L8.44055469,15.7475234 C9.55380078,15.7475234 10.4562812,16.6500039 10.4562812,17.7630898 L10.4562812,24.0972695 C10.4562812,25.2101953 9.55380078,26.1128359 8.44055469,26.1128359" id="Path" fill="#AFCBD8" fill-rule="nonzero"></path>
                            </g>
                            <path d="M20.5466055,49.6348242 L20.5466055,55.968043 C20.5466055,57.0824102 19.6430039,57.9840898 18.5303984,57.9840898 L16.3711719,57.9840898 C17.4837773,57.9840898 18.3872188,57.0824102 18.3872188,55.968043 L18.3872188,49.6348242 C18.3872188,48.520457 17.4837773,47.6186172 16.3711719,47.6186172 L18.5303984,47.6186172 C19.6430039,47.6187773 20.5466055,48.520457 20.5466055,49.6348242 Z" id="Path" fill="#9FB8C1" fill-rule="nonzero"></path>
                            <path d="M35.5148086,57.9839297 L29.1804688,57.9839297 C28.067543,57.9839297 27.1650625,57.0812891 27.1650625,55.9683633 L27.1650625,49.6341836 C27.1650625,48.5210977 28.067543,47.6186172 29.1804688,47.6186172 L35.5148086,47.6186172 C36.6280547,47.6186172 37.530375,48.5210977 37.530375,49.6341836 L37.530375,55.9683633 C37.5302148,57.0812891 36.6278945,57.9839297 35.5148086,57.9839297" id="Path" fill="#FA8F20" fill-rule="nonzero"></path>
                            <path d="M37.5308555,49.6348242 L37.5308555,55.968043 C37.5308555,57.0824102 36.6272539,57.9840898 35.5146484,57.9840898 L33.3552617,57.9840898 C34.4678672,57.9840898 35.3714687,57.0824102 35.3714687,55.968043 L35.3714687,49.6348242 C35.3714687,48.520457 34.4678672,47.6186172 33.3552617,47.6186172 L35.5146484,47.6186172 C36.6272539,47.6187773 37.5308555,48.520457 37.5308555,49.6348242 Z" id="Path" fill="#F8721E" fill-rule="nonzero"></path>
                            <path d="M52.4990586,57.9839297 L46.1647187,57.9839297 C45.0516328,57.9839297 44.1493125,57.0812891 44.1493125,55.9683633 L44.1493125,49.6341836 C44.1493125,48.5210977 45.0516328,47.6186172 46.1647187,47.6186172 L52.4990586,47.6186172 C53.6123047,47.6186172 54.514625,48.5210977 54.514625,49.6341836 L54.514625,55.9683633 C54.514625,57.0812891 53.6123047,57.9839297 52.4990586,57.9839297" id="Path" fill="#AFCBD8" fill-rule="nonzero"></path>
                            <path d="M54.5151055,49.6348242 L54.5151055,55.968043 C54.5151055,57.0824102 53.6116641,57.9840898 52.4990586,57.9840898 L50.3396719,57.9840898 C51.4522773,57.9840898 52.3557188,57.0824102 52.3557188,55.968043 L52.3557188,49.6348242 C52.3557188,48.520457 51.4522773,47.6186172 50.3396719,47.6186172 L52.4990586,47.6186172 C53.6116641,47.6187773 54.5151055,48.520457 54.5151055,49.6348242 Z" id="Path" fill="#9FB8C1" fill-rule="nonzero"></path>
                            <path d="M69.4834687,57.9839297 L63.1491289,57.9839297 C62.036043,57.9839297 61.1335625,57.0812891 61.1335625,55.9683633 L61.1335625,49.6341836 C61.1335625,48.5210977 62.036043,47.6186172 63.1491289,47.6186172 L69.4834687,47.6186172 C70.5965547,47.6186172 71.4990352,48.5210977 71.4990352,49.6341836 L71.4990352,55.9683633 C71.4990352,57.0812891 70.5965547,57.9839297 69.4834687,57.9839297" id="Path" fill="#BDDAE5" fill-rule="nonzero"></path>
                            <g id="Group" stroke-width="1" fill="none" fill-rule="evenodd" transform="translate(10.089844, 47.566406)">
                                <path d="M61.4096719,2.06841797 L61.4096719,8.40163672 C61.4096719,9.51600391 60.5060703,10.4176836 59.3934648,10.4176836 L57.2342383,10.4176836 C58.3468437,10.4176836 59.2502852,9.51600391 59.2502852,8.40163672 L59.2502852,2.06841797 C59.2502852,0.954050781 58.3468437,0.0522109375 57.2342383,0.0522109375 L59.3934648,0.0522109375 C60.5060703,0.0523710937 61.4096719,0.954050781 61.4096719,2.06841797 Z" id="Path" fill="#AFCBD8" fill-rule="nonzero"></path>
                                <path d="M8.44055469,26.0383633 L2.106375,26.0383633 C0.993289062,26.0383633 0.0908085938,25.1358828 0.0908085938,24.0227969 L0.0908085938,17.688457 C0.0908085938,16.5755313 0.993289062,15.6728906 2.106375,15.6728906 L8.44055469,15.6728906 C9.55380078,15.6728906 10.4562812,16.5755313 10.4562812,17.688457 L10.4562812,24.0227969 C10.4562812,25.1357227 9.55380078,26.0383633 8.44055469,26.0383633" id="Path" fill="#AFCBD8" fill-rule="nonzero"></path>
                            </g>
                            <path d="M20.5466055,65.2555039 L20.5466055,71.5887227 C20.5466055,72.7030898 19.6430039,73.6049297 18.5303984,73.6049297 L16.3711719,73.6049297 C17.4837773,73.6049297 18.3872188,72.7030898 18.3872188,71.5887227 L18.3872188,65.2555039 C18.3872188,64.1411367 17.4837773,63.2392969 16.3711719,63.2392969 L18.5303984,63.2392969 C19.6430039,63.239457 20.5466055,64.1412969 20.5466055,65.2555039 Z" id="Path" fill="#9FB8C1" fill-rule="nonzero"></path>
                            <path d="M35.5148086,73.6047695 L29.1804688,73.6047695 C28.067543,73.6047695 27.1650625,72.7022891 27.1650625,71.5892031 L27.1650625,65.2548633 C27.1650625,64.1419375 28.067543,63.2392969 29.1804688,63.2392969 L35.5148086,63.2392969 C36.6280547,63.2392969 37.530375,64.1419375 37.530375,65.2548633 L37.530375,71.5892031 C37.5302148,72.7021289 36.6278945,73.6047695 35.5148086,73.6047695" id="Path" fill="#AFCBD8" fill-rule="nonzero"></path>
                            <path d="M37.5308555,65.2555039 L37.5308555,71.5887227 C37.5308555,72.7030898 36.6272539,73.6049297 35.5146484,73.6049297 L33.3552617,73.6049297 C34.4678672,73.6049297 35.3714687,72.7030898 35.3714687,71.5887227 L35.3714687,65.2555039 C35.3714687,64.1411367 34.4678672,63.2392969 33.3552617,63.2392969 L35.5146484,63.2392969 C36.6272539,63.239457 37.5308555,64.1412969 37.5308555,65.2555039 Z" id="Path" fill="#9FB8C1" fill-rule="nonzero"></path>
                            <path d="M52.4990586,73.6047695 L46.1647187,73.6047695 C45.0516328,73.6047695 44.1493125,72.7022891 44.1493125,71.5892031 L44.1493125,65.2548633 C44.1493125,64.1419375 45.0516328,63.2392969 46.1647187,63.2392969 L52.4990586,63.2392969 C53.6123047,63.2392969 54.514625,64.1419375 54.514625,65.2548633 L54.514625,71.5892031 C54.514625,72.7021289 53.6123047,73.6047695 52.4990586,73.6047695" id="Path" fill="#AFCBD8" fill-rule="nonzero"></path>
                            <path d="M54.5151055,65.2555039 L54.5151055,71.5887227 C54.5151055,72.7030898 53.6116641,73.6049297 52.4990586,73.6049297 L50.3396719,73.6049297 C51.4522773,73.6049297 52.3557188,72.7030898 52.3557188,71.5887227 L52.3557188,65.2555039 C52.3557188,64.1411367 51.4522773,63.2392969 50.3396719,63.2392969 L52.4990586,63.2392969 C53.6116641,63.239457 54.5151055,64.1412969 54.5151055,65.2555039 Z" id="Path" fill="#9FB8C1" fill-rule="nonzero"></path>
                            <path d="M69.4834687,73.6047695 L63.1491289,73.6047695 C62.036043,73.6047695 61.1335625,72.7022891 61.1335625,71.5892031 L61.1335625,65.2548633 C61.1335625,64.1419375 62.036043,63.2392969 63.1491289,63.2392969 L69.4834687,63.2392969 C70.5965547,63.2392969 71.4990352,64.1419375 71.4990352,65.2548633 L71.4990352,71.5892031 C71.4990352,72.7021289 70.5965547,73.6047695 69.4834687,73.6047695" id="Path" fill="#AFCBD8" fill-rule="nonzero"></path>
                            <path d="M71.4995156,65.2555039 L71.4995156,71.5887227 C71.4995156,72.7030898 70.5959141,73.6049297 69.4833086,73.6049297 L67.324082,73.6049297 C68.4366875,73.6049297 69.3401289,72.7030898 69.3401289,71.5887227 L69.3401289,65.2555039 C69.3401289,64.1411367 68.4366875,63.2392969 67.324082,63.2392969 L69.4833086,63.2392969 C70.5959141,63.239457 71.4995156,64.1412969 71.4995156,65.2555039 Z" id="Path" fill="#9FB8C1" fill-rule="nonzero"></path>
                            <g id="Group" stroke-width="1" fill="none" fill-rule="evenodd" transform="translate(44.042969, 35.234375)">
                                <path d="M3.83269922,7.12951563 L2.12175,7.12951563 C1.00930469,7.12951563 0.106183594,6.22639453 0.106183594,5.11394922 L0.106183594,0.126203125 C1.14063281,2.58123828 2.39145313,4.92368359 3.83269922,7.12951563 Z" id="Path" fill="#AFCBD8" fill-rule="nonzero"></path>
                                <path d="M10.4726172,14.4006094 L10.4726172,15.085918 C9.56084766,14.2226758 8.68719531,13.3213164 7.85166016,12.3834414 L8.45560937,12.3834414 C9.56949609,12.3834414 10.4726172,13.2865625 10.4726172,14.4006094 Z" id="Path" fill="#AFCBD8" fill-rule="nonzero"></path>
                            </g>
                            <path d="M54.5155859,50.320293 L54.5155859,55.9686836 C54.5155859,57.0830508 53.6124648,57.9844102 52.4982578,57.9844102 L50.3391914,57.9844102 C51.4516367,57.9844102 52.3563594,57.0830508 52.3563594,55.9686836 L52.3563594,49.6349844 C52.3563594,48.5207773 51.4514766,47.6176562 50.3391914,47.6176562 L51.8944687,47.6176562 C52.7301641,48.5556914 53.6038164,49.4570508 54.5155859,50.320293 Z" id="Path" fill="#9FB8C1" fill-rule="nonzero"></path>
                            <path d="M65.5409023,57.98425 L63.1484883,57.98425 C62.0358828,57.98425 61.1346836,57.0811289 61.1346836,55.9685234 L61.1346836,55.5048711 C62.5496641,56.4115156 64.0203789,57.2403242 65.5409023,57.98425 Z" id="Path" fill="#AFCBD8" fill-rule="nonzero"></path>
                            <g id="Group" stroke-width="1" fill="none" fill-rule="evenodd">
                                <path d="M62.8100781,79.3969805 L3.39403125,79.3969805 C2.96577344,79.3969805 2.61743359,79.0486406 2.61743359,78.6203828 L2.61743359,66.5913672 C2.61743359,65.8764297 2.03814844,65.2969844 1.32305078,65.2969844 C0.608113281,65.2969844 0.0286679687,65.8762695 0.0286679687,66.5913672 L0.0286679687,78.6203828 C0.0286679687,80.4759531 1.53830078,81.9854258 3.39371094,81.9854258 L62.8095977,81.9854258 C63.5245352,81.9854258 64.1039805,81.4061406 64.1039805,80.691043 C64.1039805,79.9761055 63.5250156,79.3969805 62.8100781,79.3969805 Z" id="Path" fill="#231F20" fill-rule="nonzero"></path>
                                <path d="M78.634957,9.20337891 L74.7609375,9.20337891 L74.7609375,3.85031641 C74.7609375,1.73545312 73.0402187,0.0142539062 70.9250352,0.0142539062 C68.8098516,0.0142539062 67.0889727,1.73529297 67.0889727,3.85031641 L67.0889727,9.20337891 L64.4678555,9.20337891 L64.4678555,3.85031641 C64.4678555,1.73545312 62.7469766,0.0142539062 60.631793,0.0142539062 C58.5166094,0.0142539062 56.7958906,1.73529297 56.7958906,3.85031641 L56.7958906,9.20337891 C54.439832,9.20337891 54.9518516,9.20337891 52.5709687,9.20337891 C51.8560312,9.20337891 51.2765859,9.78266406 51.2765859,10.4977617 C51.2765859,11.2128594 51.8558711,11.7921445 52.5709687,11.7921445 C54.9457656,11.7921445 54.4339062,11.7921445 56.7958906,11.7921445 C56.7958906,17.5105234 56.6142734,18.0856445 57.4834414,19.3327812 C59.62425,22.4045781 64.4683359,20.8896602 64.4683359,17.145207 L64.4683359,11.7919844 L67.0880117,11.7919844 L67.0880117,17.1450469 C67.0880117,20.298043 70.7012969,22.1017227 73.2181523,20.2178047 C74.1537852,19.5177617 74.7606172,18.400832 74.7606172,17.1450469 L74.7606172,11.7919844 L78.6346367,11.7919844 C79.0628945,11.7919844 79.4112344,12.1404844 79.4112344,12.5687422 L79.4112344,24.2965039 L2.61743359,24.2965039 L2.61743359,12.5687422 C2.61743359,12.1404844 2.96577344,11.7919844 3.39403125,11.7919844 L7.26805078,11.7919844 C7.26805078,17.4804141 7.08627344,18.0491289 7.92421094,19.2882578 C10.0413164,22.419793 14.9406563,20.9080781 14.9406563,17.1450469 L14.9406563,11.7919844 L17.5601719,11.7919844 L17.5601719,17.1450469 C17.5601719,19.2602305 19.2808906,20.9812695 21.3963945,20.9812695 C23.5123789,20.9812695 25.2327773,19.2595898 25.2327773,17.1450469 L25.2327773,11.7919844 C26.0348398,11.7919844 46.0191367,11.7919844 47.0486211,11.7919844 C47.7635586,11.7919844 48.3430039,11.2126992 48.3430039,10.4976016 C48.3430039,9.78250391 47.7637188,9.20321875 47.0486211,9.20321875 C46.0234609,9.20321875 26.0410859,9.20321875 25.2327773,9.20321875 L25.2327773,3.85015625 C25.2327773,1.73529297 23.5122188,0.0142539062 21.3970352,0.0142539062 C19.2820117,0.0142539062 17.5609727,1.73513281 17.5609727,3.85015625 L17.5609727,9.20321875 L14.9400156,9.20321875 L14.9400156,3.85015625 C14.9400156,1.73529297 13.2192969,0.0142539062 11.1039531,0.0142539062 C8.98892969,0.0142539062 7.26805078,1.73513281 7.26805078,3.85015625 L7.26805078,9.20321875 C3.16100391,9.20321875 2.70247656,9.08710547 1.7194375,9.64829297 C1.16930078,9.95915625 0.70340625,10.4566016 0.427617188,10.9771094 L0.427777344,10.9774297 C-0.159996094,12.0849102 0.028828125,8.51775 0.028828125,60.4935781 C0.028828125,61.2085156 0.608113281,61.7879609 1.32321094,61.7879609 C2.03814844,61.7879609 2.61759375,61.2086758 2.61759375,60.4935781 L2.61759375,26.8849492 L79.4115547,26.8849492 L79.4115547,78.6203828 C79.4115547,79.0486406 79.0632148,79.3969805 78.634957,79.3969805 L69.4831484,79.3969805 C68.7682109,79.3969805 68.1887656,79.9762656 68.1887656,80.6913633 C68.1887656,81.4064609 68.7680508,81.9857461 69.4831484,81.9857461 L78.6347969,81.9857461 C80.4903672,81.9857461 81.9998398,80.4761133 81.9998398,78.6207031 C81.9998398,76.8243906 81.9998398,14.1821562 81.9998398,12.568582 C81.9998398,10.713332 80.4906875,9.20337891 78.634957,9.20337891 Z M60.631793,2.60301953 C61.3195039,2.60301953 61.87925,3.16244531 61.87925,3.85031641 C61.87925,5.47013672 61.87925,15.5253867 61.87925,17.145207 C61.87925,18.1980742 60.6489297,18.775918 59.8390195,18.1074258 C59.5617891,17.8784023 59.3848164,17.5321445 59.3848164,17.145207 C59.3848164,14.490457 59.3844961,6.49625781 59.3844961,3.85031641 C59.3844961,3.16260547 59.944082,2.60301953 60.631793,2.60301953 Z M69.6777383,3.85031641 C69.6777383,3.16260547 70.2373242,2.60301953 70.9251953,2.60301953 C71.6129062,2.60301953 72.1724922,3.16244531 72.1724922,3.85031641 C72.1724922,18.2578125 72.3102266,17.5231758 71.8066953,18.0268672 C71.0235313,18.8098711 69.6778984,18.253168 69.6778984,17.145207 C69.6777383,15.5253867 69.6777383,5.47013672 69.6777383,3.85031641 Z M20.1498984,3.85031641 C20.1498984,3.16260547 20.7094844,2.60301953 21.3973555,2.60301953 C22.0849062,2.60301953 22.6444922,3.16244531 22.6444922,3.85031641 C22.6444922,5.47013672 22.6444922,15.5253867 22.6444922,17.145207 C22.6444922,17.8327578 22.0850664,18.3925039 21.3973555,18.3925039 C20.7096445,18.3925039 20.1498984,17.832918 20.1498984,17.145207 C20.1498984,15.5253867 20.1498984,5.47013672 20.1498984,3.85031641 Z M11.1039531,2.60301953 C11.7916641,2.60301953 12.3514102,3.16244531 12.3514102,3.85031641 C12.3514102,5.47013672 12.3514102,15.5253867 12.3514102,17.145207 C12.3514102,17.8327578 11.7918242,18.3925039 11.1039531,18.3925039 C10.4154414,18.3925039 9.85681641,17.8322773 9.85681641,17.145207 C9.85681641,16.0675156 9.85665625,6.2755625 9.85665625,3.85031641 C9.85681641,3.16260547 10.4162422,2.60301953 11.1039531,2.60301953 Z" id="Shape" fill="#231F20" fill-rule="nonzero"></path>
                                <path d="M12.5926055,43.6529883 L18.9110898,43.6529883 C20.7331875,43.6529883 22.2155937,42.170582 22.2155937,40.3483242 L22.2155937,34.03 C22.2155937,32.2077422 20.7331875,30.7253359 18.9110898,30.7253359 L12.5926055,30.7253359 C10.7705078,30.7253359 9.28794141,32.2077422 9.28794141,34.03 L9.28794141,40.3483242 C9.28794141,42.170582 10.7705078,43.6529883 12.5926055,43.6529883 Z M11.8765469,34.0298398 C11.8765469,33.6348945 12.1978203,33.3136211 12.5927656,33.3136211 L18.91125,33.3136211 C19.3060352,33.3136211 19.6273086,33.6348945 19.6273086,34.0298398 L19.6273086,40.3481641 C19.6273086,40.7431094 19.3060352,41.0643828 18.91125,41.0643828 L12.5926055,41.0643828 C12.1976602,41.0643828 11.8763867,40.7431094 11.8763867,40.3481641 L11.8763867,34.0298398 L11.8765469,34.0298398 Z" id="Shape" fill="#231F20" fill-rule="nonzero"></path>
                                <path d="M29.5344141,43.6529883 L35.8528984,43.6529883 C37.6751563,43.6529883 39.1577227,42.170582 39.1577227,40.3483242 L39.1577227,34.03 C39.1577227,32.2077422 37.6751563,30.7253359 35.8528984,30.7253359 L29.5344141,30.7253359 C27.7123164,30.7253359 26.2299102,32.2077422 26.2299102,34.03 L26.2299102,40.3483242 C26.2299102,42.170582 27.7123164,43.6529883 29.5344141,43.6529883 Z M28.8185156,34.0298398 C28.8185156,33.6348945 29.1397891,33.3136211 29.5345742,33.3136211 L35.8530586,33.3136211 C36.2480039,33.3136211 36.5694375,33.6348945 36.5694375,34.0298398 L36.5694375,40.3481641 C36.5694375,40.7431094 36.2480039,41.0643828 35.8530586,41.0643828 L29.5344141,41.0643828 C29.1396289,41.0643828 28.8183555,40.7431094 28.8183555,40.3481641 L28.8183555,34.0298398 L28.8185156,34.0298398 Z" id="Shape" fill="#231F20" fill-rule="nonzero"></path>
                                <path d="M46.476543,43.6529883 L52.7951875,43.6529883 C54.6174453,43.6529883 56.0998516,42.170582 56.0998516,40.3483242 L56.0998516,34.03 C56.0998516,32.2077422 54.6174453,30.7253359 52.7951875,30.7253359 L46.476543,30.7253359 C44.6542852,30.7253359 43.1718789,32.2077422 43.1718789,34.03 L43.1718789,40.3483242 C43.1717188,42.170582 44.6542852,43.6529883 46.476543,43.6529883 Z M45.7603242,34.0298398 C45.7603242,33.6348945 46.0815977,33.3136211 46.476543,33.3136211 L52.7951875,33.3136211 C53.1899727,33.3136211 53.5114063,33.6348945 53.5114063,34.0298398 L53.5114063,40.3481641 C53.5114063,40.7431094 53.1899727,41.0643828 52.7951875,41.0643828 L46.476543,41.0643828 C46.0815977,41.0643828 45.7603242,40.7431094 45.7603242,40.3481641 L45.7603242,34.0298398 L45.7603242,34.0298398 Z" id="Shape" fill="#231F20" fill-rule="nonzero"></path>
                                <path d="M63.4183516,43.6529883 L69.7368359,43.6529883 C71.5590938,43.6529883 73.0415,42.170582 73.0415,40.3483242 L73.0415,34.03 C73.0415,32.2077422 71.5590938,30.7253359 69.7368359,30.7253359 L63.4183516,30.7253359 C61.5962539,30.7253359 60.1138477,32.2077422 60.1138477,34.03 L60.1138477,40.3483242 C60.1138477,42.170582 61.5962539,43.6529883 63.4183516,43.6529883 Z M62.7021328,34.0298398 C62.7021328,33.6348945 63.0234062,33.3136211 63.4183516,33.3136211 L69.7368359,33.3136211 C70.1316211,33.3136211 70.4532148,33.6348945 70.4532148,34.0298398 L70.4532148,40.3481641 C70.4532148,40.7431094 70.1316211,41.0643828 69.7368359,41.0643828 L63.4183516,41.0643828 C63.0234062,41.0643828 62.7021328,40.7431094 62.7021328,40.3481641 L62.7021328,34.0298398 Z" id="Shape" fill="#231F20" fill-rule="nonzero"></path>
                                <path d="M9.28794141,55.9300859 C9.28794141,57.7523437 10.7705078,59.23475 12.5926055,59.23475 L18.9110898,59.23475 C20.7331875,59.23475 22.2155937,57.7523438 22.2155937,55.9300859 L22.2155937,49.6116016 C22.2155937,47.7893438 20.7331875,46.3069375 18.9110898,46.3069375 L12.5926055,46.3069375 C10.7705078,46.3069375 9.28794141,47.7893437 9.28794141,49.6116016 L9.28794141,55.9300859 Z M11.8765469,49.6116016 C11.8765469,49.2168164 12.1978203,48.8953828 12.5927656,48.8953828 L18.91125,48.8953828 C19.3060352,48.8953828 19.6273086,49.2168164 19.6273086,49.6116016 L19.6273086,55.9300859 C19.6273086,56.3250312 19.3060352,56.6464648 18.91125,56.6464648 L12.5926055,56.6464648 C12.1976602,56.6464648 11.8763867,56.3250312 11.8763867,55.9300859 L11.8763867,49.6116016 L11.8765469,49.6116016 Z" id="Shape" fill="#231F20" fill-rule="nonzero"></path>
                                <path d="M26.2299102,55.9300859 C26.2299102,57.7523437 27.7124766,59.23475 29.5344141,59.23475 L35.8528984,59.23475 C37.6751563,59.23475 39.1577227,57.7523438 39.1577227,55.9300859 L39.1577227,49.6116016 C39.1577227,47.7893438 37.6751563,46.3069375 35.8528984,46.3069375 L29.5344141,46.3069375 C27.7123164,46.3069375 26.2299102,47.7893437 26.2299102,49.6116016 L26.2299102,55.9300859 Z M28.8185156,49.6116016 C28.8185156,49.2168164 29.1397891,48.8953828 29.5345742,48.8953828 L35.8530586,48.8953828 C36.2480039,48.8953828 36.5694375,49.2168164 36.5694375,49.6116016 L36.5694375,55.9300859 C36.5694375,56.3250312 36.2480039,56.6464648 35.8530586,56.6464648 L29.5344141,56.6464648 C29.1396289,56.6464648 28.8183555,56.3250312 28.8183555,55.9300859 L28.8183555,49.6116016 L28.8185156,49.6116016 Z" id="Shape" fill="#231F20" fill-rule="nonzero"></path>
                                <path d="M43.1717187,55.9300859 C43.1717187,57.7523437 44.6542852,59.23475 46.4763828,59.23475 L52.7950273,59.23475 C54.6172852,59.23475 56.0996914,57.7523438 56.0996914,55.9300859 L56.0996914,49.6116016 C56.0996914,47.7893438 54.6172852,46.3069375 52.7950273,46.3069375 L46.4763828,46.3069375 C44.654125,46.3069375 43.1717187,47.7893437 43.1717187,49.6116016 L43.1717187,55.9300859 L43.1717187,55.9300859 Z M45.7603242,49.6116016 C45.7603242,49.2168164 46.0815977,48.8953828 46.476543,48.8953828 L52.7951875,48.8953828 C53.1899727,48.8953828 53.5114062,49.2168164 53.5114062,49.6116016 L53.5114062,55.9300859 C53.5114062,56.3250312 53.1899727,56.6464648 52.7951875,56.6464648 L46.476543,56.6464648 C46.0815977,56.6464648 45.7603242,56.3250312 45.7603242,55.9300859 L45.7603242,49.6116016 L45.7603242,49.6116016 Z" id="Shape" fill="#231F20" fill-rule="nonzero"></path>
                                <path d="M60.1138477,55.9300859 C60.1138477,57.7523437 61.5962539,59.23475 63.4183516,59.23475 L69.7368359,59.23475 C71.5590938,59.23475 73.0415,57.7523438 73.0415,55.9300859 L73.0415,49.6116016 C73.0415,47.7893438 71.5590938,46.3069375 69.7368359,46.3069375 L63.4183516,46.3069375 C61.5962539,46.3069375 60.1138477,47.7893437 60.1138477,49.6116016 L60.1138477,55.9300859 Z M62.7021328,49.6116016 C62.7021328,49.2168164 63.0234062,48.8953828 63.4183516,48.8953828 L69.7368359,48.8953828 C70.1316211,48.8953828 70.4532148,49.2168164 70.4532148,49.6116016 L70.4532148,55.9300859 C70.4532148,56.3250312 70.1316211,56.6464648 69.7368359,56.6464648 L63.4183516,56.6464648 C63.0234062,56.6464648 62.7021328,56.3250312 62.7021328,55.9300859 L62.7021328,49.6116016 Z" id="Shape" fill="#231F20" fill-rule="nonzero"></path>
                                <path d="M9.28794141,71.5118477 C9.28794141,73.3339453 10.7705078,74.8163516 12.5926055,74.8163516 L18.9110898,74.8163516 C20.7331875,74.8163516 22.2155937,73.3339453 22.2155937,71.5118477 L22.2155937,65.1933633 C22.2155937,63.3709453 20.7331875,61.8885391 18.9110898,61.8885391 L12.5926055,61.8885391 C10.7705078,61.8885391 9.28794141,63.3709453 9.28794141,65.1933633 L9.28794141,71.5118477 Z M11.8765469,65.1933633 C11.8765469,64.7985781 12.1978203,64.4769844 12.5927656,64.4769844 L18.91125,64.4769844 C19.3060352,64.4769844 19.6273086,64.7985781 19.6273086,65.1933633 L19.6273086,71.5118477 C19.6273086,71.9066328 19.3060352,72.2279062 18.91125,72.2279062 L12.5926055,72.2279062 C12.1976602,72.2279062 11.8763867,71.9066328 11.8763867,71.5118477 L11.8763867,65.1933633 L11.8765469,65.1933633 Z" id="Shape" fill="#231F20" fill-rule="nonzero"></path>
                                <path d="M26.2299102,71.5118477 C26.2299102,73.3339453 27.7124766,74.8163516 29.5344141,74.8163516 L35.8528984,74.8163516 C37.6751563,74.8163516 39.1577227,73.3339453 39.1577227,71.5118477 L39.1577227,65.1933633 C39.1577227,63.3709453 37.6751563,61.8885391 35.8528984,61.8885391 L29.5344141,61.8885391 C27.7123164,61.8885391 26.2299102,63.3709453 26.2299102,65.1933633 L26.2299102,71.5118477 Z M28.8185156,65.1933633 C28.8185156,64.7985781 29.1397891,64.4769844 29.5345742,64.4769844 L35.8530586,64.4769844 C36.2480039,64.4769844 36.5694375,64.7985781 36.5694375,65.1933633 L36.5694375,71.5118477 C36.5694375,71.9066328 36.2480039,72.2279062 35.8530586,72.2279062 L29.5344141,72.2279062 C29.1396289,72.2279062 28.8183555,71.9066328 28.8183555,71.5118477 L28.8183555,65.1933633 L28.8185156,65.1933633 Z" id="Shape" fill="#231F20" fill-rule="nonzero"></path>
                                <path d="M43.1717187,71.5118477 C43.1717187,73.3339453 44.6542852,74.8163516 46.4763828,74.8163516 L52.7950273,74.8163516 C54.6172852,74.8163516 56.0996914,73.3339453 56.0996914,71.5118477 L56.0996914,65.1933633 C56.0996914,63.3709453 54.6172852,61.8885391 52.7950273,61.8885391 L46.4763828,61.8885391 C44.654125,61.8885391 43.1717187,63.3709453 43.1717187,65.1933633 L43.1717187,71.5118477 L43.1717187,71.5118477 Z M45.7603242,65.1933633 C45.7603242,64.7985781 46.0815977,64.4769844 46.476543,64.4769844 L52.7951875,64.4769844 C53.1899727,64.4769844 53.5114062,64.7985781 53.5114062,65.1933633 L53.5114062,71.5118477 C53.5114062,71.9066328 53.1899727,72.2279062 52.7951875,72.2279062 L46.476543,72.2279062 C46.0815977,72.2279062 45.7603242,71.9066328 45.7603242,71.5118477 L45.7603242,65.1933633 L45.7603242,65.1933633 Z" id="Shape" fill="#231F20" fill-rule="nonzero"></path>
                                <path d="M60.1138477,71.5118477 C60.1138477,73.3339453 61.5962539,74.8163516 63.4183516,74.8163516 L69.7368359,74.8163516 C71.5590938,74.8163516 73.0415,73.3339453 73.0415,71.5118477 L73.0415,65.1933633 C73.0415,63.3709453 71.5590938,61.8885391 69.7368359,61.8885391 L63.4183516,61.8885391 C61.5962539,61.8885391 60.1138477,63.3709453 60.1138477,65.1933633 L60.1138477,71.5118477 Z M62.7021328,65.1933633 C62.7021328,64.7985781 63.0234062,64.4769844 63.4183516,64.4769844 L69.7368359,64.4769844 C70.1316211,64.4769844 70.4532148,64.7985781 70.4532148,65.1933633 L70.4532148,71.5118477 C70.4532148,71.9066328 70.1316211,72.2279062 69.7368359,72.2279062 L63.4183516,72.2279062 C63.0234062,72.2279062 62.7021328,71.9066328 62.7021328,71.5118477 L62.7021328,65.1933633 Z" id="Shape" fill="#231F20" fill-rule="nonzero"></path>
                            </g>
                        </g>
                    </g>
                </g>
            </g>
        </g>
    </g>
</svg>