<?xml version="1.0" encoding="UTF-8"?>
<svg width="143px" height="111px" viewBox="0 0 143 111" version="1.1" xmlns="http://www.w3.org/2000/svg" xmlns:xlink="http://www.w3.org/1999/xlink">
    <!-- Generator: Sketch 55.2 (78181) - https://sketchapp.com -->
    <title>img_map_green</title>
    <desc>Created with Sketch.</desc>
    <defs>
        <linearGradient x1="50%" y1="0.667757601%" x2="50%" y2="100%" id="linearGradient-1">
            <stop stop-color="#07A17F" offset="0%"></stop>
            <stop stop-color="#7CFCE0" offset="100%"></stop>
        </linearGradient>
        <path d="M7.69814046,104 C2.77475446,94.2783551 0,83.2801446 0,71.6326531 C0,32.0710312 32.0116404,0 71.5,0 C110.98836,0 143,32.0710312 143,71.6326531 C143,83.2801446 140.225246,94.2783551 135.30186,104 L7.69814046,104 Z" id="path-2"></path>
    </defs>
    <g id="Page-1" stroke="none" stroke-width="1" fill="none" fill-rule="evenodd">
        <g id="Location-Prompt_Sucess" transform="translate(-116.000000, -109.000000)">
            <g id="img_map_green" transform="translate(116.000000, 109.000000)">
                <g id="Group">
                    <mask id="mask-3" fill="white">
                        <use xlink:href="#path-2"></use>
                    </mask>
                    <use id="Combined-Shape" fill="url(#linearGradient-1)" xlink:href="#path-2"></use>
                </g>
                <g id="854929" transform="translate(20.000000, 19.000000)" fill-rule="nonzero">
                    <polygon id="Path" fill="#44C868" points="26.3964954 79.2298777 51.2874529 90.4357991 51.2874529 45.7675895 29.8471119 34.5614672"></polygon>
                    <polygon id="Path" fill="#7EE5F2" points="28.243609 55.3179127 51.2874529 90.4357991 26.3964954 79.2298777"></polygon>
                    <polygon id="Path" fill="#4CE166" points="26.3964954 79.2298777 1.50553782 90.4357991 9.56432214 45.8822882 29.8471119 34.5614672"></polygon>
                    <polygon id="Path" fill="#A8EEFC" points="5.69600149 67.2688734 28.243609 55.3179127 26.3964954 79.2298777 1.50553782 90.4357991"></polygon>
                    <polygon id="Path" fill="#44C868" points="76.1784105 79.2298777 101.069368 90.4357991 93.0109844 45.8822882 72.7279943 34.5614672"></polygon>
                    <polygon id="Path" fill="#7EE5F2" points="73.7497165 47.789179 98.5879853 76.7177555 93.0109844 45.8822882 89.9368024 44.1666288"></polygon>
                    <polygon id="Path" fill="#4CE166" points="76.1784105 79.2298777 51.2874529 90.4357991 51.2874529 45.7675895 72.7279943 34.5614672"></polygon>
                    <polygon id="Path" fill="#FFDB56" points="5.69600149 67.2688734 28.243609 55.3179127 28.8999153 46.8239825 7.33256016 58.2209345"></polygon>
                    <g id="Group" transform="translate(28.047278, 38.567686)" fill="#FFBB24">
                        <polygon id="Path" points="23.246185 11.4694672 0.852637252 8.25629694 0.196330946 16.7502271 23.2401749 51.8681135 23.2401749 39.098393 9.48959618 17.3699214 23.246185 19.0211004"></polygon>
                        <polygon id="Path" points="45.7024385 9.22149345 61.8895244 5.59894323 52.1759506 0.177371179 45.1312757 1.82895197"></polygon>
                    </g>
                    <polygon id="Path" fill="#FFDB56" points="74.5678957 58.3798253 73.6944233 47.0712576 73.6944233 47.0712576 73.1785538 40.3966376 51.2934631 50.0371528 51.2934631 57.588786 65.5891607 51.3504629"></polygon>
                    <polygon id="Path" fill="#FFBB24" points="74.5678957 58.3798253 101.069368 90.4357991 98.5879853 76.7177555 73.7497165 47.789179"></polygon>
                    <path d="M51.3840157,1.56420087 C40.5844113,1.56420087 31.8294535,10.3423668 31.8294535,21.171048 C31.8294535,37.6609432 51.3840157,52.83331 51.3840157,52.83331 C51.3840157,52.83331 70.9385779,37.6609432 70.9385779,21.171048 C70.9385779,10.3423668 62.1836201,1.56420087 51.3840157,1.56420087 Z M51.3840157,28.991048 C47.0767551,28.991048 43.5846687,25.4900262 43.5846687,21.1708472 C43.5846687,16.851869 47.0763545,13.3506463 51.3840157,13.3506463 C55.6916769,13.3506463 59.1833627,16.851869 59.1833627,21.1708472 C59.1833627,25.4898253 55.6912763,28.991048 51.3840157,28.991048 Z" id="Shape" fill="#FF4A4A"></path>
                    <path d="M51.3840157,1.56420087 C50.4644657,1.56420087 49.5599409,1.62948472 48.6740476,1.75262009 C58.1910901,3.07577293 65.5188421,11.2647773 65.5188421,21.1712489 C65.5188421,33.8035721 54.0432983,45.6625328 48.6740476,50.5196507 C50.3136114,52.0028996 51.3840157,52.8335109 51.3840157,52.8335109 C51.3840157,52.8335109 70.9385779,37.6611441 70.9385779,21.1712489 C70.9385779,10.3423668 62.1836201,1.56420087 51.3840157,1.56420087 Z" id="Path" fill="#E7343F"></path>
                    <polygon id="Path" fill="#FFDB56" points="51.2874529 77.6660786 59.8653122 86.5742096 51.2874529 90.4357991"></polygon>
                    <path d="M102.25677,91.3604192 C102.263982,91.3509782 102.272596,91.3427424 102.279808,91.3331004 C102.324684,91.2720349 102.364351,91.2079563 102.39941,91.1412664 C102.409227,91.1225852 102.416639,91.1026987 102.425855,91.0834148 C102.449094,91.0346026 102.47053,90.9849869 102.48856,90.9339651 C102.497575,90.9082533 102.504788,90.8821397 102.5124,90.8556245 C102.526023,90.8086201 102.537443,90.7610131 102.546458,90.7126026 C102.551667,90.6848821 102.556475,90.6569607 102.560081,90.6288384 C102.566692,90.5776157 102.569697,90.5255895 102.571099,90.4733624 C102.5717,90.448655 102.573214,90.4241485 102.573214,90.3990393 C102.5713,90.3217031 102.564889,90.2441659 102.550865,90.1666288 L96.5413353,56.9425764 C96.3930854,56.1222096 95.6095647,55.5776419 94.7913855,55.7264891 C93.9732064,55.8751354 93.4304915,56.660952 93.5787414,57.4811179 L96.1196245,71.5287948 L76.5302035,48.7135983 L89.7056127,45.765179 L91.6565012,46.8541135 L92.503529,51.5376769 C92.6517789,52.3580437 93.4352996,52.9022096 94.2534788,52.7537642 C95.071658,52.6051179 95.6143728,51.8193013 95.4663232,50.9991354 L94.4918807,45.612917 C94.4115452,45.1681834 94.1366819,44.7831092 93.7430183,44.5633537 L93.7430183,44.5633537 L93.7430183,44.5633537 L73.4580249,33.2413275 L73.4580249,33.2413275 L73.4600282,33.2425328 C73.4598279,33.2425328 73.4596276,33.2423319 73.4596276,33.2423319 C73.4590265,33.242131 73.4586259,33.2417293 73.4580249,33.2413275 C73.4001273,33.2091878 73.3408273,33.1814672 73.280125,33.1575633 C73.2610929,33.150131 73.2416601,33.1451092 73.2222274,33.1384803 C73.1799561,33.1236157 73.1374845,33.1093537 73.0944119,33.0983057 C73.0699707,33.0920786 73.0453292,33.0884629 73.0204873,33.0836419 C72.9818221,33.0760087 72.9429566,33.0683755 72.9038908,33.0637555 C72.8774462,33.0605415 72.8510016,33.0595371 72.824557,33.0579301 C72.7866932,33.0555197 72.7488294,33.0535109 72.7109656,33.0539127 C72.68392,33.0541135 72.6570747,33.0561223 72.6300291,33.0577293 C72.5927663,33.0601397 72.5555035,33.0635546 72.5182407,33.0687773 C72.4911951,33.0725939 72.4641495,33.0774148 72.4373043,33.0828384 C72.4008428,33.0900699 72.364782,33.0985066 72.3287212,33.1083493 C72.3016756,33.1157817 72.2748304,33.1238166 72.2481855,33.132655 C72.2133267,33.1445066 72.1788686,33.1579651 72.1446109,33.1724279 C72.1181663,33.1836769 72.0917217,33.1947249 72.0656778,33.2075808 C72.0542586,33.2132052 72.0424387,33.2170218 72.0312197,33.2228472 L68.5918221,35.0204629 C71.1505352,30.2366638 72.4431141,25.6035197 72.4431141,21.171048 C72.4431141,9.52742358 62.9955888,0.0546375546 51.383014,0.0546375546 C39.7704392,0.0546375546 30.323515,9.52742358 30.323515,21.171048 C30.323515,25.6465066 31.6401343,30.326655 34.2489319,35.159869 L30.5428848,33.2228472 C30.5314655,33.216821 30.5192449,33.2128035 30.5076253,33.207179 C30.4823828,33.1947249 30.4563389,33.1838777 30.4306956,33.1730306 C30.3960372,33.1583668 30.3609781,33.1447074 30.3255183,33.132655 C30.2992741,33.1238166 30.2726292,33.1159825 30.2459843,33.1085502 C30.2099235,33.0987074 30.1736624,33.0900699 30.1372009,33.0828384 C30.1101553,33.0774148 30.0829094,33.0725939 30.0556635,33.0687773 C30.0190017,33.0635546 29.9821395,33.0603406 29.9452774,33.0579301 C29.9176308,33.0561223 29.8899842,33.0543144 29.8625379,33.0539127 C29.8256758,33.0535109 29.789014,33.0555197 29.7521518,33.0577293 C29.7245052,33.0595371 29.6968586,33.0605415 29.669212,33.0639563 C29.6317489,33.0683755 29.5946864,33.0758079 29.5576239,33.0830393 C29.5313797,33.088262 29.5049351,33.0920786 29.4788912,33.0987074 C29.437822,33.1091528 29.3975541,33.1230131 29.3572862,33.1368734 C29.3362508,33.1441048 29.3148146,33.1497293 29.2937792,33.1579651 C29.2332772,33.181869 29.1741776,33.2095895 29.1164803,33.2415284 C29.1158793,33.2417293 29.1154786,33.242131 29.1148776,33.2425328 C29.1146773,33.2425328 29.1146773,33.2427336 29.1144769,33.2427336 L8.83208785,44.5633537 C8.43822393,44.7831092 8.16336061,45.1681834 8.08322553,45.612917 L8.08322553,45.612917 C8.08322553,45.6131179 8.08322553,45.6127162 8.08322553,45.612917 L2.37019533,77.1972402 L2.37019533,77.1972402 L2.37019533,77.1972402 C2.22194543,78.0174061 2.7648606,78.8032227 3.58303977,78.951869 C4.40141927,79.1011179 5.18473968,78.5561485 5.33298958,77.7357817 L7.0468786,68.2603843 L26.5319237,57.9326812 L24.9648822,78.2196856 L3.49729523,87.8847074 L4.2527687,83.7065415 C4.4010186,82.8863755 3.85830377,82.1007598 3.0401246,81.9519127 C2.22254645,81.8036681 1.43862502,82.3476332 1.29017479,83.168 L0.0242408617,90.1668297 C-0.075527313,90.7180262 0.137632,91.2794672 0.57757359,91.6247686 C0.847428472,91.8364891 1.17498061,91.9455633 1.50553782,91.9455633 C1.71449004,91.9455633 1.92464429,91.9019738 2.12197692,91.8131878 L26.3964954,80.8846725 L50.6607966,91.8085677 C50.6613976,91.8087686 50.6619986,91.8091703 50.6625996,91.8093712 L50.6708135,91.8129869 C50.6844364,91.819214 50.6986604,91.8234323 50.7126841,91.8292576 C50.7349215,91.8384978 50.7573594,91.8471354 50.7801979,91.8553712 C50.8020347,91.8632052 50.8240718,91.8710393 50.8465096,91.877869 C50.860934,91.8822882 50.8753583,91.8861048 50.8897826,91.8901223 C50.9086143,91.895345 50.9272457,91.9003668 50.9464782,91.904786 C50.9777308,91.9120175 51.0093842,91.9176419 51.0408372,91.9228646 C51.0558625,91.9252751 51.0706875,91.9288908 51.0859132,91.9308996 C51.0961304,91.9323057 51.1063476,91.9337118 51.1165649,91.934917 C51.16705,91.9407424 51.2177354,91.9437555 51.2682205,91.9443581 C51.2746313,91.9443581 51.2810421,91.9455633 51.2874529,91.9455633 C51.2906583,91.9455633 51.2938637,91.9455633 51.2970691,91.9455633 C51.3579718,91.944559 51.4184738,91.9395371 51.4791761,91.9317031 C51.4865886,91.9306987 51.4942014,91.9311004 51.5018143,91.9298952 C51.5132335,91.9282882 51.5244524,91.9244716 51.536072,91.9226638 C51.5831514,91.9148297 51.6302307,91.9045852 51.6767091,91.8919301 C51.6895307,91.8885153 51.7025526,91.8865066 51.7153743,91.8828908 C51.7167766,91.8824891 51.7179786,91.8824891 51.719381,91.8820873 C51.7235881,91.8808821 51.7273945,91.8786725 51.7316016,91.8772664 C51.7901002,91.8591878 51.8475971,91.8384978 51.9042927,91.8129869 L76.1782101,80.8848734 C76.1786108,80.8846725 76.1782101,80.8848734 76.1786108,80.8846725 L76.1786108,80.8846725 L100.45333,91.8131878 C100.476769,91.8236332 100.50081,91.8314672 100.52485,91.8407074 C100.54849,91.8499476 100.571729,91.8601921 100.59597,91.8682271 C100.627423,91.8786725 100.659677,91.8865066 100.691731,91.8947424 C100.711565,91.8999651 100.730797,91.906393 100.751031,91.9106114 C100.789697,91.919048 100.828762,91.9244716 100.867828,91.9298952 C100.881852,91.9317031 100.895475,91.934917 100.909499,91.936524 C100.962989,91.9423493 101.016479,91.9455633 101.069969,91.9455633 L101.070169,91.9455633 C101.07037,91.9455633 101.07057,91.9455633 101.07057,91.9455633 C101.143693,91.9455633 101.216817,91.9379301 101.28974,91.9272838 C101.306568,91.9248734 101.323396,91.922262 101.340024,91.919048 C101.411946,91.9059913 101.483266,91.8891179 101.553785,91.8650131 C101.558192,91.8634061 101.562599,91.8611965 101.567007,91.8597904 C101.613485,91.8435197 101.659763,91.8256419 101.70504,91.8041485 C101.718262,91.7979214 101.729681,91.789083 101.742703,91.7824541 C101.780567,91.7633712 101.817028,91.741476 101.85349,91.7187773 C101.889951,91.6964803 101.926212,91.6739825 101.96047,91.6484716 C101.97229,91.6396332 101.985512,91.6334061 101.997332,91.6243668 C102.023777,91.6036769 102.046816,91.5797729 102.071658,91.5572751 C102.091491,91.5393974 102.112126,91.522524 102.131158,91.5036419 C102.176434,91.4586463 102.217904,91.4106376 102.25677,91.3604192 Z M60.2134992,84.7625328 L52.7929907,77.0562271 L52.7929907,58.5806987 L65.3685889,53.0928384 L73.1178514,59.1600175 L74.5955423,78.2879825 L60.2134992,84.7625328 Z M52.7929907,88.1034585 L52.7929907,81.4029258 L57.2937775,86.077048 L52.7929907,88.1034585 Z M46.8876364,50.9296332 C48.140348,52.0953013 49.1558598,52.9608646 49.7819151,53.4777118 L49.7819151,55.8869869 L37.7157758,54.4384891 C37.1390035,54.370393 36.5730495,54.6393624 36.2631271,55.1327074 C35.9532047,55.6258515 35.9542064,56.2537817 36.2657315,56.7463231 L49.7819151,78.104786 L49.7819151,85.3954847 L29.7844062,54.9199825 L30.0294192,51.7475895 L30.2766359,48.5468734 L46.8876364,50.9296332 Z M58.2594052,48.6173799 L71.8417003,42.6345677 L72.8033212,55.0830917 L66.5159229,50.16069 C66.0807894,49.8202096 65.4950019,49.7454847 64.9885482,49.9662445 L52.7992012,55.2857729 L52.7992012,53.6315808 C53.7099364,52.8877467 55.7792245,51.1339214 58.2594052,48.6173799 Z M75.622874,52.4884105 L75.605645,52.2640349 L97.1800119,77.3914847 L98.5633437,85.0393362 L76.0319636,57.785441 L75.622874,52.4884105 Z M74.4454894,37.2477467 L76.0876575,38.1643319 L74.5442559,38.5263057 L74.4454894,37.2477467 Z M40.507682,57.8143668 L49.7819151,58.9278079 L49.7819151,72.4696856 L40.507682,57.8143668 Z M29.4049666,59.8337467 L47.1889443,86.9359825 L27.9795639,78.2877817 L29.4049666,59.8337467 Z M76.4350431,63.0035284 L95.7756446,86.3980437 L77.610224,78.2198865 L76.4350431,63.0035284 Z M85.7493438,43.5569782 L75.1164203,45.9363231 L74.779252,41.5711441 L79.9990508,40.3472227 L85.7493438,43.5569782 L85.7493438,43.5569782 Z M71.4029607,36.9562795 L71.5952849,39.4455022 L63.1103823,43.1831528 C63.9528023,42.136 64.7383265,41.0944716 65.4673553,40.0585677 L71.4029607,36.9562795 Z M51.3840157,3.07376419 C61.336392,3.07376419 69.4332405,11.192262 69.4332405,21.1712489 C69.4332405,34.7129258 55.1858242,47.6672489 51.3840157,50.8818253 C47.5822072,47.6668472 33.3349913,34.7127249 33.3349913,21.1712489 C33.3349913,11.192262 41.4316394,3.07376419 51.3840157,3.07376419 Z M40.4525891,44.1547773 C41.4170148,45.3097991 42.3786357,46.3830655 43.3035949,47.3655371 L30.5100294,45.5299563 L31.1723458,36.9562795 L37.4128652,40.2180611 C38.337023,41.5211266 39.3493294,42.8336332 40.4525891,44.1547773 Z M28.1296168,37.2477467 L27.6970877,42.8482969 L27.4630933,45.8770655 L9.36558714,55.4404454 L10.918605,46.8543144 L28.1296168,37.2477467 Z M7.73003016,64.4831616 L8.65919641,59.3460262 L8.6830366,59.2136507 L27.18823,49.4349345 L26.806787,54.372 L7.73003016,64.4831616 Z" id="Shape" fill="#000000"></path>
                    <path d="M60.6889005,21.1712489 C60.6889005,16.0268821 56.5148645,11.8414847 51.3840157,11.8414847 C50.5526142,11.8414847 49.8784779,12.5172227 49.8784779,13.351048 C49.8784779,14.1848734 50.5526142,14.8606114 51.3840157,14.8606114 C54.8544657,14.8606114 57.6778249,17.6915197 57.6778249,21.1712489 C57.6778249,24.6507773 54.8544657,27.4818865 51.3840157,27.4818865 C47.9135657,27.4818865 45.0902065,24.6509782 45.0902065,21.1712489 C45.0902065,19.5066114 45.7308865,17.9359825 46.8944478,16.7484192 C47.4772302,16.1538341 47.468816,15.1980786 46.8756161,14.6139389 C46.2824162,14.0295983 45.3292094,14.0378341 44.7466274,14.632821 C43.0265279,16.3882533 42.0793312,18.7103493 42.0793312,21.1712489 C42.0793312,26.3156157 46.2533672,30.5010131 51.384216,30.5010131 C56.5150649,30.5010131 60.6889005,26.3154148 60.6889005,21.1712489 Z" id="Path" fill="#000000"></path>
                </g>
            </g>
        </g>
    </g>
</svg>