<?xml version="1.0" encoding="UTF-8"?>
<svg width="143px" height="104px" viewBox="0 0 143 104" version="1.1" xmlns="http://www.w3.org/2000/svg" xmlns:xlink="http://www.w3.org/1999/xlink">
    <!-- Generator: Sketch 55.2 (78181) - https://sketchapp.com -->
    <title>img_mailbox_orange</title>
    <desc>Created with Sketch.</desc>
    <defs>
        <linearGradient x1="50%" y1="3.061617e-15%" x2="50%" y2="100%" id="linearGradient-1">
            <stop stop-color="#F76D1D" offset="0%"></stop>
            <stop stop-color="#FFCC27" offset="100%"></stop>
        </linearGradient>
        <path d="M7.69814046,104 C2.77475446,94.2783551 0,83.2801446 0,71.6326531 C0,32.0710312 32.0116404,0 71.5,0 C110.98836,0 143,32.0710312 143,71.6326531 C143,83.2801446 140.225246,94.2783551 135.30186,104 L7.69814046,104 Z" id="path-2"></path>
    </defs>
    <g id="Page-1" stroke="none" stroke-width="1" fill="none" fill-rule="evenodd">
        <g id="Email-Prompt-2" transform="translate(-116.000000, -54.000000)">
            <g id="Group-6" transform="translate(27.000000, 54.000000)">
                <g id="img_mailbox_orange" transform="translate(89.000000, 0.000000)">
                    <mask id="mask-3" fill="white">
                        <use xlink:href="#path-2"></use>
                    </mask>
                    <use id="Combined-Shape" fill="url(#linearGradient-1)" xlink:href="#path-2"></use>
                    <g id="407795" mask="url(#mask-3)" fill-rule="nonzero">
                        <g transform="translate(25.000000, 17.000000)">
                            <path d="M79.2151113,16.8914883 L26.4050977,16.8914883 C19.5425332,16.8914883 13.9792441,22.4547773 13.9792441,29.3173418 L13.9792441,61.9352754 L91.6409648,61.9352754 L91.6409648,29.3173418 C91.6409648,22.4547773 86.0776758,16.8914883 79.2151113,16.8914883 Z" id="Path" fill="#CF442B"></path>
                            <path d="M32.6179336,16.8914883 L26.4050977,16.8914883 C19.5425332,16.8914883 13.9792441,22.4547773 13.9792441,29.3173418 L13.9792441,61.9352754 L20.1922617,61.9352754 L20.1922617,29.3173418 C20.1920801,22.4547773 25.7553691,16.8914883 32.6179336,16.8914883 Z" id="Path" fill="#B83C26"></path>
                            <rect id="Rectangle" fill="#FFFFFF" x="1.55320898" y="30.8705508" width="46.5969961" height="31.0647246"></rect>
                            <polygon id="Path" fill="#EBEBEC" points="24.851707 54.1690488 1.55320898 35.5303594 1.55320898 30.8705508 48.1503867 30.8705508 48.1503867 35.5303594"></polygon>
                            <polygon id="Path" fill="#FFFFFF" points="24.851707 49.5094219 1.55320898 30.8705508 48.1503867 30.8705508"></polygon>
                            <path d="M79.2151113,16.8914883 L32.6179336,16.8914883 C39.480498,16.8914883 45.0437871,22.4547773 45.0437871,29.3173418 L45.0437871,61.9352754 L91.6407832,61.9352754 L91.6407832,29.3173418 C91.6407832,22.4547773 86.0776758,16.8914883 79.2151113,16.8914883 Z" id="Path" fill="#F58F6C"></path>
                            <rect id="Rectangle" fill="#88898E" x="38.7822715" y="61.9352754" width="18.258334" height="29.5115156"></rect>
                            <rect id="Rectangle" fill="#C3C4C6" x="55.9164316" y="61.9352754" width="7.87430273" height="29.5115156"></rect>
                            <polygon id="Path" fill="#F07B52" points="7.76622656 82.1273555 38.8309512 82.1273555 45.0437871 61.9352754 13.9790625 61.9352754"></polygon>
                            <circle id="Oval" fill="#FDD042" cx="66.7890762" cy="32.4237598" r="6.21301758"></circle>
                            <circle id="Oval" fill="#E1A527" cx="66.7890762" cy="32.4237598" r="3.10641797"></circle>
                            <rect id="Rectangle" fill="#FDD042" x="66.7890762" y="1.35903516" width="12.4258535" height="6.21301758"></rect>
                            <path d="M91.5437871,35.4331816 C92.3480918,35.4331816 93,34.7814551 93,33.9769688 L93,29.3173418 C93,21.6628242 86.8696289,15.5324531 79.2151113,15.5324531 L68.148293,15.5324531 L68.148293,9.12526172 L79.2151113,9.12526172 C80.019416,9.12526172 80.5741465,8.37635742 80.5741465,7.57205273 L80.5741465,1.35903516 C80.5741465,0.554730469 80.019416,0 79.2151113,0 L66.7892578,0 C65.9849531,0 65.2360488,0.554730469 65.2360488,1.35903516 L65.2360488,15.5322715 L26.4050977,15.5322715 C18.7505801,15.5322715 12.4260352,21.6626426 12.4260352,29.3171602 L12.4260352,29.511334 L1.55320898,29.511334 C0.762345703,29.511334 0,30.0795059 0,30.8703691 L0,61.9350938 C0,62.7393984 0.749085938,63.4883027 1.55320898,63.4883027 L12.0075352,63.4883027 L6.37431445,81.7958613 C6.09095508,82.7173242 6.80280469,83.6803828 7.76622656,83.6803828 L37.2777422,83.6803828 L37.2777422,91.4466094 C37.2777422,92.2509141 38.0268281,92.9998184 38.8309512,92.9998184 L63.6826582,92.9998184 C64.4869629,92.9998184 65.0416934,92.2509141 65.0416934,91.4466094 L65.0416934,63.4884844 L91.6407832,63.4884844 C92.4450879,63.4884844 93,62.7395801 93,61.9352754 L93,40.1899863 C93,39.3856816 92.3480918,38.7337734 91.5436055,38.7337734 C90.7391191,38.7337734 90.0873926,39.3855 90.0873926,40.1899863 L90.0873926,60.5762402 L46.4030039,60.5762402 L46.4030039,29.3173418 C46.4030039,24.8598809 44.3858848,20.9687754 41.1103594,18.4446973 L65.2360488,18.4446973 L65.2360488,24.8951191 C61.7412832,25.577543 59.0717109,28.693043 59.0717109,32.4237598 C59.0717109,36.6525352 62.5363242,40.0928086 66.7650996,40.0928086 C70.993875,40.0928086 74.3978203,36.6523535 74.3978203,32.4237598 C74.3978203,28.6928613 71.8372324,25.577543 68.148293,24.8951191 L68.148293,18.4446973 L79.2151113,18.4446973 C85.2637441,18.4446973 90.0877559,23.268709 90.0877559,29.3173418 L90.0877559,33.9769688 C90.0877559,34.7814551 90.7394824,35.4331816 91.5437871,35.4331816 Z M77.6617207,6.21301758 L68.1481113,6.21301758 L68.1481113,2.91224414 L77.6617207,2.91224414 L77.6617207,6.21301758 Z M43.4905781,32.4237598 L43.4905781,32.7158379 C43.4905781,32.7648809 43.3254668,32.8266387 43.2282891,32.9047441 L24.8275488,47.6933789 L5.70442383,32.4239414 L43.4905781,32.4239414 L43.4905781,32.4237598 Z M2.91224414,33.9001348 L23.8935527,50.6463105 C24.4192207,51.0668086 25.1628574,51.0668086 25.6885254,50.6463105 L43.4905781,36.3855234 L43.4905781,60.5762402 L13.9790625,60.5762402 L2.91224414,60.5762402 L2.91224414,33.9001348 Z M15.0545566,63.4884844 L43.0722598,63.4884844 L37.755457,80.7683203 L9.73775391,80.7683203 L15.0545566,63.4884844 Z M62.1294492,63.4883027 L62.1294492,90.0875742 L57.2756484,90.0875742 L57.2756484,77.3380371 C57.2756484,76.5337324 56.6239219,75.8818242 55.8194355,75.8818242 C55.0151309,75.8818242 54.3632227,76.5335508 54.3632227,77.3380371 L54.3632227,89.9953008 C54.3632227,89.9931211 54.3960996,90.0875742 54.3632227,90.0875742 L40.1899863,90.0875742 L40.1899863,82.8066914 C40.1899863,82.6922578 40.2239531,82.6299551 40.1990684,82.5231504 L46.1194629,63.4883027 L54.3632227,63.4883027 L54.3632227,71.3840391 C54.3632227,72.1883438 55.0149492,72.840252 55.8194355,72.840252 C56.6237402,72.840252 57.2756484,72.1885254 57.2756484,71.3840391 L57.2756484,63.4883027 L62.1294492,63.4883027 L62.1294492,63.4883027 Z M43.4905781,29.3173418 L43.4905781,29.5115156 L15.3382793,29.5115156 L15.3382793,29.3173418 C15.3382793,23.268709 20.3564648,18.4446973 26.4050977,18.4446973 L32.6181152,18.4446973 C38.6665664,18.4446973 43.4905781,23.268709 43.4905781,29.3173418 Z M71.4973828,32.4237598 C71.4973828,35.046832 69.3878086,37.1805645 66.764918,37.1805645 C64.1420273,37.1805645 61.9716035,35.046832 61.9716035,32.4237598 C61.9716035,30.3085547 63.4884844,28.5123105 65.2358672,27.8958223 L65.2358672,32.4237598 C65.2358672,33.2280645 65.8875938,33.8799727 66.6920801,33.8799727 C67.4963848,33.8799727 68.148293,33.2282461 68.148293,32.4237598 L68.148293,27.8958223 C70.0898496,28.5123105 71.4973828,30.3087363 71.4973828,32.4237598 Z" id="Shape" fill="#000000"></path>
                            <path d="M57.4696406,54.3632227 C56.6653359,54.3632227 56.0134277,55.0149492 56.0134277,55.8194355 C56.0134277,56.6237402 56.6651543,57.2756484 57.4696406,57.2756484 L77.6617207,57.2756484 C78.4660254,57.2756484 79.1179336,56.6239219 79.1179336,55.8194355 C79.1179336,55.0151309 78.466207,54.3632227 77.6617207,54.3632227 L57.4696406,54.3632227 Z" id="Path" fill="#000000"></path>
                            <path d="M82.3215293,54.3632227 C81.5172246,54.3632227 80.8653164,55.0149492 80.8653164,55.8194355 C80.8653164,56.6237402 81.517043,57.2756484 82.3215293,57.2756484 L85.4279473,57.2756484 C86.232252,57.2756484 86.8841602,56.6239219 86.8841602,55.8194355 C86.8841602,55.0151309 86.2324336,54.3632227 85.4279473,54.3632227 L82.3215293,54.3632227 Z" id="Path" fill="#000000"></path>
                        </g>
                    </g>
                </g>
            </g>
        </g>
    </g>
</svg>