<?xml version="1.0" encoding="UTF-8"?>
<svg width="25px" height="19px" viewBox="0 0 25 19" version="1.1" xmlns="http://www.w3.org/2000/svg" xmlns:xlink="http://www.w3.org/1999/xlink">
    <!-- Generator: Sketch 55.2 (78181) - https://sketchapp.com -->
    <title>users</title>
    <desc>Created with Sketch.</desc>
    <g id="Page-1" stroke="none" stroke-width="1" fill="none" fill-rule="evenodd">
        <g id="Match" transform="translate(-134.000000, -527.000000)" fill="#3F3F3F" fill-rule="nonzero">
            <g id="Group-6" transform="translate(39.000000, 108.000000)">
                <g id="Group">
                    <g id="Group-8" transform="translate(79.000000, 407.000000)">
                        <g id="users" transform="translate(16.000000, 12.750039)">
                            <path d="M3.74999702,7.49998212 C3.07290954,7.49998212 2.48697344,7.25258707 1.99218275,6.75779639 C1.49739206,6.2630057 1.24999702,5.6770696 1.24999702,4.99999404 C1.24999702,4.32290656 1.49739206,3.73697046 1.99218275,3.24217977 C2.48697344,2.74738908 3.07290954,2.49999404 3.74999702,2.49999404 C4.42707258,2.49999404 5.01300868,2.74738908 5.50779937,3.24217977 C6.00259005,3.73697046 6.2499851,4.32290656 6.2499851,4.99999404 C6.2499851,5.6770696 6.00259005,6.2630057 5.50779937,6.75779639 C5.01300868,7.25258707 4.42707258,7.49998212 3.74999702,7.49998212 Z M21.2499553,7.49998212 C20.5728678,7.49998212 19.9869317,7.25258707 19.492141,6.75779639 C18.9973503,6.2630057 18.7499553,5.6770696 18.7499553,4.99999404 C18.7499553,4.32290656 18.9973503,3.73697046 19.492141,3.24217977 C19.9869317,2.74738908 20.5728678,2.49999404 21.2499553,2.49999404 C21.9270309,2.49999404 22.512967,2.74738908 23.0077576,3.24217977 C23.5025483,3.73697046 23.7499434,4.32290656 23.7499434,4.99999404 C23.7499434,5.6770696 23.5025483,6.2630057 23.0077576,6.75779639 C22.512967,7.25258707 21.9270309,7.49998212 21.2499553,7.49998212 Z M22.4999464,8.74997914 C23.1770279,8.74997914 23.762964,8.99737418 24.2577547,9.49216487 C24.7525454,9.98695555 24.9999404,10.5728917 24.9999404,11.2499791 L24.9999404,12.4999702 C24.9999404,12.8385113 24.8762426,13.1314793 24.6288475,13.3788744 C24.3814525,13.6262694 24.0884844,13.7499672 23.7499434,13.7499672 L21.1718245,13.7499672 C21.0416167,12.8385113 20.7160962,12.0051795 20.1952644,11.2499791 C19.6744325,10.4947668 19.0233921,9.90883074 18.242144,9.49216487 C18.7369347,8.99737418 19.3228708,8.74997914 19.9999523,8.74997914 L22.4999464,8.74997914 Z M12.4999702,8.74997914 C11.7187221,8.74997914 10.9895569,8.5546671 10.3124754,8.16404304 C9.63539389,7.77341897 9.1015408,7.23956587 8.71091673,6.56248435 C8.32029266,5.88540283 8.12498063,5.15623771 8.12498063,4.37498957 C8.12498063,3.59374143 8.32029266,2.8645763 8.71091673,2.18749478 C9.1015408,1.51041326 9.63539389,0.976560172 10.3124754,0.585936103 C10.9895569,0.195312034 11.7187221,-1.77635684e-15 12.4999702,-1.77635684e-15 C13.2812183,-1.77635684e-15 14.0103835,0.195312034 14.687465,0.585936103 C15.3645465,0.976560172 15.8983996,1.51041326 16.2890237,2.18749478 C16.6796477,2.8645763 16.8749598,3.59374143 16.8749598,4.37498957 C16.8749598,5.15623771 16.6796477,5.88540283 16.2890237,6.56248435 C15.8983996,7.23956587 15.3645465,7.77341897 14.687465,8.16404304 C14.0103835,8.5546671 13.2812183,8.74997914 12.4999702,8.74997914 Z M15.5077755,9.99997616 C16.3150655,9.99997616 17.0637612,10.2017988 17.7538639,10.6054435 C18.4439666,11.0090881 18.9908403,11.5559618 19.394485,12.2460646 C19.7981297,12.9361673 19.9999523,13.684863 19.9999523,14.4921529 L19.9999523,15.6249627 C19.9999523,16.1457946 19.8176609,16.5885023 19.4530786,16.9530846 C19.0884964,17.3176668 18.6457887,17.4999583 18.1249568,17.4999583 L6.87498361,17.4999583 C6.35415172,17.4999583 5.91144404,17.3176668 5.54686178,16.9530846 C5.18227951,16.5885023 4.99998808,16.1457946 4.99998808,15.6249627 L4.99998808,14.4921529 C4.99998808,13.684863 5.20181071,12.9361673 5.60545539,12.2460646 C6.00910006,11.5559618 6.55597375,11.0090881 7.24607647,10.6054435 C7.93617919,10.2017988 8.68487493,9.99997616 9.49216487,9.99997616 L9.80466412,9.99997616 C10.6900789,10.416642 11.5885142,10.6249747 12.4999702,10.6249747 C13.4114262,10.6249747 14.3098615,10.416642 15.1952763,9.99997616 L15.5077755,9.99997616 Z M6.75779639,9.49216487 C5.97654825,9.90883074 5.32550794,10.4947668 4.80467604,11.2499791 C4.28384415,12.0051795 3.9583237,12.8385113 3.82811587,13.7499672 L1.24999702,13.7499672 C0.911455962,13.7499672 0.61848791,13.6262694 0.371092865,13.3788744 C0.12369782,13.1314793 1.77635684e-15,12.8385113 1.77635684e-15,12.4999702 L1.77635684e-15,11.2499791 C1.77635684e-15,10.5728917 0.247395045,9.98695555 0.74218573,9.49216487 C1.23697642,8.99737418 1.82291252,8.74997914 2.5,8.74997914 L4.99998808,8.74997914 C5.6770696,8.74997914 6.2630057,8.99737418 6.75779639,9.49216487 Z" id="u"></path>
                        </g>
                    </g>
                </g>
            </g>
        </g>
    </g>
</svg>